<?xml version="1.0" encoding="utf-8"?>
<svg
	version="1.1"
	xmlns="http://www.w3.org/2000/svg"
	xmlns:xlink="http://www.w3.org/1999/xlink"
	x="0%" y="0%"
	width="100%" height="100%"
	viewBox="0 0 2045.0 2752.0"
	enable-background="new 0 0 2045.0 2752.0"
	xml:space="preserve">
	<path
		fill="#9F9F9F"
		stroke="#9F9F9F"
		fill-opacity="0.5"
		stroke-opacity="0.5"
		fill-rule="nonzero"
		stroke-width="0.30644017"
		stroke-linejoin="miter"
		stroke-linecap="round"
		d="M451.85,2436.31C448.50,2434.21,447.49,2429.80,449.58,2426.45C451.68,2423.10,456.09,2422.09,459.44,2424.19C462.79,2426.28,463.80,2430.70,461.71,2434.04C459.61,2437.39,455.20,2438.41,451.85,2436.31z"/>
	<path
		fill="#000000"
		stroke="#9F9F9F"
		fill-opacity="0.000"
		stroke-opacity="0.5"
		fill-rule="nonzero"
		stroke-width="6.135"
		stroke-linejoin="miter"
		stroke-linecap="round"
		d="M568.01,2441.04L498.43,2457.04L482.43,2387.46L412.85,2403.46L396.85,2333.88"/>
	<path
		fill="#000000"
		stroke="#9F9F9F"
		fill-opacity="0.000"
		stroke-opacity="0.5"
		fill-rule="nonzero"
		stroke-width="6.135"
		stroke-linejoin="miter"
		stroke-linecap="round"
		d="M669.59,2564.20L600.02,2580.20L584.01,2510.62L514.43,2526.62L498.43,2457.04L428.85,2473.04L412.85,2403.46L343.28,2419.46L327.27,2349.88"/>
	<path
		fill="#000000"
		stroke="#9F9F9F"
		fill-opacity="0.000"
		stroke-opacity="0.5"
		fill-rule="nonzero"
		stroke-width="6.135"
		stroke-linejoin="miter"
		stroke-linecap="round"
		d="M1731.76,1495.72A60.37 60.37 358.93 1 1 1611.03,1497.97A60.37 60.37 358.93 1 0 1603.25,1481.74"/>
	<path
		fill="#000000"
		stroke="#9F9F9F"
		fill-opacity="0.000"
		stroke-opacity="0.5"
		fill-rule="nonzero"
		stroke-width="6.135"
		stroke-linejoin="miter"
		stroke-linecap="round"
		d="M1821.73,1599.17A60.37 60.37 213.95 1 1 1721.57,1531.74A60.37 60.37 213.95 1 0 1621.40,1464.32A60.37 60.37 213.95 1 1 1521.24,1396.89A60.37 60.37 213.95 1 0 1421.07,1329.47"/>
	<path
		fill="#000000"
		stroke="#9F9F9F"
		fill-opacity="0.004"
		stroke-opacity="0.5"
		fill-rule="nonzero"
		stroke-width="6.135"
		stroke-linejoin="miter"
		stroke-linecap="round"
		d="M248.91,1798.19L297.62,1832.33L263.49,1881.04L214.78,1846.91z"/>
	<path
		fill="#000000"
		stroke="#9F9F9F"
		fill-opacity="0.000"
		stroke-opacity="0.5"
		fill-rule="nonzero"
		stroke-width="6.135"
		stroke-linejoin="miter"
		stroke-linecap="round"
		d="M309.90,1795.81L349.82,1823.79L322.27,1863.10L282.35,1835.13z"/>
	<path
		fill="#000000"
		stroke="#9F9F9F"
		fill-opacity="0.000"
		stroke-opacity="0.5"
		fill-rule="nonzero"
		stroke-width="6.135"
		stroke-linejoin="miter"
		stroke-linecap="round"
		d="M287.97,1916.01L261.44,1863.04L228.36,1904.73L287.97,1916.01z"/>
	<path
		fill="#000000"
		stroke="#9F9F9F"
		fill-opacity="0.000"
		stroke-opacity="0.5"
		fill-rule="nonzero"
		stroke-width="6.135"
		stroke-linejoin="miter"
		stroke-linecap="round"
		d="M1169.60,2584.94L1239.78,2614.32L1237.10,2546.03L1169.60,2584.94z"/>
	<path
		fill="#000000"
		stroke="#9F9F9F"
		fill-opacity="0.004"
		stroke-opacity="0.5"
		fill-rule="nonzero"
		stroke-width="6.135"
		stroke-linejoin="miter"
		stroke-linecap="round"
		d="M1132.81,1425.54L1054.08,1376.96L1102.66,1298.24L1181.39,1346.82z"/>
	<path
		fill="#000000"
		stroke="#9F9F9F"
		fill-opacity="0.000"
		stroke-opacity="0.5"
		fill-rule="nonzero"
		stroke-width="6.135"
		stroke-linejoin="miter"
		stroke-linecap="round"
		d="M1173.57,1465.72L1109.06,1425.91L1148.27,1362.37L1212.78,1402.18z"/>
	<path
		fill="#000000"
		stroke="#9F9F9F"
		fill-opacity="0.000"
		stroke-opacity="0.5"
		fill-rule="nonzero"
		stroke-width="6.135"
		stroke-linejoin="miter"
		stroke-linecap="round"
		d="M1239.28,2589.26C1215.40,2590.47,1195.07,2572.08,1193.87,2548.20C1192.66,2524.32,1211.05,2503.99,1234.93,2502.79C1258.80,2501.58,1279.14,2519.97,1280.34,2543.85C1281.54,2567.73,1263.16,2588.06,1239.28,2589.26z"/>
	<path
		fill="#000000"
		stroke="#9F9F9F"
		fill-opacity="0.000"
		stroke-opacity="0.5"
		fill-rule="nonzero"
		stroke-width="6.135"
		stroke-linejoin="miter"
		stroke-linecap="round"
		d="M1618.44,1758.52L1697.80,1831.53"/>
	<path
		fill="#000000"
		stroke="#9F9F9F"
		fill-opacity="0.000"
		stroke-opacity="0.5"
		fill-rule="nonzero"
		stroke-width="6.135"
		stroke-linejoin="miter"
		stroke-linecap="round"
		d="M1593.30,1783.84L1672.66,1856.85"/>
	<path
		fill="#000000"
		stroke="#9F9F9F"
		fill-opacity="0.000"
		stroke-opacity="0.5"
		fill-rule="nonzero"
		stroke-width="6.135"
		stroke-linejoin="miter"
		stroke-linecap="round"
		d="M1568.16,1809.16L1647.52,1882.17"/>
	<path
		fill="#9F9F9F"
		stroke="#9F9F9F"
		fill-opacity="0.5"
		stroke-opacity="0.5"
		fill-rule="nonzero"
		stroke-width="0.31501737"
		stroke-linejoin="miter"
		stroke-linecap="round"
		d="M488.30,1464.77C488.08,1461.02,490.93,1457.81,494.68,1457.59C498.42,1457.36,501.63,1460.22,501.86,1463.96C502.08,1467.71,499.22,1470.92,495.48,1471.15C491.74,1471.37,488.52,1468.51,488.30,1464.77z"/>
	<path
		fill="#9F9F9F"
		stroke="#9F9F9F"
		fill-opacity="0.5"
		stroke-opacity="0.5"
		fill-rule="nonzero"
		stroke-width="0.31501737"
		stroke-linejoin="miter"
		stroke-linecap="round"
		d="M501.54,1449.86C501.32,1446.11,504.17,1442.90,507.92,1442.68C511.66,1442.45,514.88,1445.31,515.10,1449.05C515.32,1452.80,512.47,1456.01,508.72,1456.23C504.98,1456.46,501.76,1453.60,501.54,1449.86z"/>
	<path
		fill="#9F9F9F"
		stroke="#9F9F9F"
		fill-opacity="0.5"
		stroke-opacity="0.5"
		fill-rule="nonzero"
		stroke-width="0.31501737"
		stroke-linejoin="miter"
		stroke-linecap="round"
		d="M514.78,1434.95C514.56,1431.20,517.42,1427.99,521.16,1427.76C524.90,1427.54,528.12,1430.40,528.34,1434.14C528.56,1437.89,525.71,1441.10,521.96,1441.32C518.22,1441.54,515.00,1438.69,514.78,1434.95z"/>
	<path
		fill="#9F9F9F"
		stroke="#9F9F9F"
		fill-opacity="0.5"
		stroke-opacity="0.5"
		fill-rule="nonzero"
		stroke-width="0.31501737"
		stroke-linejoin="miter"
		stroke-linecap="round"
		d="M528.03,1420.03C527.80,1416.29,530.66,1413.07,534.40,1412.85C538.15,1412.63,541.36,1415.49,541.58,1419.23C541.81,1422.97,538.95,1426.19,535.21,1426.41C531.46,1426.63,528.25,1423.78,528.03,1420.03z"/>
	<path
		fill="#9F9F9F"
		stroke="#9F9F9F"
		fill-opacity="0.5"
		stroke-opacity="0.5"
		fill-rule="nonzero"
		stroke-width="0.31501737"
		stroke-linejoin="miter"
		stroke-linecap="round"
		d="M541.27,1405.12C541.05,1401.38,543.90,1398.16,547.65,1397.94C551.39,1397.72,554.61,1400.58,554.83,1404.32C555.05,1408.06,552.19,1411.28,548.45,1411.50C544.71,1411.72,541.49,1408.87,541.27,1405.12z"/>
	<path
		fill="#9F9F9F"
		stroke="#9F9F9F"
		fill-opacity="0.5"
		stroke-opacity="0.5"
		fill-rule="nonzero"
		stroke-width="0.31501737"
		stroke-linejoin="miter"
		stroke-linecap="round"
		d="M554.63,1390.08C554.41,1386.33,557.27,1383.12,561.01,1382.89C564.75,1382.67,567.97,1385.53,568.19,1389.27C568.41,1393.02,565.56,1396.23,561.81,1396.45C558.07,1396.68,554.85,1393.82,554.63,1390.08z"/>
	<path
		fill="#9F9F9F"
		stroke="#9F9F9F"
		fill-opacity="0.5"
		stroke-opacity="0.5"
		fill-rule="nonzero"
		stroke-width="0.31501737"
		stroke-linejoin="miter"
		stroke-linecap="round"
		d="M568.00,1375.03C567.77,1371.28,570.63,1368.07,574.37,1367.85C578.12,1367.62,581.33,1370.48,581.55,1374.22C581.78,1377.97,578.92,1381.18,575.18,1381.41C571.43,1381.63,568.22,1378.77,568.00,1375.03z"/>
	<path
		fill="#9F9F9F"
		stroke="#9F9F9F"
		fill-opacity="0.5"
		stroke-opacity="0.5"
		fill-rule="nonzero"
		stroke-width="0.31501737"
		stroke-linejoin="miter"
		stroke-linecap="round"
		d="M580.03,1361.48C579.81,1357.74,582.66,1354.52,586.40,1354.30C590.15,1354.08,593.36,1356.93,593.59,1360.68C593.81,1364.42,590.95,1367.64,587.21,1367.86C583.46,1368.08,580.25,1365.22,580.03,1361.48z"/>
	<path
		fill="#9F9F9F"
		stroke="#9F9F9F"
		fill-opacity="0.5"
		stroke-opacity="0.5"
		fill-rule="nonzero"
		stroke-width="0.31501737"
		stroke-linejoin="miter"
		stroke-linecap="round"
		d="M510.82,1484.77C510.60,1481.03,513.46,1477.81,517.20,1477.59C520.95,1477.37,524.16,1480.22,524.38,1483.97C524.60,1487.71,521.75,1490.93,518.00,1491.15C514.26,1491.37,511.05,1488.52,510.82,1484.77z"/>
	<path
		fill="#9F9F9F"
		stroke="#9F9F9F"
		fill-opacity="0.5"
		stroke-opacity="0.5"
		fill-rule="nonzero"
		stroke-width="0.31501737"
		stroke-linejoin="miter"
		stroke-linecap="round"
		d="M524.07,1469.86C523.84,1466.12,526.70,1462.90,530.44,1462.68C534.19,1462.46,537.40,1465.31,537.63,1469.06C537.85,1472.80,534.99,1476.02,531.25,1476.24C527.50,1476.46,524.29,1473.61,524.07,1469.86z"/>
	<path
		fill="#9F9F9F"
		stroke="#9F9F9F"
		fill-opacity="0.5"
		stroke-opacity="0.5"
		fill-rule="nonzero"
		stroke-width="0.31501737"
		stroke-linejoin="miter"
		stroke-linecap="round"
		d="M537.31,1454.95C537.09,1451.21,539.94,1447.99,543.69,1447.77C547.43,1447.55,550.65,1450.40,550.87,1454.15C551.09,1457.89,548.23,1461.11,544.49,1461.33C540.75,1461.55,537.53,1458.69,537.31,1454.95z"/>
	<path
		fill="#9F9F9F"
		stroke="#9F9F9F"
		fill-opacity="0.5"
		stroke-opacity="0.5"
		fill-rule="nonzero"
		stroke-width="0.31501737"
		stroke-linejoin="miter"
		stroke-linecap="round"
		d="M550.55,1440.04C550.33,1436.29,553.19,1433.08,556.93,1432.86C560.67,1432.64,563.89,1435.49,564.11,1439.24C564.33,1442.98,561.48,1446.19,557.73,1446.42C553.99,1446.64,550.77,1443.78,550.55,1440.04z"/>
	<path
		fill="#9F9F9F"
		stroke="#9F9F9F"
		fill-opacity="0.5"
		stroke-opacity="0.5"
		fill-rule="nonzero"
		stroke-width="0.31501737"
		stroke-linejoin="miter"
		stroke-linecap="round"
		d="M563.79,1425.13C563.57,1421.38,566.43,1418.17,570.17,1417.95C573.92,1417.72,577.13,1420.58,577.35,1424.32C577.58,1428.07,574.72,1431.28,570.98,1431.51C567.23,1431.73,564.02,1428.87,563.79,1425.13z"/>
	<path
		fill="#9F9F9F"
		stroke="#9F9F9F"
		fill-opacity="0.5"
		stroke-opacity="0.5"
		fill-rule="nonzero"
		stroke-width="0.31501737"
		stroke-linejoin="miter"
		stroke-linecap="round"
		d="M577.16,1410.08C576.94,1406.34,579.79,1403.12,583.54,1402.90C587.28,1402.68,590.49,1405.53,590.72,1409.28C590.94,1413.02,588.08,1416.24,584.34,1416.46C580.60,1416.68,577.38,1413.82,577.16,1410.08z"/>
	<path
		fill="#9F9F9F"
		stroke="#9F9F9F"
		fill-opacity="0.5"
		stroke-opacity="0.5"
		fill-rule="nonzero"
		stroke-width="0.31501737"
		stroke-linejoin="miter"
		stroke-linecap="round"
		d="M590.52,1395.03C590.30,1391.29,593.15,1388.07,596.90,1387.85C600.64,1387.63,603.86,1390.49,604.08,1394.23C604.30,1397.97,601.45,1401.19,597.70,1401.41C593.96,1401.63,590.74,1398.78,590.52,1395.03z"/>
	<path
		fill="#9F9F9F"
		stroke="#9F9F9F"
		fill-opacity="0.5"
		stroke-opacity="0.5"
		fill-rule="nonzero"
		stroke-width="0.31501737"
		stroke-linejoin="miter"
		stroke-linecap="round"
		d="M602.55,1381.49C602.33,1377.74,605.19,1374.53,608.93,1374.30C612.67,1374.08,615.89,1376.94,616.11,1380.68C616.33,1384.43,613.48,1387.64,609.73,1387.86C605.99,1388.09,602.77,1385.23,602.55,1381.49z"/>
	<path
		fill="#9F9F9F"
		stroke="#9F9F9F"
		fill-opacity="0.5"
		stroke-opacity="0.5"
		fill-rule="nonzero"
		stroke-width="0.31501737"
		stroke-linejoin="miter"
		stroke-linecap="round"
		d="M533.35,1504.78C533.13,1501.03,535.98,1497.82,539.73,1497.60C543.47,1497.37,546.69,1500.23,546.91,1503.97C547.13,1507.72,544.28,1510.93,540.53,1511.16C536.79,1511.38,533.57,1508.52,533.35,1504.78z"/>
	<path
		fill="#9F9F9F"
		stroke="#9F9F9F"
		fill-opacity="0.5"
		stroke-opacity="0.5"
		fill-rule="nonzero"
		stroke-width="0.31501737"
		stroke-linejoin="miter"
		stroke-linecap="round"
		d="M546.59,1489.87C546.37,1486.12,549.23,1482.91,552.97,1482.69C556.71,1482.46,559.93,1485.32,560.15,1489.06C560.37,1492.81,557.52,1496.02,553.77,1496.24C550.03,1496.47,546.81,1493.61,546.59,1489.87z"/>
	<path
		fill="#9F9F9F"
		stroke="#9F9F9F"
		fill-opacity="0.5"
		stroke-opacity="0.5"
		fill-rule="nonzero"
		stroke-width="0.31501737"
		stroke-linejoin="miter"
		stroke-linecap="round"
		d="M559.84,1474.96C559.61,1471.21,562.47,1468.00,566.21,1467.77C569.96,1467.55,573.17,1470.41,573.39,1474.15C573.62,1477.90,570.76,1481.11,567.02,1481.33C563.27,1481.55,560.06,1478.70,559.84,1474.96z"/>
	<path
		fill="#9F9F9F"
		stroke="#9F9F9F"
		fill-opacity="0.5"
		stroke-opacity="0.5"
		fill-rule="nonzero"
		stroke-width="0.31501737"
		stroke-linejoin="miter"
		stroke-linecap="round"
		d="M573.08,1460.04C572.86,1456.30,575.71,1453.08,579.46,1452.86C583.20,1452.64,586.41,1455.50,586.64,1459.24C586.86,1462.98,584.00,1466.20,580.26,1466.42C576.51,1466.64,573.30,1463.79,573.08,1460.04z"/>
	<path
		fill="#9F9F9F"
		stroke="#9F9F9F"
		fill-opacity="0.5"
		stroke-opacity="0.5"
		fill-rule="nonzero"
		stroke-width="0.31501737"
		stroke-linejoin="miter"
		stroke-linecap="round"
		d="M586.32,1445.13C586.10,1441.39,588.95,1438.17,592.70,1437.95C596.44,1437.73,599.66,1440.58,599.88,1444.33C600.10,1448.07,597.25,1451.29,593.50,1451.51C589.76,1451.73,586.54,1448.88,586.32,1445.13z"/>
	<path
		fill="#9F9F9F"
		stroke="#9F9F9F"
		fill-opacity="0.5"
		stroke-opacity="0.5"
		fill-rule="nonzero"
		stroke-width="0.31501737"
		stroke-linejoin="miter"
		stroke-linecap="round"
		d="M599.68,1430.09C599.46,1426.34,602.32,1423.13,606.06,1422.90C609.81,1422.68,613.02,1425.54,613.24,1429.28C613.46,1433.03,610.61,1436.24,606.87,1436.46C603.12,1436.69,599.91,1433.83,599.68,1430.09z"/>
	<path
		fill="#9F9F9F"
		stroke="#9F9F9F"
		fill-opacity="0.5"
		stroke-opacity="0.5"
		fill-rule="nonzero"
		stroke-width="0.31501737"
		stroke-linejoin="miter"
		stroke-linecap="round"
		d="M613.05,1415.04C612.83,1411.29,615.68,1408.08,619.42,1407.86C623.17,1407.63,626.38,1410.49,626.61,1414.23C626.83,1417.98,623.97,1421.19,620.23,1421.42C616.48,1421.64,613.27,1418.78,613.05,1415.04z"/>
	<path
		fill="#9F9F9F"
		stroke="#9F9F9F"
		fill-opacity="0.5"
		stroke-opacity="0.5"
		fill-rule="nonzero"
		stroke-width="0.31501737"
		stroke-linejoin="miter"
		stroke-linecap="round"
		d="M625.08,1401.49C624.86,1397.75,627.71,1394.53,631.46,1394.31C635.20,1394.09,638.42,1396.94,638.64,1400.69C638.86,1404.43,636.00,1407.65,632.26,1407.87C628.52,1408.09,625.30,1405.23,625.08,1401.49z"/>
	<path
		fill="#FFFFFF"
		stroke="#9F9F9F"
		fill-opacity="0.000"
		stroke-opacity="0.5"
		fill-rule="nonzero"
		stroke-width="6.135"
		stroke-linejoin="miter"
		stroke-linecap="round"
		d="M1841.73,2225.14L1812.53,2292.61A12.25 12.25 0 0 1 1796.42,2298.99L1728.95,2269.79A12.25 12.25 0 0 1 1722.57,2253.67L1751.77,2186.20A12.25 12.25 0 0 1 1767.88,2179.82L1835.35,2209.02A12.25 12.25 0 0 1 1841.73,2225.14z"/>
	<path
		fill="#FFFFFF"
		stroke="#9F9F9F"
		fill-opacity="0.000"
		stroke-opacity="0.5"
		fill-rule="nonzero"
		stroke-width="6.135"
		stroke-linejoin="miter"
		stroke-linecap="round"
		d="M1856.00,2284.72L1826.80,2352.19A12.25 12.25 0 0 1 1810.69,2358.57L1743.22,2329.37A12.25 12.25 0 0 1 1736.84,2313.26L1766.04,2245.78A12.25 12.25 0 0 1 1782.15,2239.41L1849.62,2268.61A12.25 12.25 0 0 1 1856.00,2284.72z"/>
	<path
		fill="#FFFFFF"
		stroke="#9F9F9F"
		fill-opacity="0.000"
		stroke-opacity="0.5"
		fill-rule="nonzero"
		stroke-width="6.529224"
		stroke-linejoin="miter"
		stroke-linecap="round"
		d="M1767.22,2321.37L1738.02,2388.85A12.25 12.25 0 0 1 1721.90,2395.22L1654.43,2366.02A12.25 12.25 0 0 1 1648.05,2349.91L1677.26,2282.44A12.25 12.25 0 0 1 1693.37,2276.06L1760.84,2305.26A12.25 12.25 0 0 1 1767.22,2321.37z"/>
	<path
		fill="#9F9F9F"
		stroke="#9F9F9F"
		fill-opacity="0.5"
		stroke-opacity="0.5"
		fill-rule="nonzero"
		stroke-width="0.053551357"
		stroke-linejoin="miter"
		stroke-linecap="round"
		d="M1745.35,2174.61C1747.20,2179.09,1745.07,2184.21,1740.60,2186.06C1736.12,2187.91,1731.00,2185.78,1729.15,2181.30C1727.30,2176.83,1729.43,2171.70,1733.91,2169.86C1738.38,2168.01,1743.51,2170.14,1745.35,2174.61z"/>
	<path
		fill="#9F9F9F"
		stroke="#9F9F9F"
		fill-opacity="0.5"
		stroke-opacity="0.5"
		fill-rule="nonzero"
		stroke-width="0.053551357"
		stroke-linejoin="miter"
		stroke-linecap="round"
		d="M1738.18,2191.87C1740.03,2196.35,1737.90,2201.47,1733.43,2203.32C1728.95,2205.17,1723.83,2203.04,1721.98,2198.56C1720.13,2194.09,1722.26,2188.96,1726.74,2187.12C1731.21,2185.27,1736.34,2187.40,1738.18,2191.87z"/>
	<path
		fill="#9F9F9F"
		stroke="#9F9F9F"
		fill-opacity="0.5"
		stroke-opacity="0.5"
		fill-rule="nonzero"
		stroke-width="0.053551357"
		stroke-linejoin="miter"
		stroke-linecap="round"
		d="M1731.01,2209.13C1732.86,2213.60,1730.73,2218.73,1726.26,2220.58C1721.78,2222.42,1716.66,2220.29,1714.81,2215.82C1712.96,2211.35,1715.09,2206.22,1719.57,2204.37C1724.04,2202.53,1729.16,2204.66,1731.01,2209.13z"/>
	<path
		fill="#9F9F9F"
		stroke="#9F9F9F"
		fill-opacity="0.5"
		stroke-opacity="0.5"
		fill-rule="nonzero"
		stroke-width="0.053551357"
		stroke-linejoin="miter"
		stroke-linecap="round"
		d="M1723.84,2226.39C1725.69,2230.86,1723.56,2235.99,1719.08,2237.84C1714.61,2239.68,1709.49,2237.55,1707.64,2233.08C1705.79,2228.61,1707.92,2223.48,1712.39,2221.63C1716.87,2219.79,1721.99,2221.92,1723.84,2226.39z"/>
	<path
		fill="#9F9F9F"
		stroke="#9F9F9F"
		fill-opacity="0.5"
		stroke-opacity="0.5"
		fill-rule="nonzero"
		stroke-width="0.053551357"
		stroke-linejoin="miter"
		stroke-linecap="round"
		d="M1716.67,2243.65C1718.52,2248.12,1716.39,2253.25,1711.91,2255.09C1707.44,2256.94,1702.31,2254.81,1700.47,2250.34C1698.62,2245.86,1700.75,2240.74,1705.22,2238.89C1709.70,2237.04,1714.82,2239.17,1716.67,2243.65z"/>
	<path
		fill="#9E9E9E"
		stroke="#9E9E9E"
		fill-opacity="0.000"
		stroke-opacity="0.5"
		fill-rule="nonzero"
		stroke-width="6.135"
		stroke-linejoin="miter"
		stroke-linecap="round"
		d="M1808.74,1515.52C1808.81,1534.19,1793.72,1549.39,1775.05,1549.45C1756.38,1549.52,1741.18,1534.44,1741.12,1515.76C1741.05,1497.09,1756.13,1481.90,1774.81,1481.83C1793.48,1481.76,1808.67,1496.84,1808.74,1515.52z"/>
</svg>