<?xml version="1.0" encoding="UTF-8" standalone="no"?>
<svg
   version="1.1"
   x="0%"
   y="0%"
   width="100%"
   height="100%"
   viewBox="0 0 2045.0 2752.0"
   enable-background="new 0 0 2045.0 2752.0"
   xml:space="preserve"
   id="svg77"
   sodipodi:docname="profileBG.svg"
   inkscape:version="1.1.2 (b8e25be833, 2022-02-05)"
   xmlns:inkscape="http://www.inkscape.org/namespaces/inkscape"
   xmlns:sodipodi="http://sodipodi.sourceforge.net/DTD/sodipodi-0.dtd"
   xmlns="http://www.w3.org/2000/svg"
   xmlns:svg="http://www.w3.org/2000/svg"><sodipodi:namedview
   id="namedview79"
   pagecolor="#505050"
   bordercolor="#eeeeee"
   borderopacity="1"
   inkscape:pageshadow="0"
   inkscape:pageopacity="0"
   inkscape:pagecheckerboard="0"
   showgrid="false"
   inkscape:zoom="0.5872093"
   inkscape:cx="719.50495"
   inkscape:cy="1079.6832"
   inkscape:window-width="1920"
   inkscape:window-height="1017"
   inkscape:window-x="-8"
   inkscape:window-y="-8"
   inkscape:window-maximized="1"
   inkscape:current-layer="g613" />
<defs
   id="defs71">
<filter
   id="glow0"
   x="-0.017409073"
   y="-0.019244083"
   width="1.0348181"
   height="1.0430083">
	<feOffset
   result="offOut"
   in="SourceGraphic"
   dx="0.0"
   dy="0.0"
   id="feOffset45" />
	<feGaussianBlur
   result="blurOut"
   in="offOut"
   stdDeviation="10.385543"
   id="feGaussianBlur47" />
	<feFlood
   flood-color="#000000"
   flood-opacity="0.2"
   result="flood"
   id="feFlood49" />
	<feComposite
   in="flood"
   in2="blurOut"
   operator="in"
   result="blendOut0"
   id="feComposite51" />
	<feBlend
   in="blendOut0"
   in2="blendOut0"
   result="blendOut1"
   mode="normal"
   id="feBlend53" />
	<feBlend
   in="SourceGraphic"
   in2="blendOut1"
   mode="normal"
   id="feBlend55" />
</filter>

<filter
   id="glow1"
   x="-0.017693694"
   y="-0.018643462"
   width="1.0353874"
   height="1.0415956">
	<feOffset
   result="offOut"
   in="SourceGraphic"
   dx="0.0"
   dy="0.0"
   id="feOffset58" />
	<feGaussianBlur
   result="blurOut"
   in="offOut"
   stdDeviation="10.628064"
   id="feGaussianBlur60" />
	<feFlood
   flood-color="#000000"
   flood-opacity="0.2"
   result="flood"
   id="feFlood62" />
	<feComposite
   in="flood"
   in2="blurOut"
   operator="in"
   result="blendOut0"
   id="feComposite64" />
	<feBlend
   in="blendOut0"
   in2="blendOut0"
   result="blendOut1"
   mode="normal"
   id="feBlend66" />
	<feBlend
   in="SourceGraphic"
   in2="blendOut1"
   mode="normal"
   id="feBlend68" />
</filter>

<filter
   id="glow0-9"
   x="-0.017409073"
   y="-0.019244083"
   width="1.0348181"
   height="1.0430083">
	<feOffset
   result="offOut"
   in="SourceGraphic"
   dx="0.0"
   dy="0.0"
   id="feOffset388" />
	<feGaussianBlur
   result="blurOut"
   in="offOut"
   stdDeviation="10.385543"
   id="feGaussianBlur390" />
	<feFlood
   flood-color="#000000"
   flood-opacity="0.2"
   result="flood"
   id="feFlood392" />
	<feComposite
   in="flood"
   in2="blurOut"
   operator="in"
   result="blendOut0"
   id="feComposite394" />
	<feBlend
   in="blendOut0"
   in2="blendOut0"
   result="blendOut1"
   mode="normal"
   id="feBlend396" />
	<feBlend
   in="SourceGraphic"
   in2="blendOut1"
   mode="normal"
   id="feBlend398" />
</filter><filter
   id="glow1-7"
   x="-0.017693694"
   y="-0.018643463"
   width="1.0353874"
   height="1.0415956">
	<feOffset
   result="offOut"
   in="SourceGraphic"
   dx="0.0"
   dy="0.0"
   id="feOffset401" />
	<feGaussianBlur
   result="blurOut"
   in="offOut"
   stdDeviation="10.628064"
   id="feGaussianBlur403" />
	<feFlood
   flood-color="#000000"
   flood-opacity="0.2"
   result="flood"
   id="feFlood405" />
	<feComposite
   in="flood"
   in2="blurOut"
   operator="in"
   result="blendOut0"
   id="feComposite407" />
	<feBlend
   in="blendOut0"
   in2="blendOut0"
   result="blendOut1"
   mode="normal"
   id="feBlend409" />
	<feBlend
   in="SourceGraphic"
   in2="blendOut1"
   mode="normal"
   id="feBlend411" />
</filter><clipPath
   clipPathUnits="userSpaceOnUse"
   id="clipPath872"><path
     fill="#d5dbf4"
     stroke="#000000"
     fill-opacity="1"
     stroke-opacity="0"
     fill-rule="nonzero"
     stroke-width="21.3525"
     filter="url(#glow1)"
     stroke-linejoin="miter"
     stroke-linecap="square"
     d="m 2222.8551,30.83994 v 690.82 l -2045,1249.99996 V 58.35994"
     id="path874"
     style="display:inline;filter:url(#glow1-7)" /></clipPath><clipPath
   clipPathUnits="userSpaceOnUse"
   id="clipPath1337"><path
     fill="#cee7f1"
     stroke="#000000"
     fill-opacity="1"
     stroke-opacity="0"
     fill-rule="nonzero"
     stroke-width="21.3525"
     filter="url(#glow0)"
     stroke-linejoin="miter"
     stroke-linecap="square"
     d="M -66.756664,51.013798 V 651.0138 l 2044.999964,1250 V 51.013798"
     id="path1339"
     style="display:inline;filter:url(#glow0-9)" /></clipPath></defs>
	<path
   fill="#cee7f1"
   stroke="#000000"
   fill-opacity="1"
   stroke-opacity="0"
   fill-rule="nonzero"
   stroke-width="21.3525"
   filter="url(#glow0)"
   stroke-linejoin="miter"
   stroke-linecap="square"
   d="M 0,0 V 600 L 2045,1850 V 0"
   id="path73"
   style="display:inline" />
	
<g
   id="g440"
   style="display:inline" /><g
   id="g1220"
   transform="translate(66.756664,-51.013798)"
   style="display:inline"
   clip-path="url(#clipPath1337)"><path
     fill="#9f9f9f"
     stroke="#9f9f9f"
     fill-opacity="0.5"
     stroke-opacity="0.5"
     fill-rule="nonzero"
     stroke-width="0.265599"
     stroke-linejoin="miter"
     stroke-linecap="round"
     d="m 1775.9651,842.08365 c 3.13,1.50195 4.4609,5.23632 2.9633,8.33841 -1.4836,3.10433 -5.2336,4.39704 -8.3636,2.8951 -3.1301,-1.50199 -4.4611,-5.23635 -2.9693,-8.34652 1.4895,-3.09622 5.2336,-4.39703 8.3696,-2.88699 z"
     id="path1049" /><path
     fill="#000000"
     stroke="#9f9f9f"
     fill-opacity="0"
     stroke-opacity="0.5"
     fill-rule="nonzero"
     stroke-width="5.31736"
     stroke-linejoin="miter"
     stroke-linecap="round"
     d="m 1712.8495,769.39509 20.9736,58.86991 57.9041,-20.00724 20.9656,58.87585 57.9181,-20.00507"
     id="path1051" /><path
     fill="#000000"
     stroke="#9f9f9f"
     fill-opacity="0"
     stroke-opacity="0.5"
     fill-rule="nonzero"
     stroke-width="5.31736"
     stroke-linejoin="miter"
     stroke-linecap="round"
     d="m 1576.0733,750.54764 20.9677,58.86184 57.9101,-19.99914 20.9656,58.87585 57.9064,-20.02119 20.9655,58.87584 57.9042,-20.00723 20.9736,58.86996 57.9101,-19.99914"
     id="path1053" /><path
     fill="#000000"
     stroke="#9f9f9f"
     fill-opacity="0"
     stroke-opacity="0.5"
     fill-rule="nonzero"
     stroke-width="5.73949"
     stroke-linejoin="miter"
     stroke-linecap="round"
     d="m 1019.8044,560.85782 a 42.83,43.78 83.23 1 0 -10.12,-85.05 41.89,42.83 83.23 1 1 -11.91004,-3.93"
     id="path1055" /><path
     fill="#000000"
     stroke="#9f9f9f"
     fill-opacity="0"
     stroke-opacity="0.5"
     fill-rule="nonzero"
     stroke-width="5.73949"
     stroke-linejoin="miter"
     stroke-linecap="round"
     d="m 1099.6244,614.29782 a 42.537424,43.48759 48.22 1 0 -56.04,-64.01 42.54,43.48 48.22 1 1 -56.03004,-64.01 42.534129,43.484221 48.22 1 0 -56.03,-64.01 42.537424,43.48759 48.22 1 1 -56.04,-64.01"
     id="path1057" /><path
     fill="#000000"
     stroke="#9f9f9f"
     fill-opacity="0.00400002"
     stroke-opacity="0.5"
     fill-rule="nonzero"
     stroke-width="6.20328"
     stroke-linejoin="miter"
     stroke-linecap="round"
     d="m 2030.6506,1036.2591 -44.2281,40.1563 -39.8579,-43.9121 44.2333,-40.14321 z"
     id="path1059" /><path
     fill="#000000"
     stroke="#9f9f9f"
     fill-opacity="0"
     stroke-opacity="0.5"
     fill-rule="nonzero"
     stroke-width="6.20328"
     stroke-linejoin="miter"
     stroke-linecap="round"
     d="m 2019.2149,1097.5939 -36.259,32.9118 -32.1615,-35.429 36.2591,-32.9118 z"
     id="path1061" /><path
     fill="#000000"
     stroke="#9f9f9f"
     fill-opacity="0"
     stroke-opacity="0.5"
     fill-rule="nonzero"
     stroke-width="6.20328"
     stroke-linejoin="miter"
     stroke-linecap="round"
     d="m 1693.8217,1119.3258 -22.14,74.29 -51.47,-44.98 z"
     id="path1065" /><path
     fill="#000000"
     stroke="#9f9f9f"
     fill-opacity="0.00400002"
     stroke-opacity="0.5"
     fill-rule="nonzero"
     stroke-width="6.135"
     stroke-linejoin="miter"
     stroke-linecap="round"
     d="m 346.44,1622.56 -84.84,-10.36 10.26,-84.02 84.83,10.36 z"
     id="path1067" /><path
     fill="#000000"
     stroke="#9f9f9f"
     fill-opacity="0"
     stroke-opacity="0.5"
     fill-rule="nonzero"
     stroke-width="6.135"
     stroke-linejoin="miter"
     stroke-linecap="round"
     d="m 395.51,1639.56 -69.52,-8.49 8.28,-67.82 69.51,8.48 z"
     id="path1069" /><path
     fill="#000000"
     stroke="#9f9f9f"
     fill-opacity="0"
     stroke-opacity="0.5"
     fill-rule="nonzero"
     stroke-width="6.20328"
     stroke-linejoin="miter"
     stroke-linecap="round"
     d="m 1652.5517,1177.4958 c -16.29,18.25 -43.98,20.13 -61.83,4.19 -17.86,-15.94 -19.13,-43.66 -2.84,-61.91 16.29,-18.25 43.98,-20.13 61.83,-4.19 17.86,15.94 19.13,43.66 2.84,61.91 z"
     id="path1071" /><path
     fill="#000000"
     stroke="#9f9f9f"
     fill-opacity="0"
     stroke-opacity="0.5"
     fill-rule="nonzero"
     stroke-width="6.20328"
     stroke-linejoin="miter"
     stroke-linecap="round"
     d="m 1494.3598,449.66574 -78.7,-75.61"
     id="path1073" /><path
     fill="#000000"
     stroke="#9f9f9f"
     fill-opacity="0"
     stroke-opacity="0.5"
     fill-rule="nonzero"
     stroke-width="6.20328"
     stroke-linejoin="miter"
     stroke-linecap="round"
     d="m 1520.8698,425.19574 -78.69,-75.61"
     id="path1075" /><path
     fill="#000000"
     stroke="#9f9f9f"
     fill-opacity="0"
     stroke-opacity="0.5"
     fill-rule="nonzero"
     stroke-width="6.20328"
     stroke-linejoin="miter"
     stroke-linecap="round"
     d="m 1547.3798,400.72574 -78.69,-75.61"
     id="path1077" /><path
     fill="#9f9f9f"
     stroke="#9f9f9f"
     fill-opacity="0.5"
     stroke-opacity="0.5"
     fill-rule="nonzero"
     stroke-width="0.318523"
     stroke-linejoin="miter"
     stroke-linecap="round"
     d="m 1154.4863,1180.2012 c -2.42,-2.86 -2.01,-7.19 0.91,-9.66 2.93,-2.47 7.26,-2.16 9.68,0.7 2.41,2.87 2,7.19 -0.92,9.66 -2.92,2.47 -7.26,2.16 -9.67,-0.7 z"
     id="path1079" /><path
     fill="#9f9f9f"
     stroke="#9f9f9f"
     fill-opacity="0.5"
     stroke-opacity="0.5"
     fill-rule="nonzero"
     stroke-width="0.318523"
     stroke-linejoin="miter"
     stroke-linecap="round"
     d="m 1156.3863,1160.1512 c -2.42,-2.87 -2.01,-7.19 0.91,-9.66 2.93,-2.47 7.26,-2.16 9.68,0.7 2.42,2.86 2.01,7.19 -0.92,9.66 -2.92,2.47 -7.25,2.16 -9.67,-0.7 z"
     id="path1081" /><path
     fill="#9f9f9f"
     stroke="#9f9f9f"
     fill-opacity="0.5"
     stroke-opacity="0.5"
     fill-rule="nonzero"
     stroke-width="0.318523"
     stroke-linejoin="miter"
     stroke-linecap="round"
     d="m 1158.2863,1140.0912 c -2.42,-2.86 -2.01,-7.18 0.91,-9.65 2.93,-2.47 7.26,-2.16 9.68,0.7 2.42,2.86 2.01,7.19 -0.92,9.66 -2.92,2.47 -7.25,2.16 -9.67,-0.71 z"
     id="path1083" /><path
     fill="#9f9f9f"
     stroke="#9f9f9f"
     fill-opacity="0.5"
     stroke-opacity="0.5"
     fill-rule="nonzero"
     stroke-width="0.318523"
     stroke-linejoin="miter"
     stroke-linecap="round"
     d="m 1160.1863,1120.0412 c -2.42,-2.86 -2.01,-7.18 0.91,-9.65 2.93,-2.48 7.26,-2.16 9.68,0.7 2.42,2.86 2.01,7.19 -0.92,9.66 -2.92,2.47 -7.25,2.15 -9.67,-0.71 z"
     id="path1085" /><path
     fill="#9f9f9f"
     stroke="#9f9f9f"
     fill-opacity="0.5"
     stroke-opacity="0.5"
     fill-rule="nonzero"
     stroke-width="0.318523"
     stroke-linejoin="miter"
     stroke-linecap="round"
     d="m 1162.0863,1099.9912 c -2.42,-2.86 -2.01,-7.18 0.92,-9.65 2.92,-2.48 7.25,-2.16 9.67,0.7 2.42,2.86 2.01,7.18 -0.91,9.66 -2.93,2.47 -7.26,2.15 -9.68,-0.71 z"
     id="path1087" /><path
     fill="#9f9f9f"
     stroke="#9f9f9f"
     fill-opacity="0.5"
     stroke-opacity="0.5"
     fill-rule="nonzero"
     stroke-width="0.318523"
     stroke-linejoin="miter"
     stroke-linecap="round"
     d="m 1164.0063,1079.7612 c -2.42,-2.86 -2.01,-7.19 0.92,-9.66 2.92,-2.47 7.25,-2.16 9.67,0.71 2.42,2.86 2.01,7.18 -0.92,9.65 -2.92,2.47 -7.25,2.16 -9.67,-0.7 z"
     id="path1089" /><path
     fill="#9f9f9f"
     stroke="#9f9f9f"
     fill-opacity="0.5"
     stroke-opacity="0.5"
     fill-rule="nonzero"
     stroke-width="0.318523"
     stroke-linejoin="miter"
     stroke-linecap="round"
     d="m 1165.9263,1059.5212 c -2.42,-2.86 -2.01,-7.18 0.91,-9.65 2.93,-2.48 7.26,-2.16 9.68,0.7 2.42,2.86 2.01,7.19 -0.92,9.66 -2.92,2.47 -7.25,2.15 -9.67,-0.71 z"
     id="path1091" /><path
     fill="#9f9f9f"
     stroke="#9f9f9f"
     fill-opacity="0.5"
     stroke-opacity="0.5"
     fill-rule="nonzero"
     stroke-width="0.318523"
     stroke-linejoin="miter"
     stroke-linecap="round"
     d="m 1167.6563,1041.3112 c -2.42,-2.87 -2.01,-7.19 0.91,-9.66 2.93,-2.47 7.26,-2.16 9.68,0.7 2.41,2.86 2,7.19 -0.92,9.66 -2.92,2.47 -7.26,2.16 -9.67,-0.7 z"
     id="path1093" /><path
     fill="#9f9f9f"
     stroke="#9f9f9f"
     fill-opacity="0.5"
     stroke-opacity="0.5"
     fill-rule="nonzero"
     stroke-width="0.318523"
     stroke-linejoin="miter"
     stroke-linecap="round"
     d="m 1184.9063,1182.4112 c -2.42,-2.86 -2.01,-7.18 0.91,-9.65 2.93,-2.48 7.26,-2.16 9.68,0.7 2.41,2.86 2,7.18 -0.92,9.66 -2.92,2.47 -7.26,2.15 -9.67,-0.71 z"
     id="path1095" /><path
     fill="#9f9f9f"
     stroke="#9f9f9f"
     fill-opacity="0.5"
     stroke-opacity="0.5"
     fill-rule="nonzero"
     stroke-width="0.318523"
     stroke-linejoin="miter"
     stroke-linecap="round"
     d="m 1186.8063,1162.3612 c -2.42,-2.86 -2.01,-7.18 0.91,-9.66 2.93,-2.47 7.26,-2.15 9.68,0.71 2.42,2.86 2.01,7.18 -0.92,9.65 -2.92,2.48 -7.25,2.16 -9.67,-0.7 z"
     id="path1097" /><path
     fill="#9f9f9f"
     stroke="#9f9f9f"
     fill-opacity="0.5"
     stroke-opacity="0.5"
     fill-rule="nonzero"
     stroke-width="0.318523"
     stroke-linejoin="miter"
     stroke-linecap="round"
     d="m 1188.7063,1142.3112 c -2.42,-2.86 -2.01,-7.19 0.91,-9.66 2.93,-2.47 7.26,-2.15 9.68,0.71 2.42,2.86 2.01,7.18 -0.92,9.65 -2.92,2.47 -7.25,2.16 -9.67,-0.7 z"
     id="path1099" /><path
     fill="#9f9f9f"
     stroke="#9f9f9f"
     fill-opacity="0.5"
     stroke-opacity="0.5"
     fill-rule="nonzero"
     stroke-width="0.318523"
     stroke-linejoin="miter"
     stroke-linecap="round"
     d="m 1190.6063,1122.2612 c -2.42,-2.86 -2.01,-7.19 0.92,-9.66 2.92,-2.47 7.25,-2.16 9.67,0.7 2.42,2.87 2.01,7.19 -0.92,9.66 -2.92,2.47 -7.25,2.16 -9.67,-0.7 z"
     id="path1101" /><path
     fill="#9f9f9f"
     stroke="#9f9f9f"
     fill-opacity="0.5"
     stroke-opacity="0.5"
     fill-rule="nonzero"
     stroke-width="0.318523"
     stroke-linejoin="miter"
     stroke-linecap="round"
     d="m 1192.5063,1102.2112 c -2.42,-2.87 -2.01,-7.19 0.92,-9.66 2.92,-2.47 7.25,-2.16 9.67,0.7 2.42,2.86 2.01,7.19 -0.91,9.66 -2.93,2.47 -7.26,2.16 -9.68,-0.7 z"
     id="path1103" /><path
     fill="#9f9f9f"
     stroke="#9f9f9f"
     fill-opacity="0.5"
     stroke-opacity="0.5"
     fill-rule="nonzero"
     stroke-width="0.318523"
     stroke-linejoin="miter"
     stroke-linecap="round"
     d="m 1194.4263,1081.9712 c -2.42,-2.86 -2.01,-7.18 0.92,-9.66 2.92,-2.47 7.25,-2.15 9.67,0.71 2.42,2.86 2.01,7.18 -0.92,9.66 -2.92,2.47 -7.25,2.15 -9.67,-0.71 z"
     id="path1105" /><path
     fill="#9f9f9f"
     stroke="#9f9f9f"
     fill-opacity="0.5"
     stroke-opacity="0.5"
     fill-rule="nonzero"
     stroke-width="0.318523"
     stroke-linejoin="miter"
     stroke-linecap="round"
     d="m 1196.3463,1061.7412 c -2.42,-2.86 -2.01,-7.19 0.91,-9.66 2.93,-2.47 7.26,-2.16 9.68,0.7 2.42,2.87 2.01,7.19 -0.92,9.66 -2.92,2.47 -7.25,2.16 -9.67,-0.7 z"
     id="path1107" /><path
     fill="#9f9f9f"
     stroke="#9f9f9f"
     fill-opacity="0.5"
     stroke-opacity="0.5"
     fill-rule="nonzero"
     stroke-width="0.318523"
     stroke-linejoin="miter"
     stroke-linecap="round"
     d="m 1198.0763,1043.5212 c -2.42,-2.86 -2.01,-7.18 0.91,-9.66 2.93,-2.47 7.26,-2.15 9.68,0.71 2.41,2.86 2,7.18 -0.92,9.65 -2.92,2.48 -7.26,2.16 -9.67,-0.7 z"
     id="path1109" /><path
     fill="#9f9f9f"
     stroke="#9f9f9f"
     fill-opacity="0.5"
     stroke-opacity="0.5"
     fill-rule="nonzero"
     stroke-width="0.318523"
     stroke-linejoin="miter"
     stroke-linecap="round"
     d="m 1215.3263,1184.6312 c -2.42,-2.87 -2.01,-7.19 0.91,-9.66 2.93,-2.47 7.26,-2.16 9.68,0.7 2.42,2.86 2.01,7.19 -0.92,9.66 -2.92,2.47 -7.25,2.16 -9.67,-0.7 z"
     id="path1111" /><path
     fill="#9f9f9f"
     stroke="#9f9f9f"
     fill-opacity="0.5"
     stroke-opacity="0.5"
     fill-rule="nonzero"
     stroke-width="0.318523"
     stroke-linejoin="miter"
     stroke-linecap="round"
     d="m 1217.2263,1164.5712 c -2.42,-2.86 -2.01,-7.18 0.91,-9.65 2.93,-2.47 7.26,-2.16 9.68,0.7 2.42,2.86 2.01,7.19 -0.92,9.66 -2.92,2.47 -7.25,2.16 -9.67,-0.71 z"
     id="path1113" /><path
     fill="#9f9f9f"
     stroke="#9f9f9f"
     fill-opacity="0.5"
     stroke-opacity="0.5"
     fill-rule="nonzero"
     stroke-width="0.318523"
     stroke-linejoin="miter"
     stroke-linecap="round"
     d="m 1219.1263,1144.5212 c -2.42,-2.86 -2.01,-7.18 0.91,-9.65 2.93,-2.48 7.26,-2.16 9.68,0.7 2.42,2.86 2.01,7.19 -0.92,9.66 -2.92,2.47 -7.25,2.15 -9.67,-0.71 z"
     id="path1115" /><path
     fill="#9f9f9f"
     stroke="#9f9f9f"
     fill-opacity="0.5"
     stroke-opacity="0.5"
     fill-rule="nonzero"
     stroke-width="0.318523"
     stroke-linejoin="miter"
     stroke-linecap="round"
     d="m 1221.0263,1124.4712 c -2.42,-2.86 -2.01,-7.18 0.92,-9.66 2.92,-2.47 7.25,-2.15 9.67,0.71 2.42,2.86 2.01,7.18 -0.91,9.66 -2.93,2.47 -7.26,2.15 -9.68,-0.71 z"
     id="path1117" /><path
     fill="#9f9f9f"
     stroke="#9f9f9f"
     fill-opacity="0.5"
     stroke-opacity="0.5"
     fill-rule="nonzero"
     stroke-width="0.318523"
     stroke-linejoin="miter"
     stroke-linecap="round"
     d="m 1222.9263,1104.4212 c -2.42,-2.86 -2.01,-7.18 0.92,-9.66 2.92,-2.47 7.25,-2.15 9.67,0.71 2.42,2.86 2.01,7.18 -0.91,9.65 -2.93,2.48 -7.26,2.16 -9.68,-0.7 z"
     id="path1119" /><path
     fill="#9f9f9f"
     stroke="#9f9f9f"
     fill-opacity="0.5"
     stroke-opacity="0.5"
     fill-rule="nonzero"
     stroke-width="0.318523"
     stroke-linejoin="miter"
     stroke-linecap="round"
     d="m 1224.8463,1084.1912 c -2.42,-2.86 -2.01,-7.19 0.92,-9.66 2.92,-2.47 7.25,-2.16 9.67,0.7 2.42,2.86 2.01,7.19 -0.92,9.66 -2.92,2.47 -7.25,2.16 -9.67,-0.7 z"
     id="path1121" /><path
     fill="#9f9f9f"
     stroke="#9f9f9f"
     fill-opacity="0.5"
     stroke-opacity="0.5"
     fill-rule="nonzero"
     stroke-width="0.318523"
     stroke-linejoin="miter"
     stroke-linecap="round"
     d="m 1226.7663,1063.9512 c -2.42,-2.86 -2.01,-7.18 0.91,-9.66 2.93,-2.47 7.26,-2.15 9.68,0.71 2.42,2.86 2.01,7.18 -0.92,9.66 -2.92,2.47 -7.25,2.15 -9.67,-0.71 z"
     id="path1123" /><path
     fill="#9f9f9f"
     stroke="#9f9f9f"
     fill-opacity="0.5"
     stroke-opacity="0.5"
     fill-rule="nonzero"
     stroke-width="0.318523"
     stroke-linejoin="miter"
     stroke-linecap="round"
     d="m 1228.4963,1045.7312 c -2.42,-2.86 -2.01,-7.18 0.91,-9.65 2.93,-2.47 7.26,-2.16 9.68,0.7 2.42,2.86 2.01,7.19 -0.92,9.66 -2.92,2.47 -7.26,2.16 -9.67,-0.71 z"
     id="path1125" /><path
     fill="#ffffff"
     stroke="#9f9f9f"
     fill-opacity="0"
     stroke-opacity="0.5"
     fill-rule="nonzero"
     stroke-width="5.0203"
     stroke-linejoin="miter"
     stroke-linecap="round"
     d="m 238.24,437.76 53.06,-19.59 a 9.43,9.43 0 0 1 12.11,5.58 l 19.98,54.12 a 9.43,9.43 0 0 1 -5.58,12.11 l -53.06,19.59 a 9.43,9.43 0 0 1 -12.11,-5.58 l -19.98,-54.12 a 9.43,9.43 0 0 1 5.58,-12.11 z"
     id="path1127" /><path
     fill="#ffffff"
     stroke="#9f9f9f"
     fill-opacity="0"
     stroke-opacity="0.5"
     fill-rule="nonzero"
     stroke-width="4.71718"
     stroke-linejoin="miter"
     stroke-linecap="round"
     d="m 263.36,398.46 53.07,-19.59 a 9.43,9.43 0 0 1 12.1,5.58 l 19.98,54.12 a 9.43,9.43 0 0 1 -5.58,12.11 l -53.06,19.59 a 9.43,9.43 0 0 1 -12.11,-5.58 l -19.98,-54.12 a 9.43,9.43 0 0 1 5.58,-12.11 z"
     id="path1129" /><path
     fill="#ffffff"
     stroke="#9f9f9f"
     fill-opacity="0"
     stroke-opacity="0.5"
     fill-rule="nonzero"
     stroke-width="5.0203"
     stroke-linejoin="miter"
     stroke-linecap="round"
     d="m 331.18,429.14 53.06,-19.59 a 9.43,9.43 0 0 1 12.11,5.58 l 19.98,54.12 a 9.43,9.43 0 0 1 -5.58,12.11 l -53.06,19.59 a 9.43,9.43 0 0 1 -12.11,-5.58 L 325.6,441.25 a 9.43,9.43 0 0 1 5.58,-12.11 z"
     id="path1131" /><path
     fill="#9f9f9f"
     stroke="#9f9f9f"
     fill-opacity="0.5"
     stroke-opacity="0.5"
     fill-rule="nonzero"
     stroke-width="0.0411755"
     stroke-linejoin="miter"
     stroke-linecap="round"
     d="m 262.16,518.64 c 1.48,-3.35 5.44,-4.84 8.84,-3.33 3.41,1.51 4.96,5.45 3.48,8.8 -1.49,3.35 -5.45,4.84 -8.85,3.33 -3.4,-1.51 -4.96,-5.45 -3.47,-8.8 z"
     id="path1133" /><path
     fill="#9f9f9f"
     stroke="#9f9f9f"
     fill-opacity="0.5"
     stroke-opacity="0.5"
     fill-rule="nonzero"
     stroke-width="0.0411755"
     stroke-linejoin="miter"
     stroke-linecap="round"
     d="m 275.5,513.62 c 1.48,-3.35 5.45,-4.85 8.85,-3.34 3.4,1.51 4.96,5.45 3.47,8.8 -1.48,3.35 -5.44,4.84 -8.85,3.33 -3.4,-1.51 -4.96,-5.44 -3.47,-8.79 z"
     id="path1135" /><path
     fill="#9f9f9f"
     stroke="#9f9f9f"
     fill-opacity="0.5"
     stroke-opacity="0.5"
     fill-rule="nonzero"
     stroke-width="0.0411755"
     stroke-linejoin="miter"
     stroke-linecap="round"
     d="m 288.84,508.59 c 1.49,-3.35 5.45,-4.84 8.85,-3.34 3.41,1.51 4.96,5.45 3.48,8.8 -1.49,3.35 -5.45,4.84 -8.85,3.33 -3.41,-1.5 -4.96,-5.44 -3.48,-8.79 z"
     id="path1137" /><path
     fill="#9f9f9f"
     stroke="#9f9f9f"
     fill-opacity="0.5"
     stroke-opacity="0.5"
     fill-rule="nonzero"
     stroke-width="0.0411755"
     stroke-linejoin="miter"
     stroke-linecap="round"
     d="m 302.19,503.56 c 1.48,-3.35 5.44,-4.84 8.85,-3.33 3.4,1.5 4.96,5.44 3.47,8.79 -1.48,3.35 -5.44,4.84 -8.85,3.34 -3.4,-1.51 -4.96,-5.45 -3.47,-8.8 z"
     id="path1139" /><path
     fill="#9f9f9f"
     stroke="#9f9f9f"
     fill-opacity="0.5"
     stroke-opacity="0.5"
     fill-rule="nonzero"
     stroke-width="0.0411755"
     stroke-linejoin="miter"
     stroke-linecap="round"
     d="m 315.53,498.53 c 1.49,-3.35 5.45,-4.84 8.85,-3.33 3.4,1.51 4.96,5.44 3.48,8.79 -1.49,3.35 -5.45,4.85 -8.85,3.34 -3.41,-1.51 -4.96,-5.45 -3.48,-8.8 z"
     id="path1141" /><path
     fill="#9e9e9e"
     stroke="#9e9e9e"
     fill-opacity="0"
     stroke-opacity="0.5"
     fill-rule="nonzero"
     stroke-width="6.20328"
     stroke-linejoin="miter"
     stroke-linecap="round"
     d="m 1046.296,757.40505 c 0.28,18.68 -14.97,34.04 -34.06,34.33 -19.07995,0.29 -34.77995,-14.62 -35.05995,-33.29 -0.28,-18.67 14.97,-34.04 34.04995,-34.33 19.09,-0.28 34.79,14.62 35.07,33.29 z"
     id="path1143" /><path
     fill="#9e9e9e"
     stroke="#9e9e9e"
     fill-opacity="0"
     stroke-opacity="0.5"
     fill-rule="nonzero"
     stroke-width="6.135"
     stroke-linejoin="miter"
     stroke-linecap="round"
     d="m 1841.6428,1745.1858 c -4.0074,19.7584 -23.2702,32.5306 -43.0287,28.5232 -19.7584,-4.0074 -32.5306,-23.2702 -28.5232,-43.0286 4.0074,-19.7585 23.2702,-32.5307 43.0287,-28.5233 19.7584,4.0074 32.5306,23.2702 28.5232,43.0287 z"
     id="path1145" /><path
     fill="#9e9e9e"
     stroke="#9e9e9e"
     fill-opacity="0"
     stroke-opacity="0.5"
     fill-rule="nonzero"
     stroke-width="6.135"
     stroke-linejoin="miter"
     stroke-linecap="round"
     d="m 1861.469,1775.9001 c -4.0073,19.7584 -23.2775,32.5238 -43.036,28.5164 -19.7584,-4.0074 -32.5233,-23.2634 -28.5232,-43.0287 4.0074,-19.7584 23.2776,-32.5238 43.036,-28.5164 19.7511,4.0006 32.5233,23.2634 28.5232,43.0287 z"
     id="path1147" /><path
     fill="#9e9e9e"
     stroke="#9e9e9e"
     fill-opacity="0"
     stroke-opacity="0.5"
     fill-rule="nonzero"
     stroke-width="6.135"
     stroke-linejoin="miter"
     stroke-linecap="round"
     d="m 1825.2125,1779.093 c -4.0001,19.7652 -23.2703,32.5306 -43.0287,28.5232 -19.7653,-4 -32.5307,-23.2702 -28.5233,-43.0286 4.0074,-19.7585 23.2776,-32.5239 43.0287,-28.5233 19.7584,4.0074 32.5238,23.2776 28.5233,43.0287 z"
     id="path1149" /><path
     fill="#9e9e9e"
     stroke="#9e9e9e"
     fill-opacity="0"
     stroke-opacity="0.5"
     fill-rule="nonzero"
     stroke-width="6.135"
     stroke-linejoin="miter"
     stroke-linecap="round"
     d="m 1001.314,1281.4112 -66.40004,39.58 a 12.31,12.31 0 0 1 -16.88,-4.27 l -39.39,-66.1 a 12.31,12.31 0 0 1 4.27,-16.87 l 66.4,-39.58 a 12.31,12.31 0 0 1 16.87,4.27 l 39.40004,66.1 a 12.31,12.31 0 0 1 -4.27,16.87 z m -112.48004,-13.33 c 15.43,-9.19 20.48,-29.14 11.29,-44.57 -9.2,-15.42 -29.15,-20.47 -44.57,-11.28 -15.43,9.19 -20.48,29.15 -11.29,44.57 9.2,15.42 29.15,20.48 44.57,11.28 z"
     id="path1151" /><path
     fill="#9e9e9e"
     stroke="#9e9e9e"
     fill-opacity="0.5"
     stroke-opacity="0.5"
     fill-rule="nonzero"
     stroke-width="0"
     stroke-linejoin="miter"
     stroke-linecap="round"
     d="m 892.83396,1249.5912 c -2.48,1.48 -5.69,0.67 -7.17,-1.81 -1.48,-2.48 -0.67,-5.7 1.81,-7.17 2.49,-1.48 5.7,-0.67 7.18,1.81 1.48,2.48 0.66,5.69 -1.82,7.17 z"
     id="path1153" /><path
     fill="#9e9e9e"
     stroke="#9e9e9e"
     fill-opacity="0.00400002"
     stroke-opacity="0.5"
     fill-rule="nonzero"
     stroke-width="5.23022"
     stroke-linejoin="miter"
     stroke-linecap="round"
     d="m 1599.6577,1402.6332 64.66,92.71 -92.71,64.66 -64.66,-92.71 z m 9.15,62.52 c -8.93,-12.8 -26.54,-15.94 -39.34,-7.01 -12.8,8.92 -15.94,26.54 -7.01,39.34 8.93,12.8 26.54,15.94 39.34,7.01 12.8,-8.93 15.94,-26.54 7.01,-39.34 z"
     id="path1155" /><path
     fill="#9e9e9e"
     stroke="#9e9e9e"
     fill-opacity="0.00400002"
     stroke-opacity="0.5"
     fill-rule="nonzero"
     stroke-width="5.23022"
     stroke-linejoin="miter"
     stroke-linecap="round"
     d="m 1553.0377,1435.1432 64.97,92.49"
     id="path1157" /></g><path
   fill="#d5dbf4"
   stroke="#000000"
   fill-opacity="1"
   stroke-opacity="0"
   fill-rule="nonzero"
   stroke-width="21.3525"
   filter="url(#glow1)"
   stroke-linejoin="miter"
   stroke-linecap="square"
   d="M 2045,-90.82 V 600 L 0,1850 V -63.3"
   id="path75"
   style="display:inline" /><g
   id="g613"
   transform="translate(-177.8551,-121.65994)"
   clip-path="url(#clipPath872)"
   style="display:inline"><path
     fill="#9f9f9f"
     stroke="#9f9f9f"
     fill-opacity="0.5"
     stroke-opacity="0.5"
     fill-rule="nonzero"
     stroke-width="0.26342"
     stroke-linejoin="miter"
     stroke-linecap="round"
     d="m 356.28,395.46 c 2.3,-2.56 6.22,-2.79 8.76,-0.51 2.54,2.28 2.74,6.21 0.43,8.77 -2.3,2.56 -6.22,2.79 -8.76,0.51 -2.54,-2.28 -2.74,-6.21 -0.43,-8.77 z"
     id="path442" /><path
     fill="#000000"
     stroke="#9f9f9f"
     fill-opacity="0"
     stroke-opacity="0.5"
     fill-rule="nonzero"
     stroke-width="5.27374"
     stroke-linejoin="miter"
     stroke-linecap="round"
     d="m 452.21,363.82 -61.88,3.62 2.97,60.69 -61.88,3.61 2.97,60.69"
     id="path444" /><path
     fill="#000000"
     stroke="#9f9f9f"
     fill-opacity="0"
     stroke-opacity="0.5"
     fill-rule="nonzero"
     stroke-width="5.27374"
     stroke-linejoin="miter"
     stroke-linecap="round"
     d="m 508.14,238.82 -61.87,3.62 2.96,60.69 -61.87,3.62 2.97,60.69 -61.88,3.61 2.97,60.69 -61.88,3.62 2.97,60.69"
     id="path446" /><path
     fill="#000000"
     stroke="#9f9f9f"
     fill-opacity="0.00400002"
     stroke-opacity="0.5"
     fill-rule="nonzero"
     stroke-width="6.20328"
     stroke-linejoin="miter"
     stroke-linecap="round"
     d="m 1263.0731,647.92702 -20.1392,-56.2486 55.8371,-19.9805 20.1253,56.2509 z"
     id="path452" /><path
     fill="#000000"
     stroke="#9f9f9f"
     fill-opacity="0"
     stroke-opacity="0.5"
     fill-rule="nonzero"
     stroke-width="6.20328"
     stroke-linejoin="miter"
     stroke-linecap="round"
     d="m 1210.7975,613.85872 -16.4963,-46.1105 45.0545,-16.11302 16.4941,46.09642 z"
     id="path454" /><path
     fill="#000000"
     stroke="#9f9f9f"
     fill-opacity="0"
     stroke-opacity="0.5"
     fill-rule="nonzero"
     stroke-width="6.20328"
     stroke-linejoin="miter"
     stroke-linecap="round"
     d="m 1298.5535,528.70576 -8.4816,58.89336 51.6938,-14.4866 z"
     id="path456" /><path
     fill="#000000"
     stroke="#9f9f9f"
     fill-opacity="0"
     stroke-opacity="0.5"
     fill-rule="nonzero"
     stroke-width="6.20328"
     stroke-linejoin="miter"
     stroke-linecap="round"
     d="m 894.83564,1040.7955 72.07,28.57 -3.5,-68.27 z"
     id="path458" /><path
     fill="#000000"
     stroke="#9f9f9f"
     fill-opacity="0"
     stroke-opacity="0.5"
     fill-rule="nonzero"
     stroke-width="6.20328"
     stroke-linejoin="miter"
     stroke-linecap="round"
     d="m 966.07564,1044.3555 c -24.42,1.51 -45.41,-16.64 -46.89,-40.53 -1.47,-23.88996 17.13,-44.47996 41.55,-45.97996 24.41,-1.51 45.40996,16.63 46.87996,40.52 1.48,23.88996 -17.11996,44.47996 -41.53996,45.98996 z"
     id="path464" /><path
     fill="#000000"
     stroke="#9f9f9f"
     fill-opacity="0"
     stroke-opacity="0.5"
     fill-rule="nonzero"
     stroke-width="6.20328"
     stroke-linejoin="miter"
     stroke-linecap="round"
     d="m 1709.6655,858.66733 -37.4221,102.5231"
     id="path466" /><path
     fill="#000000"
     stroke="#9f9f9f"
     fill-opacity="0"
     stroke-opacity="0.5"
     fill-rule="nonzero"
     stroke-width="6.20328"
     stroke-linejoin="miter"
     stroke-linecap="round"
     d="m 1676.5717,844.29403 -37.4189,102.5093"
     id="path468" /><path
     fill="#000000"
     stroke="#9f9f9f"
     fill-opacity="0"
     stroke-opacity="0.5"
     fill-rule="nonzero"
     stroke-width="6.20328"
     stroke-linejoin="miter"
     stroke-linecap="round"
     d="m 1643.4811,829.90693 -37.4188,102.5093"
     id="path470" /><path
     fill="#9f9f9f"
     stroke="#9f9f9f"
     fill-opacity="0.5"
     stroke-opacity="0.5"
     fill-rule="nonzero"
     stroke-width="0.318524"
     stroke-linejoin="miter"
     stroke-linecap="round"
     d="m 991.72,140.56 c 3.31,-1.76 7.45,-0.45 9.25,2.93 1.79,3.39 0.57,7.55 -2.74,9.31 -3.31,1.76 -7.45,0.44 -9.24,-2.94 -1.8,-3.38 -0.58,-7.55 2.73,-9.3 z"
     id="path472" /><path
     fill="#9f9f9f"
     stroke="#9f9f9f"
     fill-opacity="0.5"
     stroke-opacity="0.5"
     fill-rule="nonzero"
     stroke-width="0.318524"
     stroke-linejoin="miter"
     stroke-linecap="round"
     d="m 1010.92,146.66 c 3.31,-1.76 7.44,-0.45 9.24,2.94 1.8,3.38 0.57,7.54 -2.73,9.3 -3.31,1.76 -7.45,0.44 -9.25,-2.94 -1.8,-3.38 -0.57,-7.54 2.74,-9.3 z"
     id="path474" /><path
     fill="#9f9f9f"
     stroke="#9f9f9f"
     fill-opacity="0.5"
     stroke-opacity="0.5"
     fill-rule="nonzero"
     stroke-width="0.318524"
     stroke-linejoin="miter"
     stroke-linecap="round"
     d="m 1030.11,152.76 c 3.31,-1.76 7.45,-0.44 9.25,2.94 1.79,3.38 0.57,7.55 -2.74,9.3 -3.31,1.76 -7.45,0.45 -9.24,-2.94 -1.8,-3.38 -0.58,-7.54 2.73,-9.3 z"
     id="path476" /><path
     fill="#9f9f9f"
     stroke="#9f9f9f"
     fill-opacity="0.5"
     stroke-opacity="0.5"
     fill-rule="nonzero"
     stroke-width="0.318524"
     stroke-linejoin="miter"
     stroke-linecap="round"
     d="m 1049.31,158.86 c 3.31,-1.76 7.44,-0.44 9.24,2.94 1.8,3.38 0.57,7.55 -2.73,9.3 -3.31,1.76 -7.45,0.45 -9.25,-2.93 -1.8,-3.38 -0.57,-7.55 2.74,-9.31 z"
     id="path478" /><path
     fill="#9f9f9f"
     stroke="#9f9f9f"
     fill-opacity="0.5"
     stroke-opacity="0.5"
     fill-rule="nonzero"
     stroke-width="0.318524"
     stroke-linejoin="miter"
     stroke-linecap="round"
     d="m 1068.5,164.96 c 3.31,-1.76 7.45,-0.44 9.25,2.94 1.79,3.38 0.57,7.55 -2.74,9.31 -3.31,1.76 -7.45,0.44 -9.24,-2.94 -1.8,-3.38 -0.58,-7.55 2.73,-9.31 z"
     id="path480" /><path
     fill="#9f9f9f"
     stroke="#9f9f9f"
     fill-opacity="0.5"
     stroke-opacity="0.5"
     fill-rule="nonzero"
     stroke-width="0.318524"
     stroke-linejoin="miter"
     stroke-linecap="round"
     d="m 1087.87,171.12 c 3.31,-1.76 7.45,-0.44 9.25,2.94 1.79,3.38 0.57,7.55 -2.74,9.3 -3.31,1.76 -7.45,0.45 -9.24,-2.93 -1.8,-3.39 -0.58,-7.55 2.73,-9.31 z"
     id="path482" /><path
     fill="#9f9f9f"
     stroke="#9f9f9f"
     fill-opacity="0.5"
     stroke-opacity="0.5"
     fill-rule="nonzero"
     stroke-width="0.318524"
     stroke-linejoin="miter"
     stroke-linecap="round"
     d="m 1107.24,177.28 c 3.31,-1.76 7.45,-0.45 9.25,2.93 1.79,3.39 0.57,7.55 -2.74,9.31 -3.31,1.76 -7.45,0.44 -9.24,-2.94 -1.8,-3.38 -0.58,-7.55 2.73,-9.3 z"
     id="path484" /><path
     fill="#9f9f9f"
     stroke="#9f9f9f"
     fill-opacity="0.5"
     stroke-opacity="0.5"
     fill-rule="nonzero"
     stroke-width="0.318524"
     stroke-linejoin="miter"
     stroke-linecap="round"
     d="m 1124.68,182.82 c 3.31,-1.76 7.45,-0.44 9.25,2.94 1.79,3.38 0.57,7.55 -2.74,9.3 -3.31,1.76 -7.45,0.45 -9.24,-2.93 -1.8,-3.39 -0.58,-7.55 2.73,-9.31 z"
     id="path486" /><path
     fill="#9f9f9f"
     stroke="#9f9f9f"
     fill-opacity="0.5"
     stroke-opacity="0.5"
     fill-rule="nonzero"
     stroke-width="0.318524"
     stroke-linejoin="miter"
     stroke-linecap="round"
     d="m 983.12,169.82 c 3.31,-1.76 7.45,-0.44 9.24,2.94 1.8,3.38 0.58,7.54 -2.73,9.3 -3.31,1.76 -7.45,0.45 -9.24,-2.94 -1.8,-3.38 -0.58,-7.54 2.73,-9.3 z"
     id="path488" /><path
     fill="#9f9f9f"
     stroke="#9f9f9f"
     fill-opacity="0.5"
     stroke-opacity="0.5"
     fill-rule="nonzero"
     stroke-width="0.318524"
     stroke-linejoin="miter"
     stroke-linecap="round"
     d="m 1002.32,175.92 c 3.3,-1.76 7.44,-0.44 9.24,2.94 1.8,3.38 0.57,7.55 -2.74,9.3 -3.3,1.76 -7.44,0.45 -9.24,-2.93 -1.8,-3.39 -0.57,-7.55 2.74,-9.31 z"
     id="path490" /><path
     fill="#9f9f9f"
     stroke="#9f9f9f"
     fill-opacity="0.5"
     stroke-opacity="0.5"
     fill-rule="nonzero"
     stroke-width="0.318524"
     stroke-linejoin="miter"
     stroke-linecap="round"
     d="m 1021.51,182.02 c 3.31,-1.76 7.45,-0.44 9.25,2.94 1.79,3.38 0.57,7.55 -2.74,9.31 -3.31,1.75 -7.45,0.44 -9.24,-2.94 -1.8,-3.38 -0.58,-7.55 2.73,-9.31 z"
     id="path492" /><path
     fill="#9f9f9f"
     stroke="#9f9f9f"
     fill-opacity="0.5"
     stroke-opacity="0.5"
     fill-rule="nonzero"
     stroke-width="0.318524"
     stroke-linejoin="miter"
     stroke-linecap="round"
     d="m 1040.71,188.12 c 3.3,-1.76 7.44,-0.44 9.24,2.94 1.8,3.38 0.57,7.55 -2.74,9.31 -3.3,1.76 -7.44,0.44 -9.24,-2.94 -1.8,-3.38 -0.57,-7.55 2.74,-9.31 z"
     id="path494" /><path
     fill="#9f9f9f"
     stroke="#9f9f9f"
     fill-opacity="0.5"
     stroke-opacity="0.5"
     fill-rule="nonzero"
     stroke-width="0.318524"
     stroke-linejoin="miter"
     stroke-linecap="round"
     d="m 1059.9,194.22 c 3.31,-1.75 7.45,-0.44 9.25,2.94 1.79,3.38 0.57,7.55 -2.74,9.31 -3.31,1.76 -7.45,0.44 -9.25,-2.94 -1.79,-3.38 -0.57,-7.55 2.74,-9.31 z"
     id="path496" /><path
     fill="#9f9f9f"
     stroke="#9f9f9f"
     fill-opacity="0.5"
     stroke-opacity="0.5"
     fill-rule="nonzero"
     stroke-width="0.318524"
     stroke-linejoin="miter"
     stroke-linecap="round"
     d="m 1079.27,200.38 c 3.31,-1.76 7.45,-0.44 9.24,2.94 1.8,3.38 0.58,7.55 -2.73,9.31 -3.31,1.76 -7.45,0.44 -9.25,-2.94 -1.79,-3.38 -0.57,-7.55 2.74,-9.31 z"
     id="path498" /><path
     fill="#9f9f9f"
     stroke="#9f9f9f"
     fill-opacity="0.5"
     stroke-opacity="0.5"
     fill-rule="nonzero"
     stroke-width="0.318524"
     stroke-linejoin="miter"
     stroke-linecap="round"
     d="m 1098.64,206.54 c 3.31,-1.76 7.45,-0.44 9.24,2.94 1.8,3.38 0.58,7.55 -2.73,9.3 -3.31,1.76 -7.45,0.45 -9.24,-2.93 -1.8,-3.39 -0.58,-7.55 2.73,-9.31 z"
     id="path500" /><path
     fill="#9f9f9f"
     stroke="#9f9f9f"
     fill-opacity="0.5"
     stroke-opacity="0.5"
     fill-rule="nonzero"
     stroke-width="0.318524"
     stroke-linejoin="miter"
     stroke-linecap="round"
     d="m 1116.08,212.08 c 3.31,-1.76 7.45,-0.44 9.24,2.94 1.8,3.38 0.58,7.55 -2.73,9.31 -3.31,1.76 -7.45,0.44 -9.25,-2.94 -1.79,-3.38 -0.57,-7.55 2.74,-9.31 z"
     id="path502" /><path
     fill="#9f9f9f"
     stroke="#9f9f9f"
     fill-opacity="0.5"
     stroke-opacity="0.5"
     fill-rule="nonzero"
     stroke-width="0.318524"
     stroke-linejoin="miter"
     stroke-linecap="round"
     d="m 974.52,199.08 c 3.31,-1.76 7.45,-0.44 9.24,2.94 1.8,3.38 0.58,7.55 -2.73,9.31 -3.31,1.75 -7.45,0.44 -9.25,-2.94 -1.79,-3.38 -0.57,-7.55 2.74,-9.31 z"
     id="path504" /><path
     fill="#9f9f9f"
     stroke="#9f9f9f"
     fill-opacity="0.5"
     stroke-opacity="0.5"
     fill-rule="nonzero"
     stroke-width="0.318524"
     stroke-linejoin="miter"
     stroke-linecap="round"
     d="m 993.71,205.18 c 3.31,-1.76 7.45,-0.44 9.25,2.94 1.8,3.38 0.57,7.55 -2.74,9.31 -3.31,1.76 -7.44,0.44 -9.24,-2.94 -1.8,-3.38 -0.57,-7.55 2.73,-9.31 z"
     id="path506" /><path
     fill="#9f9f9f"
     stroke="#9f9f9f"
     fill-opacity="0.5"
     stroke-opacity="0.5"
     fill-rule="nonzero"
     stroke-width="0.318524"
     stroke-linejoin="miter"
     stroke-linecap="round"
     d="m 1012.91,211.28 c 3.31,-1.75 7.45,-0.44 9.24,2.94 1.8,3.38 0.58,7.55 -2.73,9.31 -3.31,1.76 -7.45,0.44 -9.25,-2.94 -1.79,-3.38 -0.57,-7.55 2.74,-9.31 z"
     id="path508" /><path
     fill="#9f9f9f"
     stroke="#9f9f9f"
     fill-opacity="0.5"
     stroke-opacity="0.5"
     fill-rule="nonzero"
     stroke-width="0.318524"
     stroke-linejoin="miter"
     stroke-linecap="round"
     d="m 1032.1,217.39 c 3.31,-1.76 7.45,-0.45 9.25,2.93 1.8,3.39 0.57,7.55 -2.74,9.31 -3.31,1.76 -7.44,0.44 -9.24,-2.94 -1.8,-3.38 -0.57,-7.54 2.73,-9.3 z"
     id="path510" /><path
     fill="#9f9f9f"
     stroke="#9f9f9f"
     fill-opacity="0.5"
     stroke-opacity="0.5"
     fill-rule="nonzero"
     stroke-width="0.318524"
     stroke-linejoin="miter"
     stroke-linecap="round"
     d="m 1051.3,223.49 c 3.31,-1.76 7.45,-0.45 9.24,2.94 1.8,3.38 0.58,7.54 -2.73,9.3 -3.31,1.76 -7.45,0.45 -9.25,-2.94 -1.79,-3.38 -0.57,-7.54 2.74,-9.3 z"
     id="path512" /><path
     fill="#9f9f9f"
     stroke="#9f9f9f"
     fill-opacity="0.5"
     stroke-opacity="0.5"
     fill-rule="nonzero"
     stroke-width="0.318524"
     stroke-linejoin="miter"
     stroke-linecap="round"
     d="m 1070.67,229.64 c 3.31,-1.75 7.45,-0.44 9.24,2.94 1.8,3.38 0.58,7.55 -2.73,9.31 -3.31,1.76 -7.45,0.44 -9.25,-2.94 -1.79,-3.38 -0.57,-7.55 2.74,-9.31 z"
     id="path514" /><path
     fill="#9f9f9f"
     stroke="#9f9f9f"
     fill-opacity="0.5"
     stroke-opacity="0.5"
     fill-rule="nonzero"
     stroke-width="0.318524"
     stroke-linejoin="miter"
     stroke-linecap="round"
     d="m 1090.04,235.8 c 3.31,-1.76 7.45,-0.44 9.24,2.94 1.8,3.38 0.58,7.55 -2.73,9.31 -3.31,1.76 -7.45,0.44 -9.25,-2.94 -1.79,-3.38 -0.57,-7.55 2.74,-9.31 z"
     id="path516" /><path
     fill="#9f9f9f"
     stroke="#9f9f9f"
     fill-opacity="0.5"
     stroke-opacity="0.5"
     fill-rule="nonzero"
     stroke-width="0.318524"
     stroke-linejoin="miter"
     stroke-linecap="round"
     d="m 1107.48,241.35 c 3.31,-1.76 7.45,-0.45 9.24,2.93 1.8,3.39 0.58,7.55 -2.73,9.31 -3.31,1.76 -7.45,0.44 -9.25,-2.94 -1.8,-3.38 -0.57,-7.55 2.74,-9.3 z"
     id="path518" /><path
     fill="#ffffff"
     stroke="#9f9f9f"
     fill-opacity="0"
     stroke-opacity="0.5"
     fill-rule="nonzero"
     stroke-width="5.0203"
     stroke-linejoin="miter"
     stroke-linecap="round"
     d="m 362.73,925.06 32.55,-46.25 a 9.43,9.43 0 0 1 13.13,-2.29 l 47.18,33.2 a 9.43,9.43 0 0 1 2.29,13.14 l -32.56,46.25 a 9.43,9.43 0 0 1 -13.13,2.29 l -47.18,-33.2 a 9.43,9.43 0 0 1 -2.28,-13.14 z"
     id="path520" /><path
     fill="#ffffff"
     stroke="#9f9f9f"
     fill-opacity="0"
     stroke-opacity="0.5"
     fill-rule="nonzero"
     stroke-width="4.71718"
     stroke-linejoin="miter"
     stroke-linecap="round"
     d="m 361.08,878.45 32.56,-46.26 a 9.43,9.43 0 0 1 13.13,-2.28 l 47.18,33.2 a 9.43,9.43 0 0 1 2.28,13.13 l -32.55,46.26 a 9.43,9.43 0 0 1 -13.13,2.28 l -47.18,-33.2 a 9.43,9.43 0 0 1 -2.29,-13.13 z"
     id="path522" /><path
     fill="#ffffff"
     stroke="#9f9f9f"
     fill-opacity="0"
     stroke-opacity="0.5"
     fill-rule="nonzero"
     stroke-width="5.0203"
     stroke-linejoin="miter"
     stroke-linecap="round"
     d="m 434.33,865.18 32.55,-46.25 a 9.43,9.43 0 0 1 13.14,-2.29 l 47.18,33.2 a 9.43,9.43 0 0 1 2.28,13.14 l -32.55,46.26 a 9.43,9.43 0 0 1 -13.14,2.28 l -47.18,-33.2 a 9.43,9.43 0 0 1 -2.28,-13.14 z"
     id="path524" /><path
     fill="#9f9f9f"
     stroke="#9f9f9f"
     fill-opacity="0.5"
     stroke-opacity="0.5"
     fill-rule="nonzero"
     stroke-width="0.0411755"
     stroke-linejoin="miter"
     stroke-linecap="round"
     d="m 428.35,978.06 c -0.68,-3.6 1.73,-7.08 5.39,-7.77 3.65,-0.7 7.17,1.66 7.85,5.26 0.68,3.6 -1.73,7.08 -5.39,7.77 -3.66,0.69 -7.17,-1.66 -7.85,-5.26 z"
     id="path526" /><path
     fill="#9f9f9f"
     stroke="#9f9f9f"
     fill-opacity="0.5"
     stroke-opacity="0.5"
     fill-rule="nonzero"
     stroke-width="0.0411755"
     stroke-linejoin="miter"
     stroke-linecap="round"
     d="m 436.47,966.34 c -0.68,-3.6 1.74,-7.08 5.4,-7.77 3.65,-0.69 7.17,1.67 7.85,5.27 0.68,3.6 -1.73,7.07 -5.39,7.77 -3.66,0.69 -7.17,-1.67 -7.86,-5.27 z"
     id="path528" /><path
     fill="#9f9f9f"
     stroke="#9f9f9f"
     fill-opacity="0.5"
     stroke-opacity="0.5"
     fill-rule="nonzero"
     stroke-width="0.0411755"
     stroke-linejoin="miter"
     stroke-linecap="round"
     d="m 444.6,954.62 c -0.68,-3.6 1.74,-7.08 5.39,-7.77 3.66,-0.69 7.18,1.67 7.86,5.27 0.68,3.6 -1.73,7.08 -5.39,7.77 -3.66,0.69 -7.18,-1.67 -7.86,-5.27 z"
     id="path530" /><path
     fill="#9f9f9f"
     stroke="#9f9f9f"
     fill-opacity="0.5"
     stroke-opacity="0.5"
     fill-rule="nonzero"
     stroke-width="0.0411755"
     stroke-linejoin="miter"
     stroke-linecap="round"
     d="m 452.73,942.91 c -0.68,-3.6 1.73,-7.08 5.39,-7.77 3.66,-0.7 7.18,1.66 7.86,5.26 0.68,3.6 -1.74,7.08 -5.39,7.77 -3.66,0.69 -7.18,-1.66 -7.86,-5.26 z"
     id="path532" /><path
     fill="#9f9f9f"
     stroke="#9f9f9f"
     fill-opacity="0.5"
     stroke-opacity="0.5"
     fill-rule="nonzero"
     stroke-width="0.0411755"
     stroke-linejoin="miter"
     stroke-linecap="round"
     d="m 460.86,931.19 c -0.68,-3.6 1.73,-7.08 5.39,-7.77 3.66,-0.69 7.17,1.67 7.85,5.27 0.68,3.6 -1.73,7.08 -5.39,7.77 -3.65,0.69 -7.17,-1.67 -7.85,-5.27 z"
     id="path534" /><path
     fill="#9e9e9e"
     stroke="#9e9e9e"
     fill-opacity="0"
     stroke-opacity="0.5"
     fill-rule="nonzero"
     stroke-width="6.135"
     stroke-linejoin="miter"
     stroke-linecap="round"
     d="m 397.59964,1418.4393 c -17.18,10.55 -39.66,5.17 -50.21,-12 -10.55,-17.18 -5.18,-39.66 12,-50.21 17.18,-10.56 39.66,-5.18 50.21,12 10.55,17.18 5.18,39.66 -12,50.21 z"
     id="path538" /><path
     fill="#9e9e9e"
     stroke="#9e9e9e"
     fill-opacity="0"
     stroke-opacity="0.5"
     fill-rule="nonzero"
     stroke-width="6.135"
     stroke-linejoin="miter"
     stroke-linecap="round"
     d="m 388.65964,1453.8793 c -17.18,10.56 -39.66,5.18 -50.21,-12 -10.55,-17.18 -5.17,-39.66 12,-50.21 17.18,-10.55 39.66,-5.17 50.21,12.01 10.56,17.17 5.18,39.65 -12,50.2 z"
     id="path540" /><path
     fill="#9e9e9e"
     stroke="#9e9e9e"
     fill-opacity="0"
     stroke-opacity="0.5"
     fill-rule="nonzero"
     stroke-width="6.135"
     stroke-linejoin="miter"
     stroke-linecap="round"
     d="m 361.58964,1429.5593 c -17.18,10.55 -39.66,5.18 -50.21,-12 -10.55,-17.18 -5.18,-39.66 12,-50.21 17.18,-10.55 39.66,-5.18 50.21,12 10.55,17.18 5.18,39.66 -12,50.21 z"
     id="path542" /><path
     fill="#9e9e9e"
     stroke="#9e9e9e"
     fill-opacity="0"
     stroke-opacity="0.5"
     fill-rule="nonzero"
     stroke-width="6.135"
     stroke-linejoin="miter"
     stroke-linecap="round"
     d="m 1876.4601,205.04517 77.2933,1.15307 a 12.31,12.31 0 0 1 12.1178,12.48999 l -1.1512,76.93531 a 12.31,12.31 0 0 1 -12.49,12.11778 l -77.2933,-1.15306 a 12.31,12.31 0 0 1 -12.1178,-12.48999 l 1.1512,-76.93531 a 12.31,12.31 0 0 1 12.49,-12.11779 z m 88.7514,70.36229 c -17.9525,-0.26756 -32.7298,14.06637 -32.9974,32.01883 -0.2675,17.95246 14.0664,32.72983 32.0189,32.99739 17.9524,0.26756 32.724,-14.0745 32.9915,-32.02696 0.2734,-17.94434 -14.0605,-32.7217 -32.013,-32.98926 z"
     id="path544" /><path
     fill="#9e9e9e"
     stroke="#9e9e9e"
     fill-opacity="0.5"
     stroke-opacity="0.5"
     fill-rule="nonzero"
     stroke-width="0"
     stroke-linejoin="miter"
     stroke-linecap="round"
     d="m 1952.1038,289.05 c 2.8876,0.0476 5.1899,2.42093 5.1562,5.31089 -0.048,2.88765 -2.429,5.19574 -5.3167,5.14812 -2.8818,-0.0395 -5.198,-2.4151 -5.1504,-5.30275 0.042,-2.89579 2.4232,-5.20388 5.3109,-5.15626 z"
     id="path546" /><path
     fill="#9e9e9e"
     stroke="#9e9e9e"
     fill-opacity="0.00400002"
     stroke-opacity="0.5"
     fill-rule="nonzero"
     stroke-width="5.23022"
     stroke-linejoin="miter"
     stroke-linecap="round"
     d="m 592.31167,1617.2664 96.69729,58.5294 -58.52537,96.7064 -96.69729,-58.5294 z m 33.714,53.44 c -13.35299,-8.0797 -30.72362,-3.8097 -38.80338,9.5433 -8.07975,13.353 -3.80975,30.7236 9.54324,38.8033 13.34791,8.093 30.72362,3.8098 38.80744,-9.5341 8.07975,-13.353 3.8057,-30.7327 -9.5473,-38.8125 z"
     id="path548" /><path
     fill="#9e9e9e"
     stroke="#9e9e9e"
     fill-opacity="0.00400002"
     stroke-opacity="0.5"
     fill-rule="nonzero"
     stroke-width="5.23022"
     stroke-linejoin="miter"
     stroke-linecap="round"
     d="m 562.88176,1665.8961 96.89146,58.2027"
     id="path550" /></g></svg>
