<?xml version="1.0" encoding="utf-8"?>
<svg
	version="1.1"
	xmlns="http://www.w3.org/2000/svg"
	xmlns:xlink="http://www.w3.org/1999/xlink"
	x="0%" y="0%"
	width="100%" height="100%"
	viewBox="0 0 2045.0 2752.0"
	enable-background="new 0 0 2045.0 2752.0"
	xml:space="preserve">
	<path
		fill="#9F9F9F"
		stroke="#9F9F9F"
		fill-opacity="0.5"
		stroke-opacity="0.5"
		fill-rule="nonzero"
		stroke-width="0.26559934"
		stroke-linejoin="miter"
		stroke-linecap="round"
		d="M411.91,2324.04C414.47,2326.40,414.64,2330.36,412.31,2332.89C409.98,2335.42,406.02,2335.56,403.46,2333.20C400.91,2330.85,400.73,2326.89,403.06,2324.36C405.40,2321.83,409.36,2321.68,411.91,2324.04z"/>
	<path
		fill="#000000"
		stroke="#9F9F9F"
		fill-opacity="0.000"
		stroke-opacity="0.5"
		fill-rule="nonzero"
		stroke-width="5.3173585"
		stroke-linejoin="miter"
		stroke-linecap="round"
		d="M372.86,2236.06L375.67,2298.49L436.89,2296.32L439.70,2358.75L500.93,2356.58"/>
	<path
		fill="#000000"
		stroke="#9F9F9F"
		fill-opacity="0.000"
		stroke-opacity="0.5"
		fill-rule="nonzero"
		stroke-width="5.3173585"
		stroke-linejoin="miter"
		stroke-linecap="round"
		d="M247.59,2177.98L250.40,2240.41L311.63,2238.24L314.44,2300.67L375.67,2298.49L378.48,2360.93L439.70,2358.75L442.51,2421.19L503.74,2419.01"/>
	<path
		fill="#000000"
		stroke="#9F9F9F"
		fill-opacity="0.000"
		stroke-opacity="0.5"
		fill-rule="nonzero"
		stroke-width="5.7394915"
		stroke-linejoin="miter"
		stroke-linecap="round"
		d="M1674.05,359.60A42.83 43.78 262.11 1 0 1685.83,444.44A41.89 42.83 262.11 1 1 1697.81,448.13"/>
	<path
		fill="#000000"
		stroke="#9F9F9F"
		fill-opacity="0.000"
		stroke-opacity="0.5"
		fill-rule="nonzero"
		stroke-width="5.7394915"
		stroke-linejoin="miter"
		stroke-linecap="round"
		d="M1593.21,307.72A42.53 43.48 47.10 1 0 1650.48,370.63A42.54 43.48 47.10 1 1 1707.75,433.53A42.53 43.48 47.10 1 0 1765.02,496.44A42.53 43.48 47.10 1 1 1822.29,559.34"/>
	<path
		fill="#000000"
		stroke="#9F9F9F"
		fill-opacity="0.004"
		stroke-opacity="0.5"
		fill-rule="nonzero"
		stroke-width="6.203281"
		stroke-linejoin="miter"
		stroke-linecap="round"
		d="M1821.10,2342.76L1766.59,2318.32L1790.86,2264.21L1845.36,2288.66z"/>
	<path
		fill="#000000"
		stroke="#9F9F9F"
		fill-opacity="0.000"
		stroke-opacity="0.5"
		fill-rule="nonzero"
		stroke-width="6.203281"
		stroke-linejoin="miter"
		stroke-linecap="round"
		d="M1760.32,2356.85L1715.64,2336.81L1735.22,2293.15L1779.90,2313.19z"/>
	<path
		fill="#000000"
		stroke="#9F9F9F"
		fill-opacity="0.000"
		stroke-opacity="0.5"
		fill-rule="nonzero"
		stroke-width="6.203281"
		stroke-linejoin="miter"
		stroke-linecap="round"
		d="M1759.70,2234.58L1796.30,2281.49L1821.66,2234.18L1759.70,2234.58z"/>
	<path
		fill="#000000"
		stroke="#9F9F9F"
		fill-opacity="0.000"
		stroke-opacity="0.5"
		fill-rule="nonzero"
		stroke-width="6.2032795"
		stroke-linejoin="miter"
		stroke-linecap="round"
		d="M1151.89,259.29L1129.75,333.58L1078.29,288.60L1151.89,259.29z"/>
	<path
		fill="#000000"
		stroke="#9F9F9F"
		fill-opacity="0.004"
		stroke-opacity="0.5"
		fill-rule="nonzero"
		stroke-width="6.134997"
		stroke-linejoin="miter"
		stroke-linecap="round"
		d="M1310.08,860.94L1390.39,890.16L1361.45,969.70L1281.14,940.48z"/>
	<path
		fill="#000000"
		stroke="#9F9F9F"
		fill-opacity="0.000"
		stroke-opacity="0.5"
		fill-rule="nonzero"
		stroke-width="6.134997"
		stroke-linejoin="miter"
		stroke-linecap="round"
		d="M1266.11,833.31L1331.92,857.26L1308.55,921.46L1242.75,897.52z"/>
	<path
		fill="#000000"
		stroke="#9F9F9F"
		fill-opacity="0.000"
		stroke-opacity="0.5"
		fill-rule="nonzero"
		stroke-width="6.2032795"
		stroke-linejoin="miter"
		stroke-linecap="round"
		d="M1110.62,317.46C1094.33,335.72,1066.64,337.59,1048.79,321.65C1030.93,305.71,1029.66,278.00,1045.95,259.74C1062.25,241.49,1089.93,239.62,1107.79,255.56C1125.64,271.49,1126.91,299.21,1110.62,317.46z"/>
	<path
		fill="#000000"
		stroke="#9F9F9F"
		fill-opacity="0.000"
		stroke-opacity="0.5"
		fill-rule="nonzero"
		stroke-width="6.2032785"
		stroke-linejoin="miter"
		stroke-linecap="round"
		d="M1097.37,1547.21L1018.67,1471.60"/>
	<path
		fill="#000000"
		stroke="#9F9F9F"
		fill-opacity="0.000"
		stroke-opacity="0.5"
		fill-rule="nonzero"
		stroke-width="6.2032785"
		stroke-linejoin="miter"
		stroke-linecap="round"
		d="M1123.88,1522.74L1045.18,1447.13"/>
	<path
		fill="#000000"
		stroke="#9F9F9F"
		fill-opacity="0.000"
		stroke-opacity="0.5"
		fill-rule="nonzero"
		stroke-width="6.2032785"
		stroke-linejoin="miter"
		stroke-linecap="round"
		d="M1150.39,1498.27L1071.70,1422.66"/>
	<path
		fill="#9F9F9F"
		stroke="#9F9F9F"
		fill-opacity="0.5"
		stroke-opacity="0.5"
		fill-rule="nonzero"
		stroke-width="0.3185236"
		stroke-linejoin="miter"
		stroke-linecap="round"
		d="M300.39,1148.59C298.12,1145.61,298.76,1141.31,301.80,1139.00C304.85,1136.68,309.16,1137.22,311.43,1140.20C313.70,1143.19,313.06,1147.48,310.01,1149.80C306.96,1152.12,302.65,1151.58,300.39,1148.59z"/>
	<path
		fill="#9F9F9F"
		stroke="#9F9F9F"
		fill-opacity="0.5"
		stroke-opacity="0.5"
		fill-rule="nonzero"
		stroke-width="0.3185236"
		stroke-linejoin="miter"
		stroke-linecap="round"
		d="M303.33,1128.67C301.06,1125.69,301.70,1121.39,304.75,1119.07C307.79,1116.76,312.10,1117.30,314.37,1120.28C316.64,1123.26,316.00,1127.56,312.95,1129.87C309.90,1132.19,305.60,1131.65,303.33,1128.67z"/>
	<path
		fill="#9F9F9F"
		stroke="#9F9F9F"
		fill-opacity="0.5"
		stroke-opacity="0.5"
		fill-rule="nonzero"
		stroke-width="0.3185236"
		stroke-linejoin="miter"
		stroke-linecap="round"
		d="M306.27,1108.74C304.00,1105.76,304.64,1101.46,307.69,1099.15C310.74,1096.83,315.05,1097.37,317.31,1100.35C319.58,1103.34,318.94,1107.63,315.90,1109.95C312.85,1112.27,308.54,1111.73,306.27,1108.74z"/>
	<path
		fill="#9F9F9F"
		stroke="#9F9F9F"
		fill-opacity="0.5"
		stroke-opacity="0.5"
		fill-rule="nonzero"
		stroke-width="0.3185236"
		stroke-linejoin="miter"
		stroke-linecap="round"
		d="M309.21,1088.82C306.95,1085.83,307.58,1081.54,310.63,1079.22C313.68,1076.90,317.99,1077.45,320.25,1080.43C322.52,1083.41,321.89,1087.71,318.84,1090.02C315.79,1092.34,311.48,1091.80,309.21,1088.82z"/>
	<path
		fill="#9F9F9F"
		stroke="#9F9F9F"
		fill-opacity="0.5"
		stroke-opacity="0.5"
		fill-rule="nonzero"
		stroke-width="0.3185236"
		stroke-linejoin="miter"
		stroke-linecap="round"
		d="M312.15,1068.89C309.89,1065.91,310.52,1061.61,313.57,1059.30C316.62,1056.98,320.93,1057.52,323.20,1060.50C325.46,1063.49,324.83,1067.78,321.78,1070.10C318.73,1072.42,314.42,1071.88,312.15,1068.89z"/>
	<path
		fill="#9F9F9F"
		stroke="#9F9F9F"
		fill-opacity="0.5"
		stroke-opacity="0.5"
		fill-rule="nonzero"
		stroke-width="0.3185236"
		stroke-linejoin="miter"
		stroke-linecap="round"
		d="M315.12,1048.79C312.86,1045.80,313.49,1041.51,316.54,1039.19C319.59,1036.87,323.90,1037.41,326.17,1040.40C328.43,1043.38,327.80,1047.68,324.75,1049.99C321.70,1052.31,317.39,1051.77,315.12,1048.79z"/>
	<path
		fill="#9F9F9F"
		stroke="#9F9F9F"
		fill-opacity="0.5"
		stroke-opacity="0.5"
		fill-rule="nonzero"
		stroke-width="0.3185236"
		stroke-linejoin="miter"
		stroke-linecap="round"
		d="M318.09,1028.68C315.83,1025.70,316.46,1021.40,319.51,1019.08C322.56,1016.77,326.87,1017.31,329.13,1020.29C331.40,1023.27,330.77,1027.57,327.72,1029.88C324.67,1032.20,320.36,1031.66,318.09,1028.68z"/>
	<path
		fill="#9F9F9F"
		stroke="#9F9F9F"
		fill-opacity="0.5"
		stroke-opacity="0.5"
		fill-rule="nonzero"
		stroke-width="0.3185236"
		stroke-linejoin="miter"
		stroke-linecap="round"
		d="M320.76,1010.58C318.50,1007.59,319.13,1003.30,322.18,1000.98C325.23,998.66,329.54,999.20,331.81,1002.19C334.07,1005.17,333.44,1009.47,330.39,1011.78C327.34,1014.10,323.03,1013.56,320.76,1010.58z"/>
	<path
		fill="#9F9F9F"
		stroke="#9F9F9F"
		fill-opacity="0.5"
		stroke-opacity="0.5"
		fill-rule="nonzero"
		stroke-width="0.3185236"
		stroke-linejoin="miter"
		stroke-linecap="round"
		d="M330.65,1152.39C328.38,1149.41,329.02,1145.11,332.07,1142.79C335.12,1140.48,339.43,1141.02,341.69,1144.00C343.96,1146.98,343.32,1151.28,340.28,1153.59C337.23,1155.91,332.92,1155.37,330.65,1152.39z"/>
	<path
		fill="#9F9F9F"
		stroke="#9F9F9F"
		fill-opacity="0.5"
		stroke-opacity="0.5"
		fill-rule="nonzero"
		stroke-width="0.3185236"
		stroke-linejoin="miter"
		stroke-linecap="round"
		d="M333.59,1132.46C331.33,1129.48,331.96,1125.18,335.01,1122.87C338.06,1120.55,342.37,1121.09,344.63,1124.07C346.90,1127.06,346.27,1131.35,343.22,1133.67C340.17,1135.99,335.86,1135.45,333.59,1132.46z"/>
	<path
		fill="#9F9F9F"
		stroke="#9F9F9F"
		fill-opacity="0.5"
		stroke-opacity="0.5"
		fill-rule="nonzero"
		stroke-width="0.3185236"
		stroke-linejoin="miter"
		stroke-linecap="round"
		d="M336.54,1112.54C334.27,1109.55,334.90,1105.26,337.95,1102.94C341.00,1100.62,345.31,1101.16,347.58,1104.15C349.84,1107.13,349.21,1111.43,346.16,1113.74C343.11,1116.06,338.80,1115.52,336.54,1112.54z"/>
	<path
		fill="#9F9F9F"
		stroke="#9F9F9F"
		fill-opacity="0.5"
		stroke-opacity="0.5"
		fill-rule="nonzero"
		stroke-width="0.3185236"
		stroke-linejoin="miter"
		stroke-linecap="round"
		d="M339.48,1092.61C337.21,1089.63,337.84,1085.33,340.89,1083.02C343.94,1080.70,348.25,1081.24,350.52,1084.22C352.78,1087.20,352.15,1091.50,349.10,1093.82C346.05,1096.13,341.74,1095.59,339.48,1092.61z"/>
	<path
		fill="#9F9F9F"
		stroke="#9F9F9F"
		fill-opacity="0.5"
		stroke-opacity="0.5"
		fill-rule="nonzero"
		stroke-width="0.3185236"
		stroke-linejoin="miter"
		stroke-linecap="round"
		d="M342.42,1072.69C340.15,1069.70,340.79,1065.41,343.84,1063.09C346.88,1060.77,351.19,1061.31,353.46,1064.30C355.73,1067.28,355.09,1071.58,352.04,1073.89C348.99,1076.21,344.69,1075.67,342.42,1072.69z"/>
	<path
		fill="#9F9F9F"
		stroke="#9F9F9F"
		fill-opacity="0.5"
		stroke-opacity="0.5"
		fill-rule="nonzero"
		stroke-width="0.3185236"
		stroke-linejoin="miter"
		stroke-linecap="round"
		d="M345.39,1052.58C343.12,1049.60,343.75,1045.30,346.80,1042.98C349.85,1040.67,354.16,1041.21,356.43,1044.19C358.70,1047.17,358.06,1051.47,355.01,1053.79C351.96,1056.10,347.65,1055.56,345.39,1052.58z"/>
	<path
		fill="#9F9F9F"
		stroke="#9F9F9F"
		fill-opacity="0.5"
		stroke-opacity="0.5"
		fill-rule="nonzero"
		stroke-width="0.3185236"
		stroke-linejoin="miter"
		stroke-linecap="round"
		d="M348.36,1032.47C346.09,1029.49,346.72,1025.19,349.77,1022.88C352.82,1020.56,357.13,1021.10,359.40,1024.08C361.66,1027.07,361.03,1031.36,357.98,1033.68C354.93,1036.00,350.62,1035.45,348.36,1032.47z"/>
	<path
		fill="#9F9F9F"
		stroke="#9F9F9F"
		fill-opacity="0.5"
		stroke-opacity="0.5"
		fill-rule="nonzero"
		stroke-width="0.3185236"
		stroke-linejoin="miter"
		stroke-linecap="round"
		d="M351.03,1014.37C348.76,1011.39,349.40,1007.09,352.45,1004.77C355.49,1002.46,359.80,1003.00,362.07,1005.98C364.34,1008.96,363.70,1013.26,360.65,1015.58C357.60,1017.89,353.30,1017.35,351.03,1014.37z"/>
	<path
		fill="#9F9F9F"
		stroke="#9F9F9F"
		fill-opacity="0.5"
		stroke-opacity="0.5"
		fill-rule="nonzero"
		stroke-width="0.3185236"
		stroke-linejoin="miter"
		stroke-linecap="round"
		d="M360.92,1156.18C358.65,1153.20,359.28,1148.90,362.33,1146.59C365.38,1144.27,369.69,1144.81,371.96,1147.79C374.22,1150.77,373.59,1155.07,370.54,1157.39C367.49,1159.70,363.18,1159.16,360.92,1156.18z"/>
	<path
		fill="#9F9F9F"
		stroke="#9F9F9F"
		fill-opacity="0.5"
		stroke-opacity="0.5"
		fill-rule="nonzero"
		stroke-width="0.3185236"
		stroke-linejoin="miter"
		stroke-linecap="round"
		d="M363.86,1136.26C361.59,1133.27,362.22,1128.98,365.27,1126.66C368.32,1124.34,372.63,1124.88,374.90,1127.87C377.17,1130.85,376.53,1135.15,373.48,1137.46C370.43,1139.78,366.12,1139.24,363.86,1136.26z"/>
	<path
		fill="#9F9F9F"
		stroke="#9F9F9F"
		fill-opacity="0.5"
		stroke-opacity="0.5"
		fill-rule="nonzero"
		stroke-width="0.3185236"
		stroke-linejoin="miter"
		stroke-linecap="round"
		d="M366.80,1116.33C364.53,1113.35,365.17,1109.05,368.22,1106.73C371.26,1104.42,375.57,1104.96,377.84,1107.94C380.11,1110.92,379.47,1115.22,376.42,1117.54C373.37,1119.85,369.07,1119.31,366.80,1116.33z"/>
	<path
		fill="#9F9F9F"
		stroke="#9F9F9F"
		fill-opacity="0.5"
		stroke-opacity="0.5"
		fill-rule="nonzero"
		stroke-width="0.3185236"
		stroke-linejoin="miter"
		stroke-linecap="round"
		d="M369.74,1096.41C367.47,1093.42,368.11,1089.13,371.16,1086.81C374.21,1084.49,378.52,1085.03,380.78,1088.02C383.05,1091.00,382.42,1095.30,379.37,1097.61C376.32,1099.93,372.01,1099.39,369.74,1096.41z"/>
	<path
		fill="#9F9F9F"
		stroke="#9F9F9F"
		fill-opacity="0.5"
		stroke-opacity="0.5"
		fill-rule="nonzero"
		stroke-width="0.3185236"
		stroke-linejoin="miter"
		stroke-linecap="round"
		d="M372.68,1076.48C370.42,1073.50,371.05,1069.20,374.10,1066.88C377.15,1064.57,381.46,1065.11,383.72,1068.09C385.99,1071.07,385.36,1075.37,382.31,1077.69C379.26,1080.00,374.95,1079.46,372.68,1076.48z"/>
	<path
		fill="#9F9F9F"
		stroke="#9F9F9F"
		fill-opacity="0.5"
		stroke-opacity="0.5"
		fill-rule="nonzero"
		stroke-width="0.3185236"
		stroke-linejoin="miter"
		stroke-linecap="round"
		d="M375.65,1056.37C373.38,1053.39,374.02,1049.09,377.07,1046.78C380.12,1044.46,384.43,1045.00,386.69,1047.98C388.96,1050.97,388.33,1055.26,385.28,1057.58C382.23,1059.90,377.92,1059.36,375.65,1056.37z"/>
	<path
		fill="#9F9F9F"
		stroke="#9F9F9F"
		fill-opacity="0.5"
		stroke-opacity="0.5"
		fill-rule="nonzero"
		stroke-width="0.3185236"
		stroke-linejoin="miter"
		stroke-linecap="round"
		d="M378.62,1036.27C376.35,1033.28,376.99,1028.99,380.04,1026.67C383.09,1024.35,387.39,1024.89,389.66,1027.88C391.93,1030.86,391.29,1035.16,388.24,1037.47C385.20,1039.79,380.89,1039.25,378.62,1036.27z"/>
	<path
		fill="#9F9F9F"
		stroke="#9F9F9F"
		fill-opacity="0.5"
		stroke-opacity="0.5"
		fill-rule="nonzero"
		stroke-width="0.3185236"
		stroke-linejoin="miter"
		stroke-linecap="round"
		d="M381.29,1018.16C379.03,1015.18,379.66,1010.88,382.71,1008.57C385.76,1006.25,390.07,1006.79,392.33,1009.77C394.60,1012.76,393.97,1017.05,390.92,1019.37C387.87,1021.69,383.56,1021.15,381.29,1018.16z"/>
	<path
		fill="#FFFFFF"
		stroke="#9F9F9F"
		fill-opacity="0.000"
		stroke-opacity="0.5"
		fill-rule="nonzero"
		stroke-width="5.020301"
		stroke-linejoin="miter"
		stroke-linecap="round"
		d="M235.96,476.49L275.32,435.87A9.43 9.43 0 0 1 288.65,435.66L330.08,475.81A9.43 9.43 0 0 1 330.29,489.14L290.93,529.76A9.43 9.43 0 0 1 277.60,529.97L236.17,489.82A9.43 9.43 0 0 1 235.96,476.49z"/>
	<path
		fill="#FFFFFF"
		stroke="#9F9F9F"
		fill-opacity="0.000"
		stroke-opacity="0.5"
		fill-rule="nonzero"
		stroke-width="4.7171836"
		stroke-linejoin="miter"
		stroke-linecap="round"
		d="M241.60,430.19L280.96,389.57A9.43 9.43 0 0 1 294.29,389.36L335.72,429.51A9.43 9.43 0 0 1 335.93,442.84L296.57,483.46A9.43 9.43 0 0 1 283.24,483.67L241.81,443.52A9.43 9.43 0 0 1 241.60,430.19z"/>
	<path
		fill="#FFFFFF"
		stroke="#9F9F9F"
		fill-opacity="0.000"
		stroke-opacity="0.5"
		fill-rule="nonzero"
		stroke-width="5.020301"
		stroke-linejoin="miter"
		stroke-linecap="round"
		d="M316.01,428.50L355.38,387.88A9.43 9.43 0 0 1 368.71,387.67L410.14,427.82A9.43 9.43 0 0 1 410.35,441.15L370.98,481.77A9.43 9.43 0 0 1 357.65,481.98L316.22,441.83A9.43 9.43 0 0 1 316.01,428.50z"/>
	<path
		fill="#9F9F9F"
		stroke="#9F9F9F"
		fill-opacity="0.5"
		stroke-opacity="0.5"
		fill-rule="nonzero"
		stroke-width="0.04117548"
		stroke-linejoin="miter"
		stroke-linecap="round"
		d="M292.52,539.06C292.41,535.40,295.33,532.34,299.05,532.23C302.78,532.12,305.88,534.99,305.99,538.65C306.10,542.32,303.18,545.38,299.46,545.49C295.74,545.60,292.63,542.73,292.52,539.06z"/>
	<path
		fill="#9F9F9F"
		stroke="#9F9F9F"
		fill-opacity="0.5"
		stroke-opacity="0.5"
		fill-rule="nonzero"
		stroke-width="0.04117548"
		stroke-linejoin="miter"
		stroke-linecap="round"
		d="M302.37,528.76C302.26,525.09,305.19,522.03,308.91,521.92C312.63,521.81,315.74,524.69,315.85,528.35C315.96,532.01,313.03,535.07,309.31,535.18C305.59,535.30,302.49,532.42,302.37,528.76z"/>
	<path
		fill="#9F9F9F"
		stroke="#9F9F9F"
		fill-opacity="0.5"
		stroke-opacity="0.5"
		fill-rule="nonzero"
		stroke-width="0.04117548"
		stroke-linejoin="miter"
		stroke-linecap="round"
		d="M312.23,518.45C312.12,514.79,315.04,511.73,318.76,511.61C322.48,511.50,325.59,514.38,325.70,518.04C325.81,521.70,322.89,524.76,319.17,524.88C315.45,524.99,312.34,522.11,312.23,518.45z"/>
	<path
		fill="#9F9F9F"
		stroke="#9F9F9F"
		fill-opacity="0.5"
		stroke-opacity="0.5"
		fill-rule="nonzero"
		stroke-width="0.04117548"
		stroke-linejoin="miter"
		stroke-linecap="round"
		d="M322.08,508.14C321.97,504.48,324.90,501.42,328.62,501.31C332.34,501.19,335.45,504.07,335.56,507.73C335.67,511.39,332.74,514.46,329.02,514.57C325.30,514.68,322.19,511.80,322.08,508.14z"/>
	<path
		fill="#9F9F9F"
		stroke="#9F9F9F"
		fill-opacity="0.5"
		stroke-opacity="0.5"
		fill-rule="nonzero"
		stroke-width="0.04117548"
		stroke-linejoin="miter"
		stroke-linecap="round"
		d="M331.94,497.84C331.83,494.17,334.75,491.11,338.47,491.00C342.19,490.89,345.30,493.76,345.41,497.43C345.52,501.09,342.60,504.15,338.87,504.26C335.15,504.37,332.05,501.50,331.94,497.84z"/>
	<path
		fill="#9E9E9E"
		stroke="#9E9E9E"
		fill-opacity="0.000"
		stroke-opacity="0.5"
		fill-rule="nonzero"
		stroke-width="6.2032804"
		stroke-linejoin="miter"
		stroke-linecap="round"
		d="M768.24,608.01C768.52,626.68,753.27,642.05,734.18,642.33C715.09,642.62,699.39,627.71,699.12,609.04C698.84,590.37,714.08,575.00,733.17,574.71C752.26,574.43,767.96,589.33,768.24,608.01z"/>
	<path
		fill="#9E9E9E"
		stroke="#9E9E9E"
		fill-opacity="0.000"
		stroke-opacity="0.5"
		fill-rule="nonzero"
		stroke-width="6.135004"
		stroke-linejoin="miter"
		stroke-linecap="round"
		d="M836.60,1940.88C819.42,1951.43,796.94,1946.05,786.39,1928.87C775.84,1911.70,781.21,1889.22,798.39,1878.66C815.57,1868.11,838.05,1873.49,848.60,1890.67C859.15,1907.85,853.78,1930.33,836.60,1940.88z"/>
	<path
		fill="#9E9E9E"
		stroke="#9E9E9E"
		fill-opacity="0.000"
		stroke-opacity="0.5"
		fill-rule="nonzero"
		stroke-width="6.135004"
		stroke-linejoin="miter"
		stroke-linecap="round"
		d="M827.67,1976.32C810.49,1986.87,788.01,1981.50,777.46,1964.32C766.90,1947.14,772.28,1924.66,789.46,1914.11C806.64,1903.56,829.12,1908.94,839.67,1926.11C850.22,1943.29,844.84,1965.77,827.67,1976.32z"/>
	<path
		fill="#9E9E9E"
		stroke="#9E9E9E"
		fill-opacity="0.000"
		stroke-opacity="0.5"
		fill-rule="nonzero"
		stroke-width="6.135004"
		stroke-linejoin="miter"
		stroke-linecap="round"
		d="M800.59,1952.00C783.42,1962.55,760.94,1957.18,750.38,1940.00C739.83,1922.82,745.21,1900.34,762.39,1889.79C779.57,1879.24,802.05,1884.61,812.60,1901.79C823.15,1918.97,817.77,1941.45,800.59,1952.00z"/>
	<path
		fill="#9E9E9E"
		stroke="#9E9E9E"
		fill-opacity="0.000"
		stroke-opacity="0.5"
		fill-rule="nonzero"
		stroke-width="6.134996"
		stroke-linejoin="miter"
		stroke-linecap="round"
		d="M1255.54,2483.92L1189.14,2523.49A12.31 12.31 0 0 1 1172.27,2519.22L1132.87,2453.13A12.31 12.31 0 0 1 1137.14,2436.26L1203.54,2396.68A12.31 12.31 0 0 1 1220.42,2400.95L1259.81,2467.05A12.31 12.31 0 0 1 1255.54,2483.92zM1143.07,2470.59C1158.49,2461.40,1163.54,2441.44,1154.35,2426.02C1145.16,2410.60,1125.20,2405.55,1109.78,2414.74C1094.36,2423.93,1089.31,2443.89,1098.50,2459.31C1107.69,2474.73,1127.64,2479.78,1143.07,2470.59z"/>
	<path
		fill="#9E9E9E"
		stroke="#9E9E9E"
		fill-opacity="0.5"
		stroke-opacity="0.5"
		fill-rule="nonzero"
		stroke-width="0.0"
		stroke-linejoin="miter"
		stroke-linecap="round"
		d="M1147.06,2452.10C1144.58,2453.58,1141.37,2452.77,1139.89,2450.29C1138.41,2447.80,1139.22,2444.59,1141.71,2443.11C1144.19,2441.63,1147.40,2442.45,1148.88,2444.93C1150.36,2447.41,1149.55,2450.62,1147.06,2452.10z"/>
	<path
		fill="#9E9E9E"
		stroke="#9E9E9E"
		fill-opacity="0.004"
		stroke-opacity="0.5"
		fill-rule="nonzero"
		stroke-width="5.2302165"
		stroke-linejoin="miter"
		stroke-linecap="round"
		d="M1813.38,1455.52L1878.04,1548.23L1785.33,1612.90L1720.67,1520.19zM1822.53,1518.04C1813.60,1505.24,1795.99,1502.10,1783.19,1511.03C1770.39,1519.96,1767.25,1537.57,1776.18,1550.38C1785.10,1563.18,1802.72,1566.31,1815.52,1557.39C1828.32,1548.46,1831.46,1530.84,1822.53,1518.04z"/>
	<path
		fill="#9E9E9E"
		stroke="#9E9E9E"
		fill-opacity="0.004"
		stroke-opacity="0.5"
		fill-rule="nonzero"
		stroke-width="5.2302165"
		stroke-linejoin="miter"
		stroke-linecap="round"
		d="M1766.76,1488.04L1831.73,1580.53"/>
</svg>