<?xml version="1.0" encoding="utf-8"?>
<svg
	version="1.1"
	xmlns="http://www.w3.org/2000/svg"
	xmlns:xlink="http://www.w3.org/1999/xlink"
	x="0%" y="0%"
	width="100%" height="100%"
	viewBox="0 0 2045.0 2752.0"
	enable-background="new 0 0 2045.0 2752.0"
	xml:space="preserve">
	<path
		fill="#9F9F9F"
		stroke="#9F9F9F"
		fill-opacity="0.5"
		stroke-opacity="0.5"
		fill-rule="nonzero"
		stroke-width="0.2634205"
		stroke-linejoin="miter"
		stroke-linecap="round"
		d="M356.28,395.46C358.58,392.90,362.50,392.67,365.04,394.95C367.58,397.23,367.78,401.16,365.47,403.72C363.17,406.28,359.25,406.51,356.71,404.23C354.17,401.95,353.97,398.02,356.28,395.46z"/>
	<path
		fill="#000000"
		stroke="#9F9F9F"
		fill-opacity="0.000"
		stroke-opacity="0.5"
		fill-rule="nonzero"
		stroke-width="5.2737374"
		stroke-linejoin="miter"
		stroke-linecap="round"
		d="M452.21,363.82L390.33,367.44L393.30,428.13L331.42,431.74L334.39,492.43"/>
	<path
		fill="#000000"
		stroke="#9F9F9F"
		fill-opacity="0.000"
		stroke-opacity="0.5"
		fill-rule="nonzero"
		stroke-width="5.2737374"
		stroke-linejoin="miter"
		stroke-linecap="round"
		d="M508.14,238.82L446.27,242.44L449.23,303.13L387.36,306.75L390.33,367.44L328.45,371.05L331.42,431.74L269.54,435.36L272.51,496.05"/>
	<path
		fill="#000000"
		stroke="#9F9F9F"
		fill-opacity="0.000"
		stroke-opacity="0.5"
		fill-rule="nonzero"
		stroke-width="5.7394924"
		stroke-linejoin="miter"
		stroke-linecap="round"
		d="M1587.77,2450.54A42.83 43.78 88.02 1 1 1584.84,2364.94A41.89 42.83 88.02 1 0 1596.01,2359.24"/>
	<path
		fill="#000000"
		stroke="#9F9F9F"
		fill-opacity="0.000"
		stroke-opacity="0.5"
		fill-rule="nonzero"
		stroke-width="5.7394924"
		stroke-linejoin="miter"
		stroke-linecap="round"
		d="M1517.02,2515.50A42.53 43.48 303.03 1 1 1562.66,2443.71A42.54 43.48 303.03 1 0 1608.30,2371.93A42.53 43.48 303.03 1 1 1653.95,2300.14A42.53 43.48 303.03 1 0 1699.59,2228.35"/>
	<path
		fill="#000000"
		stroke="#9F9F9F"
		fill-opacity="0.004"
		stroke-opacity="0.5"
		fill-rule="nonzero"
		stroke-width="6.203277"
		stroke-linejoin="miter"
		stroke-linecap="round"
		d="M1622.15,1593.85L1671.47,1627.57L1637.99,1676.52L1588.68,1642.79z"/>
	<path
		fill="#000000"
		stroke="#9F9F9F"
		fill-opacity="0.000"
		stroke-opacity="0.5"
		fill-rule="nonzero"
		stroke-width="6.203277"
		stroke-linejoin="miter"
		stroke-linecap="round"
		d="M1684.47,1590.75L1724.89,1618.40L1697.87,1657.89L1657.46,1630.25z"/>
	<path
		fill="#000000"
		stroke="#9F9F9F"
		fill-opacity="0.000"
		stroke-opacity="0.5"
		fill-rule="nonzero"
		stroke-width="6.203277"
		stroke-linejoin="miter"
		stroke-linecap="round"
		d="M1663.40,1711.20L1635.70,1658.54L1602.35,1700.61L1663.40,1711.20z"/>
	<path
		fill="#000000"
		stroke="#9F9F9F"
		fill-opacity="0.000"
		stroke-opacity="0.5"
		fill-rule="nonzero"
		stroke-width="6.203283"
		stroke-linejoin="miter"
		stroke-linecap="round"
		d="M1218.40,1129.35L1290.47,1157.92L1286.97,1089.65L1218.40,1129.35z"/>
	<path
		fill="#000000"
		stroke="#9F9F9F"
		fill-opacity="0.004"
		stroke-opacity="0.5"
		fill-rule="nonzero"
		stroke-width="7.447221"
		stroke-linejoin="miter"
		stroke-linecap="round"
		d="M949.11,1961.66L994.87,1889.47L1066.36,1934.79L1020.61,2006.97z"/>
	<path
		fill="#000000"
		stroke="#9F9F9F"
		fill-opacity="0.000"
		stroke-opacity="0.5"
		fill-rule="nonzero"
		stroke-width="7.447221"
		stroke-linejoin="miter"
		stroke-linecap="round"
		d="M912.71,1998.68L950.20,1939.54L1007.91,1976.12L970.42,2035.26z"/>
	<path
		fill="#000000"
		stroke="#9F9F9F"
		fill-opacity="0.000"
		stroke-opacity="0.5"
		fill-rule="nonzero"
		stroke-width="6.203283"
		stroke-linejoin="miter"
		stroke-linecap="round"
		d="M1289.64,1132.91C1265.22,1134.42,1244.23,1116.27,1242.75,1092.38C1241.28,1068.49,1259.88,1047.90,1284.30,1046.40C1308.71,1044.89,1329.71,1063.03,1331.18,1086.92C1332.66,1110.81,1314.06,1131.40,1289.64,1132.91z"/>
	<path
		fill="#000000"
		stroke="#9F9F9F"
		fill-opacity="0.000"
		stroke-opacity="0.5"
		fill-rule="nonzero"
		stroke-width="6.2032785"
		stroke-linejoin="miter"
		stroke-linecap="round"
		d="M1063.98,2499.15L978.10,2566.50"/>
	<path
		fill="#000000"
		stroke="#9F9F9F"
		fill-opacity="0.000"
		stroke-opacity="0.5"
		fill-rule="nonzero"
		stroke-width="6.2032785"
		stroke-linejoin="miter"
		stroke-linecap="round"
		d="M1043.45,2469.48L957.58,2536.82"/>
	<path
		fill="#000000"
		stroke="#9F9F9F"
		fill-opacity="0.000"
		stroke-opacity="0.5"
		fill-rule="nonzero"
		stroke-width="6.2032785"
		stroke-linejoin="miter"
		stroke-linecap="round"
		d="M1022.93,2439.80L937.06,2507.14"/>
	<path
		fill="#9F9F9F"
		stroke="#9F9F9F"
		fill-opacity="0.5"
		stroke-opacity="0.5"
		fill-rule="nonzero"
		stroke-width="0.31852362"
		stroke-linejoin="miter"
		stroke-linecap="round"
		d="M991.72,140.56C995.03,138.80,999.17,140.11,1000.97,143.49C1002.76,146.88,1001.54,151.04,998.23,152.80C994.92,154.56,990.78,153.24,988.99,149.86C987.19,146.48,988.41,142.31,991.72,140.56z"/>
	<path
		fill="#9F9F9F"
		stroke="#9F9F9F"
		fill-opacity="0.5"
		stroke-opacity="0.5"
		fill-rule="nonzero"
		stroke-width="0.31852362"
		stroke-linejoin="miter"
		stroke-linecap="round"
		d="M1010.92,146.66C1014.23,144.90,1018.36,146.21,1020.16,149.60C1021.96,152.98,1020.73,157.14,1017.43,158.90C1014.12,160.66,1009.98,159.34,1008.18,155.96C1006.38,152.58,1007.61,148.42,1010.92,146.66z"/>
	<path
		fill="#9F9F9F"
		stroke="#9F9F9F"
		fill-opacity="0.5"
		stroke-opacity="0.5"
		fill-rule="nonzero"
		stroke-width="0.31852362"
		stroke-linejoin="miter"
		stroke-linecap="round"
		d="M1030.11,152.76C1033.42,151.00,1037.56,152.32,1039.36,155.70C1041.15,159.08,1039.93,163.25,1036.62,165.00C1033.31,166.76,1029.17,165.45,1027.38,162.06C1025.58,158.68,1026.80,154.52,1030.11,152.76z"/>
	<path
		fill="#9F9F9F"
		stroke="#9F9F9F"
		fill-opacity="0.5"
		stroke-opacity="0.5"
		fill-rule="nonzero"
		stroke-width="0.31852362"
		stroke-linejoin="miter"
		stroke-linecap="round"
		d="M1049.31,158.86C1052.62,157.10,1056.75,158.42,1058.55,161.80C1060.35,165.18,1059.12,169.35,1055.82,171.10C1052.51,172.86,1048.37,171.55,1046.57,168.17C1044.77,164.79,1046.00,160.62,1049.31,158.86z"/>
	<path
		fill="#9F9F9F"
		stroke="#9F9F9F"
		fill-opacity="0.5"
		stroke-opacity="0.5"
		fill-rule="nonzero"
		stroke-width="0.31852362"
		stroke-linejoin="miter"
		stroke-linecap="round"
		d="M1068.50,164.96C1071.81,163.20,1075.95,164.52,1077.75,167.90C1079.54,171.28,1078.32,175.45,1075.01,177.21C1071.70,178.97,1067.56,177.65,1065.77,174.27C1063.97,170.89,1065.19,166.72,1068.50,164.96z"/>
	<path
		fill="#9F9F9F"
		stroke="#9F9F9F"
		fill-opacity="0.5"
		stroke-opacity="0.5"
		fill-rule="nonzero"
		stroke-width="0.31852362"
		stroke-linejoin="miter"
		stroke-linecap="round"
		d="M1087.87,171.12C1091.18,169.36,1095.32,170.68,1097.12,174.06C1098.91,177.44,1097.69,181.61,1094.38,183.36C1091.07,185.12,1086.93,183.81,1085.14,180.43C1083.34,177.04,1084.56,172.88,1087.87,171.12z"/>
	<path
		fill="#9F9F9F"
		stroke="#9F9F9F"
		fill-opacity="0.5"
		stroke-opacity="0.5"
		fill-rule="nonzero"
		stroke-width="0.31852362"
		stroke-linejoin="miter"
		stroke-linecap="round"
		d="M1107.24,177.28C1110.55,175.52,1114.69,176.83,1116.49,180.21C1118.28,183.60,1117.06,187.76,1113.75,189.52C1110.44,191.28,1106.30,189.96,1104.51,186.58C1102.71,183.20,1103.93,179.03,1107.24,177.28z"/>
	<path
		fill="#9F9F9F"
		stroke="#9F9F9F"
		fill-opacity="0.5"
		stroke-opacity="0.5"
		fill-rule="nonzero"
		stroke-width="0.31852362"
		stroke-linejoin="miter"
		stroke-linecap="round"
		d="M1124.68,182.82C1127.99,181.06,1132.13,182.38,1133.93,185.76C1135.72,189.14,1134.50,193.31,1131.19,195.06C1127.88,196.82,1123.74,195.51,1121.95,192.13C1120.15,188.74,1121.37,184.58,1124.68,182.82z"/>
	<path
		fill="#9F9F9F"
		stroke="#9F9F9F"
		fill-opacity="0.5"
		stroke-opacity="0.5"
		fill-rule="nonzero"
		stroke-width="0.31852362"
		stroke-linejoin="miter"
		stroke-linecap="round"
		d="M983.12,169.82C986.43,168.06,990.57,169.38,992.36,172.76C994.16,176.14,992.94,180.30,989.63,182.06C986.32,183.82,982.18,182.51,980.39,179.12C978.59,175.74,979.81,171.58,983.12,169.82z"/>
	<path
		fill="#9F9F9F"
		stroke="#9F9F9F"
		fill-opacity="0.5"
		stroke-opacity="0.5"
		fill-rule="nonzero"
		stroke-width="0.31852362"
		stroke-linejoin="miter"
		stroke-linecap="round"
		d="M1002.32,175.92C1005.62,174.16,1009.76,175.48,1011.56,178.86C1013.36,182.24,1012.13,186.41,1008.82,188.16C1005.52,189.92,1001.38,188.61,999.58,185.23C997.78,181.84,999.01,177.68,1002.32,175.92z"/>
	<path
		fill="#9F9F9F"
		stroke="#9F9F9F"
		fill-opacity="0.5"
		stroke-opacity="0.5"
		fill-rule="nonzero"
		stroke-width="0.31852362"
		stroke-linejoin="miter"
		stroke-linecap="round"
		d="M1021.51,182.02C1024.82,180.26,1028.96,181.58,1030.76,184.96C1032.55,188.34,1031.33,192.51,1028.02,194.27C1024.71,196.02,1020.57,194.71,1018.78,191.33C1016.98,187.95,1018.20,183.78,1021.51,182.02z"/>
	<path
		fill="#9F9F9F"
		stroke="#9F9F9F"
		fill-opacity="0.5"
		stroke-opacity="0.5"
		fill-rule="nonzero"
		stroke-width="0.31852362"
		stroke-linejoin="miter"
		stroke-linecap="round"
		d="M1040.71,188.12C1044.01,186.36,1048.15,187.68,1049.95,191.06C1051.75,194.44,1050.52,198.61,1047.21,200.37C1043.91,202.13,1039.77,200.81,1037.97,197.43C1036.17,194.05,1037.40,189.88,1040.71,188.12z"/>
	<path
		fill="#9F9F9F"
		stroke="#9F9F9F"
		fill-opacity="0.5"
		stroke-opacity="0.5"
		fill-rule="nonzero"
		stroke-width="0.31852362"
		stroke-linejoin="miter"
		stroke-linecap="round"
		d="M1059.90,194.22C1063.21,192.47,1067.35,193.78,1069.15,197.16C1070.94,200.54,1069.72,204.71,1066.41,206.47C1063.10,208.23,1058.96,206.91,1057.16,203.53C1055.37,200.15,1056.59,195.98,1059.90,194.22z"/>
	<path
		fill="#9F9F9F"
		stroke="#9F9F9F"
		fill-opacity="0.5"
		stroke-opacity="0.5"
		fill-rule="nonzero"
		stroke-width="0.31852362"
		stroke-linejoin="miter"
		stroke-linecap="round"
		d="M1079.27,200.38C1082.58,198.62,1086.72,199.94,1088.51,203.32C1090.31,206.70,1089.09,210.87,1085.78,212.63C1082.47,214.39,1078.33,213.07,1076.53,209.69C1074.74,206.31,1075.96,202.14,1079.27,200.38z"/>
	<path
		fill="#9F9F9F"
		stroke="#9F9F9F"
		fill-opacity="0.5"
		stroke-opacity="0.5"
		fill-rule="nonzero"
		stroke-width="0.31852362"
		stroke-linejoin="miter"
		stroke-linecap="round"
		d="M1098.64,206.54C1101.95,204.78,1106.09,206.10,1107.88,209.48C1109.68,212.86,1108.46,217.03,1105.15,218.78C1101.84,220.54,1097.70,219.23,1095.91,215.85C1094.11,212.46,1095.33,208.30,1098.64,206.54z"/>
	<path
		fill="#9F9F9F"
		stroke="#9F9F9F"
		fill-opacity="0.5"
		stroke-opacity="0.5"
		fill-rule="nonzero"
		stroke-width="0.31852362"
		stroke-linejoin="miter"
		stroke-linecap="round"
		d="M1116.08,212.08C1119.39,210.32,1123.53,211.64,1125.32,215.02C1127.12,218.40,1125.90,222.57,1122.59,224.33C1119.28,226.09,1115.14,224.77,1113.34,221.39C1111.55,218.01,1112.77,213.84,1116.08,212.08z"/>
	<path
		fill="#9F9F9F"
		stroke="#9F9F9F"
		fill-opacity="0.5"
		stroke-opacity="0.5"
		fill-rule="nonzero"
		stroke-width="0.31852362"
		stroke-linejoin="miter"
		stroke-linecap="round"
		d="M974.52,199.08C977.83,197.32,981.97,198.64,983.76,202.02C985.56,205.40,984.34,209.57,981.03,211.33C977.72,213.08,973.58,211.77,971.78,208.39C969.99,205.01,971.21,200.84,974.52,199.08z"/>
	<path
		fill="#9F9F9F"
		stroke="#9F9F9F"
		fill-opacity="0.5"
		stroke-opacity="0.5"
		fill-rule="nonzero"
		stroke-width="0.31852362"
		stroke-linejoin="miter"
		stroke-linecap="round"
		d="M993.71,205.18C997.02,203.42,1001.16,204.74,1002.96,208.12C1004.76,211.50,1003.53,215.67,1000.22,217.43C996.91,219.19,992.78,217.87,990.98,214.49C989.18,211.11,990.41,206.94,993.71,205.18z"/>
	<path
		fill="#9F9F9F"
		stroke="#9F9F9F"
		fill-opacity="0.5"
		stroke-opacity="0.5"
		fill-rule="nonzero"
		stroke-width="0.31852362"
		stroke-linejoin="miter"
		stroke-linecap="round"
		d="M1012.91,211.28C1016.22,209.53,1020.36,210.84,1022.15,214.22C1023.95,217.60,1022.73,221.77,1019.42,223.53C1016.11,225.29,1011.97,223.97,1010.17,220.59C1008.38,217.21,1009.60,213.04,1012.91,211.28z"/>
	<path
		fill="#9F9F9F"
		stroke="#9F9F9F"
		fill-opacity="0.5"
		stroke-opacity="0.5"
		fill-rule="nonzero"
		stroke-width="0.31852362"
		stroke-linejoin="miter"
		stroke-linecap="round"
		d="M1032.10,217.39C1035.41,215.63,1039.55,216.94,1041.35,220.32C1043.15,223.71,1041.92,227.87,1038.61,229.63C1035.30,231.39,1031.17,230.07,1029.37,226.69C1027.57,223.31,1028.80,219.15,1032.10,217.39z"/>
	<path
		fill="#9F9F9F"
		stroke="#9F9F9F"
		fill-opacity="0.5"
		stroke-opacity="0.5"
		fill-rule="nonzero"
		stroke-width="0.31852362"
		stroke-linejoin="miter"
		stroke-linecap="round"
		d="M1051.30,223.49C1054.61,221.73,1058.75,223.04,1060.54,226.43C1062.34,229.81,1061.12,233.97,1057.81,235.73C1054.50,237.49,1050.36,236.18,1048.56,232.79C1046.77,229.41,1047.99,225.25,1051.30,223.49z"/>
	<path
		fill="#9F9F9F"
		stroke="#9F9F9F"
		fill-opacity="0.5"
		stroke-opacity="0.5"
		fill-rule="nonzero"
		stroke-width="0.31852362"
		stroke-linejoin="miter"
		stroke-linecap="round"
		d="M1070.67,229.64C1073.98,227.89,1078.12,229.20,1079.91,232.58C1081.71,235.96,1080.49,240.13,1077.18,241.89C1073.87,243.65,1069.73,242.33,1067.93,238.95C1066.14,235.57,1067.36,231.40,1070.67,229.64z"/>
	<path
		fill="#9F9F9F"
		stroke="#9F9F9F"
		fill-opacity="0.5"
		stroke-opacity="0.5"
		fill-rule="nonzero"
		stroke-width="0.31852362"
		stroke-linejoin="miter"
		stroke-linecap="round"
		d="M1090.04,235.80C1093.35,234.04,1097.49,235.36,1099.28,238.74C1101.08,242.12,1099.86,246.29,1096.55,248.05C1093.24,249.81,1089.10,248.49,1087.30,245.11C1085.51,241.73,1086.73,237.56,1090.04,235.80z"/>
	<path
		fill="#9F9F9F"
		stroke="#9F9F9F"
		fill-opacity="0.5"
		stroke-opacity="0.5"
		fill-rule="nonzero"
		stroke-width="0.31852362"
		stroke-linejoin="miter"
		stroke-linecap="round"
		d="M1107.48,241.35C1110.79,239.59,1114.93,240.90,1116.72,244.28C1118.52,247.67,1117.30,251.83,1113.99,253.59C1110.68,255.35,1106.54,254.03,1104.74,250.65C1102.94,247.27,1104.17,243.10,1107.48,241.35z"/>
	<path
		fill="#FFFFFF"
		stroke="#9F9F9F"
		fill-opacity="0.000"
		stroke-opacity="0.5"
		fill-rule="nonzero"
		stroke-width="5.0203013"
		stroke-linejoin="miter"
		stroke-linecap="round"
		d="M362.73,925.06L395.28,878.81A9.43 9.43 0 0 1 408.41,876.52L455.59,909.72A9.43 9.43 0 0 1 457.88,922.86L425.32,969.11A9.43 9.43 0 0 1 412.19,971.40L365.01,938.20A9.43 9.43 0 0 1 362.73,925.06z"/>
	<path
		fill="#FFFFFF"
		stroke="#9F9F9F"
		fill-opacity="0.000"
		stroke-opacity="0.5"
		fill-rule="nonzero"
		stroke-width="4.717184"
		stroke-linejoin="miter"
		stroke-linecap="round"
		d="M361.08,878.45L393.64,832.19A9.43 9.43 0 0 1 406.77,829.91L453.95,863.11A9.43 9.43 0 0 1 456.23,876.24L423.68,922.50A9.43 9.43 0 0 1 410.55,924.78L363.37,891.58A9.43 9.43 0 0 1 361.08,878.45z"/>
	<path
		fill="#FFFFFF"
		stroke="#9F9F9F"
		fill-opacity="0.000"
		stroke-opacity="0.5"
		fill-rule="nonzero"
		stroke-width="5.0203013"
		stroke-linejoin="miter"
		stroke-linecap="round"
		d="M434.33,865.18L466.88,818.93A9.43 9.43 0 0 1 480.02,816.64L527.20,849.84A9.43 9.43 0 0 1 529.48,862.98L496.93,909.24A9.43 9.43 0 0 1 483.79,911.52L436.61,878.32A9.43 9.43 0 0 1 434.33,865.18z"/>
	<path
		fill="#9F9F9F"
		stroke="#9F9F9F"
		fill-opacity="0.5"
		stroke-opacity="0.5"
		fill-rule="nonzero"
		stroke-width="0.041175485"
		stroke-linejoin="miter"
		stroke-linecap="round"
		d="M428.35,978.06C427.67,974.46,430.08,970.98,433.74,970.29C437.39,969.59,440.91,971.95,441.59,975.55C442.27,979.15,439.86,982.63,436.20,983.32C432.54,984.01,429.03,981.66,428.35,978.06z"/>
	<path
		fill="#9F9F9F"
		stroke="#9F9F9F"
		fill-opacity="0.5"
		stroke-opacity="0.5"
		fill-rule="nonzero"
		stroke-width="0.041175485"
		stroke-linejoin="miter"
		stroke-linecap="round"
		d="M436.47,966.34C435.79,962.74,438.21,959.26,441.87,958.57C445.52,957.88,449.04,960.24,449.72,963.84C450.40,967.44,447.99,970.91,444.33,971.61C440.67,972.30,437.16,969.94,436.47,966.34z"/>
	<path
		fill="#9F9F9F"
		stroke="#9F9F9F"
		fill-opacity="0.5"
		stroke-opacity="0.5"
		fill-rule="nonzero"
		stroke-width="0.041175485"
		stroke-linejoin="miter"
		stroke-linecap="round"
		d="M444.60,954.62C443.92,951.02,446.34,947.54,449.99,946.85C453.65,946.16,457.17,948.52,457.85,952.12C458.53,955.72,456.12,959.20,452.46,959.89C448.80,960.58,445.28,958.22,444.60,954.62z"/>
	<path
		fill="#9F9F9F"
		stroke="#9F9F9F"
		fill-opacity="0.5"
		stroke-opacity="0.5"
		fill-rule="nonzero"
		stroke-width="0.041175485"
		stroke-linejoin="miter"
		stroke-linecap="round"
		d="M452.73,942.91C452.05,939.31,454.46,935.83,458.12,935.14C461.78,934.44,465.30,936.80,465.98,940.40C466.66,944.00,464.24,947.48,460.59,948.17C456.93,948.86,453.41,946.51,452.73,942.91z"/>
	<path
		fill="#9F9F9F"
		stroke="#9F9F9F"
		fill-opacity="0.5"
		stroke-opacity="0.5"
		fill-rule="nonzero"
		stroke-width="0.041175485"
		stroke-linejoin="miter"
		stroke-linecap="round"
		d="M460.86,931.19C460.18,927.59,462.59,924.11,466.25,923.42C469.91,922.73,473.42,925.09,474.10,928.69C474.78,932.29,472.37,935.77,468.71,936.46C465.06,937.15,461.54,934.79,460.86,931.19z"/>
	<path
		fill="#9E9E9E"
		stroke="#9E9E9E"
		fill-opacity="0.000"
		stroke-opacity="0.5"
		fill-rule="nonzero"
		stroke-width="6.2032804"
		stroke-linejoin="miter"
		stroke-linecap="round"
		d="M1726.41,859.20C1726.69,877.87,1711.45,893.24,1692.36,893.52C1673.27,893.81,1657.57,878.90,1657.29,860.23C1657.01,841.56,1672.26,826.19,1691.35,825.91C1710.44,825.62,1726.14,840.53,1726.41,859.20z"/>
	<path
		fill="#9E9E9E"
		stroke="#9E9E9E"
		fill-opacity="0.000"
		stroke-opacity="0.5"
		fill-rule="nonzero"
		stroke-width="6.135"
		stroke-linejoin="miter"
		stroke-linecap="round"
		d="M426.50,1608.70C409.32,1619.25,386.84,1613.87,376.29,1596.70C365.74,1579.52,371.11,1557.04,388.29,1546.49C405.47,1535.93,427.95,1541.31,438.50,1558.49C449.05,1575.67,443.68,1598.15,426.50,1608.70z"/>
	<path
		fill="#9E9E9E"
		stroke="#9E9E9E"
		fill-opacity="0.000"
		stroke-opacity="0.5"
		fill-rule="nonzero"
		stroke-width="6.135"
		stroke-linejoin="miter"
		stroke-linecap="round"
		d="M417.56,1644.14C400.38,1654.70,377.90,1649.32,367.35,1632.14C356.80,1614.96,362.18,1592.48,379.35,1581.93C396.53,1571.38,419.01,1576.76,429.56,1593.94C440.12,1611.11,434.74,1633.59,417.56,1644.14z"/>
	<path
		fill="#9E9E9E"
		stroke="#9E9E9E"
		fill-opacity="0.000"
		stroke-opacity="0.5"
		fill-rule="nonzero"
		stroke-width="6.135"
		stroke-linejoin="miter"
		stroke-linecap="round"
		d="M390.49,1619.82C373.31,1630.37,350.83,1625.00,340.28,1607.82C329.73,1590.64,335.10,1568.16,352.28,1557.61C369.46,1547.06,391.94,1552.43,402.49,1569.61C413.04,1586.79,407.67,1609.27,390.49,1619.82z"/>
	<path
		fill="#9E9E9E"
		stroke="#9E9E9E"
		fill-opacity="0.000"
		stroke-opacity="0.5"
		fill-rule="nonzero"
		stroke-width="6.134999"
		stroke-linejoin="miter"
		stroke-linecap="round"
		d="M1594.07,422.41L1640.01,360.24A12.31 12.31 0 0 1 1657.22,357.66L1719.10,403.39A12.31 12.31 0 0 1 1721.68,420.60L1675.74,482.77A12.31 12.31 0 0 1 1658.53,485.35L1596.65,439.62A12.31 12.31 0 0 1 1594.07,422.41zM1702.95,391.22C1692.28,405.66,1695.33,426.02,1709.77,436.69C1724.21,447.36,1744.57,444.31,1755.24,429.87C1765.91,415.43,1762.85,395.07,1748.41,384.40C1733.98,373.73,1713.62,376.78,1702.95,391.22z"/>
	<path
		fill="#9E9E9E"
		stroke="#9E9E9E"
		fill-opacity="0.5"
		stroke-opacity="0.5"
		fill-rule="nonzero"
		stroke-width="0.0"
		stroke-linejoin="miter"
		stroke-linecap="round"
		d="M1706.41,409.82C1708.13,407.50,1711.40,407.01,1713.73,408.72C1716.05,410.44,1716.54,413.72,1714.82,416.04C1713.11,418.36,1709.83,418.86,1707.51,417.14C1705.18,415.42,1704.69,412.14,1706.41,409.82z"/>
	<path
		fill="#9E9E9E"
		stroke="#9E9E9E"
		fill-opacity="0.004"
		stroke-opacity="0.5"
		fill-rule="nonzero"
		stroke-width="5.230219"
		stroke-linejoin="miter"
		stroke-linecap="round"
		d="M443.64,2057.12L508.30,2149.83L415.59,2214.50L350.93,2121.79zM452.79,2119.64C443.86,2106.84,426.25,2103.70,413.45,2112.63C400.65,2121.56,397.51,2139.17,406.44,2151.97C415.36,2164.78,432.98,2167.91,445.78,2158.99C458.58,2150.06,461.72,2132.44,452.79,2119.64z"/>
	<path
		fill="#9E9E9E"
		stroke="#9E9E9E"
		fill-opacity="0.004"
		stroke-opacity="0.5"
		fill-rule="nonzero"
		stroke-width="5.230219"
		stroke-linejoin="miter"
		stroke-linecap="round"
		d="M397.02,2089.64L461.99,2182.13"/>
</svg>