<?xml version="1.0" encoding="UTF-8" standalone="no"?>
<svg
   version="1.1"
   x="0%"
   y="0%"
   width="100%"
   height="100%"
   viewBox="0 0 2560.0 1440.0"
   enable-background="new 0 0 2600.0 1440.0"
   xml:space="preserve"
   id="svg117"
   sodipodi:docname="background2.svg"
   inkscape:version="1.1.2 (b8e25be833, 2022-02-05)"
   xmlns:inkscape="http://www.inkscape.org/namespaces/inkscape"
   xmlns:sodipodi="http://sodipodi.sourceforge.net/DTD/sodipodi-0.dtd"
   xmlns="http://www.w3.org/2000/svg"
   xmlns:svg="http://www.w3.org/2000/svg"><sodipodi:namedview
   id="namedview119"
   pagecolor="#505050"
   bordercolor="#eeeeee"
   borderopacity="1"
   inkscape:pageshadow="0"
   inkscape:pageopacity="0"
   inkscape:pagecheckerboard="0"
   showgrid="false"
   inkscape:zoom="0.39676547"
   inkscape:cx="1571.4573"
   inkscape:cy="521.71879"
   inkscape:window-width="1920"
   inkscape:window-height="1017"
   inkscape:window-x="-8"
   inkscape:window-y="-8"
   inkscape:window-maximized="1"
   inkscape:current-layer="g821" />
<defs
   id="defs113">
<filter
   id="glow0"
   x="-0.025565849"
   y="-0.041350215"
   width="1.0544679"
   height="1.0827004">
	<feOffset
   result="offOut"
   in="SourceGraphic"
   dx="0.0"
   dy="0.0"
   id="feOffset102" />
	<feGaussianBlur
   result="blurOut"
   in="offOut"
   stdDeviation="21.188862"
   id="feGaussianBlur104" />
	<feFlood
   flood-color="#000000"
   flood-opacity="0.2"
   result="flood"
   id="feFlood106" />
	<feComposite
   in="flood"
   in2="blurOut"
   operator="in"
   result="blendOut0"
   id="feComposite108" />
	<feBlend
   in="SourceGraphic"
   in2="blendOut0"
   mode="normal"
   id="feBlend110" />
</filter>

<filter
   id="glow0-6"
   x="-0.025565849"
   y="-0.041350215"
   width="1.0544679"
   height="1.0827004">
	<feOffset
   result="offOut"
   in="SourceGraphic"
   dx="0.0"
   dy="0.0"
   id="feOffset156" />
	<feGaussianBlur
   result="blurOut"
   in="offOut"
   stdDeviation="21.188862"
   id="feGaussianBlur158" />
	<feFlood
   flood-color="#000000"
   flood-opacity="0.2"
   result="flood"
   id="feFlood160" />
	<feComposite
   in="flood"
   in2="blurOut"
   operator="in"
   result="blendOut0"
   id="feComposite162" />
	<feBlend
   in="SourceGraphic"
   in2="blendOut0"
   mode="normal"
   id="feBlend164" />
</filter><clipPath
   clipPathUnits="userSpaceOnUse"
   id="clipPath182"><path
     fill="#cee7f1"
     stroke="#000000"
     fill-opacity="1"
     stroke-opacity="0"
     fill-rule="nonzero"
     stroke-width="24.5274"
     filter="url(#glow0)"
     stroke-linejoin="miter"
     stroke-linecap="square"
     d="M 39.99996,1440 H 1689.6 L 2508.8,-86.4 H 39.99996"
     id="path184"
     style="filter:url(#glow0-6)"
     transform="rotate(-180,1252.5059,686.72713)" /></clipPath></defs>
	<path
   fill="#cee7f1"
   stroke="#000000"
   fill-opacity="1"
   stroke-opacity="0"
   fill-rule="nonzero"
   stroke-width="24.5274"
   filter="url(#glow0)"
   stroke-linejoin="miter"
   stroke-linecap="square"
   d="M 50,1440 H 1699.6 L 2518.8,-86.4 H 50"
   id="path115" />
<g
   id="g821"
   transform="rotate(180,1252.5059,686.72713)"
   clip-path="url(#clipPath182)"><path
     fill="#9f9f9f"
     stroke="#9f9f9f"
     fill-opacity="0.5"
     stroke-opacity="0.5"
     fill-rule="nonzero"
     stroke-width="0.263276"
     stroke-linejoin="miter"
     stroke-linecap="round"
     d="m 1488.7882,576.97001 c -2.4613,2.33638 -6.3439,2.23635 -8.6803,-0.225 -2.3463,-2.46271 -2.2449,-6.35521 0.2264,-8.69022 2.4613,-2.33638 6.3439,-2.23635 8.6803,0.225 2.3364,2.46135 2.235,6.35385 -0.2264,8.69022 z"
     id="path674" /><path
     fill="#000000"
     stroke="#9f9f9f"
     fill-opacity="0"
     stroke-opacity="0.5"
     fill-rule="nonzero"
     stroke-width="2.88"
     stroke-linejoin="miter"
     stroke-linecap="round"
     d="m 1391.7895,600.77365 61.3139,1.60043 1.5919,-61.32516 61.3238,1.6018 1.5905,-61.31525"
     id="path676" /><path
     fill="#000000"
     stroke="#9f9f9f"
     fill-opacity="0"
     stroke-opacity="0.5"
     fill-rule="nonzero"
     stroke-width="2.88"
     stroke-linejoin="miter"
     stroke-linecap="round"
     d="m 1327.2819,721.82217 61.3153,1.59053 1.5905,-61.31526 61.3252,1.59189 1.5905,-61.31525 61.3153,1.59053 1.6004,-61.31389 61.3152,1.59053 1.6005,-61.31389"
     id="path678" /><path
     fill="#000000"
     stroke="#9f9f9f"
     fill-opacity="0"
     stroke-opacity="0.5"
     fill-rule="nonzero"
     stroke-width="2.88"
     stroke-linejoin="miter"
     stroke-linecap="round"
     d="m 2370.2403,1143.2514 a 42.511267,42.511267 0 1 1 -82.2139,-21.6727 42.51,42.51 0 1 0 -2.1562,-12.4874"
     id="path680" /><path
     fill="#000000"
     stroke="#9f9f9f"
     fill-opacity="0"
     stroke-opacity="0.5"
     fill-rule="nonzero"
     stroke-width="2.88"
     stroke-linejoin="miter"
     stroke-linecap="round"
     d="m 2411.3273,1230.6109 a 42.511338,42.511338 0 1 1 -54.9101,-64.9133 42.513519,42.513519 0 1 0 -54.9025,-64.9254 42.51,42.51 0 1 1 -54.9003,-64.9156 42.513559,42.513559 0 1 0 -54.9026,-64.92546"
     id="path682" /><path
     fill="#000000"
     stroke="#9f9f9f"
     fill-opacity="0.00400002"
     stroke-opacity="0.5"
     fill-rule="nonzero"
     stroke-width="2.25752"
     stroke-linejoin="miter"
     stroke-linecap="round"
     d="m 1553.9026,139.15445 -24.7905,60.01991 -60.0199,-24.79046 24.7905,-60.01991 z"
     id="path684" /><path
     fill="#000000"
     stroke="#9f9f9f"
     fill-opacity="0"
     stroke-opacity="0.5"
     fill-rule="nonzero"
     stroke-width="2.25752"
     stroke-linejoin="miter"
     stroke-linecap="round"
     d="m 1570.9395,203.57319 -20.3124,49.19135 -48.4512,-20.00822 20.3173,-49.18277 z"
     id="path686" /><path
     fill="#000000"
     stroke="#9f9f9f"
     fill-opacity="0"
     stroke-opacity="0.5"
     fill-rule="nonzero"
     stroke-width="2.25752"
     stroke-linejoin="miter"
     stroke-linecap="round"
     d="m 1437.6464,208.7788 50.1348,-40.85182 -52.2802,-25.33974 z"
     id="path688" /><path
     fill="#000000"
     stroke="#9f9f9f"
     fill-opacity="0"
     stroke-opacity="0.5"
     fill-rule="nonzero"
     stroke-width="2.88"
     stroke-linejoin="miter"
     stroke-linecap="round"
     d="m 537.35526,1260.0841 62.87024,18.3863 -8.86433,-58.1823 z"
     id="path690" /><path
     fill="#000000"
     stroke="#9f9f9f"
     fill-opacity="0.00400002"
     stroke-opacity="0.5"
     fill-rule="nonzero"
     stroke-width="2.88"
     stroke-linejoin="miter"
     stroke-linecap="round"
     d="m 1282.87,1156.48 81.56,12.49 -12.49,81.56 -81.56,-12.49 z"
     id="path692" /><path
     fill="#000000"
     stroke="#9f9f9f"
     fill-opacity="0"
     stroke-opacity="0.5"
     fill-rule="nonzero"
     stroke-width="2.88"
     stroke-linejoin="miter"
     stroke-linecap="round"
     d="m 1235.41,1137.68 66.84,10.23 -10.08,65.83 -66.84,-10.23 z"
     id="path694" /><path
     fill="#000000"
     stroke="#9f9f9f"
     fill-opacity="0"
     stroke-opacity="0.5"
     fill-rule="nonzero"
     stroke-width="2.88"
     stroke-linejoin="miter"
     stroke-linecap="round"
     d="m 597.38909,1257.0775 c -20.31906,3.3293 -39.47823,-10.4441 -42.80749,-30.7631 -3.32926,-20.3191 10.43421,-39.4766 30.75326,-42.8059 20.31906,-3.3293 39.48648,10.4326 42.81574,30.7516 3.32927,20.3191 -10.44245,39.4881 -30.76151,42.8174 z"
     id="path696" /><path
     fill="#000000"
     stroke="#9f9f9f"
     fill-opacity="0"
     stroke-opacity="0.5"
     fill-rule="nonzero"
     stroke-width="2.88"
     stroke-linejoin="miter"
     stroke-linecap="round"
     d="m 2249.1945,224.30312 -32.5408,-74.19258"
     id="path698" /><path
     fill="#000000"
     stroke="#9f9f9f"
     fill-opacity="0"
     stroke-opacity="0.5"
     fill-rule="nonzero"
     stroke-width="2.88"
     stroke-linejoin="miter"
     stroke-linecap="round"
     d="M 2274.128,214.47837 2241.5872,140.2858"
     id="path700" /><path
     fill="#000000"
     stroke="#9f9f9f"
     fill-opacity="0"
     stroke-opacity="0.5"
     fill-rule="nonzero"
     stroke-width="2.88"
     stroke-linejoin="miter"
     stroke-linecap="round"
     d="m 2299.0747,204.64844 -32.5408,-74.19258"
     id="path702" /><path
     fill="#9f9f9f"
     stroke="#9f9f9f"
     fill-opacity="0.5"
     stroke-opacity="0.5"
     fill-rule="nonzero"
     stroke-width="0.221821"
     stroke-linejoin="miter"
     stroke-linecap="round"
     d="m 776.7153,490.6026 c 0.55833,2.58028 -1.08119,5.12436 -3.66157,5.68247 -2.58027,0.55811 -5.12432,-1.08117 -5.68245,-3.66149 -0.55834,-2.58031 1.08118,-5.12437 3.66155,-5.68247 2.58028,-0.55813 5.12433,1.08116 5.68247,3.66149 z"
     id="path704"
     inkscape:transform-center-x="50.050158"
     inkscape:transform-center-y="40.822506" /><path
     fill="#9f9f9f"
     stroke="#9f9f9f"
     fill-opacity="0.5"
     stroke-opacity="0.5"
     fill-rule="nonzero"
     stroke-width="0.221821"
     stroke-linejoin="miter"
     stroke-linecap="round"
     d="m 769.1088,502.40738 c 0.55833,2.58028 -1.08108,5.12434 -3.66146,5.68243 -2.58037,0.55815 -5.12432,-1.08116 -5.68246,-3.66149 -0.55833,-2.58028 1.08119,-5.12436 3.66146,-5.68243 2.58038,-0.55815 5.12443,1.08113 5.68246,3.66149 z"
     id="path706"
     inkscape:transform-center-x="42.443712"
     inkscape:transform-center-y="29.017744" /><path
     fill="#9f9f9f"
     stroke="#9f9f9f"
     fill-opacity="0.5"
     stroke-opacity="0.5"
     fill-rule="nonzero"
     stroke-width="0.221821"
     stroke-linejoin="miter"
     stroke-linecap="round"
     d="m 761.50241,514.21213 c 0.55834,2.58029 -1.08118,5.12437 -3.66146,5.68244 -2.58037,0.55815 -5.12442,-1.08114 -5.68246,-3.66148 -0.55833,-2.5803 1.08118,-5.12437 3.66146,-5.68246 2.58038,-0.55814 5.12443,1.08115 5.68246,3.6615 z"
     id="path708"
     inkscape:transform-center-x="34.837321"
     inkscape:transform-center-y="17.212992" /><path
     fill="#9f9f9f"
     stroke="#9f9f9f"
     fill-opacity="0.5"
     stroke-opacity="0.5"
     fill-rule="nonzero"
     stroke-width="0.221821"
     stroke-linejoin="miter"
     stroke-linecap="round"
     d="m 753.89603,526.01688 c 0.55832,2.58029 -1.08119,5.12436 -3.66148,5.68245 -2.58037,0.55814 -5.12442,-1.08115 -5.68245,-3.6615 -0.55833,-2.58029 1.08109,-5.12434 3.66146,-5.68244 2.58038,-0.55814 5.12432,1.08116 5.68247,3.66149 z"
     id="path710"
     inkscape:transform-center-x="27.230931"
     inkscape:transform-center-y="5.4082325" /><path
     fill="#9f9f9f"
     stroke="#9f9f9f"
     fill-opacity="0.5"
     stroke-opacity="0.5"
     fill-rule="nonzero"
     stroke-width="0.221821"
     stroke-linejoin="miter"
     stroke-linecap="round"
     d="m 746.28963,537.82163 c 0.55833,2.5803 -1.08118,5.12437 -3.66157,5.68248 -2.58026,0.55812 -5.12432,-1.08119 -5.68235,-3.66152 -0.55833,-2.5803 1.08109,-5.12435 3.66146,-5.68245 2.58027,-0.55812 5.12431,1.08117 5.68246,3.66149 z"
     id="path712"
     inkscape:transform-center-x="19.624538"
     inkscape:transform-center-y="-6.3965316" /><path
     fill="#9f9f9f"
     stroke="#9f9f9f"
     fill-opacity="0.5"
     stroke-opacity="0.5"
     fill-rule="nonzero"
     stroke-width="0.221821"
     stroke-linejoin="miter"
     stroke-linecap="round"
     d="m 738.61426,549.73339 c 0.55835,2.58029 -1.08117,5.12437 -3.66145,5.68244 -2.58037,0.55815 -5.12443,-1.08115 -5.68246,-3.66148 -0.55834,-2.5803 1.08108,-5.12436 3.66146,-5.68246 2.58037,-0.55814 5.12433,1.08117 5.68245,3.6615 z"
     id="path714"
     inkscape:transform-center-x="11.949174"
     inkscape:transform-center-y="-18.308269" /><path
     fill="#9f9f9f"
     stroke="#9f9f9f"
     fill-opacity="0.5"
     stroke-opacity="0.5"
     fill-rule="nonzero"
     stroke-width="0.221821"
     stroke-linejoin="miter"
     stroke-linecap="round"
     d="m 730.93891,561.64513 c 0.55834,2.58028 -1.08118,5.12438 -3.66146,5.68246 -2.58039,0.55803 -5.12442,-1.08116 -5.68246,-3.66149 -0.55834,-2.58031 1.08108,-5.12436 3.66146,-5.68246 2.58036,-0.55815 5.12433,1.08117 5.68246,3.66149 z"
     id="path716"
     inkscape:transform-center-x="4.2738172"
     inkscape:transform-center-y="-30.220004" /><path
     fill="#9f9f9f"
     stroke="#9f9f9f"
     fill-opacity="0.5"
     stroke-opacity="0.5"
     fill-rule="nonzero"
     stroke-width="0.221821"
     stroke-linejoin="miter"
     stroke-linecap="round"
     d="m 724.02959,572.36808 c 0.55832,2.58028 -1.08118,5.12437 -3.66156,5.68247 -2.58028,0.55813 -5.12433,-1.08117 -5.68246,-3.66149 -0.55833,-2.58029 1.08118,-5.12438 3.66155,-5.68248 2.58028,-0.55812 5.12433,1.08117 5.68247,3.6615 z"
     id="path718"
     inkscape:transform-center-x="-2.6355519"
     inkscape:transform-center-y="-40.942974" /><path
     fill="#9f9f9f"
     stroke="#9f9f9f"
     fill-opacity="0.5"
     stroke-opacity="0.5"
     fill-rule="nonzero"
     stroke-width="0.221821"
     stroke-linejoin="miter"
     stroke-linecap="round"
     d="m 758.88329,479.11256 c 0.55833,2.58029 -1.08119,5.12436 -3.66147,5.68244 -2.58036,0.55815 -5.12441,-1.08115 -5.68246,-3.66148 -0.55833,-2.58029 1.08118,-5.12437 3.66147,-5.68245 2.58036,-0.55816 5.12441,1.08114 5.68246,3.66149 z"
     id="path720"
     inkscape:transform-center-x="32.218194"
     inkscape:transform-center-y="52.312559" /><path
     fill="#9f9f9f"
     stroke="#9f9f9f"
     fill-opacity="0.5"
     stroke-opacity="0.5"
     fill-rule="nonzero"
     stroke-width="0.221821"
     stroke-linejoin="miter"
     stroke-linecap="round"
     d="m 751.27689,490.91731 c 0.55834,2.58029 -1.08117,5.12437 -3.66146,5.68245 -2.58036,0.55815 -5.12441,-1.08114 -5.68245,-3.66149 -0.55835,-2.5803 1.08108,-5.12435 3.66145,-5.68245 2.58037,-0.55814 5.12432,1.08116 5.68246,3.66149 z"
     id="path722"
     inkscape:transform-center-x="24.6118"
     inkscape:transform-center-y="40.507801" /><path
     fill="#9f9f9f"
     stroke="#9f9f9f"
     fill-opacity="0.5"
     stroke-opacity="0.5"
     fill-rule="nonzero"
     stroke-width="0.221821"
     stroke-linejoin="miter"
     stroke-linecap="round"
     d="m 743.6705,502.72207 c 0.55834,2.58029 -1.08118,5.12436 -3.66156,5.68247 -2.58027,0.55812 -5.12432,-1.08118 -5.68246,-3.6615 -0.55833,-2.58029 1.08118,-5.12437 3.66157,-5.68246 2.58026,-0.55813 5.12431,1.08116 5.68245,3.66149 z"
     id="path724"
     inkscape:transform-center-x="17.005361"
     inkscape:transform-center-y="28.703036" /><path
     fill="#9f9f9f"
     stroke="#9f9f9f"
     fill-opacity="0.5"
     stroke-opacity="0.5"
     fill-rule="nonzero"
     stroke-width="0.221821"
     stroke-linejoin="miter"
     stroke-linecap="round"
     d="m 736.06402,514.52684 c 0.55833,2.58029 -1.08109,5.12436 -3.66147,5.68244 -2.58026,0.55813 -5.12432,-1.08115 -5.68246,-3.66148 -0.55833,-2.58029 1.08119,-5.12438 3.66156,-5.68247 2.58027,-0.55812 5.12432,1.08116 5.68237,3.66151 z"
     id="path726"
     inkscape:transform-center-x="9.3989271"
     inkscape:transform-center-y="16.898287" /><path
     fill="#9f9f9f"
     stroke="#9f9f9f"
     fill-opacity="0.5"
     stroke-opacity="0.5"
     fill-rule="nonzero"
     stroke-width="0.221821"
     stroke-linejoin="miter"
     stroke-linecap="round"
     d="m 728.45762,526.33159 c 0.55834,2.5803 -1.08108,5.12435 -3.66146,5.68245 -2.58037,0.55815 -5.12433,-1.08116 -5.68245,-3.66149 -0.55835,-2.58028 1.08117,-5.12437 3.66145,-5.68244 2.58037,-0.55815 5.12442,1.08113 5.68246,3.66148 z"
     id="path728"
     inkscape:transform-center-x="1.7925351"
     inkscape:transform-center-y="5.093519" /><path
     fill="#9f9f9f"
     stroke="#9f9f9f"
     fill-opacity="0.5"
     stroke-opacity="0.5"
     fill-rule="nonzero"
     stroke-width="0.221821"
     stroke-linejoin="miter"
     stroke-linecap="round"
     d="m 720.78226,538.24335 c 0.55833,2.58029 -1.08109,5.12435 -3.66145,5.68244 -2.58038,0.55814 -5.12433,-1.08116 -5.68247,-3.66149 -0.55834,-2.58029 1.08118,-5.12437 3.66145,-5.68244 2.58038,-0.55815 5.12443,1.08114 5.68247,3.66149 z"
     id="path730"
     inkscape:transform-center-x="-5.8828299"
     inkscape:transform-center-y="-6.8182298" /><path
     fill="#9f9f9f"
     stroke="#9f9f9f"
     fill-opacity="0.5"
     stroke-opacity="0.5"
     fill-rule="nonzero"
     stroke-width="0.221821"
     stroke-linejoin="miter"
     stroke-linecap="round"
     d="m 713.10691,550.1551 c 0.55833,2.58029 -1.08109,5.12435 -3.66147,5.68244 -2.58028,0.55813 -5.12433,-1.08117 -5.68246,-3.66149 -0.55833,-2.58029 1.08119,-5.12437 3.66156,-5.68246 2.58027,-0.55812 5.12433,1.08116 5.68237,3.66151 z"
     id="path732"
     inkscape:transform-center-x="-13.558183"
     inkscape:transform-center-y="-18.729973" /><path
     fill="#9f9f9f"
     stroke="#9f9f9f"
     fill-opacity="0.5"
     stroke-opacity="0.5"
     fill-rule="nonzero"
     stroke-width="0.221821"
     stroke-linejoin="miter"
     stroke-linecap="round"
     d="m 706.19759,560.87805 c 0.55832,2.58028 -1.08119,5.12436 -3.66148,5.68243 -2.58038,0.55806 -5.12441,-1.08114 -5.68246,-3.66148 -0.55832,-2.58029 1.0812,-5.12437 3.66147,-5.68244 2.58038,-0.55815 5.12443,1.08115 5.68247,3.66149 z"
     id="path734"
     inkscape:transform-center-x="-20.46751"
     inkscape:transform-center-y="-29.452914" /><path
     fill="#9f9f9f"
     stroke="#9f9f9f"
     fill-opacity="0.5"
     stroke-opacity="0.5"
     fill-rule="nonzero"
     stroke-width="0.221821"
     stroke-linejoin="miter"
     stroke-linecap="round"
     d="m 741.05138,467.6225 c 0.55832,2.58029 -1.08119,5.12438 -3.66156,5.68248 -2.58028,0.55811 -5.12433,-1.08118 -5.68247,-3.66151 -0.55832,-2.58028 1.08118,-5.12436 3.66156,-5.68246 2.58028,-0.55813 5.12433,1.08117 5.68247,3.66149 z"
     id="path736"
     inkscape:transform-center-x="14.386234"
     inkscape:transform-center-y="63.802601" /><path
     fill="#9f9f9f"
     stroke="#9f9f9f"
     fill-opacity="0.5"
     stroke-opacity="0.5"
     fill-rule="nonzero"
     stroke-width="0.221821"
     stroke-linejoin="miter"
     stroke-linecap="round"
     d="m 733.44488,479.42727 c 0.55833,2.58029 -1.08108,5.12436 -3.66146,5.68244 -2.58037,0.55816 -5.12433,-1.08115 -5.68245,-3.66149 -0.55835,-2.58028 1.08118,-5.12437 3.66145,-5.68244 2.58038,-0.55814 5.12443,1.08116 5.68246,3.66149 z"
     id="path738"
     inkscape:transform-center-x="6.7797937"
     inkscape:transform-center-y="51.997845" /><path
     fill="#9f9f9f"
     stroke="#9f9f9f"
     fill-opacity="0.5"
     stroke-opacity="0.5"
     fill-rule="nonzero"
     stroke-width="0.221821"
     stroke-linejoin="miter"
     stroke-linecap="round"
     d="m 725.83849,491.23203 c 0.55834,2.58029 -1.08118,5.12436 -3.66146,5.68244 -2.58037,0.55815 -5.12442,-1.08114 -5.68246,-3.66149 -0.55832,-2.58029 1.08119,-5.12436 3.66147,-5.68245 2.58037,-0.55814 5.12442,1.08114 5.68245,3.6615 z"
     id="path740"
     inkscape:transform-center-x="-0.82659787"
     inkscape:transform-center-y="40.193091" /><path
     fill="#9f9f9f"
     stroke="#9f9f9f"
     fill-opacity="0.5"
     stroke-opacity="0.5"
     fill-rule="nonzero"
     stroke-width="0.221821"
     stroke-linejoin="miter"
     stroke-linecap="round"
     d="m 718.23211,503.03678 c 0.55832,2.58029 -1.08119,5.12437 -3.66148,5.68245 -2.58036,0.55814 -5.12441,-1.08114 -5.68245,-3.6615 -0.55833,-2.58029 1.08108,-5.12433 3.66146,-5.68244 2.58037,-0.55814 5.12432,1.08116 5.68247,3.66149 z"
     id="path742"
     inkscape:transform-center-x="-8.4329896"
     inkscape:transform-center-y="28.388333" /><path
     fill="#9f9f9f"
     stroke="#9f9f9f"
     fill-opacity="0.5"
     stroke-opacity="0.5"
     fill-rule="nonzero"
     stroke-width="0.221821"
     stroke-linejoin="miter"
     stroke-linecap="round"
     d="m 710.62571,514.84155 c 0.55833,2.58028 -1.08119,5.12436 -3.66156,5.68245 -2.58027,0.55812 -5.12433,-1.08116 -5.68237,-3.66151 -0.55832,-2.58029 1.08109,-5.12435 3.66147,-5.68244 2.58027,-0.55813 5.12432,1.08117 5.68246,3.6615 z"
     id="path744"
     inkscape:transform-center-x="-16.039387"
     inkscape:transform-center-y="16.58357" /><path
     fill="#9f9f9f"
     stroke="#9f9f9f"
     fill-opacity="0.5"
     stroke-opacity="0.5"
     fill-rule="nonzero"
     stroke-width="0.221821"
     stroke-linejoin="miter"
     stroke-linecap="round"
     d="m 702.95035,526.7533 c 0.55833,2.58028 -1.08118,5.12435 -3.66147,5.68243 -2.58036,0.55815 -5.12441,-1.08114 -5.68245,-3.66149 -0.55834,-2.58029 1.08108,-5.12434 3.66146,-5.68245 2.58037,-0.55814 5.12432,1.08117 5.68246,3.66151 z"
     id="path746"
     inkscape:transform-center-x="-23.714744"
     inkscape:transform-center-y="4.6718311" /><path
     fill="#9f9f9f"
     stroke="#9f9f9f"
     fill-opacity="0.5"
     stroke-opacity="0.5"
     fill-rule="nonzero"
     stroke-width="0.221821"
     stroke-linejoin="miter"
     stroke-linecap="round"
     d="m 695.275,538.66504 c 0.55833,2.58028 -1.08119,5.12437 -3.66147,5.68244 -2.58037,0.55814 -5.12442,-1.08114 -5.68246,-3.66149 -0.55834,-2.58029 1.08108,-5.12434 3.66146,-5.68244 2.58037,-0.55815 5.12433,1.08116 5.68247,3.66149 z"
     id="path748"
     inkscape:transform-center-x="-31.390099"
     inkscape:transform-center-y="-7.2399216" /><path
     fill="#9f9f9f"
     stroke="#9f9f9f"
     fill-opacity="0.5"
     stroke-opacity="0.5"
     fill-rule="nonzero"
     stroke-width="0.221821"
     stroke-linejoin="miter"
     stroke-linecap="round"
     d="m 688.36567,549.38799 c 0.55834,2.58029 -1.08118,5.12437 -3.66156,5.68246 -2.58027,0.55813 -5.12432,-1.08116 -5.68247,-3.66149 -0.55833,-2.58029 1.08119,-5.12436 3.66157,-5.68247 2.58027,-0.55812 5.12432,1.08117 5.68246,3.6615 z"
     id="path750"
     inkscape:transform-center-x="-38.299474"
     inkscape:transform-center-y="-17.962878" /><path
     fill="#ffffff"
     stroke="#9f9f9f"
     fill-opacity="0"
     stroke-opacity="0.5"
     fill-rule="nonzero"
     stroke-width="1.11984"
     stroke-linejoin="miter"
     stroke-linecap="round"
     d="m 253.56042,929.74085 51.83236,-38.99012 a 10.81,10.81 0 0 1 15.13704,2.14036 l 38.99019,51.83233 a 10.81,10.81 0 0 1 -2.14035,15.13707 l -51.83235,38.99008 a 10.81,10.81 0 0 1 -15.13704,-2.1403 l -38.99019,-51.83233 a 10.81,10.81 0 0 1 2.14034,-15.13709 z"
     id="path752" /><path
     fill="#ffffff"
     stroke="#9f9f9f"
     fill-opacity="0"
     stroke-opacity="0.5"
     fill-rule="nonzero"
     stroke-width="1.11984"
     stroke-linejoin="miter"
     stroke-linecap="round"
     d="m 268.6203,877.83129 51.83226,-38.99015 a 10.81,10.81 0 0 1 15.13714,2.14038 l 38.99008,51.83231 a 10.81,10.81 0 0 1 -2.14034,15.13708 l -51.83236,38.99013 a 10.81,10.81 0 0 1 -15.13704,-2.14036 l -38.99008,-51.83232 a 10.81,10.81 0 0 1 2.14034,-15.13707 z"
     id="path754" /><path
     fill="#ffffff"
     stroke="#9f9f9f"
     fill-opacity="0"
     stroke-opacity="0.5"
     fill-rule="nonzero"
     stroke-width="1.11984"
     stroke-linejoin="miter"
     stroke-linecap="round"
     d="M 352.68356,888.47513 404.51592,849.485 a 10.81,10.81 0 0 1 15.13704,2.14036 l 38.99019,51.83233 a 10.81,10.81 0 0 1 -2.14045,15.13706 l -51.83226,38.99015 a 10.81,10.81 0 0 1 -15.13713,-2.14038 L 350.54322,903.6122 a 10.81,10.81 0 0 1 2.14034,-15.13707 z"
     id="path756" /><path
     fill="#9f9f9f"
     stroke="#9f9f9f"
     fill-opacity="0.5"
     stroke-opacity="0.5"
     fill-rule="nonzero"
     stroke-width="0.0472423"
     stroke-linejoin="miter"
     stroke-linecap="round"
     d="m 305.408,1010.5428 c 0.53594,-4.2447 4.40163,-7.2402 8.64648,-6.7043 4.23078,0.5339 7.22627,4.3996 6.69828,8.6385 -0.54196,4.2367 -4.40766,7.2322 -8.64639,6.7043 -4.23679,-0.5419 -7.23227,-4.4077 -6.69837,-8.6385 z"
     id="path758" /><path
     fill="#9f9f9f"
     stroke="#9f9f9f"
     fill-opacity="0.5"
     stroke-opacity="0.5"
     fill-rule="nonzero"
     stroke-width="0.0472423"
     stroke-linejoin="miter"
     stroke-linecap="round"
     d="m 318.43554,1000.4302 c 0.53399,-4.23073 4.40765,-7.23227 8.63843,-6.69838 4.24484,0.53596 7.24034,4.40165 6.70438,8.64648 -0.53388,4.2307 -4.40765,7.2323 -8.63842,6.6983 -4.23678,-0.5419 -7.24033,-4.4016 -6.70439,-8.6464 z"
     id="path760" /><path
     fill="#9f9f9f"
     stroke="#9f9f9f"
     fill-opacity="0.5"
     stroke-opacity="0.5"
     fill-rule="nonzero"
     stroke-width="0.0472423"
     stroke-linejoin="miter"
     stroke-linecap="round"
     d="m 331.4691,990.32555 c 0.53399,-4.23076 4.40776,-7.23229 8.63853,-6.69834 4.23668,0.54193 7.23227,4.40766 6.70429,8.64641 -0.54195,4.23675 -4.40767,7.23235 -8.63843,6.69835 -4.24475,-0.5359 -7.24024,-4.40164 -6.70439,-8.64642 z"
     id="path762" /><path
     fill="#9f9f9f"
     stroke="#9f9f9f"
     fill-opacity="0.5"
     stroke-opacity="0.5"
     fill-rule="nonzero"
     stroke-width="0.0472423"
     stroke-linejoin="miter"
     stroke-linecap="round"
     d="m 344.49469,980.22692 c 0.54196,-4.23678 4.40766,-7.23231 8.63843,-6.69835 4.24485,0.53595 7.24034,4.40166 6.69838,8.63844 -0.52788,4.23877 -4.40165,7.2403 -8.63843,6.69835 -4.23077,-0.53396 -7.23227,-4.40765 -6.69838,-8.63844 z"
     id="path764" /><path
     fill="#9f9f9f"
     stroke="#9f9f9f"
     fill-opacity="0.5"
     stroke-opacity="0.5"
     fill-rule="nonzero"
     stroke-width="0.0472423"
     stroke-linejoin="miter"
     stroke-linecap="round"
     d="m 357.52825,970.12228 c 0.534,-4.23076 4.40165,-7.2403 8.63843,-6.69836 4.23077,0.53396 7.24034,4.40167 6.69838,8.63844 -0.52788,4.23877 -4.40165,7.2403 -8.63843,6.69836 -4.23874,-0.52794 -7.24024,-4.40165 -6.69838,-8.63844 z"
     id="path766" /></g></svg>
