<?xml version="1.0" encoding="UTF-8" standalone="no"?>
<svg
   version="1.1"
   x="0%"
   y="0%"
   width="100%"
   height="100%"
   viewBox="0 0 2560.0 1440.0"
   enable-background="new 0 0 2600.0 1440.0"
   xml:space="preserve"
   id="svg88"
   sodipodi:docname="background.svg"
   inkscape:version="1.1.2 (b8e25be833, 2022-02-05)"
   xmlns:inkscape="http://www.inkscape.org/namespaces/inkscape"
   xmlns:sodipodi="http://sodipodi.sourceforge.net/DTD/sodipodi-0.dtd"
   xmlns="http://www.w3.org/2000/svg"
   xmlns:svg="http://www.w3.org/2000/svg"><sodipodi:namedview
   id="namedview90"
   pagecolor="#505050"
   bordercolor="#eeeeee"
   borderopacity="1"
   inkscape:pageshadow="0"
   inkscape:pageopacity="0"
   inkscape:pagecheckerboard="0"
   showgrid="false"
   inkscape:zoom="0.41328125"
   inkscape:cx="954.55577"
   inkscape:cy="914.63138"
   inkscape:window-width="1920"
   inkscape:window-height="1017"
   inkscape:window-x="-8"
   inkscape:window-y="-8"
   inkscape:window-maximized="1"
   inkscape:current-layer="svg88" />
<defs
   id="defs84">
<filter
   id="glow0"
   x="-0.025520317"
   y="-0.04089081"
   width="1.0543402"
   height="1.0817816">
	<feOffset
   result="offOut"
   in="SourceGraphic"
   dx="0.0"
   dy="0.0"
   id="feOffset73" />
	<feGaussianBlur
   result="blurOut"
   in="offOut"
   stdDeviation="21.142023"
   id="feGaussianBlur75" />
	<feFlood
   flood-color="#000000"
   flood-opacity="0.2"
   result="flood"
   id="feFlood77" />
	<feComposite
   in="flood"
   in2="blurOut"
   operator="in"
   result="blendOut0"
   id="feComposite79" />
	<feBlend
   in="SourceGraphic"
   in2="blendOut0"
   mode="normal"
   id="feBlend81" />
</filter>

<filter
   id="glow0-0"
   x="-0.025520315"
   y="-0.040890807"
   width="1.0543401"
   height="1.0817816">
	<feOffset
   result="offOut"
   in="SourceGraphic"
   dx="0.0"
   dy="0.0"
   id="feOffset1007" />
	<feGaussianBlur
   result="blurOut"
   in="offOut"
   stdDeviation="21.142023"
   id="feGaussianBlur1009" />
	<feFlood
   flood-color="#000000"
   flood-opacity="0.2"
   result="flood"
   id="feFlood1011" />
	<feComposite
   in="flood"
   in2="blurOut"
   operator="in"
   result="blendOut0"
   id="feComposite1013" />
	<feBlend
   in="SourceGraphic"
   in2="blendOut0"
   mode="normal"
   id="feBlend1015" />
</filter><clipPath
   clipPathUnits="userSpaceOnUse"
   id="clipPath1335"><path
     fill="#d5dbf4"
     stroke="#000000"
     fill-opacity="1"
     stroke-opacity="0"
     fill-rule="nonzero"
     stroke-width="24.5274"
     filter="url(#glow0)"
     stroke-linejoin="miter"
     stroke-linecap="square"
     d="M 39.99999,0 H 1689.6 l 819.2,1540.8 H 39.99999"
     id="path1337"
     style="display:inline;filter:url(#glow0-0)"
     transform="rotate(-180,1282.5588,707.69327)" /></clipPath></defs>
	<path
   fill="#d5dbf4"
   stroke="#000000"
   fill-opacity="1.000"
   stroke-opacity="0.000"
   fill-rule="nonzero"
   stroke-width="24.527409"
   filter="url(#glow0)"
   stroke-linejoin="miter"
   stroke-linecap="square"
   d="M40.00,0.00L1689.60,0.00L2508.80,1540.80L40.00,1540.80"
   id="path86" /><path
   fill="#9f9f9f"
   stroke="#9f9f9f"
   fill-opacity="0.5"
   stroke-opacity="0.5"
   fill-rule="nonzero"
   stroke-width="0.263276"
   stroke-linejoin="miter"
   stroke-linecap="round"
   d="m 2129.1828,1146.8887 c 2.5217,-2.271 6.4003,-2.0693 8.6714,0.4525 2.2809,2.5234 2.0775,6.4119 -0.4541,8.6813 -2.5217,2.2711 -6.4004,2.0693 -8.6714,-0.4525 -2.2711,-2.5217 -2.0677,-6.4102 0.4541,-8.6813 z"
   id="path643-5" />
<g
   id="g790"
   transform="rotate(180,1282.5588,707.69327)"
   clip-path="url(#clipPath1335)"><path
     fill="#9f9f9f"
     stroke="#9f9f9f"
     fill-opacity="0.5"
     stroke-opacity="0.5"
     fill-rule="nonzero"
     stroke-width="0.263276"
     stroke-linejoin="miter"
     stroke-linecap="round"
     d="m 2180.4503,1045.8727 c -2.5217,2.271 -6.4003,2.0693 -8.6714,-0.4525 -2.2809,-2.5234 -2.0775,-6.4119 0.4541,-8.6813 2.5217,-2.2711 6.4004,-2.0693 8.6714,0.4525 2.2711,2.5217 2.0677,6.4102 -0.4541,8.6813 z"
     id="path643" /><path
     fill="#000000"
     stroke="#9f9f9f"
     fill-opacity="0"
     stroke-opacity="0.5"
     fill-rule="nonzero"
     stroke-width="2.88"
     stroke-linejoin="miter"
     stroke-linecap="round"
     d="m 2082.861,1067.1255 61.2509,3.2071 3.1988,-61.2624 61.2608,3.2088 3.1972,-61.25253"
     id="path645" /><path
     fill="#000000"
     stroke="#9f9f9f"
     fill-opacity="0"
     stroke-opacity="0.5"
     fill-rule="nonzero"
     stroke-width="2.88"
     stroke-linejoin="miter"
     stroke-linecap="round"
     d="m 2015.2025,1186.4415 61.2525,3.1972 3.1973,-61.2525 61.2623,3.1989 3.1973,-61.2525 61.2525,3.1972 3.2071,-61.2508 61.2525,3.1972 3.2071,-61.25086"
     id="path647" /><path
     fill="#000000"
     stroke="#9f9f9f"
     fill-opacity="0"
     stroke-opacity="0.5"
     fill-rule="nonzero"
     stroke-width="2.88"
     stroke-linejoin="miter"
     stroke-linecap="round"
     d="m 392.17272,512.73455 a 42.511273,42.511273 0 1 1 -27.7647,-80.3614 42.51,42.51 0 1 0 9.1732,-8.7429"
     id="path649" /><path
     fill="#000000"
     stroke="#9f9f9f"
     fill-opacity="0"
     stroke-opacity="0.5"
     fill-rule="nonzero"
     stroke-width="2.88"
     stroke-linejoin="miter"
     stroke-linecap="round"
     d="m 342.47502,595.49915 a 42.511364,42.511364 0 1 1 23.3561,-81.7518 42.513528,42.513528 0 1 0 23.3701,-81.7523 42.51,42.51 0 1 1 23.3634,-81.7449 42.513532,42.513532 0 1 0 23.3702,-81.75228"
     id="path651" /><path
     fill="#000000"
     stroke="#9f9f9f"
     fill-opacity="0.00400002"
     stroke-opacity="0.5"
     fill-rule="nonzero"
     stroke-width="2.25752"
     stroke-linejoin="miter"
     stroke-linecap="round"
     d="m 1640.9567,756.96002 52.02,-38.87 38.87,52.02 -52.02,38.87 z"
     id="path653" /><path
     fill="#000000"
     stroke="#9f9f9f"
     fill-opacity="0"
     stroke-opacity="0.5"
     fill-rule="nonzero"
     stroke-width="2.25752"
     stroke-linejoin="miter"
     stroke-linecap="round"
     d="m 1659.2967,692.90002 42.63,-31.86 31.38,41.99 -42.63,31.85 z"
     id="path655" /><path
     fill="#000000"
     stroke="#9f9f9f"
     fill-opacity="0"
     stroke-opacity="0.5"
     fill-rule="nonzero"
     stroke-width="2.25752"
     stroke-linejoin="miter"
     stroke-linecap="round"
     d="m 1776.4667,756.66002 -63.98,9.43 31.94,48.53 z"
     id="path657" /><path
     fill="#000000"
     stroke="#9f9f9f"
     fill-opacity="0"
     stroke-opacity="0.5"
     fill-rule="nonzero"
     stroke-width="2.88"
     stroke-linejoin="miter"
     stroke-linecap="round"
     d="m 1682.8332,124.6683 -59.07,-28.310001 -0.66,58.850001 z"
     id="path659" /><path
     fill="#000000"
     stroke="#9f9f9f"
     fill-opacity="0.00400002"
     stroke-opacity="0.5"
     fill-rule="nonzero"
     stroke-width="2.88"
     stroke-linejoin="miter"
     stroke-linecap="round"
     d="m 1282.87,1156.48 81.56,12.49 -12.49,81.56 -81.56,-12.49 z"
     id="path661" /><path
     fill="#000000"
     stroke="#9f9f9f"
     fill-opacity="0"
     stroke-opacity="0.5"
     fill-rule="nonzero"
     stroke-width="2.88"
     stroke-linejoin="miter"
     stroke-linecap="round"
     d="m 1235.41,1137.68 66.84,10.23 -10.08,65.83 -66.84,-10.23 z"
     id="path663" /><path
     fill="#000000"
     stroke="#9f9f9f"
     fill-opacity="0"
     stroke-opacity="0.5"
     fill-rule="nonzero"
     stroke-width="2.88"
     stroke-linejoin="miter"
     stroke-linecap="round"
     d="m 1623.1032,117.9283 c 20.59,0 37.27,16.69 37.27,37.28 0,20.59 -16.68,37.27 -37.27,37.27 -20.59,0 -37.28,-16.68 -37.28,-37.27 0,-20.59 16.69,-37.28 37.28,-37.28 z"
     id="path665" /><path
     fill="#000000"
     stroke="#9f9f9f"
     fill-opacity="0"
     stroke-opacity="0.5"
     fill-rule="nonzero"
     stroke-width="2.88"
     stroke-linejoin="miter"
     stroke-linecap="round"
     d="M 925.34,889.22 980.41,829.8"
     id="path667" /><path
     fill="#000000"
     stroke="#9f9f9f"
     fill-opacity="0"
     stroke-opacity="0.5"
     fill-rule="nonzero"
     stroke-width="2.88"
     stroke-linejoin="miter"
     stroke-linecap="round"
     d="m 944.29,908.17 55.07,-59.42"
     id="path669" /><path
     fill="#000000"
     stroke="#9f9f9f"
     fill-opacity="0"
     stroke-opacity="0.5"
     fill-rule="nonzero"
     stroke-width="2.88"
     stroke-linejoin="miter"
     stroke-linecap="round"
     d="m 963.25,927.13 55.07,-59.42"
     id="path671" /><path
     fill="#9f9f9f"
     stroke="#9f9f9f"
     fill-opacity="0.5"
     stroke-opacity="0.5"
     fill-rule="nonzero"
     stroke-width="0.221821"
     stroke-linejoin="miter"
     stroke-linecap="round"
     d="m 2175.22,181.76 c 2.64,0 4.78,2.14 4.78,4.78 0,2.64 -2.14,4.78 -4.78,4.78 -2.64,0 -4.78,-2.14 -4.78,-4.78 0,-2.64 2.14,-4.78 4.78,-4.78 z"
     id="path673" /><path
     fill="#9f9f9f"
     stroke="#9f9f9f"
     fill-opacity="0.5"
     stroke-opacity="0.5"
     fill-rule="nonzero"
     stroke-width="0.221821"
     stroke-linejoin="miter"
     stroke-linecap="round"
     d="m 2185.15,191.69 c 2.64,0 4.78,2.14 4.78,4.78 0,2.64 -2.14,4.78 -4.78,4.78 -2.64,0 -4.78,-2.14 -4.78,-4.78 0,-2.64 2.14,-4.78 4.78,-4.78 z"
     id="path675" /><path
     fill="#9f9f9f"
     stroke="#9f9f9f"
     fill-opacity="0.5"
     stroke-opacity="0.5"
     fill-rule="nonzero"
     stroke-width="0.221821"
     stroke-linejoin="miter"
     stroke-linecap="round"
     d="m 2195.08,201.62 c 2.64,0 4.78,2.14 4.78,4.78 0,2.64 -2.14,4.78 -4.78,4.78 -2.64,0 -4.78,-2.14 -4.78,-4.78 0,-2.64 2.14,-4.78 4.78,-4.78 z"
     id="path677" /><path
     fill="#9f9f9f"
     stroke="#9f9f9f"
     fill-opacity="0.5"
     stroke-opacity="0.5"
     fill-rule="nonzero"
     stroke-width="0.221821"
     stroke-linejoin="miter"
     stroke-linecap="round"
     d="m 2205.01,211.55 c 2.64,0 4.78,2.14 4.78,4.78 0,2.64 -2.14,4.78 -4.78,4.78 -2.64,0 -4.78,-2.14 -4.78,-4.78 0,-2.64 2.14,-4.78 4.78,-4.78 z"
     id="path679" /><path
     fill="#9f9f9f"
     stroke="#9f9f9f"
     fill-opacity="0.5"
     stroke-opacity="0.5"
     fill-rule="nonzero"
     stroke-width="0.221821"
     stroke-linejoin="miter"
     stroke-linecap="round"
     d="m 2214.94,221.48 c 2.64,0 4.78,2.14 4.78,4.78 0,2.64 -2.14,4.78 -4.78,4.78 -2.64,0 -4.78,-2.14 -4.78,-4.78 0,-2.64 2.14,-4.78 4.78,-4.78 z"
     id="path681" /><path
     fill="#9f9f9f"
     stroke="#9f9f9f"
     fill-opacity="0.5"
     stroke-opacity="0.5"
     fill-rule="nonzero"
     stroke-width="0.221821"
     stroke-linejoin="miter"
     stroke-linecap="round"
     d="m 2224.96,231.5 c 2.64,0 4.78,2.14 4.78,4.78 0,2.64 -2.14,4.78 -4.78,4.78 -2.64,0 -4.78,-2.14 -4.78,-4.78 0,-2.64 2.14,-4.78 4.78,-4.78 z"
     id="path683" /><path
     fill="#9f9f9f"
     stroke="#9f9f9f"
     fill-opacity="0.5"
     stroke-opacity="0.5"
     fill-rule="nonzero"
     stroke-width="0.221821"
     stroke-linejoin="miter"
     stroke-linecap="round"
     d="m 2234.98,241.52 c 2.64,0 4.78,2.14 4.78,4.78 0,2.64 -2.14,4.78 -4.78,4.78 -2.64,0 -4.78,-2.14 -4.78,-4.78 0,-2.64 2.14,-4.78 4.78,-4.78 z"
     id="path685" /><path
     fill="#9f9f9f"
     stroke="#9f9f9f"
     fill-opacity="0.5"
     stroke-opacity="0.5"
     fill-rule="nonzero"
     stroke-width="0.221821"
     stroke-linejoin="miter"
     stroke-linecap="round"
     d="m 2244,250.54 c 2.64,0 4.78,2.14 4.78,4.78 0,2.64 -2.14,4.78 -4.78,4.78 -2.64,0 -4.78,-2.14 -4.78,-4.78 0,-2.64 2.14,-4.78 4.78,-4.78 z"
     id="path687" /><path
     fill="#9f9f9f"
     stroke="#9f9f9f"
     fill-opacity="0.5"
     stroke-opacity="0.5"
     fill-rule="nonzero"
     stroke-width="0.221821"
     stroke-linejoin="miter"
     stroke-linecap="round"
     d="m 2160.22,196.76 c 2.64,0 4.78,2.14 4.78,4.78 0,2.64 -2.14,4.78 -4.78,4.78 -2.64,0 -4.78,-2.14 -4.78,-4.78 0,-2.64 2.14,-4.78 4.78,-4.78 z"
     id="path689" /><path
     fill="#9f9f9f"
     stroke="#9f9f9f"
     fill-opacity="0.5"
     stroke-opacity="0.5"
     fill-rule="nonzero"
     stroke-width="0.221821"
     stroke-linejoin="miter"
     stroke-linecap="round"
     d="m 2170.15,206.69 c 2.64,0 4.78,2.14 4.78,4.78 0,2.64 -2.14,4.78 -4.78,4.78 -2.64,0 -4.78,-2.14 -4.78,-4.78 0,-2.64 2.14,-4.78 4.78,-4.78 z"
     id="path691" /><path
     fill="#9f9f9f"
     stroke="#9f9f9f"
     fill-opacity="0.5"
     stroke-opacity="0.5"
     fill-rule="nonzero"
     stroke-width="0.221821"
     stroke-linejoin="miter"
     stroke-linecap="round"
     d="m 2180.08,216.62 c 2.64,0 4.78,2.14 4.78,4.78 0,2.64 -2.14,4.78 -4.78,4.78 -2.64,0 -4.78,-2.14 -4.78,-4.78 0,-2.64 2.14,-4.78 4.78,-4.78 z"
     id="path693" /><path
     fill="#9f9f9f"
     stroke="#9f9f9f"
     fill-opacity="0.5"
     stroke-opacity="0.5"
     fill-rule="nonzero"
     stroke-width="0.221821"
     stroke-linejoin="miter"
     stroke-linecap="round"
     d="m 2190.01,226.55 c 2.64,0 4.78,2.14 4.78,4.78 0,2.64 -2.14,4.78 -4.78,4.78 -2.64,0 -4.78,-2.14 -4.78,-4.78 0,-2.64 2.14,-4.78 4.78,-4.78 z"
     id="path695" /><path
     fill="#9f9f9f"
     stroke="#9f9f9f"
     fill-opacity="0.5"
     stroke-opacity="0.5"
     fill-rule="nonzero"
     stroke-width="0.221821"
     stroke-linejoin="miter"
     stroke-linecap="round"
     d="m 2199.94,236.48 c 2.64,0 4.78,2.14 4.78,4.78 0,2.64 -2.14,4.78 -4.78,4.78 -2.64,0 -4.78,-2.14 -4.78,-4.78 0,-2.64 2.14,-4.78 4.78,-4.78 z"
     id="path697" /><path
     fill="#9f9f9f"
     stroke="#9f9f9f"
     fill-opacity="0.5"
     stroke-opacity="0.5"
     fill-rule="nonzero"
     stroke-width="0.221821"
     stroke-linejoin="miter"
     stroke-linecap="round"
     d="m 2209.96,246.5 c 2.64,0 4.78,2.14 4.78,4.78 0,2.64 -2.14,4.78 -4.78,4.78 -2.64,0 -4.78,-2.14 -4.78,-4.78 0,-2.64 2.14,-4.78 4.78,-4.78 z"
     id="path699" /><path
     fill="#9f9f9f"
     stroke="#9f9f9f"
     fill-opacity="0.5"
     stroke-opacity="0.5"
     fill-rule="nonzero"
     stroke-width="0.221821"
     stroke-linejoin="miter"
     stroke-linecap="round"
     d="m 2219.98,256.52 c 2.64,0 4.78,2.14 4.78,4.78 0,2.64 -2.14,4.78 -4.78,4.78 -2.64,0 -4.78,-2.14 -4.78,-4.78 0,-2.64 2.14,-4.78 4.78,-4.78 z"
     id="path701" /><path
     fill="#9f9f9f"
     stroke="#9f9f9f"
     fill-opacity="0.5"
     stroke-opacity="0.5"
     fill-rule="nonzero"
     stroke-width="0.221821"
     stroke-linejoin="miter"
     stroke-linecap="round"
     d="m 2229,265.54 c 2.64,0 4.78,2.14 4.78,4.78 0,2.64 -2.14,4.78 -4.78,4.78 -2.64,0 -4.78,-2.14 -4.78,-4.78 0,-2.64 2.14,-4.78 4.78,-4.78 z"
     id="path703" /><path
     fill="#9f9f9f"
     stroke="#9f9f9f"
     fill-opacity="0.5"
     stroke-opacity="0.5"
     fill-rule="nonzero"
     stroke-width="0.221821"
     stroke-linejoin="miter"
     stroke-linecap="round"
     d="m 2145.22,211.76 c 2.64,0 4.78,2.14 4.78,4.78 0,2.64 -2.14,4.78 -4.78,4.78 -2.64,0 -4.78,-2.14 -4.78,-4.78 0,-2.64 2.14,-4.78 4.78,-4.78 z"
     id="path705" /><path
     fill="#9f9f9f"
     stroke="#9f9f9f"
     fill-opacity="0.5"
     stroke-opacity="0.5"
     fill-rule="nonzero"
     stroke-width="0.221821"
     stroke-linejoin="miter"
     stroke-linecap="round"
     d="m 2155.15,221.69 c 2.64,0 4.78,2.14 4.78,4.78 0,2.64 -2.14,4.78 -4.78,4.78 -2.64,0 -4.78,-2.14 -4.78,-4.78 0,-2.64 2.14,-4.78 4.78,-4.78 z"
     id="path707" /><path
     fill="#9f9f9f"
     stroke="#9f9f9f"
     fill-opacity="0.5"
     stroke-opacity="0.5"
     fill-rule="nonzero"
     stroke-width="0.221821"
     stroke-linejoin="miter"
     stroke-linecap="round"
     d="m 2165.08,231.62 c 2.64,0 4.78,2.14 4.78,4.78 0,2.64 -2.14,4.78 -4.78,4.78 -2.64,0 -4.78,-2.14 -4.78,-4.78 0,-2.64 2.14,-4.78 4.78,-4.78 z"
     id="path709" /><path
     fill="#9f9f9f"
     stroke="#9f9f9f"
     fill-opacity="0.5"
     stroke-opacity="0.5"
     fill-rule="nonzero"
     stroke-width="0.221821"
     stroke-linejoin="miter"
     stroke-linecap="round"
     d="m 2175.01,241.55 c 2.64,0 4.78,2.14 4.78,4.78 0,2.64 -2.14,4.78 -4.78,4.78 -2.64,0 -4.78,-2.14 -4.78,-4.78 0,-2.64 2.14,-4.78 4.78,-4.78 z"
     id="path711" /><path
     fill="#9f9f9f"
     stroke="#9f9f9f"
     fill-opacity="0.5"
     stroke-opacity="0.5"
     fill-rule="nonzero"
     stroke-width="0.221821"
     stroke-linejoin="miter"
     stroke-linecap="round"
     d="m 2184.94,251.48 c 2.64,0 4.78,2.14 4.78,4.78 0,2.64 -2.14,4.78 -4.78,4.78 -2.64,0 -4.78,-2.14 -4.78,-4.78 0,-2.64 2.14,-4.78 4.78,-4.78 z"
     id="path713" /><path
     fill="#9f9f9f"
     stroke="#9f9f9f"
     fill-opacity="0.5"
     stroke-opacity="0.5"
     fill-rule="nonzero"
     stroke-width="0.221821"
     stroke-linejoin="miter"
     stroke-linecap="round"
     d="m 2194.96,261.5 c 2.64,0 4.78,2.14 4.78,4.78 0,2.64 -2.14,4.78 -4.78,4.78 -2.64,0 -4.78,-2.14 -4.78,-4.78 0,-2.64 2.14,-4.78 4.78,-4.78 z"
     id="path715" /><path
     fill="#9f9f9f"
     stroke="#9f9f9f"
     fill-opacity="0.5"
     stroke-opacity="0.5"
     fill-rule="nonzero"
     stroke-width="0.221821"
     stroke-linejoin="miter"
     stroke-linecap="round"
     d="m 2204.98,271.52 c 2.64,0 4.78,2.14 4.78,4.78 0,2.64 -2.14,4.78 -4.78,4.78 -2.64,0 -4.78,-2.14 -4.78,-4.78 0,-2.64 2.14,-4.78 4.78,-4.78 z"
     id="path717" /><path
     fill="#9f9f9f"
     stroke="#9f9f9f"
     fill-opacity="0.5"
     stroke-opacity="0.5"
     fill-rule="nonzero"
     stroke-width="0.221821"
     stroke-linejoin="miter"
     stroke-linecap="round"
     d="m 2214,280.54 c 2.64,0 4.78,2.14 4.78,4.78 0,2.64 -2.14,4.78 -4.78,4.78 -2.64,0 -4.78,-2.14 -4.78,-4.78 0,-2.64 2.14,-4.78 4.78,-4.78 z"
     id="path719" /><path
     fill="#ffffff"
     stroke="#9f9f9f"
     fill-opacity="0"
     stroke-opacity="0.5"
     fill-rule="nonzero"
     stroke-width="1.11984"
     stroke-linejoin="miter"
     stroke-linecap="round"
     d="m 1075.24,241.91 h 64.86 a 10.81,10.81 0 0 1 10.81,10.81 v 64.86 a 10.81,10.81 0 0 1 -10.81,10.81 h -64.86 a 10.81,10.81 0 0 1 -10.81,-10.81 v -64.86 a 10.81,10.81 0 0 1 10.81,-10.81 z"
     id="path721" /><path
     fill="#ffffff"
     stroke="#9f9f9f"
     fill-opacity="0"
     stroke-opacity="0.5"
     fill-rule="nonzero"
     stroke-width="1.11984"
     stroke-linejoin="miter"
     stroke-linecap="round"
     d="m 1118.48,209.48 h 64.86 a 10.81,10.81 0 0 1 10.81,10.81 v 64.86 a 10.81,10.81 0 0 1 -10.81,10.81 h -64.86 a 10.81,10.81 0 0 1 -10.81,-10.81 v -64.86 a 10.81,10.81 0 0 1 10.81,-10.81 z"
     id="path723" /><path
     fill="#ffffff"
     stroke="#9f9f9f"
     fill-opacity="0"
     stroke-opacity="0.5"
     fill-rule="nonzero"
     stroke-width="1.11984"
     stroke-linejoin="miter"
     stroke-linecap="round"
     d="m 1179.26,268.52 h 64.86 a 10.81,10.81 0 0 1 10.81,10.81 v 64.86 A 10.81,10.81 0 0 1 1244.12,355 h -64.86 a 10.81,10.81 0 0 1 -10.81,-10.81 v -64.86 a 10.81,10.81 0 0 1 10.81,-10.81 z"
     id="path725" /><path
     fill="#9f9f9f"
     stroke="#9f9f9f"
     fill-opacity="0.5"
     stroke-opacity="0.5"
     fill-rule="nonzero"
     stroke-width="0.0472423"
     stroke-linejoin="miter"
     stroke-linecap="round"
     d="m 1068.1,337.65 c 2.98,-3.07 7.87,-3.14 10.94,-0.16 3.06,2.97 3.13,7.86 0.16,10.93 -2.98,3.06 -7.87,3.13 -10.94,0.16 -3.06,-2.98 -3.13,-7.87 -0.16,-10.93 z"
     id="path727" /><path
     fill="#9f9f9f"
     stroke="#9f9f9f"
     fill-opacity="0.5"
     stroke-opacity="0.5"
     fill-rule="nonzero"
     stroke-width="0.0472423"
     stroke-linejoin="miter"
     stroke-linecap="round"
     d="m 1084.59,337.4 c 2.97,-3.06 7.87,-3.13 10.93,-0.16 3.07,2.98 3.14,7.87 0.16,10.94 -2.97,3.06 -7.87,3.13 -10.93,0.16 -3.06,-2.98 -3.14,-7.87 -0.16,-10.94 z"
     id="path729" /><path
     fill="#9f9f9f"
     stroke="#9f9f9f"
     fill-opacity="0.5"
     stroke-opacity="0.5"
     fill-rule="nonzero"
     stroke-width="0.0472423"
     stroke-linejoin="miter"
     stroke-linecap="round"
     d="m 1101.08,337.16 c 2.97,-3.06 7.87,-3.13 10.93,-0.16 3.06,2.98 3.13,7.87 0.16,10.94 -2.98,3.06 -7.87,3.13 -10.93,0.16 -3.07,-2.98 -3.14,-7.87 -0.16,-10.94 z"
     id="path731" /><path
     fill="#9f9f9f"
     stroke="#9f9f9f"
     fill-opacity="0.5"
     stroke-opacity="0.5"
     fill-rule="nonzero"
     stroke-width="0.0472423"
     stroke-linejoin="miter"
     stroke-linecap="round"
     d="m 1117.56,336.92 c 2.98,-3.06 7.87,-3.13 10.93,-0.16 3.07,2.98 3.14,7.87 0.16,10.93 -2.97,3.07 -7.87,3.14 -10.93,0.16 -3.06,-2.97 -3.13,-7.87 -0.16,-10.93 z"
     id="path733" /><path
     fill="#9f9f9f"
     stroke="#9f9f9f"
     fill-opacity="0.5"
     stroke-opacity="0.5"
     fill-rule="nonzero"
     stroke-width="0.0472423"
     stroke-linejoin="miter"
     stroke-linecap="round"
     d="m 1134.05,336.68 c 2.97,-3.06 7.87,-3.14 10.93,-0.16 3.06,2.97 3.14,7.87 0.16,10.93 -2.97,3.07 -7.87,3.14 -10.93,0.16 -3.07,-2.97 -3.14,-7.87 -0.16,-10.93 z"
     id="path735" /></g></svg>
