<?xml version="1.0" encoding="utf-8"?>
<svg
	version="1.1"
	xmlns="http://www.w3.org/2000/svg"
	xmlns:xlink="http://www.w3.org/1999/xlink"
	x="0%" y="0%"
	width="100%" height="100%"
	viewBox="0 0 800.0 638.0"
	enable-background="new 0 0 800.0 638.0"
	xml:space="preserve">
	<path
		fill="#ffffff"
		stroke="#000000"
		fill-opacity="1.000"
		stroke-opacity="0.000"
		fill-rule="nonzero"
		stroke-width="1.276"
		stroke-linejoin="miter"
		stroke-linecap="square"
		d="M20.80,230.96L28.80,215.64L72.00,187.57L145.60,156.95L225.60,123.77L283.20,103.36L283.91,55.10L267.20,26.80L264.00,21.69L556.80,45.94L556.80,116.12L641.60,165.88L697.60,197.78L755.20,230.96L776.00,247.54L779.20,275.62L779.20,349.62L779.20,549.96L636.80,549.96L20.80,549.96L20.80,329.21L20.80,297.31L20.80,266.68L20.80,230.96zM779.20,549.96L20.80,549.96L20.80,582.18L31.59,594.93L768.41,594.94L779.20,582.18L779.20,549.96zM260.07,0.00L264.00,21.69L556.80,45.94L560.00,0.00L260.07,0.00zM472.00,0.00C456.00,38.28,363.20,35.73,336.00,0.00"/>
</svg>