<?xml version="1.0" encoding="utf-8"?>
<svg
	version="1.1"
	xmlns="http://www.w3.org/2000/svg"
	xmlns:xlink="http://www.w3.org/1999/xlink"
	x="0%" y="0%"
	width="100%" height="100%"
	viewBox="0 0 500.0 500.0"
	enable-background="new 0 0 500.0 500.0"
	xml:space="preserve">
	<path
		fill="#FFFFFF"
		stroke="#000000"
		fill-opacity="0.000"
		stroke-opacity="1.000"
		fill-rule="nonzero"
		stroke-width="8.0"
		stroke-linejoin="miter"
		stroke-linecap="round"
		d="M240.00,5.00C215.00,230.00,95.00,430.00,15.00,480.00M396.19,170.63C391.83,177.49,387.47,184.35,380.00,190.00C372.53,195.65,361.95,200.10,355.00,200.00C348.05,199.90,344.73,195.25,346.67,185.00C348.60,174.75,355.80,158.90,362.50,150.00C369.20,141.10,375.41,139.15,380.00,140.00C384.59,140.85,387.55,144.49,385.00,155.00C382.45,165.51,374.37,182.90,360.00,195.00C345.63,207.10,324.95,213.93,315.00,205.00C305.05,196.07,305.83,171.40,315.00,155.00C324.17,138.60,341.72,130.47,345.00,140.00C348.28,149.53,337.29,176.73,320.00,195.00C302.71,213.27,279.14,222.63,276.17,207.46C273.21,192.28,290.85,152.58,312.98,127.01C335.11,101.45,361.72,90.03,380.00,90.00C398.28,89.97,408.22,101.33,410.00,125.00C411.78,148.67,405.39,184.64,399.85,212.24C394.31,239.84,389.61,259.08,370.00,310.00C350.39,360.92,315.87,443.52,290.00,450.00C264.13,456.48,246.89,386.85,240.00,300.00C233.11,213.15,236.55,109.07,240.00,5.00"/>
	<path
		fill="#FFFFFF"
		stroke="#000000"
		fill-opacity="0.000"
		stroke-opacity="1.000"
		fill-rule="nonzero"
		stroke-width="8.0"
		stroke-linejoin="miter"
		stroke-linecap="round"
		d="M10.00,245.00C135.00,250.00,355.00,235.00,495.00,185.00M495.00,185.00L447.91,155.42L460.00,240.00L495.00,185.00z"/>
</svg>