<?xml version="1.0" encoding="utf-8"?>
<svg
	version="1.1"
	xmlns="http://www.w3.org/2000/svg"
	xmlns:xlink="http://www.w3.org/1999/xlink"
	x="0%" y="0%"
	width="100%" height="100%"
	viewBox="0 0 1170.0 2532.0"
	enable-background="new 0 0 1170.0 2532.0"
	xml:space="preserve">
	<path
		fill="#9F9F9F"
		stroke="#9F9F9F"
		fill-opacity="0.5"
		stroke-opacity="0.5"
		fill-rule="nonzero"
		stroke-width="0.17476451"
		stroke-linejoin="miter"
		stroke-linecap="round"
		d="M165.11,1455.32C164.90,1457.59,162.91,1459.27,160.65,1459.07C158.39,1458.86,156.73,1456.85,156.94,1454.57C157.15,1452.30,159.14,1450.62,161.40,1450.82C163.65,1451.03,165.32,1453.04,165.11,1455.32z"/>
	<path
		fill="#000000"
		stroke="#9F9F9F"
		fill-opacity="0.000"
		stroke-opacity="0.5"
		fill-rule="nonzero"
		stroke-width="3.4988248"
		stroke-linejoin="miter"
		stroke-linecap="round"
		d="M195.39,1399.69L163.93,1426.16L189.59,1457.25L158.12,1483.73L183.77,1514.82"/>
	<path
		fill="#000000"
		stroke="#9F9F9F"
		fill-opacity="0.000"
		stroke-opacity="0.5"
		fill-rule="nonzero"
		stroke-width="3.4988248"
		stroke-linejoin="miter"
		stroke-linecap="round"
		d="M175.54,1311.03L144.08,1337.50L169.73,1368.60L138.27,1395.07L163.93,1426.16L132.46,1452.64L158.12,1483.73L126.65,1510.20L152.30,1541.29"/>
	<path
		fill="#000000"
		stroke="#9F9F9F"
		fill-opacity="0.000"
		stroke-opacity="0.5"
		fill-rule="nonzero"
		stroke-width="3.7765882"
		stroke-linejoin="miter"
		stroke-linecap="round"
		d="M1066.63,1531.83A28.18 28.81 316.45 1 0 1025.80,1570.67A27.57 28.18 316.45 1 1 1028.42,1578.50"/>
	<path
		fill="#000000"
		stroke="#9F9F9F"
		fill-opacity="0.000"
		stroke-opacity="0.5"
		fill-rule="nonzero"
		stroke-width="3.7765882"
		stroke-linejoin="miter"
		stroke-linecap="round"
		d="M1063.35,1468.71A27.99 28.61 101.43 1 0 1051.69,1523.46A27.99 28.61 101.43 1 1 1040.04,1578.21A27.99 28.61 101.43 1 0 1028.38,1632.96A27.99 28.61 101.43 1 1 1016.72,1687.71"/>
	<path
		fill="#000000"
		stroke="#9F9F9F"
		fill-opacity="0"
		stroke-opacity="0.5"
		fill-rule="nonzero"
		stroke-width="4.0817623"
		stroke-linejoin="miter"
		stroke-linecap="round"
		d="M1052.40,2281.82L1016.53,2265.73L1032.50,2230.13L1068.36,2246.22z"/>
	<path
		fill="#000000"
		stroke="#9F9F9F"
		fill-opacity="0.000"
		stroke-opacity="0.5"
		fill-rule="nonzero"
		stroke-width="4.0817623"
		stroke-linejoin="miter"
		stroke-linecap="round"
		d="M1012.40,2291.09L983.01,2277.90L995.89,2249.17L1025.29,2262.36z"/>
	<path
		fill="#000000"
		stroke="#9F9F9F"
		fill-opacity="0.000"
		stroke-opacity="0.5"
		fill-rule="nonzero"
		stroke-width="4.0817623"
		stroke-linejoin="miter"
		stroke-linecap="round"
		d="M1012.00,2210.64L1036.08,2241.50L1052.77,2210.37L1012.00,2210.64z"/>
	<path
		fill="#000000"
		stroke="#9F9F9F"
		fill-opacity="0.000"
		stroke-opacity="0.5"
		fill-rule="nonzero"
		stroke-width="4.0817575"
		stroke-linejoin="miter"
		stroke-linecap="round"
		d="M788.72,1246.95L774.15,1295.83L740.29,1266.23L788.72,1246.95z"/>
	<path
		fill="#000000"
		stroke="#9F9F9F"
		fill-opacity="0"
		stroke-opacity="0.5"
		fill-rule="nonzero"
		stroke-width="4.0368285"
		stroke-linejoin="miter"
		stroke-linecap="round"
		d="M1011.74,902.10L1064.58,921.33L1045.54,973.67L992.69,954.44z"/>
	<path
		fill="#000000"
		stroke="#9F9F9F"
		fill-opacity="0.000"
		stroke-opacity="0.5"
		fill-rule="nonzero"
		stroke-width="4.0368285"
		stroke-linejoin="miter"
		stroke-linecap="round"
		d="M982.81,883.92L1026.11,899.68L1010.73,941.93L967.43,926.17z"/>
	<path
		fill="#000000"
		stroke="#9F9F9F"
		fill-opacity="0.000"
		stroke-opacity="0.5"
		fill-rule="nonzero"
		stroke-width="4.0817575"
		stroke-linejoin="miter"
		stroke-linecap="round"
		d="M761.56,1285.22C750.84,1297.23,732.63,1298.46,720.88,1287.98C709.13,1277.49,708.29,1259.25,719.01,1247.24C729.73,1235.23,747.95,1234.00,759.70,1244.49C771.45,1254.97,772.28,1273.21,761.56,1285.22z"/>
	<path
		fill="#000000"
		stroke="#9F9F9F"
		fill-opacity="0.000"
		stroke-opacity="0.5"
		fill-rule="nonzero"
		stroke-width="3.510001"
		stroke-linejoin="miter"
		stroke-linecap="round"
		d="M1018.03,476.06L985.02,412.28"/>
	<path
		fill="#000000"
		stroke="#9F9F9F"
		fill-opacity="0.000"
		stroke-opacity="0.5"
		fill-rule="nonzero"
		stroke-width="3.510001"
		stroke-linejoin="miter"
		stroke-linecap="round"
		d="M1039.73,466.42L1006.71,402.65"/>
	<path
		fill="#000000"
		stroke="#9F9F9F"
		fill-opacity="0.000"
		stroke-opacity="0.5"
		fill-rule="nonzero"
		stroke-width="3.510001"
		stroke-linejoin="miter"
		stroke-linecap="round"
		d="M1061.43,456.80L1028.41,393.02"/>
	<path
		fill="#9F9F9F"
		stroke="#9F9F9F"
		fill-opacity="0.5"
		stroke-opacity="0.5"
		fill-rule="nonzero"
		stroke-width="0.20958869"
		stroke-linejoin="miter"
		stroke-linecap="round"
		d="M103.63,660.43C102.13,658.47,102.55,655.64,104.56,654.11C106.56,652.59,109.40,652.94,110.89,654.91C112.38,656.87,111.97,659.70,109.96,661.22C107.95,662.75,105.12,662.39,103.63,660.43z"/>
	<path
		fill="#9F9F9F"
		stroke="#9F9F9F"
		fill-opacity="0.5"
		stroke-opacity="0.5"
		fill-rule="nonzero"
		stroke-width="0.20958869"
		stroke-linejoin="miter"
		stroke-linecap="round"
		d="M105.56,647.32C104.07,645.35,104.49,642.53,106.49,641.00C108.50,639.48,111.34,639.83,112.83,641.80C114.32,643.76,113.90,646.59,111.90,648.11C109.89,649.63,107.05,649.28,105.56,647.32z"/>
	<path
		fill="#9F9F9F"
		stroke="#9F9F9F"
		fill-opacity="0.5"
		stroke-opacity="0.5"
		fill-rule="nonzero"
		stroke-width="0.20958869"
		stroke-linejoin="miter"
		stroke-linecap="round"
		d="M107.50,634.21C106.01,632.24,106.42,629.42,108.43,627.89C110.44,626.37,113.27,626.72,114.76,628.69C116.25,630.65,115.84,633.48,113.83,635.00C111.82,636.52,108.99,636.17,107.50,634.21z"/>
	<path
		fill="#9F9F9F"
		stroke="#9F9F9F"
		fill-opacity="0.5"
		stroke-opacity="0.5"
		fill-rule="nonzero"
		stroke-width="0.20958869"
		stroke-linejoin="miter"
		stroke-linecap="round"
		d="M109.43,621.10C107.94,619.13,108.36,616.31,110.37,614.78C112.37,613.26,115.21,613.61,116.70,615.57C118.19,617.54,117.77,620.36,115.77,621.89C113.76,623.41,110.93,623.06,109.43,621.10z"/>
	<path
		fill="#9F9F9F"
		stroke="#9F9F9F"
		fill-opacity="0.5"
		stroke-opacity="0.5"
		fill-rule="nonzero"
		stroke-width="0.20958869"
		stroke-linejoin="miter"
		stroke-linecap="round"
		d="M111.37,607.98C109.88,606.02,110.30,603.19,112.30,601.67C114.31,600.15,117.14,600.50,118.63,602.46C120.13,604.43,119.71,607.25,117.70,608.78C115.70,610.30,112.86,609.95,111.37,607.98z"/>
	<path
		fill="#9F9F9F"
		stroke="#9F9F9F"
		fill-opacity="0.5"
		stroke-opacity="0.5"
		fill-rule="nonzero"
		stroke-width="0.20958869"
		stroke-linejoin="miter"
		stroke-linecap="round"
		d="M113.32,594.75C111.83,592.79,112.25,589.96,114.25,588.44C116.26,586.92,119.10,587.27,120.59,589.23C122.08,591.20,121.66,594.02,119.66,595.55C117.65,597.07,114.81,596.72,113.32,594.75z"/>
	<path
		fill="#9F9F9F"
		stroke="#9F9F9F"
		fill-opacity="0.5"
		stroke-opacity="0.5"
		fill-rule="nonzero"
		stroke-width="0.20958869"
		stroke-linejoin="miter"
		stroke-linecap="round"
		d="M115.28,581.52C113.78,579.56,114.20,576.73,116.21,575.21C118.21,573.68,121.05,574.04,122.54,576.00C124.03,577.97,123.62,580.79,121.61,582.32C119.60,583.84,116.77,583.49,115.28,581.52z"/>
	<path
		fill="#9F9F9F"
		stroke="#9F9F9F"
		fill-opacity="0.5"
		stroke-opacity="0.5"
		fill-rule="nonzero"
		stroke-width="0.20958869"
		stroke-linejoin="miter"
		stroke-linecap="round"
		d="M117.03,569.61C115.54,567.65,115.96,564.82,117.97,563.30C119.97,561.77,122.81,562.13,124.30,564.09C125.79,566.05,125.37,568.88,123.37,570.41C121.36,571.93,118.53,571.57,117.03,569.61z"/>
	<path
		fill="#9F9F9F"
		stroke="#9F9F9F"
		fill-opacity="0.5"
		stroke-opacity="0.5"
		fill-rule="nonzero"
		stroke-width="0.20958869"
		stroke-linejoin="miter"
		stroke-linecap="round"
		d="M123.54,662.92C122.05,660.96,122.47,658.13,124.47,656.61C126.48,655.09,129.31,655.44,130.81,657.40C132.30,659.37,131.88,662.19,129.87,663.72C127.87,665.24,125.03,664.89,123.54,662.92z"/>
	<path
		fill="#9F9F9F"
		stroke="#9F9F9F"
		fill-opacity="0.5"
		stroke-opacity="0.5"
		fill-rule="nonzero"
		stroke-width="0.20958869"
		stroke-linejoin="miter"
		stroke-linecap="round"
		d="M125.48,649.81C123.98,647.85,124.40,645.02,126.41,643.50C128.41,641.97,131.25,642.33,132.74,644.29C134.23,646.26,133.81,649.08,131.81,650.61C129.80,652.13,126.97,651.78,125.48,649.81z"/>
	<path
		fill="#9F9F9F"
		stroke="#9F9F9F"
		fill-opacity="0.5"
		stroke-opacity="0.5"
		fill-rule="nonzero"
		stroke-width="0.20958869"
		stroke-linejoin="miter"
		stroke-linecap="round"
		d="M127.41,636.70C125.92,634.74,126.34,631.91,128.34,630.39C130.35,628.86,133.19,629.22,134.68,631.18C136.17,633.14,135.75,635.97,133.74,637.50C131.74,639.02,128.90,638.66,127.41,636.70z"/>
	<path
		fill="#9F9F9F"
		stroke="#9F9F9F"
		fill-opacity="0.5"
		stroke-opacity="0.5"
		fill-rule="nonzero"
		stroke-width="0.20958869"
		stroke-linejoin="miter"
		stroke-linecap="round"
		d="M129.35,623.59C127.86,621.63,128.27,618.80,130.28,617.28C132.29,615.75,135.12,616.11,136.61,618.07C138.10,620.03,137.69,622.86,135.68,624.39C133.67,625.91,130.84,625.55,129.35,623.59z"/>
	<path
		fill="#9F9F9F"
		stroke="#9F9F9F"
		fill-opacity="0.5"
		stroke-opacity="0.5"
		fill-rule="nonzero"
		stroke-width="0.20958869"
		stroke-linejoin="miter"
		stroke-linecap="round"
		d="M131.28,610.48C129.79,608.52,130.21,605.69,132.22,604.17C134.22,602.64,137.06,603.00,138.55,604.96C140.04,606.92,139.62,609.75,137.62,611.27C135.61,612.80,132.77,612.44,131.28,610.48z"/>
	<path
		fill="#9F9F9F"
		stroke="#9F9F9F"
		fill-opacity="0.5"
		stroke-opacity="0.5"
		fill-rule="nonzero"
		stroke-width="0.20958869"
		stroke-linejoin="miter"
		stroke-linecap="round"
		d="M133.24,597.25C131.74,595.29,132.16,592.46,134.17,590.94C136.17,589.41,139.01,589.77,140.50,591.73C141.99,593.69,141.58,596.52,139.57,598.04C137.56,599.57,134.73,599.21,133.24,597.25z"/>
	<path
		fill="#9F9F9F"
		stroke="#9F9F9F"
		fill-opacity="0.5"
		stroke-opacity="0.5"
		fill-rule="nonzero"
		stroke-width="0.20958869"
		stroke-linejoin="miter"
		stroke-linecap="round"
		d="M135.19,584.02C133.70,582.06,134.12,579.23,136.12,577.71C138.13,576.18,140.96,576.54,142.45,578.50C143.95,580.46,143.53,583.29,141.52,584.81C139.52,586.34,136.68,585.98,135.19,584.02z"/>
	<path
		fill="#9F9F9F"
		stroke="#9F9F9F"
		fill-opacity="0.5"
		stroke-opacity="0.5"
		fill-rule="nonzero"
		stroke-width="0.20958869"
		stroke-linejoin="miter"
		stroke-linecap="round"
		d="M136.95,572.11C135.46,570.15,135.87,567.32,137.88,565.79C139.89,564.27,142.72,564.62,144.21,566.59C145.71,568.55,145.29,571.38,143.28,572.90C141.28,574.43,138.44,574.07,136.95,572.11z"/>
	<path
		fill="#9F9F9F"
		stroke="#9F9F9F"
		fill-opacity="0.5"
		stroke-opacity="0.5"
		fill-rule="nonzero"
		stroke-width="0.20958869"
		stroke-linejoin="miter"
		stroke-linecap="round"
		d="M143.45,665.42C141.96,663.46,142.38,660.63,144.39,659.11C146.39,657.58,149.23,657.94,150.72,659.90C152.21,661.86,151.79,664.69,149.79,666.21C147.78,667.74,144.95,667.38,143.45,665.42z"/>
	<path
		fill="#9F9F9F"
		stroke="#9F9F9F"
		fill-opacity="0.5"
		stroke-opacity="0.5"
		fill-rule="nonzero"
		stroke-width="0.20958869"
		stroke-linejoin="miter"
		stroke-linecap="round"
		d="M145.39,652.31C143.90,650.35,144.32,647.52,146.32,646.00C148.33,644.47,151.16,644.83,152.65,646.79C154.15,648.75,153.73,651.58,151.72,653.10C149.72,654.63,146.88,654.27,145.39,652.31z"/>
	<path
		fill="#9F9F9F"
		stroke="#9F9F9F"
		fill-opacity="0.5"
		stroke-opacity="0.5"
		fill-rule="nonzero"
		stroke-width="0.20958869"
		stroke-linejoin="miter"
		stroke-linecap="round"
		d="M147.33,639.20C145.83,637.24,146.25,634.41,148.26,632.88C150.26,631.36,153.10,631.72,154.59,633.68C156.08,635.64,155.66,638.47,153.66,639.99C151.65,641.52,148.82,641.16,147.33,639.20z"/>
	<path
		fill="#9F9F9F"
		stroke="#9F9F9F"
		fill-opacity="0.5"
		stroke-opacity="0.5"
		fill-rule="nonzero"
		stroke-width="0.20958869"
		stroke-linejoin="miter"
		stroke-linecap="round"
		d="M149.26,626.09C147.77,624.13,148.19,621.30,150.19,619.77C152.20,618.25,155.03,618.60,156.53,620.57C158.02,622.53,157.60,625.36,155.59,626.88C153.59,628.41,150.75,628.05,149.26,626.09z"/>
	<path
		fill="#9F9F9F"
		stroke="#9F9F9F"
		fill-opacity="0.5"
		stroke-opacity="0.5"
		fill-rule="nonzero"
		stroke-width="0.20958869"
		stroke-linejoin="miter"
		stroke-linecap="round"
		d="M151.20,612.98C149.71,611.01,150.12,608.19,152.13,606.66C154.14,605.14,156.97,605.49,158.46,607.46C159.95,609.42,159.54,612.25,157.53,613.77C155.52,615.30,152.69,614.94,151.20,612.98z"/>
	<path
		fill="#9F9F9F"
		stroke="#9F9F9F"
		fill-opacity="0.5"
		stroke-opacity="0.5"
		fill-rule="nonzero"
		stroke-width="0.20958869"
		stroke-linejoin="miter"
		stroke-linecap="round"
		d="M153.15,599.75C151.66,597.78,152.08,594.96,154.08,593.43C156.09,591.91,158.92,592.26,160.42,594.23C161.91,596.19,161.49,599.02,159.48,600.54C157.48,602.06,154.64,601.71,153.15,599.75z"/>
	<path
		fill="#9F9F9F"
		stroke="#9F9F9F"
		fill-opacity="0.5"
		stroke-opacity="0.5"
		fill-rule="nonzero"
		stroke-width="0.20958869"
		stroke-linejoin="miter"
		stroke-linecap="round"
		d="M155.10,586.52C153.61,584.55,154.03,581.73,156.04,580.20C158.04,578.68,160.88,579.03,162.37,581.00C163.86,582.96,163.44,585.79,161.44,587.31C159.43,588.83,156.59,588.48,155.10,586.52z"/>
	<path
		fill="#9F9F9F"
		stroke="#9F9F9F"
		fill-opacity="0.5"
		stroke-opacity="0.5"
		fill-rule="nonzero"
		stroke-width="0.20958869"
		stroke-linejoin="miter"
		stroke-linecap="round"
		d="M156.86,574.60C155.37,572.64,155.79,569.81,157.79,568.29C159.80,566.77,162.64,567.12,164.13,569.08C165.62,571.05,165.20,573.87,163.20,575.40C161.19,576.92,158.35,576.57,156.86,574.60z"/>
	<path
		fill="#FFFFFF"
		stroke="#9F9F9F"
		fill-opacity="0.000"
		stroke-opacity="0.5"
		fill-rule="nonzero"
		stroke-width="3.3033607"
		stroke-linejoin="miter"
		stroke-linecap="round"
		d="M196.93,272.81L222.83,246.08A6.20 6.20 0 0 1 231.60,245.94L258.86,272.36A6.20 6.20 0 0 1 259.00,281.13L233.10,307.86A6.20 6.20 0 0 1 224.33,308.00L197.06,281.58A6.20 6.20 0 0 1 196.93,272.81z"/>
	<path
		fill="#FFFFFF"
		stroke="#9F9F9F"
		fill-opacity="0.000"
		stroke-opacity="0.5"
		fill-rule="nonzero"
		stroke-width="3.1039093"
		stroke-linejoin="miter"
		stroke-linecap="round"
		d="M200.64,242.34L226.54,215.62A6.20 6.20 0 0 1 235.31,215.48L262.57,241.89A6.20 6.20 0 0 1 262.71,250.67L236.81,277.39A6.20 6.20 0 0 1 228.04,277.53L200.78,251.12A6.20 6.20 0 0 1 200.64,242.34z"/>
	<path
		fill="#FFFFFF"
		stroke="#9F9F9F"
		fill-opacity="0.000"
		stroke-opacity="0.5"
		fill-rule="nonzero"
		stroke-width="3.3033607"
		stroke-linejoin="miter"
		stroke-linecap="round"
		d="M249.60,241.23L275.50,214.50A6.20 6.20 0 0 1 284.28,214.37L311.54,240.78A6.20 6.20 0 0 1 311.67,249.55L285.77,276.28A6.20 6.20 0 0 1 277.00,276.42L249.74,250.00A6.20 6.20 0 0 1 249.60,241.23z"/>
	<path
		fill="#9F9F9F"
		stroke="#9F9F9F"
		fill-opacity="0.5"
		stroke-opacity="0.5"
		fill-rule="nonzero"
		stroke-width="0.02709349"
		stroke-linejoin="miter"
		stroke-linecap="round"
		d="M234.14,313.98C234.07,311.57,236.00,309.56,238.44,309.48C240.89,309.41,242.94,311.30,243.01,313.71C243.08,316.12,241.16,318.14,238.71,318.21C236.26,318.29,234.22,316.39,234.14,313.98z"/>
	<path
		fill="#9F9F9F"
		stroke="#9F9F9F"
		fill-opacity="0.5"
		stroke-opacity="0.5"
		fill-rule="nonzero"
		stroke-width="0.02709349"
		stroke-linejoin="miter"
		stroke-linecap="round"
		d="M240.63,307.20C240.55,304.79,242.48,302.78,244.93,302.70C247.38,302.63,249.42,304.52,249.49,306.93C249.57,309.34,247.64,311.35,245.19,311.43C242.75,311.50,240.70,309.61,240.63,307.20z"/>
	<path
		fill="#9F9F9F"
		stroke="#9F9F9F"
		fill-opacity="0.5"
		stroke-opacity="0.5"
		fill-rule="nonzero"
		stroke-width="0.02709349"
		stroke-linejoin="miter"
		stroke-linecap="round"
		d="M247.11,300.42C247.04,298.01,248.96,295.99,251.41,295.92C253.86,295.85,255.90,297.74,255.98,300.15C256.05,302.56,254.13,304.57,251.68,304.65C249.23,304.72,247.19,302.83,247.11,300.42z"/>
	<path
		fill="#9F9F9F"
		stroke="#9F9F9F"
		fill-opacity="0.5"
		stroke-opacity="0.5"
		fill-rule="nonzero"
		stroke-width="0.02709349"
		stroke-linejoin="miter"
		stroke-linecap="round"
		d="M253.60,293.64C253.52,291.23,255.45,289.21,257.90,289.14C260.35,289.06,262.39,290.96,262.46,293.37C262.54,295.78,260.61,297.79,258.16,297.86C255.71,297.94,253.67,296.05,253.60,293.64z"/>
	<path
		fill="#9F9F9F"
		stroke="#9F9F9F"
		fill-opacity="0.5"
		stroke-opacity="0.5"
		fill-rule="nonzero"
		stroke-width="0.02709349"
		stroke-linejoin="miter"
		stroke-linecap="round"
		d="M260.08,286.85C260.01,284.44,261.93,282.43,264.38,282.36C266.83,282.28,268.87,284.17,268.95,286.58C269.02,288.99,267.09,291.01,264.65,291.08C262.20,291.16,260.15,289.26,260.08,286.85z"/>
	<path
		fill="#9E9E9E"
		stroke="#9E9E9E"
		fill-opacity="0.000"
		stroke-opacity="0.5"
		fill-rule="nonzero"
		stroke-width="4.081762"
		stroke-linejoin="miter"
		stroke-linecap="round"
		d="M827.03,185.27C827.21,197.56,817.18,207.67,804.62,207.86C792.06,208.04,781.73,198.24,781.54,185.95C781.36,173.66,791.39,163.55,803.95,163.36C816.51,163.18,826.84,172.98,827.03,185.27z"/>
	<path
		fill="#9E9E9E"
		stroke="#9E9E9E"
		fill-opacity="0.000"
		stroke-opacity="0.5"
		fill-rule="nonzero"
		stroke-width="4.036835"
		stroke-linejoin="miter"
		stroke-linecap="round"
		d="M459.05,780.88C447.74,787.82,432.95,784.28,426.01,772.98C419.07,761.68,422.60,746.88,433.91,739.94C445.21,733.00,460.00,736.53,466.94,747.84C473.89,759.14,470.35,773.93,459.05,780.88z"/>
	<path
		fill="#9E9E9E"
		stroke="#9E9E9E"
		fill-opacity="0.000"
		stroke-opacity="0.5"
		fill-rule="nonzero"
		stroke-width="4.036835"
		stroke-linejoin="miter"
		stroke-linecap="round"
		d="M453.17,804.20C441.86,811.14,427.07,807.61,420.13,796.30C413.19,785.00,416.72,770.21,428.03,763.27C439.33,756.32,454.12,759.86,461.07,771.16C468.01,782.47,464.47,797.26,453.17,804.20z"/>
	<path
		fill="#9E9E9E"
		stroke="#9E9E9E"
		fill-opacity="0.000"
		stroke-opacity="0.5"
		fill-rule="nonzero"
		stroke-width="4.036835"
		stroke-linejoin="miter"
		stroke-linecap="round"
		d="M435.36,788.20C424.05,795.14,409.26,791.60,402.32,780.30C395.38,769.00,398.91,754.21,410.22,747.26C421.52,740.32,436.31,743.86,443.25,755.16C450.20,766.46,446.66,781.26,435.36,788.20z"/>
	<path
		fill="#9E9E9E"
		stroke="#9E9E9E"
		fill-opacity="0.000"
		stroke-opacity="0.5"
		fill-rule="nonzero"
		stroke-width="4.0368304"
		stroke-linejoin="miter"
		stroke-linecap="round"
		d="M147.63,2309.66L134.90,2260.41A8.10 8.10 0 0 1 140.72,2250.55L189.74,2237.88A8.10 8.10 0 0 1 199.60,2243.69L212.33,2292.94A8.10 8.10 0 0 1 206.51,2302.80L157.50,2315.47A8.10 8.10 0 0 1 147.63,2309.66zM176.82,2241.09C179.78,2252.53,191.45,2259.41,202.89,2256.45C214.33,2253.49,221.20,2241.82,218.25,2230.39C215.29,2218.95,203.62,2212.07,192.18,2215.03C180.74,2217.98,173.87,2229.65,176.82,2241.09z"/>
	<path
		fill="#9E9E9E"
		stroke="#9E9E9E"
		fill-opacity="0.5"
		stroke-opacity="0.5"
		fill-rule="nonzero"
		stroke-width="0.0"
		stroke-linejoin="miter"
		stroke-linecap="round"
		d="M187.76,2247.03C187.29,2245.19,188.39,2243.31,190.23,2242.84C192.08,2242.36,193.95,2243.47,194.43,2245.31C194.90,2247.15,193.80,2249.03,191.96,2249.50C190.12,2249.98,188.24,2248.87,187.76,2247.03z"/>
	<path
		fill="#9E9E9E"
		stroke="#9E9E9E"
		fill-opacity="0"
		stroke-opacity="0.5"
		fill-rule="nonzero"
		stroke-width="3.4414864"
		stroke-linejoin="miter"
		stroke-linecap="round"
		d="M544.64,1913.23L587.19,1974.23L526.19,2016.78L483.64,1955.78zM550.66,1954.37C544.79,1945.95,533.20,1943.88,524.78,1949.76C516.35,1955.63,514.29,1967.22,520.16,1975.64C526.04,1984.07,537.63,1986.13,546.05,1980.26C554.47,1974.38,556.54,1962.79,550.66,1954.37z"/>
	<path
		fill="#9E9E9E"
		stroke="#9E9E9E"
		fill-opacity="0"
		stroke-opacity="0.5"
		fill-rule="nonzero"
		stroke-width="3.4414864"
		stroke-linejoin="miter"
		stroke-linecap="round"
		d="M513.96,1934.63L556.72,1995.49"/>
</svg>