<?xml version="1.0" encoding="utf-8"?>
<svg
	version="1.1"
	xmlns="http://www.w3.org/2000/svg"
	xmlns:xlink="http://www.w3.org/1999/xlink"
	x="0%" y="0%"
	width="100%" height="100%"
	viewBox="0 0 2560.0 1440.0"
	enable-background="new 0 0 2560.0 1440.0"
	xml:space="preserve">
	<path
		fill="#9F9F9F"
		stroke="#9F9F9F"
		fill-opacity="0.5"
		stroke-opacity="0.5"
		fill-rule="nonzero"
		stroke-width="0.18548928"
		stroke-linejoin="miter"
		stroke-linecap="round"
		d="M271.80,1247.81C270.41,1245.82,270.87,1243.09,272.84,1241.71C274.80,1240.33,277.53,1240.81,278.92,1242.80C280.32,1244.78,279.86,1247.51,277.89,1248.90C275.93,1250.28,273.20,1249.79,271.80,1247.81z"/>
	<path
		fill="#000000"
		stroke="#9F9F9F"
		fill-opacity="0.000"
		stroke-opacity="0.5"
		fill-rule="nonzero"
		stroke-width="3.7135367"
		stroke-linejoin="miter"
		stroke-linecap="round"
		d="M265.21,1176.98L257.94,1220.02L300.06,1227.55L292.79,1270.59L334.91,1278.11"/>
	<path
		fill="#000000"
		stroke="#9F9F9F"
		fill-opacity="0.000"
		stroke-opacity="0.5"
		fill-rule="nonzero"
		stroke-width="3.7135367"
		stroke-linejoin="miter"
		stroke-linecap="round"
		d="M188.25,1118.89L180.98,1161.93L223.09,1169.46L215.82,1212.49L257.94,1220.02L250.67,1263.06L292.79,1270.59L285.51,1313.62L327.63,1321.15"/>
	<path
		fill="#000000"
		stroke="#9F9F9F"
		fill-opacity="0.000"
		stroke-opacity="0.5"
		fill-rule="nonzero"
		stroke-width="4.041501"
		stroke-linejoin="miter"
		stroke-linecap="round"
		d="M2295.03,243.73A30.16 30.83 358.88 1 1 2234.73,244.90A29.50 30.16 358.88 1 0 2230.84,236.97"/>
	<path
		fill="#000000"
		stroke="#9F9F9F"
		fill-opacity="0.000"
		stroke-opacity="0.5"
		fill-rule="nonzero"
		stroke-width="4.041501"
		stroke-linejoin="miter"
		stroke-linecap="round"
		d="M2340.02,294.23A29.95 30.62 213.89 1 1 2289.96,261.34A29.95 30.62 213.89 1 0 2239.89,228.45A29.95 30.62 213.89 1 1 2189.83,195.56A29.95 30.62 213.89 1 0 2139.77,162.66"/>
	<path
		fill="#000000"
		stroke="#9F9F9F"
		fill-opacity="0.004"
		stroke-opacity="0.5"
		fill-rule="nonzero"
		stroke-width="4.3680778"
		stroke-linejoin="miter"
		stroke-linecap="round"
		d="M1571.44,216.04L1595.71,181.68L1629.82,205.76L1605.55,240.13z"/>
	<path
		fill="#000000"
		stroke="#9F9F9F"
		fill-opacity="0.000"
		stroke-opacity="0.5"
		fill-rule="nonzero"
		stroke-width="4.3680778"
		stroke-linejoin="miter"
		stroke-linecap="round"
		d="M1569.92,172.14L1589.81,143.97L1617.34,163.40L1597.45,191.57z"/>
	<path
		fill="#000000"
		stroke="#9F9F9F"
		fill-opacity="0.000"
		stroke-opacity="0.5"
		fill-rule="nonzero"
		stroke-width="4.3680778"
		stroke-linejoin="miter"
		stroke-linecap="round"
		d="M1654.50,188.24L1617.14,207.19L1646.41,231.11L1654.50,188.24z"/>
	<path
		fill="#000000"
		stroke="#9F9F9F"
		fill-opacity="0.000"
		stroke-opacity="0.5"
		fill-rule="nonzero"
		stroke-width="4.3680816"
		stroke-linejoin="miter"
		stroke-linecap="round"
		d="M1038.02,623.90L1058.89,573.46L1010.79,575.20L1038.02,623.90z"/>
	<path
		fill="#000000"
		stroke="#9F9F9F"
		fill-opacity="0.004"
		stroke-opacity="0.5"
		fill-rule="nonzero"
		stroke-width="5.2440104"
		stroke-linejoin="miter"
		stroke-linecap="round"
		d="M1778.82,682.27L1728.48,649.30L1761.14,599.44L1811.48,632.41z"/>
	<path
		fill="#000000"
		stroke="#9F9F9F"
		fill-opacity="0.000"
		stroke-opacity="0.5"
		fill-rule="nonzero"
		stroke-width="5.2440104"
		stroke-linejoin="miter"
		stroke-linecap="round"
		d="M1804.51,708.29L1763.26,681.28L1789.63,641.03L1830.87,668.05z"/>
	<path
		fill="#000000"
		stroke="#9F9F9F"
		fill-opacity="0.000"
		stroke-opacity="0.5"
		fill-rule="nonzero"
		stroke-width="4.3680816"
		stroke-linejoin="miter"
		stroke-linecap="round"
		d="M1041.27,573.78C1042.08,590.99,1029.08,605.58,1012.25,606.36C995.41,607.15,981.11,593.84,980.30,576.63C979.50,559.42,992.50,544.83,1009.33,544.05C1026.17,543.26,1040.47,556.57,1041.27,573.78z"/>
	<path
		fill="#000000"
		stroke="#9F9F9F"
		fill-opacity="0.000"
		stroke-opacity="0.5"
		fill-rule="nonzero"
		stroke-width="4.3680797"
		stroke-linejoin="miter"
		stroke-linecap="round"
		d="M2327.83,698.24L2374.34,759.41"/>
	<path
		fill="#000000"
		stroke="#9F9F9F"
		fill-opacity="0.000"
		stroke-opacity="0.5"
		fill-rule="nonzero"
		stroke-width="4.3680797"
		stroke-linejoin="miter"
		stroke-linecap="round"
		d="M2306.72,712.38L2353.23,773.55"/>
	<path
		fill="#000000"
		stroke="#9F9F9F"
		fill-opacity="0.000"
		stroke-opacity="0.5"
		fill-rule="nonzero"
		stroke-width="4.3680797"
		stroke-linejoin="miter"
		stroke-linecap="round"
		d="M2285.61,726.51L2332.12,787.69"/>
	<path
		fill="#9F9F9F"
		stroke="#9F9F9F"
		fill-opacity="0.5"
		stroke-opacity="0.5"
		fill-rule="nonzero"
		stroke-width="0.22429039"
		stroke-linejoin="miter"
		stroke-linecap="round"
		d="M193.24,593.28C192.03,590.93,193.00,588.03,195.40,586.80C197.80,585.57,200.72,586.48,201.93,588.83C203.13,591.17,202.16,594.07,199.76,595.30C197.36,596.53,194.44,595.63,193.24,593.28z"/>
	<path
		fill="#9F9F9F"
		stroke="#9F9F9F"
		fill-opacity="0.5"
		stroke-opacity="0.5"
		fill-rule="nonzero"
		stroke-width="0.22429039"
		stroke-linejoin="miter"
		stroke-linecap="round"
		d="M197.73,579.83C196.53,577.48,197.50,574.58,199.90,573.35C202.30,572.12,205.22,573.03,206.42,575.38C207.63,577.72,206.66,580.62,204.26,581.85C201.86,583.08,198.94,582.18,197.73,579.83z"/>
	<path
		fill="#9F9F9F"
		stroke="#9F9F9F"
		fill-opacity="0.5"
		stroke-opacity="0.5"
		fill-rule="nonzero"
		stroke-width="0.22429039"
		stroke-linejoin="miter"
		stroke-linecap="round"
		d="M202.23,566.38C201.03,564.03,202.00,561.13,204.40,559.90C206.80,558.67,209.72,559.58,210.92,561.93C212.12,564.27,211.15,567.17,208.75,568.40C206.36,569.63,203.43,568.73,202.23,566.38z"/>
	<path
		fill="#9F9F9F"
		stroke="#9F9F9F"
		fill-opacity="0.5"
		stroke-opacity="0.5"
		fill-rule="nonzero"
		stroke-width="0.22429039"
		stroke-linejoin="miter"
		stroke-linecap="round"
		d="M206.73,552.93C205.53,550.58,206.50,547.68,208.90,546.45C211.30,545.22,214.22,546.13,215.42,548.48C216.62,550.82,215.65,553.72,213.25,554.95C210.85,556.18,207.93,555.28,206.73,552.93z"/>
	<path
		fill="#9F9F9F"
		stroke="#9F9F9F"
		fill-opacity="0.5"
		stroke-opacity="0.5"
		fill-rule="nonzero"
		stroke-width="0.22429039"
		stroke-linejoin="miter"
		stroke-linecap="round"
		d="M211.23,539.48C210.02,537.13,210.99,534.23,213.39,533.00C215.79,531.77,218.71,532.68,219.92,535.02C221.12,537.37,220.15,540.27,217.75,541.50C215.35,542.73,212.43,541.83,211.23,539.48z"/>
	<path
		fill="#9F9F9F"
		stroke="#9F9F9F"
		fill-opacity="0.5"
		stroke-opacity="0.5"
		fill-rule="nonzero"
		stroke-width="0.22429039"
		stroke-linejoin="miter"
		stroke-linecap="round"
		d="M215.77,525.91C214.56,523.56,215.53,520.66,217.93,519.43C220.33,518.20,223.25,519.10,224.46,521.45C225.66,523.80,224.69,526.70,222.29,527.93C219.89,529.16,216.97,528.25,215.77,525.91z"/>
	<path
		fill="#9F9F9F"
		stroke="#9F9F9F"
		fill-opacity="0.5"
		stroke-opacity="0.5"
		fill-rule="nonzero"
		stroke-width="0.22429039"
		stroke-linejoin="miter"
		stroke-linecap="round"
		d="M220.31,512.33C219.10,509.98,220.07,507.08,222.47,505.85C224.87,504.62,227.79,505.53,229.00,507.88C230.20,510.23,229.23,513.13,226.83,514.36C224.43,515.59,221.51,514.68,220.31,512.33z"/>
	<path
		fill="#9F9F9F"
		stroke="#9F9F9F"
		fill-opacity="0.5"
		stroke-opacity="0.5"
		fill-rule="nonzero"
		stroke-width="0.22429039"
		stroke-linejoin="miter"
		stroke-linecap="round"
		d="M224.39,500.11C223.19,497.76,224.16,494.86,226.56,493.63C228.96,492.40,231.88,493.31,233.08,495.66C234.29,498.01,233.32,500.91,230.92,502.14C228.52,503.37,225.60,502.46,224.39,500.11z"/>
	<path
		fill="#9F9F9F"
		stroke="#9F9F9F"
		fill-opacity="0.5"
		stroke-opacity="0.5"
		fill-rule="nonzero"
		stroke-width="0.22429039"
		stroke-linejoin="miter"
		stroke-linecap="round"
		d="M213.75,599.64C212.54,597.30,213.51,594.40,215.91,593.17C218.31,591.94,221.23,592.84,222.44,595.19C223.64,597.54,222.67,600.44,220.27,601.67C217.87,602.90,214.95,601.99,213.75,599.64z"/>
	<path
		fill="#9F9F9F"
		stroke="#9F9F9F"
		fill-opacity="0.5"
		stroke-opacity="0.5"
		fill-rule="nonzero"
		stroke-width="0.22429039"
		stroke-linejoin="miter"
		stroke-linecap="round"
		d="M218.25,586.19C217.04,583.85,218.01,580.95,220.41,579.72C222.81,578.49,225.73,579.39,226.94,581.74C228.14,584.09,227.17,586.99,224.77,588.22C222.37,589.45,219.45,588.54,218.25,586.19z"/>
	<path
		fill="#9F9F9F"
		stroke="#9F9F9F"
		fill-opacity="0.5"
		stroke-opacity="0.5"
		fill-rule="nonzero"
		stroke-width="0.22429039"
		stroke-linejoin="miter"
		stroke-linecap="round"
		d="M222.74,572.74C221.54,570.40,222.51,567.50,224.91,566.27C227.31,565.04,230.23,565.94,231.43,568.29C232.64,570.64,231.67,573.54,229.27,574.77C226.87,576.00,223.95,575.09,222.74,572.74z"/>
	<path
		fill="#9F9F9F"
		stroke="#9F9F9F"
		fill-opacity="0.5"
		stroke-opacity="0.5"
		fill-rule="nonzero"
		stroke-width="0.22429039"
		stroke-linejoin="miter"
		stroke-linecap="round"
		d="M227.24,559.29C226.04,556.95,227.01,554.05,229.41,552.82C231.81,551.59,234.73,552.49,235.93,554.84C237.14,557.19,236.17,560.09,233.77,561.32C231.37,562.55,228.45,561.64,227.24,559.29z"/>
	<path
		fill="#9F9F9F"
		stroke="#9F9F9F"
		fill-opacity="0.5"
		stroke-opacity="0.5"
		fill-rule="nonzero"
		stroke-width="0.22429039"
		stroke-linejoin="miter"
		stroke-linecap="round"
		d="M231.74,545.84C230.54,543.50,231.51,540.59,233.91,539.36C236.31,538.14,239.23,539.04,240.43,541.39C241.63,543.74,240.66,546.64,238.26,547.87C235.86,549.10,232.94,548.19,231.74,545.84z"/>
	<path
		fill="#9F9F9F"
		stroke="#9F9F9F"
		fill-opacity="0.5"
		stroke-opacity="0.5"
		fill-rule="nonzero"
		stroke-width="0.22429039"
		stroke-linejoin="miter"
		stroke-linecap="round"
		d="M236.28,532.27C235.08,529.92,236.05,527.02,238.45,525.79C240.85,524.56,243.77,525.47,244.97,527.82C246.17,530.16,245.20,533.06,242.80,534.29C240.40,535.52,237.48,534.62,236.28,532.27z"/>
	<path
		fill="#9F9F9F"
		stroke="#9F9F9F"
		fill-opacity="0.5"
		stroke-opacity="0.5"
		fill-rule="nonzero"
		stroke-width="0.22429039"
		stroke-linejoin="miter"
		stroke-linecap="round"
		d="M240.82,518.70C239.62,516.35,240.59,513.45,242.98,512.22C245.38,510.99,248.31,511.89,249.51,514.24C250.71,516.59,249.74,519.49,247.34,520.72C244.94,521.95,242.02,521.04,240.82,518.70z"/>
	<path
		fill="#9F9F9F"
		stroke="#9F9F9F"
		fill-opacity="0.5"
		stroke-opacity="0.5"
		fill-rule="nonzero"
		stroke-width="0.22429039"
		stroke-linejoin="miter"
		stroke-linecap="round"
		d="M244.91,506.48C243.70,504.13,244.67,501.23,247.07,500.00C249.47,498.77,252.39,499.67,253.59,502.02C254.80,504.37,253.83,507.27,251.43,508.50C249.03,509.73,246.11,508.82,244.91,506.48z"/>
	<path
		fill="#9F9F9F"
		stroke="#9F9F9F"
		fill-opacity="0.5"
		stroke-opacity="0.5"
		fill-rule="nonzero"
		stroke-width="0.22429039"
		stroke-linejoin="miter"
		stroke-linecap="round"
		d="M234.26,606.01C233.06,603.66,234.03,600.76,236.43,599.53C238.83,598.30,241.75,599.21,242.95,601.56C244.15,603.90,243.18,606.80,240.78,608.03C238.38,609.26,235.46,608.36,234.26,606.01z"/>
	<path
		fill="#9F9F9F"
		stroke="#9F9F9F"
		fill-opacity="0.5"
		stroke-opacity="0.5"
		fill-rule="nonzero"
		stroke-width="0.22429039"
		stroke-linejoin="miter"
		stroke-linecap="round"
		d="M238.76,592.56C237.56,590.21,238.53,587.31,240.93,586.08C243.32,584.85,246.25,585.76,247.45,588.10C248.65,590.45,247.68,593.35,245.28,594.58C242.88,595.81,239.96,594.91,238.76,592.56z"/>
	<path
		fill="#9F9F9F"
		stroke="#9F9F9F"
		fill-opacity="0.5"
		stroke-opacity="0.5"
		fill-rule="nonzero"
		stroke-width="0.22429039"
		stroke-linejoin="miter"
		stroke-linecap="round"
		d="M243.26,579.11C242.05,576.76,243.02,573.86,245.42,572.63C247.82,571.40,250.74,572.31,251.95,574.65C253.15,577.00,252.18,579.90,249.78,581.13C247.38,582.36,244.46,581.46,243.26,579.11z"/>
	<path
		fill="#9F9F9F"
		stroke="#9F9F9F"
		fill-opacity="0.5"
		stroke-opacity="0.5"
		fill-rule="nonzero"
		stroke-width="0.22429039"
		stroke-linejoin="miter"
		stroke-linecap="round"
		d="M247.76,565.66C246.55,563.31,247.52,560.41,249.92,559.18C252.32,557.95,255.24,558.86,256.45,561.20C257.65,563.55,256.68,566.45,254.28,567.68C251.88,568.91,248.96,568.01,247.76,565.66z"/>
	<path
		fill="#9F9F9F"
		stroke="#9F9F9F"
		fill-opacity="0.5"
		stroke-opacity="0.5"
		fill-rule="nonzero"
		stroke-width="0.22429039"
		stroke-linejoin="miter"
		stroke-linecap="round"
		d="M252.25,552.21C251.05,549.86,252.02,546.96,254.42,545.73C256.82,544.50,259.74,545.41,260.94,547.75C262.15,550.10,261.18,553.00,258.78,554.23C256.38,555.46,253.46,554.55,252.25,552.21z"/>
	<path
		fill="#9F9F9F"
		stroke="#9F9F9F"
		fill-opacity="0.5"
		stroke-opacity="0.5"
		fill-rule="nonzero"
		stroke-width="0.22429039"
		stroke-linejoin="miter"
		stroke-linecap="round"
		d="M256.79,538.63C255.59,536.29,256.56,533.39,258.96,532.16C261.36,530.93,264.28,531.83,265.48,534.18C266.69,536.53,265.72,539.43,263.32,540.66C260.92,541.89,258.00,540.98,256.79,538.63z"/>
	<path
		fill="#9F9F9F"
		stroke="#9F9F9F"
		fill-opacity="0.5"
		stroke-opacity="0.5"
		fill-rule="nonzero"
		stroke-width="0.22429039"
		stroke-linejoin="miter"
		stroke-linecap="round"
		d="M261.33,525.06C260.13,522.71,261.10,519.81,263.50,518.58C265.90,517.35,268.82,518.26,270.02,520.61C271.22,522.95,270.25,525.85,267.86,527.08C265.46,528.31,262.53,527.41,261.33,525.06z"/>
	<path
		fill="#9F9F9F"
		stroke="#9F9F9F"
		fill-opacity="0.5"
		stroke-opacity="0.5"
		fill-rule="nonzero"
		stroke-width="0.22429039"
		stroke-linejoin="miter"
		stroke-linecap="round"
		d="M265.42,512.84C264.21,510.49,265.18,507.59,267.58,506.36C269.98,505.13,272.90,506.04,274.11,508.39C275.31,510.73,274.34,513.63,271.94,514.86C269.54,516.09,266.62,515.19,265.42,512.84z"/>
	<path
		fill="#FFFFFF"
		stroke="#9F9F9F"
		fill-opacity="0.000"
		stroke-opacity="0.5"
		fill-rule="nonzero"
		stroke-width="3.5350778"
		stroke-linejoin="miter"
		stroke-linecap="round"
		d="M888.27,1229.62L856.05,1206.21A6.64 6.64 0 0 1 854.58,1196.94L878.45,1164.07A6.64 6.64 0 0 1 887.72,1162.60L919.95,1186.01A6.64 6.64 0 0 1 921.42,1195.28L897.54,1228.15A6.64 6.64 0 0 1 888.27,1229.62z"/>
	<path
		fill="#FFFFFF"
		stroke="#9F9F9F"
		fill-opacity="0.000"
		stroke-opacity="0.5"
		fill-rule="nonzero"
		stroke-width="3.3216355"
		stroke-linejoin="miter"
		stroke-linecap="round"
		d="M855.43,1230.28L823.21,1206.88A6.64 6.64 0 0 1 821.74,1197.60L845.61,1164.74A6.64 6.64 0 0 1 854.88,1163.27L887.11,1186.67A6.64 6.64 0 0 1 888.58,1195.94L864.71,1228.81A6.64 6.64 0 0 1 855.43,1230.28z"/>
	<path
		fill="#FFFFFF"
		stroke="#9F9F9F"
		fill-opacity="0.000"
		stroke-opacity="0.5"
		fill-rule="nonzero"
		stroke-width="3.5350778"
		stroke-linejoin="miter"
		stroke-linecap="round"
		d="M846.87,1178.57L814.64,1155.17A6.64 6.64 0 0 1 813.17,1145.89L837.04,1113.03A6.64 6.64 0 0 1 846.32,1111.56L878.54,1134.96A6.64 6.64 0 0 1 880.01,1144.23L856.14,1177.10A6.64 6.64 0 0 1 846.87,1178.57z"/>
	<path
		fill="#9F9F9F"
		stroke="#9F9F9F"
		fill-opacity="0.5"
		stroke-opacity="0.5"
		fill-rule="nonzero"
		stroke-width="0.028993985"
		stroke-linejoin="miter"
		stroke-linecap="round"
		d="M926.27,1183.97C923.73,1184.41,921.31,1182.68,920.86,1180.10C920.41,1177.51,922.11,1175.06,924.65,1174.62C927.19,1174.18,929.62,1175.91,930.07,1178.50C930.51,1181.08,928.82,1183.53,926.27,1183.97z"/>
	<path
		fill="#9F9F9F"
		stroke="#9F9F9F"
		fill-opacity="0.5"
		stroke-opacity="0.5"
		fill-rule="nonzero"
		stroke-width="0.028993985"
		stroke-linejoin="miter"
		stroke-linecap="round"
		d="M918.11,1178.13C915.57,1178.57,913.14,1176.83,912.70,1174.25C912.25,1171.67,913.94,1169.22,916.49,1168.77C919.03,1168.33,921.45,1170.07,921.90,1172.65C922.35,1175.23,920.65,1177.69,918.11,1178.13z"/>
	<path
		fill="#9F9F9F"
		stroke="#9F9F9F"
		fill-opacity="0.5"
		stroke-opacity="0.5"
		fill-rule="nonzero"
		stroke-width="0.028993985"
		stroke-linejoin="miter"
		stroke-linecap="round"
		d="M909.95,1172.28C907.40,1172.72,904.98,1170.99,904.53,1168.40C904.08,1165.82,905.78,1163.37,908.32,1162.93C910.86,1162.49,913.29,1164.22,913.74,1166.80C914.19,1169.39,912.49,1171.84,909.95,1172.28z"/>
	<path
		fill="#9F9F9F"
		stroke="#9F9F9F"
		fill-opacity="0.5"
		stroke-opacity="0.5"
		fill-rule="nonzero"
		stroke-width="0.028993985"
		stroke-linejoin="miter"
		stroke-linecap="round"
		d="M901.78,1166.43C899.24,1166.88,896.82,1165.14,896.37,1162.56C895.92,1159.97,897.62,1157.52,900.16,1157.08C902.70,1156.64,905.13,1158.38,905.57,1160.96C906.02,1163.54,904.32,1165.99,901.78,1166.43z"/>
	<path
		fill="#9F9F9F"
		stroke="#9F9F9F"
		fill-opacity="0.5"
		stroke-opacity="0.5"
		fill-rule="nonzero"
		stroke-width="0.028993985"
		stroke-linejoin="miter"
		stroke-linecap="round"
		d="M893.62,1160.59C891.08,1161.03,888.65,1159.29,888.20,1156.71C887.76,1154.13,889.45,1151.68,892.00,1151.24C894.54,1150.79,896.96,1152.53,897.41,1155.11C897.86,1157.70,896.16,1160.15,893.62,1160.59z"/>
	<path
		fill="#9E9E9E"
		stroke="#9E9E9E"
		fill-opacity="0.000"
		stroke-opacity="0.5"
		fill-rule="nonzero"
		stroke-width="4.36808"
		stroke-linejoin="miter"
		stroke-linecap="round"
		d="M868.09,106.03C881.24,106.03,891.90,116.93,891.90,130.37C891.90,143.81,881.24,154.71,868.09,154.71C854.94,154.71,844.28,143.81,844.28,130.37C844.28,116.93,854.94,106.03,868.09,106.03z"/>
	<path
		fill="#9E9E9E"
		stroke="#9E9E9E"
		fill-opacity="0.000"
		stroke-opacity="0.5"
		fill-rule="nonzero"
		stroke-width="4.32"
		stroke-linejoin="miter"
		stroke-linecap="round"
		d="M1478.17,1098.83C1485.42,1111.04,1481.40,1126.81,1469.19,1134.06C1456.99,1141.31,1441.21,1137.29,1433.97,1125.08C1426.72,1112.87,1430.74,1097.10,1442.95,1089.86C1455.15,1082.61,1470.92,1086.63,1478.17,1098.83z"/>
	<path
		fill="#9E9E9E"
		stroke="#9E9E9E"
		fill-opacity="0.000"
		stroke-opacity="0.5"
		fill-rule="nonzero"
		stroke-width="4.32"
		stroke-linejoin="miter"
		stroke-linecap="round"
		d="M1503.03,1105.50C1510.28,1117.70,1506.26,1133.48,1494.06,1140.72C1481.85,1147.97,1466.08,1143.95,1458.83,1131.74C1451.58,1119.54,1455.60,1103.77,1467.81,1096.52C1480.02,1089.27,1495.79,1093.29,1503.03,1105.50z"/>
	<path
		fill="#9E9E9E"
		stroke="#9E9E9E"
		fill-opacity="0.000"
		stroke-opacity="0.5"
		fill-rule="nonzero"
		stroke-width="4.32"
		stroke-linejoin="miter"
		stroke-linecap="round"
		d="M1485.63,1124.30C1492.87,1136.51,1488.85,1152.28,1476.65,1159.53C1464.44,1166.77,1448.67,1162.76,1441.42,1150.55C1434.17,1138.34,1438.19,1122.57,1450.40,1115.32C1462.61,1108.08,1478.38,1112.10,1485.63,1124.30z"/>
	<path
		fill="#9E9E9E"
		stroke="#9E9E9E"
		fill-opacity="0.000"
		stroke-opacity="0.5"
		fill-rule="nonzero"
		stroke-width="4.319999"
		stroke-linejoin="miter"
		stroke-linecap="round"
		d="M384.28,278.86L334.98,255.79A8.67 8.67 0 0 1 330.81,244.27L353.77,195.20A8.67 8.67 0 0 1 365.29,191.02L414.59,214.09A8.67 8.67 0 0 1 418.77,225.61L395.81,274.68A8.67 8.67 0 0 1 384.28,278.86zM347.62,208.04C359.07,213.40,372.70,208.46,378.05,197.01C383.41,185.55,378.47,171.93,367.02,166.57C355.57,161.21,341.94,166.15,336.59,177.60C331.23,189.05,336.17,202.68,347.62,208.04z"/>
	<path
		fill="#9E9E9E"
		stroke="#9E9E9E"
		fill-opacity="0.5"
		stroke-opacity="0.5"
		fill-rule="nonzero"
		stroke-width="0.0"
		stroke-linejoin="miter"
		stroke-linecap="round"
		d="M359.97,203.06C358.13,202.20,357.34,200.01,358.20,198.16C359.06,196.32,361.25,195.53,363.10,196.39C364.94,197.25,365.74,199.44,364.87,201.29C364.01,203.13,361.82,203.92,359.97,203.06z"/>
	<path
		fill="#9E9E9E"
		stroke="#9E9E9E"
		fill-opacity="0.004"
		stroke-opacity="0.5"
		fill-rule="nonzero"
		stroke-width="3.6828926"
		stroke-linejoin="miter"
		stroke-linecap="round"
		d="M2076.56,1220.40L2142.52,1175.85L2187.07,1241.80L2121.12,1286.36zM2120.68,1214.61C2111.57,1220.77,2109.18,1233.13,2115.33,1242.24C2121.48,1251.35,2133.85,1253.74,2142.96,1247.59C2152.06,1241.44,2154.46,1229.07,2148.31,1219.96C2142.16,1210.86,2129.79,1208.46,2120.68,1214.61z"/>
	<path
		fill="#9E9E9E"
		stroke="#9E9E9E"
		fill-opacity="0.000"
		stroke-opacity="0.5"
		fill-rule="nonzero"
		stroke-width="3.6828926"
		stroke-linejoin="miter"
		stroke-linecap="round"
		d="M2098.97,1253.57L2164.77,1208.79"/>
</svg>