<?xml version="1.0" encoding="utf-8"?>
<svg
	version="1.1"
	xmlns="http://www.w3.org/2000/svg"
	xmlns:xlink="http://www.w3.org/1999/xlink"
	x="0%" y="0%"
	width="100%" height="100%"
	viewBox="0 0 2560.0 1440.0"
	enable-background="new 0 0 2560.0 1440.0"
	xml:space="preserve">
	<path
		fill="#9F9F9F"
		stroke="#9F9F9F"
		fill-opacity="0.5"
		stroke-opacity="0.5"
		fill-rule="nonzero"
		stroke-width="0.26327616"
		stroke-linejoin="miter"
		stroke-linecap="round"
		d="M314.04,280.66C316.16,278.01,320.02,277.58,322.67,279.70C325.33,281.82,325.76,285.69,323.63,288.34C321.51,290.99,317.65,291.42,315.00,289.30C312.35,287.18,311.92,283.31,314.04,280.66z"/>
	<path
		fill="#000000"
		stroke="#9F9F9F"
		fill-opacity="0.000"
		stroke-opacity="0.5"
		fill-rule="nonzero"
		stroke-width="2.88"
		stroke-linejoin="miter"
		stroke-linecap="round"
		d="M406.89,243.86L345.93,250.63L352.71,311.60L291.74,318.37L298.52,379.33"/>
	<path
		fill="#000000"
		stroke="#9F9F9F"
		fill-opacity="0.000"
		stroke-opacity="0.5"
		fill-rule="nonzero"
		stroke-width="2.88"
		stroke-linejoin="miter"
		stroke-linecap="round"
		d="M454.30,115.15L393.34,121.93L400.12,182.89L339.15,189.67L345.93,250.63L284.97,257.41L291.74,318.37L230.78,325.15L237.55,386.11"/>
	<path
		fill="#000000"
		stroke="#9F9F9F"
		fill-opacity="0.000"
		stroke-opacity="0.5"
		fill-rule="nonzero"
		stroke-width="2.88"
		stroke-linejoin="miter"
		stroke-linecap="round"
		d="M2285.36,1043.14A42.51 42.51 27.96 1 1 2210.26,1003.28A42.51 42.51 27.96 1 0 2211.01,990.63"/>
	<path
		fill="#000000"
		stroke="#9F9F9F"
		fill-opacity="0.000"
		stroke-opacity="0.5"
		fill-rule="nonzero"
		stroke-width="2.88"
		stroke-linejoin="miter"
		stroke-linecap="round"
		d="M2305.43,1137.57A42.51 42.51 242.97 1 1 2266.78,1061.84A42.51 42.51 242.97 1 0 2228.14,986.10A42.51 42.51 242.97 1 1 2189.50,910.37A42.51 42.51 242.97 1 0 2150.86,834.63"/>
	<path
		fill="#000000"
		stroke="#9F9F9F"
		fill-opacity="0.004"
		stroke-opacity="0.5"
		fill-rule="nonzero"
		stroke-width="2.2575219"
		stroke-linejoin="miter"
		stroke-linecap="round"
		d="M479.52,1112.65L531.54,1073.78L570.41,1125.80L518.39,1164.67z"/>
	<path
		fill="#000000"
		stroke="#9F9F9F"
		fill-opacity="0.000"
		stroke-opacity="0.5"
		fill-rule="nonzero"
		stroke-width="2.2575219"
		stroke-linejoin="miter"
		stroke-linecap="round"
		d="M497.86,1048.59L540.49,1016.73L571.87,1058.72L529.24,1090.57z"/>
	<path
		fill="#000000"
		stroke="#9F9F9F"
		fill-opacity="0.000"
		stroke-opacity="0.5"
		fill-rule="nonzero"
		stroke-width="2.2575219"
		stroke-linejoin="miter"
		stroke-linecap="round"
		d="M615.03,1112.35L551.05,1121.78L582.99,1170.31L615.03,1112.35z"/>
	<path
		fill="#000000"
		stroke="#9F9F9F"
		fill-opacity="0.000"
		stroke-opacity="0.5"
		fill-rule="nonzero"
		stroke-width="2.88"
		stroke-linejoin="miter"
		stroke-linecap="round"
		d="M1634.44,112.57L1575.37,84.26L1574.71,143.11L1634.44,112.57z"/>
	<path
		fill="#000000"
		stroke="#9F9F9F"
		fill-opacity="0.004"
		stroke-opacity="0.5"
		fill-rule="nonzero"
		stroke-width="2.88"
		stroke-linejoin="miter"
		stroke-linecap="round"
		d="M1282.87,1156.48L1364.43,1168.97L1351.94,1250.53L1270.38,1238.04z"/>
	<path
		fill="#000000"
		stroke="#9F9F9F"
		fill-opacity="0.000"
		stroke-opacity="0.5"
		fill-rule="nonzero"
		stroke-width="2.88"
		stroke-linejoin="miter"
		stroke-linecap="round"
		d="M1235.41,1137.68L1302.25,1147.91L1292.17,1213.74L1225.33,1203.51z"/>
	<path
		fill="#000000"
		stroke="#9F9F9F"
		fill-opacity="0.000"
		stroke-opacity="0.5"
		fill-rule="nonzero"
		stroke-width="2.88"
		stroke-linejoin="miter"
		stroke-linecap="round"
		d="M1574.71,105.83C1595.30,105.83,1611.98,122.52,1611.98,143.11C1611.98,163.70,1595.30,180.38,1574.71,180.38C1554.12,180.38,1537.43,163.70,1537.43,143.11C1537.43,122.52,1554.12,105.83,1574.71,105.83z"/>
	<path
		fill="#000000"
		stroke="#9F9F9F"
		fill-opacity="0.000"
		stroke-opacity="0.5"
		fill-rule="nonzero"
		stroke-width="2.88"
		stroke-linejoin="miter"
		stroke-linecap="round"
		d="M925.34,889.22L980.41,829.80"/>
	<path
		fill="#000000"
		stroke="#9F9F9F"
		fill-opacity="0.000"
		stroke-opacity="0.5"
		fill-rule="nonzero"
		stroke-width="2.88"
		stroke-linejoin="miter"
		stroke-linecap="round"
		d="M944.29,908.17L999.36,848.75"/>
	<path
		fill="#000000"
		stroke="#9F9F9F"
		fill-opacity="0.000"
		stroke-opacity="0.5"
		fill-rule="nonzero"
		stroke-width="2.88"
		stroke-linejoin="miter"
		stroke-linecap="round"
		d="M963.25,927.13L1018.32,867.71"/>
	<path
		fill="#9F9F9F"
		stroke="#9F9F9F"
		fill-opacity="0.5"
		stroke-opacity="0.5"
		fill-rule="nonzero"
		stroke-width="0.22182149"
		stroke-linejoin="miter"
		stroke-linecap="round"
		d="M2175.22,181.76C2177.86,181.76,2180.00,183.90,2180.00,186.54C2180.00,189.18,2177.86,191.32,2175.22,191.32C2172.58,191.32,2170.44,189.18,2170.44,186.54C2170.44,183.90,2172.58,181.76,2175.22,181.76z"/>
	<path
		fill="#9F9F9F"
		stroke="#9F9F9F"
		fill-opacity="0.5"
		stroke-opacity="0.5"
		fill-rule="nonzero"
		stroke-width="0.22182149"
		stroke-linejoin="miter"
		stroke-linecap="round"
		d="M2185.15,191.69C2187.79,191.69,2189.93,193.83,2189.93,196.47C2189.93,199.11,2187.79,201.25,2185.15,201.25C2182.51,201.25,2180.37,199.11,2180.37,196.47C2180.37,193.83,2182.51,191.69,2185.15,191.69z"/>
	<path
		fill="#9F9F9F"
		stroke="#9F9F9F"
		fill-opacity="0.5"
		stroke-opacity="0.5"
		fill-rule="nonzero"
		stroke-width="0.22182149"
		stroke-linejoin="miter"
		stroke-linecap="round"
		d="M2195.08,201.62C2197.72,201.62,2199.86,203.76,2199.86,206.40C2199.86,209.04,2197.72,211.18,2195.08,211.18C2192.44,211.18,2190.30,209.04,2190.30,206.40C2190.30,203.76,2192.44,201.62,2195.08,201.62z"/>
	<path
		fill="#9F9F9F"
		stroke="#9F9F9F"
		fill-opacity="0.5"
		stroke-opacity="0.5"
		fill-rule="nonzero"
		stroke-width="0.22182149"
		stroke-linejoin="miter"
		stroke-linecap="round"
		d="M2205.01,211.55C2207.65,211.55,2209.79,213.69,2209.79,216.33C2209.79,218.97,2207.65,221.11,2205.01,221.11C2202.37,221.11,2200.23,218.97,2200.23,216.33C2200.23,213.69,2202.37,211.55,2205.01,211.55z"/>
	<path
		fill="#9F9F9F"
		stroke="#9F9F9F"
		fill-opacity="0.5"
		stroke-opacity="0.5"
		fill-rule="nonzero"
		stroke-width="0.22182149"
		stroke-linejoin="miter"
		stroke-linecap="round"
		d="M2214.94,221.48C2217.58,221.48,2219.72,223.62,2219.72,226.26C2219.72,228.90,2217.58,231.04,2214.94,231.04C2212.30,231.04,2210.16,228.90,2210.16,226.26C2210.16,223.62,2212.30,221.48,2214.94,221.48z"/>
	<path
		fill="#9F9F9F"
		stroke="#9F9F9F"
		fill-opacity="0.5"
		stroke-opacity="0.5"
		fill-rule="nonzero"
		stroke-width="0.22182149"
		stroke-linejoin="miter"
		stroke-linecap="round"
		d="M2224.96,231.50C2227.60,231.50,2229.74,233.64,2229.74,236.28C2229.74,238.92,2227.60,241.06,2224.96,241.06C2222.32,241.06,2220.18,238.92,2220.18,236.28C2220.18,233.64,2222.32,231.50,2224.96,231.50z"/>
	<path
		fill="#9F9F9F"
		stroke="#9F9F9F"
		fill-opacity="0.5"
		stroke-opacity="0.5"
		fill-rule="nonzero"
		stroke-width="0.22182149"
		stroke-linejoin="miter"
		stroke-linecap="round"
		d="M2234.98,241.52C2237.62,241.52,2239.76,243.66,2239.76,246.30C2239.76,248.94,2237.62,251.08,2234.98,251.08C2232.34,251.08,2230.20,248.94,2230.20,246.30C2230.20,243.66,2232.34,241.52,2234.98,241.52z"/>
	<path
		fill="#9F9F9F"
		stroke="#9F9F9F"
		fill-opacity="0.5"
		stroke-opacity="0.5"
		fill-rule="nonzero"
		stroke-width="0.22182149"
		stroke-linejoin="miter"
		stroke-linecap="round"
		d="M2244.00,250.54C2246.64,250.54,2248.78,252.68,2248.78,255.32C2248.78,257.96,2246.64,260.10,2244.00,260.10C2241.36,260.10,2239.22,257.96,2239.22,255.32C2239.22,252.68,2241.36,250.54,2244.00,250.54z"/>
	<path
		fill="#9F9F9F"
		stroke="#9F9F9F"
		fill-opacity="0.5"
		stroke-opacity="0.5"
		fill-rule="nonzero"
		stroke-width="0.22182149"
		stroke-linejoin="miter"
		stroke-linecap="round"
		d="M2160.22,196.76C2162.86,196.76,2165.00,198.90,2165.00,201.54C2165.00,204.18,2162.86,206.32,2160.22,206.32C2157.58,206.32,2155.44,204.18,2155.44,201.54C2155.44,198.90,2157.58,196.76,2160.22,196.76z"/>
	<path
		fill="#9F9F9F"
		stroke="#9F9F9F"
		fill-opacity="0.5"
		stroke-opacity="0.5"
		fill-rule="nonzero"
		stroke-width="0.22182149"
		stroke-linejoin="miter"
		stroke-linecap="round"
		d="M2170.15,206.69C2172.79,206.69,2174.93,208.83,2174.93,211.47C2174.93,214.11,2172.79,216.25,2170.15,216.25C2167.51,216.25,2165.37,214.11,2165.37,211.47C2165.37,208.83,2167.51,206.69,2170.15,206.69z"/>
	<path
		fill="#9F9F9F"
		stroke="#9F9F9F"
		fill-opacity="0.5"
		stroke-opacity="0.5"
		fill-rule="nonzero"
		stroke-width="0.22182149"
		stroke-linejoin="miter"
		stroke-linecap="round"
		d="M2180.08,216.62C2182.72,216.62,2184.86,218.76,2184.86,221.40C2184.86,224.04,2182.72,226.18,2180.08,226.18C2177.44,226.18,2175.30,224.04,2175.30,221.40C2175.30,218.76,2177.44,216.62,2180.08,216.62z"/>
	<path
		fill="#9F9F9F"
		stroke="#9F9F9F"
		fill-opacity="0.5"
		stroke-opacity="0.5"
		fill-rule="nonzero"
		stroke-width="0.22182149"
		stroke-linejoin="miter"
		stroke-linecap="round"
		d="M2190.01,226.55C2192.65,226.55,2194.79,228.69,2194.79,231.33C2194.79,233.97,2192.65,236.11,2190.01,236.11C2187.37,236.11,2185.23,233.97,2185.23,231.33C2185.23,228.69,2187.37,226.55,2190.01,226.55z"/>
	<path
		fill="#9F9F9F"
		stroke="#9F9F9F"
		fill-opacity="0.5"
		stroke-opacity="0.5"
		fill-rule="nonzero"
		stroke-width="0.22182149"
		stroke-linejoin="miter"
		stroke-linecap="round"
		d="M2199.94,236.48C2202.58,236.48,2204.72,238.62,2204.72,241.26C2204.72,243.90,2202.58,246.04,2199.94,246.04C2197.30,246.04,2195.16,243.90,2195.16,241.26C2195.16,238.62,2197.30,236.48,2199.94,236.48z"/>
	<path
		fill="#9F9F9F"
		stroke="#9F9F9F"
		fill-opacity="0.5"
		stroke-opacity="0.5"
		fill-rule="nonzero"
		stroke-width="0.22182149"
		stroke-linejoin="miter"
		stroke-linecap="round"
		d="M2209.96,246.50C2212.60,246.50,2214.74,248.64,2214.74,251.28C2214.74,253.92,2212.60,256.06,2209.96,256.06C2207.32,256.06,2205.18,253.92,2205.18,251.28C2205.18,248.64,2207.32,246.50,2209.96,246.50z"/>
	<path
		fill="#9F9F9F"
		stroke="#9F9F9F"
		fill-opacity="0.5"
		stroke-opacity="0.5"
		fill-rule="nonzero"
		stroke-width="0.22182149"
		stroke-linejoin="miter"
		stroke-linecap="round"
		d="M2219.98,256.52C2222.62,256.52,2224.76,258.66,2224.76,261.30C2224.76,263.94,2222.62,266.08,2219.98,266.08C2217.34,266.08,2215.20,263.94,2215.20,261.30C2215.20,258.66,2217.34,256.52,2219.98,256.52z"/>
	<path
		fill="#9F9F9F"
		stroke="#9F9F9F"
		fill-opacity="0.5"
		stroke-opacity="0.5"
		fill-rule="nonzero"
		stroke-width="0.22182149"
		stroke-linejoin="miter"
		stroke-linecap="round"
		d="M2229.00,265.54C2231.64,265.54,2233.78,267.68,2233.78,270.32C2233.78,272.96,2231.64,275.10,2229.00,275.10C2226.36,275.10,2224.22,272.96,2224.22,270.32C2224.22,267.68,2226.36,265.54,2229.00,265.54z"/>
	<path
		fill="#9F9F9F"
		stroke="#9F9F9F"
		fill-opacity="0.5"
		stroke-opacity="0.5"
		fill-rule="nonzero"
		stroke-width="0.22182149"
		stroke-linejoin="miter"
		stroke-linecap="round"
		d="M2145.22,211.76C2147.86,211.76,2150.00,213.90,2150.00,216.54C2150.00,219.18,2147.86,221.32,2145.22,221.32C2142.58,221.32,2140.44,219.18,2140.44,216.54C2140.44,213.90,2142.58,211.76,2145.22,211.76z"/>
	<path
		fill="#9F9F9F"
		stroke="#9F9F9F"
		fill-opacity="0.5"
		stroke-opacity="0.5"
		fill-rule="nonzero"
		stroke-width="0.22182149"
		stroke-linejoin="miter"
		stroke-linecap="round"
		d="M2155.15,221.69C2157.79,221.69,2159.93,223.83,2159.93,226.47C2159.93,229.11,2157.79,231.25,2155.15,231.25C2152.51,231.25,2150.37,229.11,2150.37,226.47C2150.37,223.83,2152.51,221.69,2155.15,221.69z"/>
	<path
		fill="#9F9F9F"
		stroke="#9F9F9F"
		fill-opacity="0.5"
		stroke-opacity="0.5"
		fill-rule="nonzero"
		stroke-width="0.22182149"
		stroke-linejoin="miter"
		stroke-linecap="round"
		d="M2165.08,231.62C2167.72,231.62,2169.86,233.76,2169.86,236.40C2169.86,239.04,2167.72,241.18,2165.08,241.18C2162.44,241.18,2160.30,239.04,2160.30,236.40C2160.30,233.76,2162.44,231.62,2165.08,231.62z"/>
	<path
		fill="#9F9F9F"
		stroke="#9F9F9F"
		fill-opacity="0.5"
		stroke-opacity="0.5"
		fill-rule="nonzero"
		stroke-width="0.22182149"
		stroke-linejoin="miter"
		stroke-linecap="round"
		d="M2175.01,241.55C2177.65,241.55,2179.79,243.69,2179.79,246.33C2179.79,248.97,2177.65,251.11,2175.01,251.11C2172.37,251.11,2170.23,248.97,2170.23,246.33C2170.23,243.69,2172.37,241.55,2175.01,241.55z"/>
	<path
		fill="#9F9F9F"
		stroke="#9F9F9F"
		fill-opacity="0.5"
		stroke-opacity="0.5"
		fill-rule="nonzero"
		stroke-width="0.22182149"
		stroke-linejoin="miter"
		stroke-linecap="round"
		d="M2184.94,251.48C2187.58,251.48,2189.72,253.62,2189.72,256.26C2189.72,258.90,2187.58,261.04,2184.94,261.04C2182.30,261.04,2180.16,258.90,2180.16,256.26C2180.16,253.62,2182.30,251.48,2184.94,251.48z"/>
	<path
		fill="#9F9F9F"
		stroke="#9F9F9F"
		fill-opacity="0.5"
		stroke-opacity="0.5"
		fill-rule="nonzero"
		stroke-width="0.22182149"
		stroke-linejoin="miter"
		stroke-linecap="round"
		d="M2194.96,261.50C2197.60,261.50,2199.74,263.64,2199.74,266.28C2199.74,268.92,2197.60,271.06,2194.96,271.06C2192.32,271.06,2190.18,268.92,2190.18,266.28C2190.18,263.64,2192.32,261.50,2194.96,261.50z"/>
	<path
		fill="#9F9F9F"
		stroke="#9F9F9F"
		fill-opacity="0.5"
		stroke-opacity="0.5"
		fill-rule="nonzero"
		stroke-width="0.22182149"
		stroke-linejoin="miter"
		stroke-linecap="round"
		d="M2204.98,271.52C2207.62,271.52,2209.76,273.66,2209.76,276.30C2209.76,278.94,2207.62,281.08,2204.98,281.08C2202.34,281.08,2200.20,278.94,2200.20,276.30C2200.20,273.66,2202.34,271.52,2204.98,271.52z"/>
	<path
		fill="#9F9F9F"
		stroke="#9F9F9F"
		fill-opacity="0.5"
		stroke-opacity="0.5"
		fill-rule="nonzero"
		stroke-width="0.22182149"
		stroke-linejoin="miter"
		stroke-linecap="round"
		d="M2214.00,280.54C2216.64,280.54,2218.78,282.68,2218.78,285.32C2218.78,287.96,2216.64,290.10,2214.00,290.10C2211.36,290.10,2209.22,287.96,2209.22,285.32C2209.22,282.68,2211.36,280.54,2214.00,280.54z"/>
	<path
		fill="#FFFFFF"
		stroke="#9F9F9F"
		fill-opacity="0.000"
		stroke-opacity="0.5"
		fill-rule="nonzero"
		stroke-width="1.1198381"
		stroke-linejoin="miter"
		stroke-linecap="round"
		d="M1075.24,241.91L1140.10,241.91A10.81 10.81 0 0 1 1150.91,252.72L1150.91,317.58A10.81 10.81 0 0 1 1140.10,328.39L1075.24,328.39A10.81 10.81 0 0 1 1064.43,317.58L1064.43,252.72A10.81 10.81 0 0 1 1075.24,241.91z"/>
	<path
		fill="#FFFFFF"
		stroke="#9F9F9F"
		fill-opacity="0.000"
		stroke-opacity="0.5"
		fill-rule="nonzero"
		stroke-width="1.1198381"
		stroke-linejoin="miter"
		stroke-linecap="round"
		d="M1118.48,209.48L1183.34,209.48A10.81 10.81 0 0 1 1194.15,220.29L1194.15,285.15A10.81 10.81 0 0 1 1183.34,295.96L1118.48,295.96A10.81 10.81 0 0 1 1107.67,285.15L1107.67,220.29A10.81 10.81 0 0 1 1118.48,209.48z"/>
	<path
		fill="#FFFFFF"
		stroke="#9F9F9F"
		fill-opacity="0.000"
		stroke-opacity="0.5"
		fill-rule="nonzero"
		stroke-width="1.1198381"
		stroke-linejoin="miter"
		stroke-linecap="round"
		d="M1179.26,268.52L1244.12,268.52A10.81 10.81 0 0 1 1254.93,279.33L1254.93,344.19A10.81 10.81 0 0 1 1244.12,355.00L1179.26,355.00A10.81 10.81 0 0 1 1168.45,344.19L1168.45,279.33A10.81 10.81 0 0 1 1179.26,268.52z"/>
	<path
		fill="#9F9F9F"
		stroke="#9F9F9F"
		fill-opacity="0.5"
		stroke-opacity="0.5"
		fill-rule="nonzero"
		stroke-width="0.047242325"
		stroke-linejoin="miter"
		stroke-linecap="round"
		d="M1068.10,337.65C1071.08,334.58,1075.97,334.51,1079.04,337.49C1082.10,340.46,1082.17,345.35,1079.20,348.42C1076.22,351.48,1071.33,351.55,1068.26,348.58C1065.20,345.60,1065.13,340.71,1068.10,337.65z"/>
	<path
		fill="#9F9F9F"
		stroke="#9F9F9F"
		fill-opacity="0.5"
		stroke-opacity="0.5"
		fill-rule="nonzero"
		stroke-width="0.047242325"
		stroke-linejoin="miter"
		stroke-linecap="round"
		d="M1084.59,337.40C1087.56,334.34,1092.46,334.27,1095.52,337.24C1098.59,340.22,1098.66,345.11,1095.68,348.18C1092.71,351.24,1087.81,351.31,1084.75,348.34C1081.69,345.36,1081.61,340.47,1084.59,337.40z"/>
	<path
		fill="#9F9F9F"
		stroke="#9F9F9F"
		fill-opacity="0.5"
		stroke-opacity="0.5"
		fill-rule="nonzero"
		stroke-width="0.047242325"
		stroke-linejoin="miter"
		stroke-linecap="round"
		d="M1101.08,337.16C1104.05,334.10,1108.95,334.03,1112.01,337.00C1115.07,339.98,1115.14,344.87,1112.17,347.94C1109.19,351.00,1104.30,351.07,1101.24,348.10C1098.17,345.12,1098.10,340.23,1101.08,337.16z"/>
	<path
		fill="#9F9F9F"
		stroke="#9F9F9F"
		fill-opacity="0.5"
		stroke-opacity="0.5"
		fill-rule="nonzero"
		stroke-width="0.047242325"
		stroke-linejoin="miter"
		stroke-linecap="round"
		d="M1117.56,336.92C1120.54,333.86,1125.43,333.79,1128.49,336.76C1131.56,339.74,1131.63,344.63,1128.65,347.69C1125.68,350.76,1120.78,350.83,1117.72,347.85C1114.66,344.88,1114.59,339.98,1117.56,336.92z"/>
	<path
		fill="#9F9F9F"
		stroke="#9F9F9F"
		fill-opacity="0.5"
		stroke-opacity="0.5"
		fill-rule="nonzero"
		stroke-width="0.047242325"
		stroke-linejoin="miter"
		stroke-linecap="round"
		d="M1134.05,336.68C1137.02,333.62,1141.92,333.54,1144.98,336.52C1148.04,339.49,1148.12,344.39,1145.14,347.45C1142.17,350.52,1137.27,350.59,1134.21,347.61C1131.14,344.64,1131.07,339.74,1134.05,336.68z"/>
</svg>