<?xml version="1.0" encoding="utf-8"?>
<svg
	version="1.1"
	xmlns="http://www.w3.org/2000/svg"
	xmlns:xlink="http://www.w3.org/1999/xlink"
	x="0%" y="0%"
	width="100%" height="100%"
	viewBox="0 0 2560.0 1440.0"
	enable-background="new 0 0 2560.0 1440.0"
	xml:space="preserve">
	<path
		fill="#9F9F9F"
		stroke="#9F9F9F"
		fill-opacity="0.5"
		stroke-opacity="0.5"
		fill-rule="nonzero"
		stroke-width="0.26327616"
		stroke-linejoin="miter"
		stroke-linecap="round"
		d="M336.25,423.93C338.37,421.28,342.24,420.85,344.89,422.97C347.54,425.09,347.97,428.96,345.85,431.61C343.73,434.26,339.86,434.69,337.21,432.57C334.56,430.45,334.13,426.58,336.25,423.93z"/>
	<path
		fill="#000000"
		stroke="#9F9F9F"
		fill-opacity="0.000"
		stroke-opacity="0.5"
		fill-rule="nonzero"
		stroke-width="2.88"
		stroke-linejoin="miter"
		stroke-linecap="round"
		d="M429.11,387.12L368.14,393.90L374.92,454.86L313.95,461.64L320.73,522.60"/>
	<path
		fill="#000000"
		stroke="#9F9F9F"
		fill-opacity="0.000"
		stroke-opacity="0.5"
		fill-rule="nonzero"
		stroke-width="2.88"
		stroke-linejoin="miter"
		stroke-linecap="round"
		d="M476.52,258.42L415.55,265.20L422.33,326.16L361.37,332.94L368.14,393.90L307.18,400.68L313.95,461.64L252.99,468.42L259.77,529.38"/>
	<path
		fill="#000000"
		stroke="#9F9F9F"
		fill-opacity="0.000"
		stroke-opacity="0.5"
		fill-rule="nonzero"
		stroke-width="2.88"
		stroke-linejoin="miter"
		stroke-linecap="round"
		d="M2285.36,1043.14A42.51 42.51 27.96 1 1 2210.26,1003.28A42.51 42.51 27.96 1 0 2211.01,990.63"/>
	<path
		fill="#000000"
		stroke="#9F9F9F"
		fill-opacity="0.000"
		stroke-opacity="0.5"
		fill-rule="nonzero"
		stroke-width="2.88"
		stroke-linejoin="miter"
		stroke-linecap="round"
		d="M2305.43,1137.57A42.51 42.51 242.97 1 1 2266.78,1061.84A42.51 42.51 242.97 1 0 2228.14,986.10A42.51 42.51 242.97 1 1 2189.50,910.37A42.51 42.51 242.97 1 0 2150.86,834.63"/>
	<path
		fill="#000000"
		stroke="#9F9F9F"
		fill-opacity="0.004"
		stroke-opacity="0.5"
		fill-rule="nonzero"
		stroke-width="2.2575219"
		stroke-linejoin="miter"
		stroke-linecap="round"
		d="M522.63,1024.19L574.65,985.32L613.52,1037.34L561.50,1076.21z"/>
	<path
		fill="#000000"
		stroke="#9F9F9F"
		fill-opacity="0.000"
		stroke-opacity="0.5"
		fill-rule="nonzero"
		stroke-width="2.2575219"
		stroke-linejoin="miter"
		stroke-linecap="round"
		d="M540.97,960.13L583.60,928.27L614.98,970.26L572.35,1002.12z"/>
	<path
		fill="#000000"
		stroke="#9F9F9F"
		fill-opacity="0.000"
		stroke-opacity="0.5"
		fill-rule="nonzero"
		stroke-width="2.2575219"
		stroke-linejoin="miter"
		stroke-linecap="round"
		d="M658.14,1023.89L594.16,1033.32L626.10,1081.86L658.14,1023.89z"/>
	<path
		fill="#000000"
		stroke="#9F9F9F"
		fill-opacity="0.000"
		stroke-opacity="0.5"
		fill-rule="nonzero"
		stroke-width="2.88"
		stroke-linejoin="miter"
		stroke-linecap="round"
		d="M1656.33,303.29L1597.26,274.98L1596.60,333.82L1656.33,303.29z"/>
	<path
		fill="#000000"
		stroke="#9F9F9F"
		fill-opacity="0.000"
		stroke-opacity="0.5"
		fill-rule="nonzero"
		stroke-width="2.88"
		stroke-linejoin="miter"
		stroke-linecap="round"
		d="M1282.87,1156.48L1364.43,1168.97L1351.94,1250.53L1270.38,1238.04z"/>
	<path
		fill="#000000"
		stroke="#9F9F9F"
		fill-opacity="0.000"
		stroke-opacity="0.5"
		fill-rule="nonzero"
		stroke-width="2.88"
		stroke-linejoin="miter"
		stroke-linecap="round"
		d="M1235.41,1137.68L1302.25,1147.91L1292.17,1213.74L1225.33,1203.51z"/>
	<path
		fill="#000000"
		stroke="#9F9F9F"
		fill-opacity="0.000"
		stroke-opacity="0.5"
		fill-rule="nonzero"
		stroke-width="2.88"
		stroke-linejoin="miter"
		stroke-linecap="round"
		d="M1596.60,296.55C1617.19,296.55,1633.87,313.24,1633.87,333.82C1633.87,354.41,1617.19,371.10,1596.60,371.10C1576.01,371.10,1559.32,354.41,1559.32,333.82C1559.32,313.24,1576.01,296.55,1596.60,296.55z"/>
	<path
		fill="#000000"
		stroke="#9F9F9F"
		fill-opacity="0.000"
		stroke-opacity="0.5"
		fill-rule="nonzero"
		stroke-width="2.88"
		stroke-linejoin="miter"
		stroke-linecap="round"
		d="M925.08,881.33L980.14,821.91"/>
	<path
		fill="#000000"
		stroke="#9F9F9F"
		fill-opacity="0.000"
		stroke-opacity="0.5"
		fill-rule="nonzero"
		stroke-width="2.88"
		stroke-linejoin="miter"
		stroke-linecap="round"
		d="M944.03,900.29L999.10,840.86"/>
	<path
		fill="#000000"
		stroke="#9F9F9F"
		fill-opacity="0.000"
		stroke-opacity="0.5"
		fill-rule="nonzero"
		stroke-width="2.88"
		stroke-linejoin="miter"
		stroke-linecap="round"
		d="M962.99,919.24L1018.05,859.82"/>
	<path
		fill="#9F9F9F"
		stroke="#9F9F9F"
		fill-opacity="0.5"
		stroke-opacity="0.5"
		fill-rule="nonzero"
		stroke-width="0.22182147"
		stroke-linejoin="miter"
		stroke-linecap="round"
		d="M1965.97,411.71C1968.61,411.71,1970.75,413.85,1970.75,416.49C1970.75,419.13,1968.61,421.27,1965.97,421.27C1963.32,421.27,1961.18,419.13,1961.18,416.49C1961.18,413.85,1963.32,411.71,1965.97,411.71z"/>
	<path
		fill="#9F9F9F"
		stroke="#9F9F9F"
		fill-opacity="0.5"
		stroke-opacity="0.5"
		fill-rule="nonzero"
		stroke-width="0.22182147"
		stroke-linejoin="miter"
		stroke-linecap="round"
		d="M1975.90,421.64C1978.54,421.64,1980.68,423.78,1980.68,426.42C1980.68,429.06,1978.54,431.20,1975.90,431.20C1973.25,431.20,1971.11,429.06,1971.11,426.42C1971.11,423.78,1973.25,421.64,1975.90,421.64z"/>
	<path
		fill="#9F9F9F"
		stroke="#9F9F9F"
		fill-opacity="0.5"
		stroke-opacity="0.5"
		fill-rule="nonzero"
		stroke-width="0.22182147"
		stroke-linejoin="miter"
		stroke-linecap="round"
		d="M1985.83,431.57C1988.47,431.57,1990.61,433.71,1990.61,436.35C1990.61,438.99,1988.47,441.13,1985.83,441.13C1983.18,441.13,1981.04,438.99,1981.04,436.35C1981.04,433.71,1983.18,431.57,1985.83,431.57z"/>
	<path
		fill="#9F9F9F"
		stroke="#9F9F9F"
		fill-opacity="0.5"
		stroke-opacity="0.5"
		fill-rule="nonzero"
		stroke-width="0.22182147"
		stroke-linejoin="miter"
		stroke-linecap="round"
		d="M1995.76,441.50C1998.40,441.50,2000.54,443.64,2000.54,446.28C2000.54,448.92,1998.40,451.06,1995.76,451.06C1993.11,451.06,1990.97,448.92,1990.97,446.28C1990.97,443.64,1993.11,441.50,1995.76,441.50z"/>
	<path
		fill="#9F9F9F"
		stroke="#9F9F9F"
		fill-opacity="0.5"
		stroke-opacity="0.5"
		fill-rule="nonzero"
		stroke-width="0.22182147"
		stroke-linejoin="miter"
		stroke-linecap="round"
		d="M2005.68,451.43C2008.33,451.43,2010.47,453.57,2010.47,456.21C2010.47,458.85,2008.33,460.99,2005.68,460.99C2003.04,460.99,2000.90,458.85,2000.90,456.21C2000.90,453.57,2003.04,451.43,2005.68,451.43z"/>
	<path
		fill="#9F9F9F"
		stroke="#9F9F9F"
		fill-opacity="0.5"
		stroke-opacity="0.5"
		fill-rule="nonzero"
		stroke-width="0.22182147"
		stroke-linejoin="miter"
		stroke-linecap="round"
		d="M2015.71,461.45C2018.35,461.45,2020.49,463.59,2020.49,466.23C2020.49,468.87,2018.35,471.01,2015.71,471.01C2013.06,471.01,2010.92,468.87,2010.92,466.23C2010.92,463.59,2013.06,461.45,2015.71,461.45z"/>
	<path
		fill="#9F9F9F"
		stroke="#9F9F9F"
		fill-opacity="0.5"
		stroke-opacity="0.5"
		fill-rule="nonzero"
		stroke-width="0.22182147"
		stroke-linejoin="miter"
		stroke-linecap="round"
		d="M2025.73,471.47C2028.37,471.47,2030.51,473.61,2030.51,476.25C2030.51,478.89,2028.37,481.03,2025.73,481.03C2023.08,481.03,2020.94,478.89,2020.94,476.25C2020.94,473.61,2023.08,471.47,2025.73,471.47z"/>
	<path
		fill="#9F9F9F"
		stroke="#9F9F9F"
		fill-opacity="0.5"
		stroke-opacity="0.5"
		fill-rule="nonzero"
		stroke-width="0.22182147"
		stroke-linejoin="miter"
		stroke-linecap="round"
		d="M2034.75,480.49C2037.39,480.49,2039.53,482.63,2039.53,485.27C2039.53,487.91,2037.39,490.05,2034.75,490.05C2032.11,490.05,2029.96,487.91,2029.96,485.27C2029.96,482.63,2032.11,480.49,2034.75,480.49z"/>
	<path
		fill="#9F9F9F"
		stroke="#9F9F9F"
		fill-opacity="0.5"
		stroke-opacity="0.5"
		fill-rule="nonzero"
		stroke-width="0.22182147"
		stroke-linejoin="miter"
		stroke-linecap="round"
		d="M1950.97,426.71C1953.61,426.71,1955.75,428.85,1955.75,431.49C1955.75,434.13,1953.61,436.27,1950.97,436.27C1948.32,436.27,1946.18,434.13,1946.18,431.49C1946.18,428.85,1948.32,426.71,1950.97,426.71z"/>
	<path
		fill="#9F9F9F"
		stroke="#9F9F9F"
		fill-opacity="0.5"
		stroke-opacity="0.5"
		fill-rule="nonzero"
		stroke-width="0.22182147"
		stroke-linejoin="miter"
		stroke-linecap="round"
		d="M1960.90,436.64C1963.54,436.64,1965.68,438.78,1965.68,441.42C1965.68,444.06,1963.54,446.20,1960.90,446.20C1958.25,446.20,1956.11,444.06,1956.11,441.42C1956.11,438.78,1958.25,436.64,1960.90,436.64z"/>
	<path
		fill="#9F9F9F"
		stroke="#9F9F9F"
		fill-opacity="0.5"
		stroke-opacity="0.5"
		fill-rule="nonzero"
		stroke-width="0.22182147"
		stroke-linejoin="miter"
		stroke-linecap="round"
		d="M1970.82,446.57C1973.47,446.57,1975.61,448.71,1975.61,451.35C1975.61,453.99,1973.47,456.13,1970.82,456.13C1968.18,456.13,1966.04,453.99,1966.04,451.35C1966.04,448.71,1968.18,446.57,1970.82,446.57z"/>
	<path
		fill="#9F9F9F"
		stroke="#9F9F9F"
		fill-opacity="0.5"
		stroke-opacity="0.5"
		fill-rule="nonzero"
		stroke-width="0.22182147"
		stroke-linejoin="miter"
		stroke-linecap="round"
		d="M1980.75,456.50C1983.40,456.50,1985.54,458.64,1985.54,461.28C1985.54,463.92,1983.40,466.06,1980.75,466.06C1978.11,466.06,1975.97,463.92,1975.97,461.28C1975.97,458.64,1978.11,456.50,1980.75,456.50z"/>
	<path
		fill="#9F9F9F"
		stroke="#9F9F9F"
		fill-opacity="0.5"
		stroke-opacity="0.5"
		fill-rule="nonzero"
		stroke-width="0.22182147"
		stroke-linejoin="miter"
		stroke-linecap="round"
		d="M1990.68,466.43C1993.33,466.43,1995.47,468.57,1995.47,471.21C1995.47,473.85,1993.33,475.99,1990.68,475.99C1988.04,475.99,1985.90,473.85,1985.90,471.21C1985.90,468.57,1988.04,466.43,1990.68,466.43z"/>
	<path
		fill="#9F9F9F"
		stroke="#9F9F9F"
		fill-opacity="0.5"
		stroke-opacity="0.5"
		fill-rule="nonzero"
		stroke-width="0.22182147"
		stroke-linejoin="miter"
		stroke-linecap="round"
		d="M2000.70,476.45C2003.35,476.45,2005.49,478.59,2005.49,481.23C2005.49,483.87,2003.35,486.01,2000.70,486.01C1998.06,486.01,1995.92,483.87,1995.92,481.23C1995.92,478.59,1998.06,476.45,2000.70,476.45z"/>
	<path
		fill="#9F9F9F"
		stroke="#9F9F9F"
		fill-opacity="0.5"
		stroke-opacity="0.5"
		fill-rule="nonzero"
		stroke-width="0.22182147"
		stroke-linejoin="miter"
		stroke-linecap="round"
		d="M2010.72,486.47C2013.37,486.47,2015.51,488.61,2015.51,491.25C2015.51,493.89,2013.37,496.03,2010.72,496.03C2008.08,496.03,2005.94,493.89,2005.94,491.25C2005.94,488.61,2008.08,486.47,2010.72,486.47z"/>
	<path
		fill="#9F9F9F"
		stroke="#9F9F9F"
		fill-opacity="0.5"
		stroke-opacity="0.5"
		fill-rule="nonzero"
		stroke-width="0.22182147"
		stroke-linejoin="miter"
		stroke-linecap="round"
		d="M2019.75,495.49C2022.39,495.49,2024.53,497.63,2024.53,500.27C2024.53,502.91,2022.39,505.05,2019.75,505.05C2017.11,505.05,2014.96,502.91,2014.96,500.27C2014.96,497.63,2017.11,495.49,2019.75,495.49z"/>
	<path
		fill="#9F9F9F"
		stroke="#9F9F9F"
		fill-opacity="0.5"
		stroke-opacity="0.5"
		fill-rule="nonzero"
		stroke-width="0.22182147"
		stroke-linejoin="miter"
		stroke-linecap="round"
		d="M1935.96,441.71C1938.61,441.71,1940.75,443.85,1940.75,446.49C1940.75,449.13,1938.61,451.27,1935.96,451.27C1933.32,451.27,1931.18,449.13,1931.18,446.49C1931.18,443.85,1933.32,441.71,1935.96,441.71z"/>
	<path
		fill="#9F9F9F"
		stroke="#9F9F9F"
		fill-opacity="0.5"
		stroke-opacity="0.5"
		fill-rule="nonzero"
		stroke-width="0.22182147"
		stroke-linejoin="miter"
		stroke-linecap="round"
		d="M1945.89,451.64C1948.54,451.64,1950.68,453.78,1950.68,456.42C1950.68,459.06,1948.54,461.20,1945.89,461.20C1943.25,461.20,1941.11,459.06,1941.11,456.42C1941.11,453.78,1943.25,451.64,1945.89,451.64z"/>
	<path
		fill="#9F9F9F"
		stroke="#9F9F9F"
		fill-opacity="0.5"
		stroke-opacity="0.5"
		fill-rule="nonzero"
		stroke-width="0.22182147"
		stroke-linejoin="miter"
		stroke-linecap="round"
		d="M1955.82,461.57C1958.47,461.57,1960.61,463.71,1960.61,466.35C1960.61,468.99,1958.47,471.13,1955.82,471.13C1953.18,471.13,1951.04,468.99,1951.04,466.35C1951.04,463.71,1953.18,461.57,1955.82,461.57z"/>
	<path
		fill="#9F9F9F"
		stroke="#9F9F9F"
		fill-opacity="0.5"
		stroke-opacity="0.5"
		fill-rule="nonzero"
		stroke-width="0.22182147"
		stroke-linejoin="miter"
		stroke-linecap="round"
		d="M1965.75,471.50C1968.40,471.50,1970.54,473.64,1970.54,476.28C1970.54,478.92,1968.40,481.06,1965.75,481.06C1963.11,481.06,1960.97,478.92,1960.97,476.28C1960.97,473.64,1963.11,471.50,1965.75,471.50z"/>
	<path
		fill="#9F9F9F"
		stroke="#9F9F9F"
		fill-opacity="0.5"
		stroke-opacity="0.5"
		fill-rule="nonzero"
		stroke-width="0.22182147"
		stroke-linejoin="miter"
		stroke-linecap="round"
		d="M1975.68,481.43C1978.32,481.43,1980.47,483.57,1980.47,486.21C1980.47,488.85,1978.32,490.99,1975.68,490.99C1973.04,490.99,1970.90,488.85,1970.90,486.21C1970.90,483.57,1973.04,481.43,1975.68,481.43z"/>
	<path
		fill="#9F9F9F"
		stroke="#9F9F9F"
		fill-opacity="0.5"
		stroke-opacity="0.5"
		fill-rule="nonzero"
		stroke-width="0.22182147"
		stroke-linejoin="miter"
		stroke-linecap="round"
		d="M1985.70,491.45C1988.35,491.45,1990.49,493.59,1990.49,496.23C1990.49,498.87,1988.35,501.01,1985.70,501.01C1983.06,501.01,1980.92,498.87,1980.92,496.23C1980.92,493.59,1983.06,491.45,1985.70,491.45z"/>
	<path
		fill="#9F9F9F"
		stroke="#9F9F9F"
		fill-opacity="0.5"
		stroke-opacity="0.5"
		fill-rule="nonzero"
		stroke-width="0.22182147"
		stroke-linejoin="miter"
		stroke-linecap="round"
		d="M1995.72,501.47C1998.37,501.47,2000.51,503.61,2000.51,506.25C2000.51,508.89,1998.37,511.03,1995.72,511.03C1993.08,511.03,1990.94,508.89,1990.94,506.25C1990.94,503.61,1993.08,501.47,1995.72,501.47z"/>
	<path
		fill="#9F9F9F"
		stroke="#9F9F9F"
		fill-opacity="0.5"
		stroke-opacity="0.5"
		fill-rule="nonzero"
		stroke-width="0.22182147"
		stroke-linejoin="miter"
		stroke-linecap="round"
		d="M2004.75,510.49C2007.39,510.49,2009.53,512.63,2009.53,515.27C2009.53,517.91,2007.39,520.05,2004.75,520.05C2002.11,520.05,1999.96,517.91,1999.96,515.27C1999.96,512.63,2002.11,510.49,2004.75,510.49z"/>
</svg>