<?xml version="1.0" encoding="utf-8"?>
<svg
	version="1.1"
	xmlns="http://www.w3.org/2000/svg"
	xmlns:xlink="http://www.w3.org/1999/xlink"
	x="0%" y="0%"
	width="100%" height="100%"
	viewBox="0 0 2560.0 1440.0"
	enable-background="new 0 0 2560.0 1440.0"
	xml:space="preserve">
	<path
		fill="#9F9F9F"
		stroke="#9F9F9F"
		fill-opacity="0.5"
		stroke-opacity="0.5"
		fill-rule="nonzero"
		stroke-width="0.21578182"
		stroke-linejoin="miter"
		stroke-linecap="round"
		d="M551.05,942.83C549.56,945.18,546.45,945.89,544.10,944.40C541.75,942.92,541.04,939.81,542.53,937.45C544.01,935.10,547.12,934.40,549.48,935.88C551.83,937.37,552.53,940.48,551.05,942.83z"/>
	<path
		fill="#000000"
		stroke="#9F9F9F"
		fill-opacity="0.000"
		stroke-opacity="0.5"
		fill-rule="nonzero"
		stroke-width="4.32"
		stroke-linejoin="miter"
		stroke-linecap="round"
		d="M554.67,861.04L565.76,910.08L516.72,921.17L527.81,970.20L478.78,981.29"/>
	<path
		fill="#000000"
		stroke="#9F9F9F"
		fill-opacity="0.000"
		stroke-opacity="0.5"
		fill-rule="nonzero"
		stroke-width="4.32"
		stroke-linejoin="miter"
		stroke-linecap="round"
		d="M641.65,789.83L652.74,838.86L603.71,849.95L614.80,898.99L565.76,910.08L576.85,959.11L527.81,970.20L538.90,1019.24L489.87,1030.33"/>
	<path
		fill="#000000"
		stroke="#9F9F9F"
		fill-opacity="0.000"
		stroke-opacity="0.5"
		fill-rule="nonzero"
		stroke-width="5.760001"
		stroke-linejoin="miter"
		stroke-linecap="round"
		d="M196.47,324.13A42.51 42.51 269.14 1 1 197.75,409.15A42.51 42.51 269.14 1 0 186.30,414.59"/>
	<path
		fill="#000000"
		stroke="#9F9F9F"
		fill-opacity="0.000"
		stroke-opacity="0.5"
		fill-rule="nonzero"
		stroke-width="5.760001"
		stroke-linejoin="miter"
		stroke-linecap="round"
		d="M269.55,261.04A42.51 42.51 124.15 1 1 221.81,331.40A42.51 42.51 124.15 1 0 174.08,401.76A42.51 42.51 124.15 1 1 126.35,472.12A42.51 42.51 124.15 1 0 78.62,542.48"/>
	<path
		fill="#000000"
		stroke="#9F9F9F"
		fill-opacity="0.004"
		stroke-opacity="0.5"
		fill-rule="nonzero"
		stroke-width="4.32"
		stroke-linejoin="miter"
		stroke-linecap="round"
		d="M752.83,1178.30L776.99,1144.08L811.20,1168.24L787.05,1202.45z"/>
	<path
		fill="#000000"
		stroke="#9F9F9F"
		fill-opacity="0.000"
		stroke-opacity="0.5"
		fill-rule="nonzero"
		stroke-width="4.32"
		stroke-linejoin="miter"
		stroke-linecap="round"
		d="M751.31,1135.35L771.11,1107.31L798.72,1126.80L778.93,1154.84z"/>
	<path
		fill="#000000"
		stroke="#9F9F9F"
		fill-opacity="0.000"
		stroke-opacity="0.5"
		fill-rule="nonzero"
		stroke-width="4.32"
		stroke-linejoin="miter"
		stroke-linecap="round"
		d="M835.89,1151.09L798.53,1169.63L827.79,1193.04L835.89,1151.09z"/>
	<path
		fill="#000000"
		stroke="#9F9F9F"
		fill-opacity="0.000"
		stroke-opacity="0.5"
		fill-rule="nonzero"
		stroke-width="4.3199954"
		stroke-linejoin="miter"
		stroke-linecap="round"
		d="M881.14,689.94L902.01,640.60L853.91,642.31L881.14,689.94z"/>
	<path
		fill="#000000"
		stroke="#9F9F9F"
		fill-opacity="0.004"
		stroke-opacity="0.5"
		fill-rule="nonzero"
		stroke-width="5.7600017"
		stroke-linejoin="miter"
		stroke-linecap="round"
		d="M450.50,649.97L416.09,705.28L360.78,670.88L395.19,615.56z"/>
	<path
		fill="#000000"
		stroke="#9F9F9F"
		fill-opacity="0.000"
		stroke-opacity="0.5"
		fill-rule="nonzero"
		stroke-width="5.7600017"
		stroke-linejoin="miter"
		stroke-linecap="round"
		d="M478.90,621.37L450.70,666.70L406.06,638.92L434.25,593.60z"/>
	<path
		fill="#000000"
		stroke="#9F9F9F"
		fill-opacity="0.000"
		stroke-opacity="0.5"
		fill-rule="nonzero"
		stroke-width="4.3199954"
		stroke-linejoin="miter"
		stroke-linecap="round"
		d="M884.36,640.88C885.15,657.70,872.15,671.97,855.34,672.76C838.52,673.54,824.25,660.55,823.46,643.73C822.67,626.91,835.67,612.64,852.49,611.86C869.31,611.07,883.58,624.06,884.36,640.88z"/>
	<path
		fill="#000000"
		stroke="#9F9F9F"
		fill-opacity="0.000"
		stroke-opacity="0.5"
		fill-rule="nonzero"
		stroke-width="4.32"
		stroke-linejoin="miter"
		stroke-linecap="round"
		d="M560.59,362.88L612.20,307.19"/>
	<path
		fill="#000000"
		stroke="#9F9F9F"
		fill-opacity="0.000"
		stroke-opacity="0.5"
		fill-rule="nonzero"
		stroke-width="4.32"
		stroke-linejoin="miter"
		stroke-linecap="round"
		d="M578.35,380.65L629.97,324.95"/>
	<path
		fill="#000000"
		stroke="#9F9F9F"
		fill-opacity="0.000"
		stroke-opacity="0.5"
		fill-rule="nonzero"
		stroke-width="4.32"
		stroke-linejoin="miter"
		stroke-linecap="round"
		d="M596.12,398.41L647.73,342.72"/>
	<path
		fill="#9F9F9F"
		stroke="#9F9F9F"
		fill-opacity="0.5"
		stroke-opacity="0.5"
		fill-rule="nonzero"
		stroke-width="0.22182152"
		stroke-linejoin="miter"
		stroke-linecap="round"
		d="M275.14,1090.99C272.51,1091.14,270.25,1089.12,270.10,1086.48C269.96,1083.85,271.98,1081.59,274.61,1081.44C277.25,1081.30,279.51,1083.32,279.65,1085.95C279.80,1088.59,277.78,1090.85,275.14,1090.99z"/>
	<path
		fill="#9F9F9F"
		stroke="#9F9F9F"
		fill-opacity="0.5"
		stroke-opacity="0.5"
		fill-rule="nonzero"
		stroke-width="0.22182152"
		stroke-linejoin="miter"
		stroke-linecap="round"
		d="M264.68,1081.63C262.04,1081.78,259.78,1079.76,259.64,1077.12C259.49,1074.48,261.51,1072.23,264.15,1072.08C266.78,1071.93,269.04,1073.95,269.19,1076.59C269.33,1079.23,267.32,1081.48,264.68,1081.63z"/>
	<path
		fill="#9F9F9F"
		stroke="#9F9F9F"
		fill-opacity="0.5"
		stroke-opacity="0.5"
		fill-rule="nonzero"
		stroke-width="0.22182152"
		stroke-linejoin="miter"
		stroke-linecap="round"
		d="M254.21,1072.27C251.57,1072.42,249.32,1070.40,249.17,1067.76C249.02,1065.12,251.04,1062.87,253.68,1062.72C256.32,1062.57,258.57,1064.59,258.72,1067.23C258.87,1069.87,256.85,1072.12,254.21,1072.27z"/>
	<path
		fill="#9F9F9F"
		stroke="#9F9F9F"
		fill-opacity="0.5"
		stroke-opacity="0.5"
		fill-rule="nonzero"
		stroke-width="0.22182152"
		stroke-linejoin="miter"
		stroke-linecap="round"
		d="M243.75,1062.91C241.11,1063.05,238.85,1061.03,238.71,1058.40C238.56,1055.76,240.58,1053.50,243.21,1053.36C245.85,1053.21,248.11,1055.23,248.26,1057.87C248.40,1060.50,246.38,1062.76,243.75,1062.91z"/>
	<path
		fill="#9F9F9F"
		stroke="#9F9F9F"
		fill-opacity="0.5"
		stroke-opacity="0.5"
		fill-rule="nonzero"
		stroke-width="0.22182152"
		stroke-linejoin="miter"
		stroke-linecap="round"
		d="M233.28,1053.54C230.64,1053.69,228.39,1051.67,228.24,1049.03C228.09,1046.40,230.11,1044.14,232.75,1043.99C235.39,1043.85,237.64,1045.87,237.79,1048.50C237.94,1051.14,235.92,1053.40,233.28,1053.54z"/>
	<path
		fill="#9F9F9F"
		stroke="#9F9F9F"
		fill-opacity="0.5"
		stroke-opacity="0.5"
		fill-rule="nonzero"
		stroke-width="0.22182152"
		stroke-linejoin="miter"
		stroke-linecap="round"
		d="M222.72,1044.09C220.08,1044.24,217.82,1042.22,217.68,1039.59C217.53,1036.95,219.55,1034.69,222.19,1034.55C224.82,1034.40,227.08,1036.42,227.23,1039.05C227.37,1041.69,225.36,1043.95,222.72,1044.09z"/>
	<path
		fill="#9F9F9F"
		stroke="#9F9F9F"
		fill-opacity="0.5"
		stroke-opacity="0.5"
		fill-rule="nonzero"
		stroke-width="0.22182152"
		stroke-linejoin="miter"
		stroke-linecap="round"
		d="M212.16,1034.65C209.52,1034.79,207.26,1032.77,207.12,1030.14C206.97,1027.50,208.99,1025.24,211.63,1025.10C214.26,1024.95,216.52,1026.97,216.67,1029.61C216.81,1032.24,214.79,1034.50,212.16,1034.65z"/>
	<path
		fill="#9F9F9F"
		stroke="#9F9F9F"
		fill-opacity="0.5"
		stroke-opacity="0.5"
		fill-rule="nonzero"
		stroke-width="0.22182152"
		stroke-linejoin="miter"
		stroke-linecap="round"
		d="M202.65,1026.14C200.01,1026.29,197.75,1024.27,197.61,1021.63C197.46,1018.99,199.48,1016.74,202.12,1016.59C204.75,1016.44,207.01,1018.46,207.16,1021.10C207.30,1023.74,205.28,1025.99,202.65,1026.14z"/>
	<path
		fill="#9F9F9F"
		stroke="#9F9F9F"
		fill-opacity="0.5"
		stroke-opacity="0.5"
		fill-rule="nonzero"
		stroke-width="0.22182152"
		stroke-linejoin="miter"
		stroke-linecap="round"
		d="M289.29,1075.18C286.65,1075.33,284.39,1073.31,284.25,1070.67C284.10,1068.04,286.12,1065.78,288.76,1065.63C291.39,1065.49,293.65,1067.51,293.80,1070.14C293.94,1072.78,291.93,1075.04,289.29,1075.18z"/>
	<path
		fill="#9F9F9F"
		stroke="#9F9F9F"
		fill-opacity="0.5"
		stroke-opacity="0.5"
		fill-rule="nonzero"
		stroke-width="0.22182152"
		stroke-linejoin="miter"
		stroke-linecap="round"
		d="M278.82,1065.82C276.19,1065.97,273.93,1063.95,273.78,1061.31C273.63,1058.67,275.65,1056.42,278.29,1056.27C280.93,1056.12,283.18,1058.14,283.33,1060.78C283.48,1063.42,281.46,1065.67,278.82,1065.82z"/>
	<path
		fill="#9F9F9F"
		stroke="#9F9F9F"
		fill-opacity="0.5"
		stroke-opacity="0.5"
		fill-rule="nonzero"
		stroke-width="0.22182152"
		stroke-linejoin="miter"
		stroke-linecap="round"
		d="M268.36,1056.46C265.72,1056.60,263.46,1054.59,263.32,1051.95C263.17,1049.31,265.19,1047.05,267.82,1046.91C270.46,1046.76,272.72,1048.78,272.86,1051.42C273.01,1054.05,270.99,1056.31,268.36,1056.46z"/>
	<path
		fill="#9F9F9F"
		stroke="#9F9F9F"
		fill-opacity="0.5"
		stroke-opacity="0.5"
		fill-rule="nonzero"
		stroke-width="0.22182152"
		stroke-linejoin="miter"
		stroke-linecap="round"
		d="M257.89,1047.09C255.25,1047.24,253.00,1045.22,252.85,1042.59C252.70,1039.95,254.72,1037.69,257.36,1037.55C260.00,1037.40,262.25,1039.42,262.40,1042.05C262.55,1044.69,260.53,1046.95,257.89,1047.09z"/>
	<path
		fill="#9F9F9F"
		stroke="#9F9F9F"
		fill-opacity="0.5"
		stroke-opacity="0.5"
		fill-rule="nonzero"
		stroke-width="0.22182152"
		stroke-linejoin="miter"
		stroke-linecap="round"
		d="M247.42,1037.73C244.79,1037.88,242.53,1035.86,242.38,1033.22C242.24,1030.59,244.26,1028.33,246.89,1028.18C249.53,1028.04,251.79,1030.05,251.93,1032.69C252.08,1035.33,250.06,1037.59,247.42,1037.73z"/>
	<path
		fill="#9F9F9F"
		stroke="#9F9F9F"
		fill-opacity="0.5"
		stroke-opacity="0.5"
		fill-rule="nonzero"
		stroke-width="0.22182152"
		stroke-linejoin="miter"
		stroke-linecap="round"
		d="M236.86,1028.28C234.23,1028.43,231.97,1026.41,231.82,1023.77C231.67,1021.14,233.69,1018.88,236.33,1018.73C238.97,1018.59,241.22,1020.61,241.37,1023.24C241.52,1025.88,239.50,1028.14,236.86,1028.28z"/>
	<path
		fill="#9F9F9F"
		stroke="#9F9F9F"
		fill-opacity="0.5"
		stroke-opacity="0.5"
		fill-rule="nonzero"
		stroke-width="0.22182152"
		stroke-linejoin="miter"
		stroke-linecap="round"
		d="M226.30,1018.84C223.66,1018.98,221.41,1016.96,221.26,1014.33C221.11,1011.69,223.13,1009.43,225.77,1009.29C228.41,1009.14,230.66,1011.16,230.81,1013.80C230.96,1016.43,228.94,1018.69,226.30,1018.84z"/>
	<path
		fill="#9F9F9F"
		stroke="#9F9F9F"
		fill-opacity="0.5"
		stroke-opacity="0.5"
		fill-rule="nonzero"
		stroke-width="0.22182152"
		stroke-linejoin="miter"
		stroke-linecap="round"
		d="M216.79,1010.33C214.15,1010.48,211.90,1008.46,211.75,1005.82C211.60,1003.18,213.62,1000.93,216.26,1000.78C218.90,1000.63,221.15,1002.65,221.30,1005.29C221.45,1007.93,219.43,1010.18,216.79,1010.33z"/>
	<path
		fill="#9F9F9F"
		stroke="#9F9F9F"
		fill-opacity="0.5"
		stroke-opacity="0.5"
		fill-rule="nonzero"
		stroke-width="0.22182152"
		stroke-linejoin="miter"
		stroke-linecap="round"
		d="M303.43,1059.37C300.80,1059.52,298.54,1057.50,298.39,1054.86C298.24,1052.23,300.26,1049.97,302.90,1049.82C305.54,1049.68,307.79,1051.69,307.94,1054.33C308.09,1056.97,306.07,1059.23,303.43,1059.37z"/>
	<path
		fill="#9F9F9F"
		stroke="#9F9F9F"
		fill-opacity="0.5"
		stroke-opacity="0.5"
		fill-rule="nonzero"
		stroke-width="0.22182152"
		stroke-linejoin="miter"
		stroke-linecap="round"
		d="M292.97,1050.01C290.33,1050.16,288.07,1048.14,287.93,1045.50C287.78,1042.86,289.80,1040.61,292.43,1040.46C295.07,1040.31,297.33,1042.33,297.48,1044.97C297.62,1047.61,295.60,1049.86,292.97,1050.01z"/>
	<path
		fill="#9F9F9F"
		stroke="#9F9F9F"
		fill-opacity="0.5"
		stroke-opacity="0.5"
		fill-rule="nonzero"
		stroke-width="0.22182152"
		stroke-linejoin="miter"
		stroke-linecap="round"
		d="M282.50,1040.65C279.86,1040.79,277.61,1038.77,277.46,1036.14C277.31,1033.50,279.33,1031.24,281.97,1031.10C284.61,1030.95,286.86,1032.97,287.01,1035.61C287.16,1038.24,285.14,1040.50,282.50,1040.65z"/>
	<path
		fill="#9F9F9F"
		stroke="#9F9F9F"
		fill-opacity="0.5"
		stroke-opacity="0.5"
		fill-rule="nonzero"
		stroke-width="0.22182152"
		stroke-linejoin="miter"
		stroke-linecap="round"
		d="M272.03,1031.28C269.40,1031.43,267.14,1029.41,266.99,1026.78C266.85,1024.14,268.87,1021.88,271.50,1021.73C274.14,1021.59,276.40,1023.61,276.54,1026.24C276.69,1028.88,274.67,1031.14,272.03,1031.28z"/>
	<path
		fill="#9F9F9F"
		stroke="#9F9F9F"
		fill-opacity="0.5"
		stroke-opacity="0.5"
		fill-rule="nonzero"
		stroke-width="0.22182152"
		stroke-linejoin="miter"
		stroke-linecap="round"
		d="M261.57,1021.92C258.93,1022.07,256.67,1020.05,256.53,1017.41C256.38,1014.78,258.40,1012.52,261.04,1012.37C263.67,1012.22,265.93,1014.24,266.08,1016.88C266.22,1019.52,264.20,1021.77,261.57,1021.92z"/>
	<path
		fill="#9F9F9F"
		stroke="#9F9F9F"
		fill-opacity="0.5"
		stroke-opacity="0.5"
		fill-rule="nonzero"
		stroke-width="0.22182152"
		stroke-linejoin="miter"
		stroke-linecap="round"
		d="M251.01,1012.47C248.37,1012.62,246.11,1010.60,245.97,1007.96C245.82,1005.33,247.84,1003.07,250.47,1002.92C253.11,1002.78,255.37,1004.80,255.52,1007.43C255.66,1010.07,253.64,1012.33,251.01,1012.47z"/>
	<path
		fill="#9F9F9F"
		stroke="#9F9F9F"
		fill-opacity="0.5"
		stroke-opacity="0.5"
		fill-rule="nonzero"
		stroke-width="0.22182152"
		stroke-linejoin="miter"
		stroke-linecap="round"
		d="M240.44,1003.03C237.81,1003.17,235.55,1001.15,235.40,998.52C235.26,995.88,237.28,993.62,239.91,993.48C242.55,993.33,244.81,995.35,244.95,997.98C245.10,1000.62,243.08,1002.88,240.44,1003.03z"/>
	<path
		fill="#9F9F9F"
		stroke="#9F9F9F"
		fill-opacity="0.5"
		stroke-opacity="0.5"
		fill-rule="nonzero"
		stroke-width="0.22182152"
		stroke-linejoin="miter"
		stroke-linecap="round"
		d="M230.94,994.52C228.30,994.67,226.04,992.65,225.89,990.01C225.75,987.37,227.77,985.12,230.40,984.97C233.04,984.82,235.30,986.84,235.44,989.48C235.59,992.12,233.57,994.37,230.94,994.52z"/>
	<path
		fill="#FFFFFF"
		stroke="#9F9F9F"
		fill-opacity="0.000"
		stroke-opacity="0.5"
		fill-rule="nonzero"
		stroke-width="4.5975947"
		stroke-linejoin="miter"
		stroke-linecap="round"
		d="M851.81,129.56L899.25,150.29A8.63 8.63 0 0 1 903.70,161.66L882.96,209.09A8.63 8.63 0 0 1 871.60,213.54L824.16,192.81A8.63 8.63 0 0 1 819.71,181.45L840.45,134.01A8.63 8.63 0 0 1 851.81,129.56z"/>
	<path
		fill="#FFFFFF"
		stroke="#9F9F9F"
		fill-opacity="0.000"
		stroke-opacity="0.5"
		fill-rule="nonzero"
		stroke-width="4.3199997"
		stroke-linejoin="miter"
		stroke-linecap="round"
		d="M893.80,119.66L941.24,140.40A8.63 8.63 0 0 1 945.69,151.76L924.95,199.20A8.63 8.63 0 0 1 913.59,203.65L866.16,182.91A8.63 8.63 0 0 1 861.71,171.55L882.44,124.11A8.63 8.63 0 0 1 893.80,119.66z"/>
	<path
		fill="#FFFFFF"
		stroke="#9F9F9F"
		fill-opacity="0.000"
		stroke-opacity="0.5"
		fill-rule="nonzero"
		stroke-width="4.5975947"
		stroke-linejoin="miter"
		stroke-linecap="round"
		d="M919.39,182.27L966.82,203.01A8.63 8.63 0 0 1 971.27,214.37L950.54,261.81A8.63 8.63 0 0 1 939.18,266.26L891.74,245.52A8.63 8.63 0 0 1 887.29,234.16L908.02,186.72A8.63 8.63 0 0 1 919.39,182.27z"/>
	<path
		fill="#9F9F9F"
		stroke="#9F9F9F"
		fill-opacity="0.5"
		stroke-opacity="0.5"
		fill-rule="nonzero"
		stroke-width="0.037708532"
		stroke-linejoin="miter"
		stroke-linecap="round"
		d="M815.99,197.30C819.14,196.01,822.75,197.52,824.04,200.67C825.33,203.83,823.81,207.43,820.66,208.72C817.50,210.01,813.90,208.50,812.61,205.34C811.32,202.19,812.83,198.59,815.99,197.30z"/>
	<path
		fill="#9F9F9F"
		stroke="#9F9F9F"
		fill-opacity="0.5"
		stroke-opacity="0.5"
		fill-rule="nonzero"
		stroke-width="0.037708532"
		stroke-linejoin="miter"
		stroke-linecap="round"
		d="M828.12,202.39C831.28,201.10,834.88,202.61,836.17,205.77C837.46,208.92,835.95,212.53,832.79,213.82C829.64,215.10,826.03,213.59,824.74,210.44C823.46,207.28,824.97,203.68,828.12,202.39z"/>
	<path
		fill="#9F9F9F"
		stroke="#9F9F9F"
		fill-opacity="0.5"
		stroke-opacity="0.5"
		fill-rule="nonzero"
		stroke-width="0.037708532"
		stroke-linejoin="miter"
		stroke-linecap="round"
		d="M840.26,207.48C843.41,206.19,847.02,207.71,848.31,210.86C849.59,214.02,848.08,217.62,844.93,218.91C841.77,220.20,838.17,218.69,836.88,215.53C835.59,212.38,837.10,208.77,840.26,207.48z"/>
	<path
		fill="#9F9F9F"
		stroke="#9F9F9F"
		fill-opacity="0.5"
		stroke-opacity="0.5"
		fill-rule="nonzero"
		stroke-width="0.037708532"
		stroke-linejoin="miter"
		stroke-linecap="round"
		d="M852.39,212.58C855.55,211.29,859.15,212.80,860.44,215.95C861.73,219.11,860.22,222.71,857.06,224.00C853.91,225.29,850.30,223.78,849.01,220.62C847.72,217.47,849.24,213.87,852.39,212.58z"/>
	<path
		fill="#9F9F9F"
		stroke="#9F9F9F"
		fill-opacity="0.5"
		stroke-opacity="0.5"
		fill-rule="nonzero"
		stroke-width="0.037708532"
		stroke-linejoin="miter"
		stroke-linecap="round"
		d="M864.53,217.67C867.68,216.38,871.28,217.89,872.57,221.05C873.86,224.20,872.35,227.81,869.20,229.10C866.04,230.39,862.44,228.87,861.15,225.72C859.86,222.56,861.37,218.96,864.53,217.67z"/>
	<path
		fill="#9E9E9E"
		stroke="#9E9E9E"
		fill-opacity="0.000"
		stroke-opacity="0.5"
		fill-rule="nonzero"
		stroke-width="4.32"
		stroke-linejoin="miter"
		stroke-linecap="round"
		d="M463.36,153.31C476.51,153.31,487.17,163.97,487.17,177.12C487.17,190.27,476.51,200.93,463.36,200.93C450.21,200.93,439.55,190.27,439.55,177.12C439.55,163.97,450.21,153.31,463.36,153.31z"/>
</svg>