<?xml version="1.0" encoding="utf-8"?>
<svg
	version="1.1"
	xmlns="http://www.w3.org/2000/svg"
	xmlns:xlink="http://www.w3.org/1999/xlink"
	x="0%" y="0%"
	width="100%" height="100%"
	viewBox="0 0 2045.0 2752.0"
	enable-background="new 0 0 2045.0 2752.0"
	xml:space="preserve">
	<path
		fill="#9F9F9F"
		stroke="#9F9F9F"
		fill-opacity="0.5"
		stroke-opacity="0.5"
		fill-rule="nonzero"
		stroke-width="0.26559928"
		stroke-linejoin="miter"
		stroke-linecap="round"
		d="M1712.77,408.62C1711.13,405.56,1712.26,401.76,1715.30,400.14C1718.33,398.51,1722.12,399.68,1723.76,402.74C1725.40,405.80,1724.27,409.60,1721.23,411.23C1718.20,412.85,1714.41,411.69,1712.77,408.62z"/>
	<path
		fill="#000000"
		stroke="#9F9F9F"
		fill-opacity="0.000"
		stroke-opacity="0.5"
		fill-rule="nonzero"
		stroke-width="5.317357"
		stroke-linejoin="miter"
		stroke-linecap="round"
		d="M1720.81,504.55L1738.63,444.65L1680.08,426.62L1697.91,366.72L1639.35,348.68"/>
	<path
		fill="#000000"
		stroke="#9F9F9F"
		fill-opacity="0.000"
		stroke-opacity="0.5"
		fill-rule="nonzero"
		stroke-width="5.317357"
		stroke-linejoin="miter"
		stroke-linecap="round"
		d="M1820.09,600.50L1837.91,540.61L1779.36,522.57L1797.19,462.67L1738.63,444.65L1756.46,384.75L1697.91,366.72L1715.73,306.82L1657.18,288.78"/>
	<path
		fill="#000000"
		stroke="#9F9F9F"
		fill-opacity="0.000"
		stroke-opacity="0.5"
		fill-rule="nonzero"
		stroke-width="5.7394915"
		stroke-linejoin="miter"
		stroke-linecap="round"
		d="M352.24,2270.64A42.83 43.78 83.23 1 0 342.12,2185.59A41.89 42.83 83.23 1 1 330.21,2181.66"/>
	<path
		fill="#000000"
		stroke="#9F9F9F"
		fill-opacity="0.000"
		stroke-opacity="0.5"
		fill-rule="nonzero"
		stroke-width="5.7394915"
		stroke-linejoin="miter"
		stroke-linecap="round"
		d="M432.06,2324.08A42.53 43.48 228.22 1 0 376.02,2260.07A42.54 43.48 228.22 1 1 319.99,2196.06A42.53 43.48 228.22 1 0 263.96,2132.05A42.53 43.48 228.22 1 1 207.92,2068.04"/>
	<path
		fill="#000000"
		stroke="#9F9F9F"
		fill-opacity="0.004"
		stroke-opacity="0.5"
		fill-rule="nonzero"
		stroke-width="6.203281"
		stroke-linejoin="miter"
		stroke-linecap="round"
		d="M1821.10,2342.76L1766.59,2318.32L1790.86,2264.21L1845.36,2288.66z"/>
	<path
		fill="#000000"
		stroke="#9F9F9F"
		fill-opacity="0.000"
		stroke-opacity="0.5"
		fill-rule="nonzero"
		stroke-width="6.203281"
		stroke-linejoin="miter"
		stroke-linecap="round"
		d="M1760.32,2356.85L1715.64,2336.81L1735.22,2293.15L1779.90,2313.19z"/>
	<path
		fill="#000000"
		stroke="#9F9F9F"
		fill-opacity="0.000"
		stroke-opacity="0.5"
		fill-rule="nonzero"
		stroke-width="6.203281"
		stroke-linejoin="miter"
		stroke-linecap="round"
		d="M1759.70,2234.58L1796.30,2281.49L1821.66,2234.18L1759.70,2234.58z"/>
	<path
		fill="#000000"
		stroke="#9F9F9F"
		fill-opacity="0.000"
		stroke-opacity="0.5"
		fill-rule="nonzero"
		stroke-width="6.20328"
		stroke-linejoin="miter"
		stroke-linecap="round"
		d="M1216.99,192.91L1194.85,267.20L1143.38,222.22L1216.99,192.91z"/>
	<path
		fill="#000000"
		stroke="#9F9F9F"
		fill-opacity="0.004"
		stroke-opacity="0.5"
		fill-rule="nonzero"
		stroke-width="6.1349955"
		stroke-linejoin="miter"
		stroke-linecap="round"
		d="M346.44,1622.56L261.60,1612.20L271.86,1528.18L356.69,1538.54z"/>
	<path
		fill="#000000"
		stroke="#9F9F9F"
		fill-opacity="0.000"
		stroke-opacity="0.5"
		fill-rule="nonzero"
		stroke-width="6.1349955"
		stroke-linejoin="miter"
		stroke-linecap="round"
		d="M395.51,1639.56L325.99,1631.07L334.27,1563.25L403.78,1571.73z"/>
	<path
		fill="#000000"
		stroke="#9F9F9F"
		fill-opacity="0.000"
		stroke-opacity="0.5"
		fill-rule="nonzero"
		stroke-width="6.20328"
		stroke-linejoin="miter"
		stroke-linecap="round"
		d="M1175.72,251.08C1159.43,269.33,1131.74,271.21,1113.89,255.27C1096.03,239.33,1094.76,211.61,1111.05,193.36C1127.34,175.11,1155.03,173.23,1172.88,189.17C1190.74,205.11,1192.01,232.83,1175.72,251.08z"/>
	<path
		fill="#000000"
		stroke="#9F9F9F"
		fill-opacity="0.000"
		stroke-opacity="0.5"
		fill-rule="nonzero"
		stroke-width="6.2032785"
		stroke-linejoin="miter"
		stroke-linecap="round"
		d="M1368.34,1008.24L1289.64,932.63"/>
	<path
		fill="#000000"
		stroke="#9F9F9F"
		fill-opacity="0.000"
		stroke-opacity="0.5"
		fill-rule="nonzero"
		stroke-width="6.2032785"
		stroke-linejoin="miter"
		stroke-linecap="round"
		d="M1394.85,983.77L1316.16,908.16"/>
	<path
		fill="#000000"
		stroke="#9F9F9F"
		fill-opacity="0.000"
		stroke-opacity="0.5"
		fill-rule="nonzero"
		stroke-width="6.2032785"
		stroke-linejoin="miter"
		stroke-linecap="round"
		d="M1421.36,959.30L1342.67,883.69"/>
	<path
		fill="#9F9F9F"
		stroke="#9F9F9F"
		fill-opacity="0.5"
		stroke-opacity="0.5"
		fill-rule="nonzero"
		stroke-width="0.3185235"
		stroke-linejoin="miter"
		stroke-linecap="round"
		d="M199.12,1076.32C196.70,1073.46,197.11,1069.13,200.03,1066.66C202.96,1064.19,207.29,1064.50,209.71,1067.36C212.12,1070.23,211.71,1074.55,208.79,1077.02C205.87,1079.49,201.53,1079.18,199.12,1076.32z"/>
	<path
		fill="#9F9F9F"
		stroke="#9F9F9F"
		fill-opacity="0.5"
		stroke-opacity="0.5"
		fill-rule="nonzero"
		stroke-width="0.3185235"
		stroke-linejoin="miter"
		stroke-linecap="round"
		d="M201.02,1056.27C198.60,1053.40,199.01,1049.08,201.93,1046.61C204.86,1044.14,209.19,1044.45,211.61,1047.31C214.03,1050.17,213.62,1054.50,210.69,1056.97C207.77,1059.44,203.44,1059.13,201.02,1056.27z"/>
	<path
		fill="#9F9F9F"
		stroke="#9F9F9F"
		fill-opacity="0.5"
		stroke-opacity="0.5"
		fill-rule="nonzero"
		stroke-width="0.3185235"
		stroke-linejoin="miter"
		stroke-linecap="round"
		d="M202.92,1036.21C200.50,1033.35,200.91,1029.03,203.83,1026.56C206.76,1024.09,211.09,1024.40,213.51,1027.26C215.93,1030.12,215.52,1034.45,212.59,1036.92C209.67,1039.39,205.34,1039.08,202.92,1036.21z"/>
	<path
		fill="#9F9F9F"
		stroke="#9F9F9F"
		fill-opacity="0.5"
		stroke-opacity="0.5"
		fill-rule="nonzero"
		stroke-width="0.3185235"
		stroke-linejoin="miter"
		stroke-linecap="round"
		d="M204.82,1016.16C202.40,1013.30,202.81,1008.98,205.73,1006.51C208.66,1004.03,212.99,1004.35,215.41,1007.21C217.83,1010.07,217.42,1014.40,214.49,1016.87C211.57,1019.34,207.24,1019.02,204.82,1016.16z"/>
	<path
		fill="#9F9F9F"
		stroke="#9F9F9F"
		fill-opacity="0.5"
		stroke-opacity="0.5"
		fill-rule="nonzero"
		stroke-width="0.3185235"
		stroke-linejoin="miter"
		stroke-linecap="round"
		d="M206.72,996.11C204.30,993.25,204.71,988.93,207.64,986.46C210.56,983.98,214.89,984.30,217.31,987.16C219.73,990.02,219.32,994.34,216.40,996.82C213.47,999.29,209.14,998.97,206.72,996.11z"/>
	<path
		fill="#9F9F9F"
		stroke="#9F9F9F"
		fill-opacity="0.5"
		stroke-opacity="0.5"
		fill-rule="nonzero"
		stroke-width="0.3185235"
		stroke-linejoin="miter"
		stroke-linecap="round"
		d="M208.64,975.88C206.22,973.02,206.63,968.69,209.56,966.22C212.48,963.75,216.81,964.06,219.23,966.93C221.65,969.79,221.24,974.11,218.31,976.58C215.39,979.05,211.06,978.74,208.64,975.88z"/>
	<path
		fill="#9F9F9F"
		stroke="#9F9F9F"
		fill-opacity="0.5"
		stroke-opacity="0.5"
		fill-rule="nonzero"
		stroke-width="0.3185235"
		stroke-linejoin="miter"
		stroke-linecap="round"
		d="M210.56,955.64C208.14,952.78,208.55,948.46,211.47,945.99C214.40,943.51,218.73,943.83,221.15,946.69C223.57,949.55,223.16,953.88,220.23,956.35C217.31,958.82,212.98,958.50,210.56,955.64z"/>
	<path
		fill="#9F9F9F"
		stroke="#9F9F9F"
		fill-opacity="0.5"
		stroke-opacity="0.5"
		fill-rule="nonzero"
		stroke-width="0.3185235"
		stroke-linejoin="miter"
		stroke-linecap="round"
		d="M212.29,937.43C209.87,934.56,210.28,930.24,213.20,927.77C216.13,925.30,220.46,925.61,222.88,928.47C225.29,931.33,224.88,935.66,221.96,938.13C219.04,940.60,214.70,940.29,212.29,937.43z"/>
	<path
		fill="#9F9F9F"
		stroke="#9F9F9F"
		fill-opacity="0.5"
		stroke-opacity="0.5"
		fill-rule="nonzero"
		stroke-width="0.3185235"
		stroke-linejoin="miter"
		stroke-linecap="round"
		d="M229.54,1078.53C227.12,1075.67,227.53,1071.35,230.45,1068.88C233.38,1066.40,237.71,1066.72,240.13,1069.58C242.54,1072.44,242.13,1076.76,239.21,1079.24C236.29,1081.71,231.95,1081.39,229.54,1078.53z"/>
	<path
		fill="#9F9F9F"
		stroke="#9F9F9F"
		fill-opacity="0.5"
		stroke-opacity="0.5"
		fill-rule="nonzero"
		stroke-width="0.3185235"
		stroke-linejoin="miter"
		stroke-linecap="round"
		d="M231.44,1058.48C229.02,1055.62,229.43,1051.30,232.35,1048.82C235.28,1046.35,239.61,1046.67,242.03,1049.53C244.45,1052.39,244.04,1056.71,241.11,1059.18C238.19,1061.66,233.86,1061.34,231.44,1058.48z"/>
	<path
		fill="#9F9F9F"
		stroke="#9F9F9F"
		fill-opacity="0.5"
		stroke-opacity="0.5"
		fill-rule="nonzero"
		stroke-width="0.3185235"
		stroke-linejoin="miter"
		stroke-linecap="round"
		d="M233.34,1038.43C230.92,1035.57,231.33,1031.24,234.25,1028.77C237.18,1026.30,241.51,1026.62,243.93,1029.48C246.35,1032.34,245.94,1036.66,243.01,1039.13C240.09,1041.60,235.76,1041.29,233.34,1038.43z"/>
	<path
		fill="#9F9F9F"
		stroke="#9F9F9F"
		fill-opacity="0.5"
		stroke-opacity="0.5"
		fill-rule="nonzero"
		stroke-width="0.3185235"
		stroke-linejoin="miter"
		stroke-linecap="round"
		d="M235.24,1018.38C232.82,1015.52,233.23,1011.19,236.16,1008.72C239.08,1006.25,243.41,1006.56,245.83,1009.42C248.25,1012.29,247.84,1016.61,244.91,1019.08C241.99,1021.55,237.66,1021.24,235.24,1018.38z"/>
	<path
		fill="#9F9F9F"
		stroke="#9F9F9F"
		fill-opacity="0.5"
		stroke-opacity="0.5"
		fill-rule="nonzero"
		stroke-width="0.3185235"
		stroke-linejoin="miter"
		stroke-linecap="round"
		d="M237.14,998.33C234.72,995.46,235.13,991.14,238.06,988.67C240.98,986.20,245.31,986.51,247.73,989.37C250.15,992.23,249.74,996.56,246.82,999.03C243.89,1001.50,239.56,1001.19,237.14,998.33z"/>
	<path
		fill="#9F9F9F"
		stroke="#9F9F9F"
		fill-opacity="0.5"
		stroke-opacity="0.5"
		fill-rule="nonzero"
		stroke-width="0.3185235"
		stroke-linejoin="miter"
		stroke-linecap="round"
		d="M239.06,978.09C236.64,975.23,237.05,970.91,239.98,968.43C242.90,965.96,247.23,966.28,249.65,969.14C252.07,972.00,251.66,976.32,248.73,978.80C245.81,981.27,241.48,980.95,239.06,978.09z"/>
	<path
		fill="#9F9F9F"
		stroke="#9F9F9F"
		fill-opacity="0.5"
		stroke-opacity="0.5"
		fill-rule="nonzero"
		stroke-width="0.3185235"
		stroke-linejoin="miter"
		stroke-linecap="round"
		d="M240.98,957.86C238.56,955.00,238.97,950.67,241.89,948.20C244.82,945.73,249.15,946.04,251.57,948.90C253.99,951.77,253.58,956.09,250.65,958.56C247.73,961.03,243.40,960.72,240.98,957.86z"/>
	<path
		fill="#9F9F9F"
		stroke="#9F9F9F"
		fill-opacity="0.5"
		stroke-opacity="0.5"
		fill-rule="nonzero"
		stroke-width="0.3185235"
		stroke-linejoin="miter"
		stroke-linecap="round"
		d="M242.71,939.64C240.29,936.78,240.70,932.46,243.62,929.98C246.55,927.51,250.88,927.83,253.30,930.69C255.71,933.55,255.30,937.87,252.38,940.34C249.46,942.82,245.12,942.50,242.71,939.64z"/>
	<path
		fill="#9F9F9F"
		stroke="#9F9F9F"
		fill-opacity="0.5"
		stroke-opacity="0.5"
		fill-rule="nonzero"
		stroke-width="0.3185235"
		stroke-linejoin="miter"
		stroke-linecap="round"
		d="M259.96,1080.75C257.54,1077.88,257.95,1073.56,260.87,1071.09C263.80,1068.62,268.13,1068.93,270.55,1071.79C272.97,1074.65,272.56,1078.98,269.63,1081.45C266.71,1083.92,262.38,1083.61,259.96,1080.75z"/>
	<path
		fill="#9F9F9F"
		stroke="#9F9F9F"
		fill-opacity="0.5"
		stroke-opacity="0.5"
		fill-rule="nonzero"
		stroke-width="0.3185235"
		stroke-linejoin="miter"
		stroke-linecap="round"
		d="M261.86,1060.69C259.44,1057.83,259.85,1053.51,262.77,1051.04C265.70,1048.57,270.03,1048.88,272.45,1051.74C274.87,1054.60,274.46,1058.93,271.53,1061.40C268.61,1063.87,264.28,1063.56,261.86,1060.69z"/>
	<path
		fill="#9F9F9F"
		stroke="#9F9F9F"
		fill-opacity="0.5"
		stroke-opacity="0.5"
		fill-rule="nonzero"
		stroke-width="0.3185235"
		stroke-linejoin="miter"
		stroke-linecap="round"
		d="M263.76,1040.64C261.34,1037.78,261.75,1033.46,264.67,1030.99C267.60,1028.51,271.93,1028.83,274.35,1031.69C276.77,1034.55,276.36,1038.88,273.43,1041.35C270.51,1043.82,266.18,1043.50,263.76,1040.64z"/>
	<path
		fill="#9F9F9F"
		stroke="#9F9F9F"
		fill-opacity="0.5"
		stroke-opacity="0.5"
		fill-rule="nonzero"
		stroke-width="0.3185235"
		stroke-linejoin="miter"
		stroke-linecap="round"
		d="M265.66,1020.59C263.24,1017.73,263.65,1013.41,266.58,1010.93C269.50,1008.46,273.83,1008.78,276.25,1011.64C278.67,1014.50,278.26,1018.82,275.34,1021.30C272.41,1023.77,268.08,1023.45,265.66,1020.59z"/>
	<path
		fill="#9F9F9F"
		stroke="#9F9F9F"
		fill-opacity="0.5"
		stroke-opacity="0.5"
		fill-rule="nonzero"
		stroke-width="0.3185235"
		stroke-linejoin="miter"
		stroke-linecap="round"
		d="M267.56,1000.54C265.14,997.68,265.55,993.36,268.48,990.88C271.40,988.41,275.73,988.73,278.15,991.59C280.57,994.45,280.16,998.77,277.24,1001.24C274.31,1003.72,269.98,1003.40,267.56,1000.54z"/>
	<path
		fill="#9F9F9F"
		stroke="#9F9F9F"
		fill-opacity="0.5"
		stroke-opacity="0.5"
		fill-rule="nonzero"
		stroke-width="0.3185235"
		stroke-linejoin="miter"
		stroke-linecap="round"
		d="M269.48,980.31C267.06,977.45,267.47,973.12,270.40,970.65C273.32,968.18,277.65,968.49,280.07,971.35C282.49,974.21,282.08,978.54,279.15,981.01C276.23,983.48,271.90,983.17,269.48,980.31z"/>
	<path
		fill="#9F9F9F"
		stroke="#9F9F9F"
		fill-opacity="0.5"
		stroke-opacity="0.5"
		fill-rule="nonzero"
		stroke-width="0.3185235"
		stroke-linejoin="miter"
		stroke-linecap="round"
		d="M271.40,960.07C268.98,957.21,269.39,952.89,272.31,950.41C275.24,947.94,279.57,948.26,281.99,951.12C284.41,953.98,284.00,958.30,281.07,960.78C278.15,963.25,273.82,962.93,271.40,960.07z"/>
	<path
		fill="#9F9F9F"
		stroke="#9F9F9F"
		fill-opacity="0.5"
		stroke-opacity="0.5"
		fill-rule="nonzero"
		stroke-width="0.3185235"
		stroke-linejoin="miter"
		stroke-linecap="round"
		d="M273.13,941.85C270.71,938.99,271.12,934.67,274.04,932.20C276.97,929.73,281.30,930.04,283.72,932.90C286.14,935.76,285.73,940.09,282.80,942.56C279.88,945.03,275.54,944.72,273.13,941.85z"/>
	<path
		fill="#FFFFFF"
		stroke="#9F9F9F"
		fill-opacity="0.000"
		stroke-opacity="0.5"
		fill-rule="nonzero"
		stroke-width="5.020301"
		stroke-linejoin="miter"
		stroke-linecap="round"
		d="M238.24,437.76L291.30,418.17A9.43 9.43 0 0 1 303.41,423.75L323.39,477.87A9.43 9.43 0 0 1 317.81,489.98L264.75,509.57A9.43 9.43 0 0 1 252.64,503.99L232.66,449.87A9.43 9.43 0 0 1 238.24,437.76z"/>
	<path
		fill="#FFFFFF"
		stroke="#9F9F9F"
		fill-opacity="0.000"
		stroke-opacity="0.5"
		fill-rule="nonzero"
		stroke-width="4.7171836"
		stroke-linejoin="miter"
		stroke-linecap="round"
		d="M263.36,398.46L316.43,378.87A9.43 9.43 0 0 1 328.53,384.45L348.51,438.57A9.43 9.43 0 0 1 342.93,450.68L289.87,470.27A9.43 9.43 0 0 1 277.76,464.69L257.78,410.57A9.43 9.43 0 0 1 263.36,398.46z"/>
	<path
		fill="#FFFFFF"
		stroke="#9F9F9F"
		fill-opacity="0.000"
		stroke-opacity="0.5"
		fill-rule="nonzero"
		stroke-width="5.020301"
		stroke-linejoin="miter"
		stroke-linecap="round"
		d="M331.18,429.14L384.24,409.55A9.43 9.43 0 0 1 396.35,415.13L416.33,469.25A9.43 9.43 0 0 1 410.75,481.36L357.69,500.95A9.43 9.43 0 0 1 345.58,495.37L325.60,441.25A9.43 9.43 0 0 1 331.18,429.14z"/>
	<path
		fill="#9F9F9F"
		stroke="#9F9F9F"
		fill-opacity="0.5"
		stroke-opacity="0.5"
		fill-rule="nonzero"
		stroke-width="0.04117548"
		stroke-linejoin="miter"
		stroke-linecap="round"
		d="M262.16,518.64C263.64,515.29,267.60,513.80,271.00,515.31C274.41,516.82,275.96,520.76,274.48,524.11C272.99,527.46,269.03,528.95,265.63,527.44C262.23,525.93,260.67,521.99,262.16,518.64z"/>
	<path
		fill="#9F9F9F"
		stroke="#9F9F9F"
		fill-opacity="0.5"
		stroke-opacity="0.5"
		fill-rule="nonzero"
		stroke-width="0.04117548"
		stroke-linejoin="miter"
		stroke-linecap="round"
		d="M275.50,513.62C276.98,510.27,280.95,508.77,284.35,510.28C287.75,511.79,289.31,515.73,287.82,519.08C286.34,522.43,282.38,523.92,278.97,522.41C275.57,520.90,274.01,516.97,275.50,513.62z"/>
	<path
		fill="#9F9F9F"
		stroke="#9F9F9F"
		fill-opacity="0.5"
		stroke-opacity="0.5"
		fill-rule="nonzero"
		stroke-width="0.04117548"
		stroke-linejoin="miter"
		stroke-linecap="round"
		d="M288.84,508.59C290.33,505.24,294.29,503.75,297.69,505.25C301.10,506.76,302.65,510.70,301.17,514.05C299.68,517.40,295.72,518.89,292.32,517.38C288.91,515.88,287.36,511.94,288.84,508.59z"/>
	<path
		fill="#9F9F9F"
		stroke="#9F9F9F"
		fill-opacity="0.5"
		stroke-opacity="0.5"
		fill-rule="nonzero"
		stroke-width="0.04117548"
		stroke-linejoin="miter"
		stroke-linecap="round"
		d="M302.19,503.56C303.67,500.21,307.63,498.72,311.04,500.23C314.44,501.73,316.00,505.67,314.51,509.02C313.03,512.37,309.07,513.86,305.66,512.36C302.26,510.85,300.70,506.91,302.19,503.56z"/>
	<path
		fill="#9F9F9F"
		stroke="#9F9F9F"
		fill-opacity="0.5"
		stroke-opacity="0.5"
		fill-rule="nonzero"
		stroke-width="0.04117548"
		stroke-linejoin="miter"
		stroke-linecap="round"
		d="M315.53,498.53C317.02,495.18,320.98,493.69,324.38,495.20C327.78,496.71,329.34,500.64,327.86,503.99C326.37,507.34,322.41,508.84,319.01,507.33C315.60,505.82,314.05,501.88,315.53,498.53z"/>
	<path
		fill="#9E9E9E"
		stroke="#9E9E9E"
		fill-opacity="0.000"
		stroke-opacity="0.5"
		fill-rule="nonzero"
		stroke-width="6.2032804"
		stroke-linejoin="miter"
		stroke-linecap="round"
		d="M787.32,1973.58C787.60,1992.26,772.35,2007.62,753.26,2007.91C734.18,2008.20,718.48,1993.29,718.20,1974.62C717.92,1955.95,733.17,1940.58,752.25,1940.29C771.34,1940.01,787.04,1954.91,787.32,1973.58z"/>
	<path
		fill="#9E9E9E"
		stroke="#9E9E9E"
		fill-opacity="0.000"
		stroke-opacity="0.5"
		fill-rule="nonzero"
		stroke-width="6.135004"
		stroke-linejoin="miter"
		stroke-linecap="round"
		d="M1189.71,2471.38C1172.53,2481.93,1150.05,2476.56,1139.50,2459.38C1128.95,2442.20,1134.32,2419.72,1151.50,2409.17C1168.68,2398.62,1191.16,2403.99,1201.71,2421.17C1212.26,2438.35,1206.89,2460.83,1189.71,2471.38z"/>
	<path
		fill="#9E9E9E"
		stroke="#9E9E9E"
		fill-opacity="0.000"
		stroke-opacity="0.5"
		fill-rule="nonzero"
		stroke-width="6.135004"
		stroke-linejoin="miter"
		stroke-linecap="round"
		d="M1180.78,2506.83C1163.60,2517.38,1141.12,2512.00,1130.57,2494.82C1120.02,2477.64,1125.39,2455.17,1142.57,2444.61C1159.75,2434.06,1182.23,2439.44,1192.78,2456.62C1203.33,2473.79,1197.96,2496.27,1180.78,2506.83z"/>
	<path
		fill="#9E9E9E"
		stroke="#9E9E9E"
		fill-opacity="0.000"
		stroke-opacity="0.5"
		fill-rule="nonzero"
		stroke-width="6.135004"
		stroke-linejoin="miter"
		stroke-linecap="round"
		d="M1153.71,2482.50C1136.53,2493.06,1114.05,2487.68,1103.50,2470.50C1092.94,2453.32,1098.32,2430.84,1115.50,2420.29C1132.68,2409.74,1155.16,2415.12,1165.71,2432.29C1176.26,2449.47,1170.88,2471.95,1153.71,2482.50z"/>
	<path
		fill="#9E9E9E"
		stroke="#9E9E9E"
		fill-opacity="0.000"
		stroke-opacity="0.5"
		fill-rule="nonzero"
		stroke-width="6.134996"
		stroke-linejoin="miter"
		stroke-linecap="round"
		d="M769.71,661.53L703.31,701.11A12.31 12.31 0 0 1 686.43,696.84L647.04,630.74A12.31 12.31 0 0 1 651.31,613.87L717.71,574.29A12.31 12.31 0 0 1 734.58,578.56L773.98,644.66A12.31 12.31 0 0 1 769.71,661.53zM657.23,648.20C672.66,639.01,677.71,619.06,668.52,603.63C659.32,588.21,639.37,583.16,623.95,592.35C608.52,601.54,603.47,621.50,612.66,636.92C621.86,652.34,641.81,657.40,657.23,648.20z"/>
	<path
		fill="#9E9E9E"
		stroke="#9E9E9E"
		fill-opacity="0.5"
		stroke-opacity="0.5"
		fill-rule="nonzero"
		stroke-width="0.0"
		stroke-linejoin="miter"
		stroke-linecap="round"
		d="M661.23,629.71C658.75,631.19,655.54,630.38,654.06,627.90C652.58,625.42,653.39,622.20,655.87,620.73C658.36,619.25,661.57,620.06,663.05,622.54C664.53,625.02,663.71,628.23,661.23,629.71z"/>
	<path
		fill="#9E9E9E"
		stroke="#9E9E9E"
		fill-opacity="0.004"
		stroke-opacity="0.5"
		fill-rule="nonzero"
		stroke-width="5.2302165"
		stroke-linejoin="miter"
		stroke-linecap="round"
		d="M1758.71,1379.86L1823.37,1472.57L1730.66,1537.23L1666.00,1444.52zM1767.86,1442.38C1758.93,1429.58,1741.32,1426.44,1728.52,1435.37C1715.72,1444.29,1712.58,1461.91,1721.51,1474.71C1730.44,1487.51,1748.05,1490.65,1760.85,1481.72C1773.65,1472.79,1776.79,1455.18,1767.86,1442.38z"/>
	<path
		fill="#9E9E9E"
		stroke="#9E9E9E"
		fill-opacity="0.004"
		stroke-opacity="0.5"
		fill-rule="nonzero"
		stroke-width="5.2302165"
		stroke-linejoin="miter"
		stroke-linecap="round"
		d="M1712.09,1412.37L1777.06,1504.86"/>
</svg>