<?xml version="1.0" encoding="utf-8"?>
<svg
	version="1.1"
	xmlns="http://www.w3.org/2000/svg"
	xmlns:xlink="http://www.w3.org/1999/xlink"
	x="0%" y="0%"
	width="100%" height="100%"
	viewBox="0 0 800.0 1059.0"
	enable-background="new 0 0 800.0 1059.0"
	xml:space="preserve">
	<path
		fill="#FFFFFF"
		stroke="#000000"
		fill-opacity="1"
		stroke-opacity="0.000"
		fill-rule="nonzero"
		stroke-width="0.1"
		stroke-linejoin="miter"
		stroke-linecap="square"
		d="M260.67,412.71L560.53,412.71L600.62,376.72L621.47,318.77L619.86,290.68L616.66,265.22L611.85,246.78L608.58,182.38L594.21,141.43L574.96,106.31L528.46,67.68L493.18,51.00L441.87,37.83L398.58,25.54L360.09,10.62L323.21,43.10L289.53,62.42L275.10,77.34L251.05,112.46L239.82,167.77L233.41,265.22L227.00,296.83L225.39,331.06L233.41,372.33L260.67,412.71z"/>
	<path
		fill="#FFFFFF"
		stroke="#000000"
		fill-opacity="1.000"
		stroke-opacity="0.000"
		fill-rule="nonzero"
		stroke-width="0.1"
		stroke-linejoin="miter"
		stroke-linecap="square"
		d="M20.69,641.87L28.70,626.55L71.91,598.47L145.53,567.84L225.55,534.66L283.17,514.23L283.87,465.97L267.16,437.65L263.96,432.55L556.84,456.80L556.84,527.00L641.67,576.77L697.68,608.68L755.30,641.87L776.11,658.46L779.31,686.54L779.31,760.57L779.31,960.96L636.87,960.96L20.69,960.96L20.69,740.15L20.69,708.24L20.69,677.61L20.69,641.87zM260.03,410.85L263.96,432.55L556.84,456.80L560.04,410.85L260.03,410.85zM779.31,960.96L20.69,960.96L20.69,993.19L31.49,1005.95L768.51,1005.95L779.31,993.19L779.31,960.96z"/>
</svg>