<?xml version="1.0" encoding="UTF-8" standalone="no"?>
<svg
   version="1.1"
   x="0%"
   y="0%"
   width="100%"
   height="100%"
   viewBox="0 0 1170.0 2532.0"
   enable-background="new 0 0 1170.0 2532.0"
   xml:space="preserve"
   id="svg77"
   sodipodi:docname="mobileBG.svg"
   inkscape:version="1.1.2 (b8e25be833, 2022-02-05)"
   xmlns:inkscape="http://www.inkscape.org/namespaces/inkscape"
   xmlns:sodipodi="http://sodipodi.sourceforge.net/DTD/sodipodi-0.dtd"
   xmlns="http://www.w3.org/2000/svg"
   xmlns:svg="http://www.w3.org/2000/svg"><sodipodi:namedview
   id="namedview79"
   pagecolor="#505050"
   bordercolor="#eeeeee"
   borderopacity="1"
   inkscape:pageshadow="0"
   inkscape:pageopacity="0"
   inkscape:pagecheckerboard="0"
   showgrid="false"
   inkscape:zoom="0.45129722"
   inkscape:cx="344.56228"
   inkscape:cy="1001.5572"
   inkscape:window-width="1920"
   inkscape:window-height="1017"
   inkscape:window-x="-8"
   inkscape:window-y="-8"
   inkscape:window-maximized="1"
   inkscape:current-layer="g595" />
<defs
   id="defs71">
<filter
   id="glow0"
   x="-0.015370762"
   y="-0.011455812"
   width="1.0307415"
   height="1.0229116">
	<feOffset
   result="offOut"
   in="SourceGraphic"
   dx="0.0"
   dy="0.0"
   id="feOffset45" />
	<feGaussianBlur
   result="blurOut"
   in="offOut"
   stdDeviation="6.7762704"
   id="feGaussianBlur47" />
	<feFlood
   flood-color="#000000"
   flood-opacity="0.2"
   result="flood"
   id="feFlood49" />
	<feComposite
   in="flood"
   in2="blurOut"
   operator="in"
   result="blendOut0"
   id="feComposite51" />
	<feBlend
   in="blendOut0"
   in2="blendOut0"
   result="blendOut1"
   mode="normal"
   id="feBlend53" />
	<feBlend
   in="SourceGraphic"
   in2="blendOut1"
   mode="normal"
   id="feBlend55" />
</filter>

<filter
   id="glow1"
   x="-0.015370761"
   y="-0.011455811"
   width="1.0307415"
   height="1.0229116">
	<feOffset
   result="offOut"
   in="SourceGraphic"
   dx="0.0"
   dy="0.0"
   id="feOffset58" />
	<feGaussianBlur
   result="blurOut"
   in="offOut"
   stdDeviation="6.77627"
   id="feGaussianBlur60" />
	<feFlood
   flood-color="#000000"
   flood-opacity="0.2"
   result="flood"
   id="feFlood62" />
	<feComposite
   in="flood"
   in2="blurOut"
   operator="in"
   result="blendOut0"
   id="feComposite64" />
	<feBlend
   in="blendOut0"
   in2="blendOut0"
   result="blendOut1"
   mode="normal"
   id="feBlend66" />
	<feBlend
   in="SourceGraphic"
   in2="blendOut1"
   mode="normal"
   id="feBlend68" />
</filter>

<filter
   id="glow0-4"
   x="-0.01537076"
   y="-0.01145581"
   width="1.0307415"
   height="1.0229116">
	<feOffset
   result="offOut"
   in="SourceGraphic"
   dx="0.0"
   dy="0.0"
   id="feOffset197" />
	<feGaussianBlur
   result="blurOut"
   in="offOut"
   stdDeviation="6.7762704"
   id="feGaussianBlur199" />
	<feFlood
   flood-color="#000000"
   flood-opacity="0.2"
   result="flood"
   id="feFlood201" />
	<feComposite
   in="flood"
   in2="blurOut"
   operator="in"
   result="blendOut0"
   id="feComposite203" />
	<feBlend
   in="blendOut0"
   in2="blendOut0"
   result="blendOut1"
   mode="normal"
   id="feBlend205" />
	<feBlend
   in="SourceGraphic"
   in2="blendOut1"
   mode="normal"
   id="feBlend207" />
</filter><filter
   id="glow1-9"
   x="-0.015370758"
   y="-0.011455809"
   width="1.0307415"
   height="1.0229116">
	<feOffset
   result="offOut"
   in="SourceGraphic"
   dx="0.0"
   dy="0.0"
   id="feOffset210" />
	<feGaussianBlur
   result="blurOut"
   in="offOut"
   stdDeviation="6.77627"
   id="feGaussianBlur212" />
	<feFlood
   flood-color="#000000"
   flood-opacity="0.2"
   result="flood"
   id="feFlood214" />
	<feComposite
   in="flood"
   in2="blurOut"
   operator="in"
   result="blendOut0"
   id="feComposite216" />
	<feBlend
   in="blendOut0"
   in2="blendOut0"
   result="blendOut1"
   mode="normal"
   id="feBlend218" />
	<feBlend
   in="SourceGraphic"
   in2="blendOut1"
   mode="normal"
   id="feBlend220" />
</filter><clipPath
   clipPathUnits="userSpaceOnUse"
   id="clipPath678"><path
     fill="#d5dbf4"
     stroke="#9e9e9e"
     fill-opacity="1"
     stroke-opacity="0"
     fill-rule="nonzero"
     stroke-width="3.44148"
     filter="url(#glow1)"
     stroke-linejoin="miter"
     stroke-linecap="round"
     d="M -7.9531406,1669.0207 V 99.180711 H 1162.0469 V 706.86071"
     id="path680"
     style="display:inline;filter:url(#glow1-9)" /></clipPath><clipPath
   clipPathUnits="userSpaceOnUse"
   id="clipPath1587"><path
     fill="#cee7f1"
     stroke="#9e9e9e"
     fill-opacity="1"
     stroke-opacity="0"
     fill-rule="nonzero"
     stroke-width="3.44148"
     filter="url(#glow0)"
     stroke-linejoin="miter"
     stroke-linecap="round"
     d="M 1134.8305,1648.7653 V 78.92533 H -35.169475 v 607.68"
     id="path1589"
     style="display:inline;filter:url(#glow0-4)" /></clipPath></defs>
	<path
   fill="#cee7f1"
   stroke="#9E9E9E"
   fill-opacity="1.000"
   stroke-opacity="0.000"
   fill-rule="nonzero"
   stroke-width="3.441485"
   filter="url(#glow0)"
   stroke-linejoin="miter"
   stroke-linecap="round"
   d="M1170.00,1569.84L1170.00,-0.00L-0.00,-0.00L0.00,607.68"
   id="path73" /><g
   id="g853"
   transform="translate(35.169475,-78.92533)"
   style="display:inline"
   clip-path="url(#clipPath1587)"><path
     fill="#000000"
     stroke="#9f9f9f"
     fill-opacity="0"
     stroke-opacity="0.5"
     fill-rule="nonzero"
     stroke-width="3.49882"
     stroke-linejoin="miter"
     stroke-linecap="round"
     d="m 679.10824,1315.4856 41.00326,-3.1601 3.48782,40.1604 41.0019,-3.1699 3.48782,40.1605"
     id="path684" /><path
     fill="#000000"
     stroke="#9f9f9f"
     fill-opacity="0"
     stroke-opacity="0.5"
     fill-rule="nonzero"
     stroke-width="3.49882"
     stroke-linejoin="miter"
     stroke-linecap="round"
     d="m 631.13204,1238.3444 40.99193,-3.1685 3.50631,40.1478 40.99205,-3.1688 3.48778,40.1607 41.00327,-3.1601 3.48784,40.1605 41.0019,-3.17 3.48645,40.1506"
     id="path686" /><path
     fill="#000000"
     stroke="#9f9f9f"
     fill-opacity="0"
     stroke-opacity="0.5"
     fill-rule="nonzero"
     stroke-width="3.77659"
     stroke-linejoin="miter"
     stroke-linecap="round"
     d="m 223.39,221.8 a 28.18,28.81 -16.63 1 0 -53.99,16.15 27.57,28.18 -16.63 1 1 -1.21,8.17"
     id="path688" /><path
     fill="#000000"
     stroke="#9f9f9f"
     fill-opacity="0"
     stroke-opacity="0.5"
     fill-rule="nonzero"
     stroke-width="3.77659"
     stroke-linejoin="miter"
     stroke-linecap="round"
     d="m 249.04,164.04 a 27.99,28.61 128.35 1 0 -35.18,43.54 27.99,28.61 128.35 1 1 -35.18,43.54 27.99,28.61 128.35 1 0 -35.18,43.54 27.99,28.61 128.35 1 1 -35.18,43.54"
     id="path690" /><path
     fill="#000000"
     stroke="#9f9f9f"
     fill-opacity="0"
     stroke-opacity="0.5"
     fill-rule="nonzero"
     stroke-width="4.08176"
     stroke-linejoin="miter"
     stroke-linecap="round"
     d="m 153.74,1544.63 39.28,1.64 -1.62,38.98 -39.28,-1.64 z"
     id="path692" /><path
     fill="#000000"
     stroke="#9f9f9f"
     fill-opacity="0"
     stroke-opacity="0.5"
     fill-rule="nonzero"
     stroke-width="4.08176"
     stroke-linejoin="miter"
     stroke-linecap="round"
     d="m 187.44,1521.19 32.2,1.34 -1.31,31.46 -32.19,-1.34 z"
     id="path694" /><path
     fill="#000000"
     stroke="#9f9f9f"
     fill-opacity="0"
     stroke-opacity="0.5"
     fill-rule="nonzero"
     stroke-width="4.08176"
     stroke-linejoin="miter"
     stroke-linecap="round"
     d="m 217.67,1595.75 -33.82,-19.73 -3.95,35.1 z"
     id="path696" /><path
     fill="#000000"
     stroke="#9f9f9f"
     fill-opacity="0"
     stroke-opacity="0.5"
     fill-rule="nonzero"
     stroke-width="4.08176"
     stroke-linejoin="miter"
     stroke-linecap="round"
     d="m 1072.8872,1406.8569 -41.8433,29.1664 -8.0604,-44.2391 z"
     id="path698" /><path
     fill="#000000"
     stroke="#9f9f9f"
     fill-opacity="0"
     stroke-opacity="0.5"
     fill-rule="nonzero"
     stroke-width="4.03683"
     stroke-linejoin="miter"
     stroke-linecap="round"
     d="m 194.19,1184.9 -38.6,-40.9 40.51,-38.23 38.6,40.9 z"
     id="path700" /><path
     fill="#000000"
     stroke="#9f9f9f"
     fill-opacity="0"
     stroke-opacity="0.5"
     fill-rule="nonzero"
     stroke-width="4.03683"
     stroke-linejoin="miter"
     stroke-linecap="round"
     d="m 159.06,1158.16 -31.62,-33.51 32.69,-30.86 31.63,33.51 z"
     id="path702" /><path
     fill="#000000"
     stroke="#9f9f9f"
     fill-opacity="0"
     stroke-opacity="0.5"
     fill-rule="nonzero"
     stroke-width="4.08176"
     stroke-linejoin="miter"
     stroke-linecap="round"
     d="m 1027.7962,1419.8888 c -15.867,2.7192 -30.8797,-7.6605 -33.53868,-23.1857 -2.659,-15.5252 8.04608,-30.3044 23.91318,-33.0235 15.8671,-2.7192 30.886,7.6527 33.545,23.1779 2.6589,15.5252 -8.0524,30.3122 -23.9195,33.0313 z"
     id="path704" /><path
     fill="#000000"
     stroke="#9f9f9f"
     fill-opacity="0"
     stroke-opacity="0.5"
     fill-rule="nonzero"
     stroke-width="3.51"
     stroke-linejoin="miter"
     stroke-linecap="round"
     d="m 951.4983,1137.3876 -18.74,-69.32"
     id="path706" /><path
     fill="#000000"
     stroke="#9f9f9f"
     fill-opacity="0"
     stroke-opacity="0.5"
     fill-rule="nonzero"
     stroke-width="3.51"
     stroke-linejoin="miter"
     stroke-linecap="round"
     d="m 974.7483,1132.5776 -18.74,-69.32"
     id="path708" /><path
     fill="#000000"
     stroke="#9f9f9f"
     fill-opacity="0"
     stroke-opacity="0.5"
     fill-rule="nonzero"
     stroke-width="3.51"
     stroke-linejoin="miter"
     stroke-linecap="round"
     d="m 997.9883,1127.7776 -18.73,-69.33"
     id="path710" /><path
     fill="#9f9f9f"
     stroke="#9f9f9f"
     fill-opacity="0.5"
     stroke-opacity="0.5"
     fill-rule="nonzero"
     stroke-width="0.209589"
     stroke-linejoin="miter"
     stroke-linecap="round"
     d="m 542.29,157.67 c 2.23,-1.04 4.91,-0.02 5.97,2.26 1.06,2.29 0.1,4.98 -2.13,6.02 -2.24,1.04 -4.91,0.03 -5.97,-2.26 -1.06,-2.29 -0.11,-4.98 2.13,-6.02 z"
     id="path712" /><path
     fill="#9f9f9f"
     stroke="#9f9f9f"
     fill-opacity="0.5"
     stroke-opacity="0.5"
     fill-rule="nonzero"
     stroke-width="0.209589"
     stroke-linejoin="miter"
     stroke-linecap="round"
     d="m 554.68,162.36 c 2.24,-1.03 4.91,-0.02 5.97,2.26 1.06,2.29 0.11,4.98 -2.13,6.02 -2.23,1.04 -4.9,0.03 -5.97,-2.26 -1.06,-2.28 -0.1,-4.98 2.13,-6.02 z"
     id="path714" /><path
     fill="#9f9f9f"
     stroke="#9f9f9f"
     fill-opacity="0.5"
     stroke-opacity="0.5"
     fill-rule="nonzero"
     stroke-width="0.209589"
     stroke-linejoin="miter"
     stroke-linecap="round"
     d="m 567.08,167.05 c 2.23,-1.03 4.91,-0.02 5.97,2.26 1.06,2.29 0.1,4.98 -2.13,6.02 -2.24,1.04 -4.91,0.03 -5.97,-2.26 -1.06,-2.28 -0.11,-4.98 2.13,-6.02 z"
     id="path716" /><path
     fill="#9f9f9f"
     stroke="#9f9f9f"
     fill-opacity="0.5"
     stroke-opacity="0.5"
     fill-rule="nonzero"
     stroke-width="0.209589"
     stroke-linejoin="miter"
     stroke-linecap="round"
     d="m 579.47,171.75 c 2.24,-1.04 4.91,-0.03 5.97,2.26 1.06,2.28 0.11,4.97 -2.13,6.01 -2.23,1.04 -4.91,0.03 -5.97,-2.26 -1.06,-2.28 -0.1,-4.98 2.13,-6.01 z"
     id="path718" /><path
     fill="#9f9f9f"
     stroke="#9f9f9f"
     fill-opacity="0.5"
     stroke-opacity="0.5"
     fill-rule="nonzero"
     stroke-width="0.209589"
     stroke-linejoin="miter"
     stroke-linecap="round"
     d="m 591.87,176.44 c 2.23,-1.04 4.91,-0.03 5.97,2.26 1.06,2.28 0.1,4.98 -2.13,6.01 -2.24,1.04 -4.91,0.03 -5.97,-2.26 -1.06,-2.28 -0.11,-4.98 2.13,-6.01 z"
     id="path720" /><path
     fill="#9f9f9f"
     stroke="#9f9f9f"
     fill-opacity="0.5"
     stroke-opacity="0.5"
     fill-rule="nonzero"
     stroke-width="0.209589"
     stroke-linejoin="miter"
     stroke-linecap="round"
     d="m 604.38,181.17 c 2.23,-1.04 4.9,-0.03 5.96,2.26 1.07,2.29 0.11,4.98 -2.12,6.02 -2.24,1.04 -4.91,0.02 -5.97,-2.26 -1.06,-2.29 -0.11,-4.98 2.13,-6.02 z"
     id="path722" /><path
     fill="#9f9f9f"
     stroke="#9f9f9f"
     fill-opacity="0.5"
     stroke-opacity="0.5"
     fill-rule="nonzero"
     stroke-width="0.209589"
     stroke-linejoin="miter"
     stroke-linecap="round"
     d="m 616.88,185.9 c 2.24,-1.03 4.91,-0.02 5.97,2.26 1.06,2.29 0.11,4.98 -2.12,6.02 -2.24,1.04 -4.91,0.03 -5.97,-2.26 -1.07,-2.28 -0.11,-4.98 2.12,-6.02 z"
     id="path724" /><path
     fill="#9f9f9f"
     stroke="#9f9f9f"
     fill-opacity="0.5"
     stroke-opacity="0.5"
     fill-rule="nonzero"
     stroke-width="0.209589"
     stroke-linejoin="miter"
     stroke-linecap="round"
     d="m 628.14,190.17 c 2.24,-1.04 4.91,-0.03 5.97,2.26 1.07,2.28 0.11,4.98 -2.12,6.01 -2.24,1.04 -4.91,0.03 -5.97,-2.26 -1.06,-2.28 -0.11,-4.98 2.12,-6.01 z"
     id="path726" /><path
     fill="#9f9f9f"
     stroke="#9f9f9f"
     fill-opacity="0.5"
     stroke-opacity="0.5"
     fill-rule="nonzero"
     stroke-width="0.209589"
     stroke-linejoin="miter"
     stroke-linecap="round"
     d="m 535.6,176.59 c 2.23,-1.03 4.9,-0.02 5.96,2.26 1.07,2.29 0.11,4.98 -2.12,6.02 -2.24,1.04 -4.91,0.03 -5.97,-2.26 -1.06,-2.28 -0.11,-4.98 2.13,-6.02 z"
     id="path728" /><path
     fill="#9f9f9f"
     stroke="#9f9f9f"
     fill-opacity="0.5"
     stroke-opacity="0.5"
     fill-rule="nonzero"
     stroke-width="0.209589"
     stroke-linejoin="miter"
     stroke-linecap="round"
     d="m 547.99,181.28 c 2.24,-1.03 4.91,-0.02 5.97,2.26 1.06,2.29 0.11,4.98 -2.13,6.02 -2.23,1.04 -4.91,0.03 -5.97,-2.26 -1.06,-2.28 -0.11,-4.98 2.13,-6.02 z"
     id="path730" /><path
     fill="#9f9f9f"
     stroke="#9f9f9f"
     fill-opacity="0.5"
     stroke-opacity="0.5"
     fill-rule="nonzero"
     stroke-width="0.209589"
     stroke-linejoin="miter"
     stroke-linecap="round"
     d="m 560.39,185.98 c 2.23,-1.04 4.9,-0.03 5.97,2.26 1.06,2.28 0.1,4.97 -2.13,6.01 -2.24,1.04 -4.91,0.03 -5.97,-2.26 -1.06,-2.28 -0.11,-4.98 2.13,-6.01 z"
     id="path732" /><path
     fill="#9f9f9f"
     stroke="#9f9f9f"
     fill-opacity="0.5"
     stroke-opacity="0.5"
     fill-rule="nonzero"
     stroke-width="0.209589"
     stroke-linejoin="miter"
     stroke-linecap="round"
     d="m 572.78,190.67 c 2.24,-1.04 4.91,-0.03 5.97,2.26 1.06,2.28 0.11,4.98 -2.13,6.01 -2.23,1.04 -4.91,0.03 -5.97,-2.26 -1.06,-2.28 -0.11,-4.98 2.13,-6.01 z"
     id="path734" /><path
     fill="#9f9f9f"
     stroke="#9f9f9f"
     fill-opacity="0.5"
     stroke-opacity="0.5"
     fill-rule="nonzero"
     stroke-width="0.209589"
     stroke-linejoin="miter"
     stroke-linecap="round"
     d="m 585.18,195.36 c 2.23,-1.04 4.9,-0.03 5.97,2.26 1.06,2.28 0.1,4.98 -2.13,6.01 -2.24,1.04 -4.91,0.03 -5.97,-2.25 -1.06,-2.29 -0.11,-4.98 2.13,-6.02 z"
     id="path736" /><path
     fill="#9f9f9f"
     stroke="#9f9f9f"
     fill-opacity="0.5"
     stroke-opacity="0.5"
     fill-rule="nonzero"
     stroke-width="0.209589"
     stroke-linejoin="miter"
     stroke-linecap="round"
     d="m 597.68,200.09 c 2.24,-1.04 4.91,-0.02 5.97,2.26 1.06,2.29 0.11,4.98 -2.12,6.02 -2.24,1.04 -4.91,0.03 -5.97,-2.26 -1.07,-2.29 -0.11,-4.98 2.12,-6.02 z"
     id="path738" /><path
     fill="#9f9f9f"
     stroke="#9f9f9f"
     fill-opacity="0.5"
     stroke-opacity="0.5"
     fill-rule="nonzero"
     stroke-width="0.209589"
     stroke-linejoin="miter"
     stroke-linecap="round"
     d="m 610.19,204.83 c 2.24,-1.04 4.91,-0.03 5.97,2.25 1.06,2.29 0.11,4.98 -2.13,6.02 -2.23,1.04 -4.91,0.03 -5.97,-2.26 -1.06,-2.28 -0.1,-4.98 2.13,-6.01 z"
     id="path740" /><path
     fill="#9f9f9f"
     stroke="#9f9f9f"
     fill-opacity="0.5"
     stroke-opacity="0.5"
     fill-rule="nonzero"
     stroke-width="0.209589"
     stroke-linejoin="miter"
     stroke-linecap="round"
     d="m 621.45,209.09 c 2.24,-1.04 4.91,-0.03 5.97,2.26 1.06,2.28 0.11,4.98 -2.13,6.01 -2.23,1.04 -4.9,0.03 -5.96,-2.25 -1.07,-2.29 -0.11,-4.98 2.12,-6.02 z"
     id="path742" /><path
     fill="#9f9f9f"
     stroke="#9f9f9f"
     fill-opacity="0.5"
     stroke-opacity="0.5"
     fill-rule="nonzero"
     stroke-width="0.209589"
     stroke-linejoin="miter"
     stroke-linecap="round"
     d="m 528.9,195.52 c 2.24,-1.04 4.91,-0.03 5.97,2.25 1.06,2.29 0.11,4.98 -2.12,6.02 -2.24,1.04 -4.91,0.03 -5.97,-2.26 -1.06,-2.28 -0.11,-4.98 2.12,-6.01 z"
     id="path744" /><path
     fill="#9f9f9f"
     stroke="#9f9f9f"
     fill-opacity="0.5"
     stroke-opacity="0.5"
     fill-rule="nonzero"
     stroke-width="0.209589"
     stroke-linejoin="miter"
     stroke-linecap="round"
     d="m 541.3,200.21 c 2.24,-1.04 4.91,-0.03 5.97,2.26 1.06,2.28 0.11,4.97 -2.13,6.01 -2.24,1.04 -4.91,0.03 -5.97,-2.26 -1.06,-2.28 -0.11,-4.98 2.13,-6.01 z"
     id="path746" /><path
     fill="#9f9f9f"
     stroke="#9f9f9f"
     fill-opacity="0.5"
     stroke-opacity="0.5"
     fill-rule="nonzero"
     stroke-width="0.209589"
     stroke-linejoin="miter"
     stroke-linecap="round"
     d="m 553.69,204.9 c 2.24,-1.04 4.91,-0.03 5.97,2.26 1.06,2.28 0.11,4.98 -2.12,6.01 -2.24,1.04 -4.91,0.03 -5.97,-2.26 -1.06,-2.28 -0.11,-4.97 2.12,-6.01 z"
     id="path748" /><path
     fill="#9f9f9f"
     stroke="#9f9f9f"
     fill-opacity="0.5"
     stroke-opacity="0.5"
     fill-rule="nonzero"
     stroke-width="0.209589"
     stroke-linejoin="miter"
     stroke-linecap="round"
     d="m 566.09,209.59 c 2.24,-1.04 4.91,-0.03 5.97,2.26 1.06,2.28 0.11,4.98 -2.13,6.01 -2.24,1.04 -4.91,0.03 -5.97,-2.25 -1.06,-2.29 -0.11,-4.98 2.13,-6.02 z"
     id="path750" /><path
     fill="#9f9f9f"
     stroke="#9f9f9f"
     fill-opacity="0.5"
     stroke-opacity="0.5"
     fill-rule="nonzero"
     stroke-width="0.209589"
     stroke-linejoin="miter"
     stroke-linecap="round"
     d="m 578.48,214.28 c 2.24,-1.04 4.91,-0.03 5.97,2.26 1.06,2.28 0.11,4.98 -2.12,6.02 -2.24,1.03 -4.91,0.02 -5.97,-2.26 -1.06,-2.29 -0.11,-4.98 2.12,-6.02 z"
     id="path752" /><path
     fill="#9f9f9f"
     stroke="#9f9f9f"
     fill-opacity="0.5"
     stroke-opacity="0.5"
     fill-rule="nonzero"
     stroke-width="0.209589"
     stroke-linejoin="miter"
     stroke-linecap="round"
     d="m 590.99,219.01 c 2.24,-1.03 4.91,-0.02 5.97,2.26 1.06,2.29 0.11,4.98 -2.13,6.02 -2.23,1.04 -4.91,0.03 -5.97,-2.26 -1.06,-2.28 -0.1,-4.98 2.13,-6.02 z"
     id="path754" /><path
     fill="#9f9f9f"
     stroke="#9f9f9f"
     fill-opacity="0.5"
     stroke-opacity="0.5"
     fill-rule="nonzero"
     stroke-width="0.209589"
     stroke-linejoin="miter"
     stroke-linecap="round"
     d="m 603.5,223.75 c 2.24,-1.04 4.91,-0.03 5.97,2.26 1.06,2.28 0.11,4.98 -2.13,6.01 -2.23,1.04 -4.91,0.03 -5.97,-2.26 -1.06,-2.28 -0.11,-4.98 2.13,-6.01 z"
     id="path756" /><path
     fill="#9f9f9f"
     stroke="#9f9f9f"
     fill-opacity="0.5"
     stroke-opacity="0.5"
     fill-rule="nonzero"
     stroke-width="0.209589"
     stroke-linejoin="miter"
     stroke-linecap="round"
     d="m 614.76,228.01 c 2.24,-1.04 4.91,-0.03 5.97,2.26 1.06,2.28 0.11,4.98 -2.13,6.02 -2.23,1.03 -4.91,0.02 -5.97,-2.26 -1.06,-2.29 -0.1,-4.98 2.13,-6.02 z"
     id="path758" /><path
     fill="#ffffff"
     stroke="#9f9f9f"
     fill-opacity="0"
     stroke-opacity="0.5"
     fill-rule="nonzero"
     stroke-width="3.30336"
     stroke-linejoin="miter"
     stroke-linecap="round"
     d="m 1130.0291,779.20225 -24.1599,-28.31149 a 6.2,6.2 0 0 1 0.6839,-8.74817 l 28.8713,-24.64007 a 6.2,6.2 0 0 1 8.7482,0.68394 l 24.1699,28.31301 a 6.2,6.2 0 0 1 -0.6939,8.74665 l -28.8713,24.64007 a 6.2,6.2 0 0 1 -8.7482,-0.68394 z"
     id="path760" /><path
     fill="#ffffff"
     stroke="#9f9f9f"
     fill-opacity="0"
     stroke-opacity="0.5"
     fill-rule="nonzero"
     stroke-width="3.30336"
     stroke-linejoin="miter"
     stroke-linecap="round"
     d="m 1096.9161,710.47558 -24.1615,-28.30163 a 6.2,6.2 0 0 1 0.6939,-8.74662 l 28.8713,-24.64007 a 6.2,6.2 0 0 1 8.7383,0.68241 l 24.1698,28.31303 a 6.2,6.2 0 0 1 -0.6938,8.74663 l -28.8713,24.64007 a 6.2,6.2 0 0 1 -8.7467,-0.69382 z"
     id="path764" /><path
     fill="#9f9f9f"
     stroke="#9f9f9f"
     fill-opacity="0.5"
     stroke-opacity="0.5"
     fill-rule="nonzero"
     stroke-width="0.0270935"
     stroke-linejoin="miter"
     stroke-linecap="round"
     d="m 882.9,440.01 c 2.41,-0.22 4.53,1.59 4.75,4.03 0.22,2.43 -1.55,4.59 -3.96,4.8 -2.4,0.22 -4.52,-1.59 -4.74,-4.03 -0.22,-2.44 1.55,-4.59 3.95,-4.8 z"
     id="path766" /><path
     fill="#9f9f9f"
     stroke="#9f9f9f"
     fill-opacity="0.5"
     stroke-opacity="0.5"
     fill-rule="nonzero"
     stroke-width="0.0270935"
     stroke-linejoin="miter"
     stroke-linecap="round"
     d="m 890.06,446.08 c 2.4,-0.21 4.52,1.59 4.74,4.03 0.22,2.44 -1.55,4.59 -3.95,4.81 -2.41,0.21 -4.53,-1.59 -4.75,-4.03 -0.22,-2.44 1.55,-4.59 3.96,-4.81 z"
     id="path768" /><path
     fill="#9f9f9f"
     stroke="#9f9f9f"
     fill-opacity="0.5"
     stroke-opacity="0.5"
     fill-rule="nonzero"
     stroke-width="0.0270935"
     stroke-linejoin="miter"
     stroke-linecap="round"
     d="m 897.21,452.16 c 2.4,-0.22 4.52,1.58 4.74,4.02 0.22,2.44 -1.55,4.6 -3.95,4.81 -2.4,0.22 -4.53,-1.59 -4.75,-4.03 -0.21,-2.44 1.56,-4.59 3.96,-4.8 z"
     id="path770" /><path
     fill="#9f9f9f"
     stroke="#9f9f9f"
     fill-opacity="0.5"
     stroke-opacity="0.5"
     fill-rule="nonzero"
     stroke-width="0.0270935"
     stroke-linejoin="miter"
     stroke-linecap="round"
     d="m 904.36,458.23 c 2.4,-0.21 4.52,1.59 4.74,4.03 0.22,2.44 -1.55,4.59 -3.95,4.8 -2.4,0.22 -4.53,-1.58 -4.74,-4.02 -0.22,-2.44 1.55,-4.6 3.95,-4.81 z"
     id="path772" /><path
     fill="#9f9f9f"
     stroke="#9f9f9f"
     fill-opacity="0.5"
     stroke-opacity="0.5"
     fill-rule="nonzero"
     stroke-width="0.0270935"
     stroke-linejoin="miter"
     stroke-linecap="round"
     d="m 911.51,464.3 c 2.4,-0.21 4.52,1.59 4.74,4.03 0.22,2.44 -1.55,4.59 -3.95,4.81 -2.4,0.21 -4.52,-1.59 -4.74,-4.03 -0.22,-2.44 1.55,-4.59 3.95,-4.81 z"
     id="path774" /><path
     fill="#9e9e9e"
     stroke="#9e9e9e"
     fill-opacity="0"
     stroke-opacity="0.5"
     fill-rule="nonzero"
     stroke-width="4.08176"
     stroke-linejoin="miter"
     stroke-linecap="round"
     d="m 116.38,616.42 c 0.18,12.28 -9.85,22.4 -22.41,22.58 -12.56,0.19 -22.89,-9.62 -23.07,-21.9 -0.18,-12.29 9.85,-22.4 22.41,-22.59 12.56,-0.19 22.89,9.62 23.07,21.91 z"
     id="path776" /><path
     fill="#9e9e9e"
     stroke="#9e9e9e"
     fill-opacity="0"
     stroke-opacity="0.5"
     fill-rule="nonzero"
     stroke-width="4.03683"
     stroke-linejoin="miter"
     stroke-linecap="round"
     d="m 807.5402,991.66594 c -11.31,6.94 -26.1,3.41 -33.04,-7.9 -6.95,-11.3 -3.41,-26.09 7.89,-33.03 11.31,-6.95 26.1,-3.41 33.04,7.89 6.94,11.31 3.41,26.1 -7.89,33.04 z"
     id="path778" /><path
     fill="#9e9e9e"
     stroke="#9e9e9e"
     fill-opacity="0"
     stroke-opacity="0.5"
     fill-rule="nonzero"
     stroke-width="4.03683"
     stroke-linejoin="miter"
     stroke-linecap="round"
     d="m 801.6602,1014.9959 c -11.31,6.94 -26.1,3.4 -33.04,-7.9 -6.94,-11.30996 -3.41,-26.09996 7.9,-33.03996 11.3,-6.94 26.09,-3.41 33.03,7.9 6.95,11.3 3.41,26.08996 -7.89,33.03996 z"
     id="path780" /><path
     fill="#9e9e9e"
     stroke="#9e9e9e"
     fill-opacity="0"
     stroke-opacity="0.5"
     fill-rule="nonzero"
     stroke-width="4.03683"
     stroke-linejoin="miter"
     stroke-linecap="round"
     d="m 783.8402,998.98594 c -11.3,6.93996 -26.09,3.40996 -33.03,-7.9 -6.95,-11.3 -3.41,-26.09 7.89,-33.03 11.31,-6.95 26.1,-3.41 33.04,7.89 6.94,11.31 3.41,26.1 -7.9,33.04 z"
     id="path782" /><path
     fill="#9e9e9e"
     stroke="#9e9e9e"
     fill-opacity="0"
     stroke-opacity="0.5"
     fill-rule="nonzero"
     stroke-width="3.44148"
     stroke-linejoin="miter"
     stroke-linecap="round"
     d="m 728.02,1866.95 42.55,61 -61,42.55 -42.55,-61 z m 6.02,41.14 c -5.87,-8.42 -17.46,-10.49 -25.88,-4.61 -8.43,5.87 -10.49,17.46 -4.62,25.88 5.88,8.43 17.47,10.49 25.89,4.62 8.42,-5.88 10.49,-17.47 4.61,-25.89 z"
     id="path788" /><path
     fill="#9e9e9e"
     stroke="#9e9e9e"
     fill-opacity="0"
     stroke-opacity="0.5"
     fill-rule="nonzero"
     stroke-width="3.44148"
     stroke-linejoin="miter"
     stroke-linecap="round"
     d="m 697.34,1888.35 42.76,60.86"
     id="path790" /></g>
	<path
   fill="#d5dbf4"
   stroke="#9E9E9E"
   fill-opacity="1.000"
   stroke-opacity="0.000"
   fill-rule="nonzero"
   stroke-width="3.441485"
   filter="url(#glow1)"
   stroke-linejoin="miter"
   stroke-linecap="round"
   d="M0.00,1569.84L0.00,-0.00L1170.00,-0.00L1170.00,607.68"
   id="path75" />
<g
   id="g595"
   transform="translate(7.9531406,-99.180711)"
   clip-path="url(#clipPath678)"
   style="display:inline"><path
     fill="#9f9f9f"
     stroke="#9f9f9f"
     fill-opacity="0.5"
     stroke-opacity="0.5"
     fill-rule="nonzero"
     stroke-width="0.174765"
     stroke-linejoin="miter"
     stroke-linecap="round"
     d="m 157.49,1795.08 c 0.19,-2.28 2.17,-3.97 4.43,-3.78 2.26,0.19 3.93,2.19 3.74,4.47 -0.19,2.27 -2.18,3.97 -4.43,3.78 -2.26,-0.19 -3.93,-2.19 -3.74,-4.47 z"
     id="path424" /><path
     fill="#000000"
     stroke="#9f9f9f"
     fill-opacity="0"
     stroke-opacity="0.5"
     fill-rule="nonzero"
     stroke-width="3.49882"
     stroke-linejoin="miter"
     stroke-linecap="round"
     d="m 185.82,1855.81 -26.38,-31.54 30.67,-26.16 -26.4,-31.54 30.67,-26.16"
     id="path426" /><path
     fill="#000000"
     stroke="#9f9f9f"
     fill-opacity="0"
     stroke-opacity="0.5"
     fill-rule="nonzero"
     stroke-width="3.49882"
     stroke-linejoin="miter"
     stroke-linecap="round"
     d="m 150.88,1939.67 -26.38,-31.53 30.65,-26.17 -26.38,-31.53 30.67,-26.17 -26.39,-31.54 30.66,-26.16 -26.39,-31.53 30.67,-26.17"
     id="path428" /><path
     fill="#000000"
     stroke="#9f9f9f"
     fill-opacity="0"
     stroke-opacity="0.5"
     fill-rule="nonzero"
     stroke-width="3.77659"
     stroke-linejoin="miter"
     stroke-linecap="round"
     d="m 1027.7154,306.77205 a 28.18,28.81 6.3376117 1 1 -56.00576,-6.24277 27.57,28.18 6.3376117 1 0 -2.6488,-7.80614"
     id="path430" /><path
     fill="#000000"
     stroke="#9f9f9f"
     fill-opacity="0"
     stroke-opacity="0.5"
     fill-rule="nonzero"
     stroke-width="3.77659"
     stroke-linejoin="miter"
     stroke-linecap="round"
     d="m 1063.2798,359.01724 a 27.99,28.61 41.347612 1 1 -42.3971,-36.54981 27.99,28.61 41.347612 1 0 -42.39725,-36.5498 27.99,28.61 41.347612 1 1 -42.39476,-36.54008 27.99,28.61 41.347612 1 0 -42.39713,-36.54981"
     id="path432" /><path
     fill="#000000"
     stroke="#9f9f9f"
     fill-opacity="0"
     stroke-opacity="0.5"
     fill-rule="nonzero"
     stroke-width="4.08176"
     stroke-linejoin="miter"
     stroke-linecap="round"
     d="m 229.34,2332.15 23.15,-31.77 31.53,22.99 -23.16,31.76 z"
     id="path434" /><path
     fill="#000000"
     stroke="#9f9f9f"
     fill-opacity="0"
     stroke-opacity="0.5"
     fill-rule="nonzero"
     stroke-width="4.08176"
     stroke-linejoin="miter"
     stroke-linecap="round"
     d="m 228.53,2291.1 18.98,-26.03 25.45,18.54 -18.98,26.04 z"
     id="path436" /><path
     fill="#000000"
     stroke="#9f9f9f"
     fill-opacity="0"
     stroke-opacity="0.5"
     fill-rule="nonzero"
     stroke-width="4.08176"
     stroke-linejoin="miter"
     stroke-linecap="round"
     d="m 307.33,2307.34 -35.18,17.18 27.01,22.77 z"
     id="path438" /><path
     fill="#000000"
     stroke="#9f9f9f"
     fill-opacity="0"
     stroke-opacity="0.5"
     fill-rule="nonzero"
     stroke-width="4.08176"
     stroke-linejoin="miter"
     stroke-linecap="round"
     d="m 1095.2325,746.85957 -14.56,48.88 -33.87,-29.6 z"
     id="path440" /><path
     fill="#000000"
     stroke="#9f9f9f"
     fill-opacity="0"
     stroke-opacity="0.5"
     fill-rule="nonzero"
     stroke-width="4.03683"
     stroke-linejoin="miter"
     stroke-linecap="round"
     d="m 680.70637,831.22503 54.49811,-13.84973 13.71705,53.98352 -54.4981,13.84973 z"
     id="path442" /><path
     fill="#000000"
     stroke="#9f9f9f"
     fill-opacity="0"
     stroke-opacity="0.5"
     fill-rule="nonzero"
     stroke-width="4.03683"
     stroke-linejoin="miter"
     stroke-linecap="round"
     d="m 646.55322,832.48924 44.66807,-11.35331 11.07071,43.57805 -44.6598,11.34768 z"
     id="path444" /><path
     fill="#000000"
     stroke="#9f9f9f"
     fill-opacity="0"
     stroke-opacity="0.5"
     fill-rule="nonzero"
     stroke-width="4.08176"
     stroke-linejoin="miter"
     stroke-linecap="round"
     d="m 1068.0825,785.12957 c -10.72,12.01 -28.94,13.25 -40.69,2.76 -11.75,-10.49 -12.58,-28.73 -1.86,-40.74 10.72,-12.01 28.93,-13.24 40.68,-2.75 11.75,10.48 12.58,28.72 1.87,40.73 z"
     id="path446" /><path
     fill="#9f9f9f"
     stroke="#9f9f9f"
     fill-opacity="0.5"
     stroke-opacity="0.5"
     fill-rule="nonzero"
     stroke-width="0.209589"
     stroke-linejoin="miter"
     stroke-linecap="round"
     d="m 114.69287,1086.2366 c -2.19,-1.13 -3.03,-3.86 -1.88,-6.1 1.15,-2.24 3.86,-3.15 6.05,-2.02 2.2,1.13 3.04,3.86 1.89,6.1 -1.16,2.24 -3.87,3.14 -6.06,2.02 z"
     id="path454" /><path
     fill="#9f9f9f"
     stroke="#9f9f9f"
     fill-opacity="0.5"
     stroke-opacity="0.5"
     fill-rule="nonzero"
     stroke-width="0.209589"
     stroke-linejoin="miter"
     stroke-linecap="round"
     d="m 110.78287,1073.5666 c -2.19,-1.13 -3.03,-3.86 -1.88,-6.1 1.15,-2.24 3.86,-3.14 6.06,-2.01 2.19,1.13 3.03,3.86 1.88,6.1 -1.15,2.24 -3.87,3.14 -6.06,2.01 z"
     id="path456" /><path
     fill="#9f9f9f"
     stroke="#9f9f9f"
     fill-opacity="0.5"
     stroke-opacity="0.5"
     fill-rule="nonzero"
     stroke-width="0.209589"
     stroke-linejoin="miter"
     stroke-linecap="round"
     d="m 106.87287,1060.9066 c -2.19,-1.13 -3.03,-3.86 -1.88,-6.1 1.15,-2.24 3.86,-3.14 6.06,-2.02 2.19,1.13 3.03,3.86 1.88,6.1 -1.15,2.24 -3.86,3.15 -6.06,2.02 z"
     id="path458" /><path
     fill="#9f9f9f"
     stroke="#9f9f9f"
     fill-opacity="0.5"
     stroke-opacity="0.5"
     fill-rule="nonzero"
     stroke-width="0.209589"
     stroke-linejoin="miter"
     stroke-linecap="round"
     d="m 102.96287,1048.2466 c -2.19,-1.13 -3.029999,-3.86 -1.88,-6.1 1.15,-2.24 3.87,-3.15 6.06,-2.02 2.19,1.13 3.03,3.86 1.88,6.1 -1.15,2.24 -3.86,3.14 -6.06,2.02 z"
     id="path460" /><path
     fill="#9f9f9f"
     stroke="#9f9f9f"
     fill-opacity="0.5"
     stroke-opacity="0.5"
     fill-rule="nonzero"
     stroke-width="0.209589"
     stroke-linejoin="miter"
     stroke-linecap="round"
     d="m 99.062871,1035.5766 c -2.2,-1.13 -3.04,-3.86 -1.89,-6.1 1.16,-2.24 3.869999,-3.14 6.059999,-2.01 2.19,1.13 3.03,3.86 1.88,6.1 -1.15,2.24 -3.86,3.14 -6.049999,2.01 z"
     id="path462" /><path
     fill="#9f9f9f"
     stroke="#9f9f9f"
     fill-opacity="0.5"
     stroke-opacity="0.5"
     fill-rule="nonzero"
     stroke-width="0.209589"
     stroke-linejoin="miter"
     stroke-linecap="round"
     d="m 95.112871,1022.7966 c -2.19,-1.12 -3.03,-3.85 -1.88,-6.1 1.15,-2.24 3.86,-3.14 6.05,-2.01 2.199999,1.13 3.039999,3.86 1.889999,6.1 -1.16,2.24 -3.869999,3.14 -6.059999,2.01 z"
     id="path464" /><path
     fill="#9f9f9f"
     stroke="#9f9f9f"
     fill-opacity="0.5"
     stroke-opacity="0.5"
     fill-rule="nonzero"
     stroke-width="0.209589"
     stroke-linejoin="miter"
     stroke-linecap="round"
     d="m 91.172871,1010.0166 c -2.2,-1.12 -3.04,-3.85 -1.89,-6.09 1.16,-2.25 3.87,-3.15 6.06,-2.02 2.19,1.13 3.03,3.86 1.88,6.1 -1.15,2.24 -3.86,3.14 -6.05,2.01 z"
     id="path466" /><path
     fill="#9f9f9f"
     stroke="#9f9f9f"
     fill-opacity="0.5"
     stroke-opacity="0.5"
     fill-rule="nonzero"
     stroke-width="0.209589"
     stroke-linejoin="miter"
     stroke-linecap="round"
     d="m 87.612871,998.51663 c -2.19,-1.13 -3.03,-3.86 -1.88,-6.1 1.15,-2.24 3.87,-3.14 6.06,-2.02 2.19,1.13 3.03,3.86 1.88,6.1 -1.15,2.24 -3.86,3.15 -6.06,2.02 z"
     id="path468" /><path
     fill="#9f9f9f"
     stroke="#9f9f9f"
     fill-opacity="0.5"
     stroke-opacity="0.5"
     fill-rule="nonzero"
     stroke-width="0.209589"
     stroke-linejoin="miter"
     stroke-linecap="round"
     d="m 133.73287,1079.8966 c -2.19,-1.13 -3.03,-3.86 -1.88,-6.1 1.15,-2.24 3.87,-3.14 6.06,-2.02 2.19,1.13 3.03,3.86 1.88,6.1 -1.15,2.24 -3.86,3.15 -6.06,2.02 z"
     id="path470" /><path
     fill="#9f9f9f"
     stroke="#9f9f9f"
     fill-opacity="0.5"
     stroke-opacity="0.5"
     fill-rule="nonzero"
     stroke-width="0.209589"
     stroke-linejoin="miter"
     stroke-linecap="round"
     d="m 129.82287,1067.2266 c -2.19,-1.12 -3.03,-3.85 -1.88,-6.09 1.15,-2.24 3.87,-3.15 6.06,-2.02 2.19,1.13 3.03,3.86 1.88,6.1 -1.15,2.24 -3.86,3.14 -6.06,2.01 z"
     id="path472" /><path
     fill="#9f9f9f"
     stroke="#9f9f9f"
     fill-opacity="0.5"
     stroke-opacity="0.5"
     fill-rule="nonzero"
     stroke-width="0.209589"
     stroke-linejoin="miter"
     stroke-linecap="round"
     d="m 125.92287,1054.5666 c -2.2,-1.13 -3.04,-3.86 -1.89,-6.1 1.16,-2.24 3.87,-3.14 6.06,-2.01 2.19,1.12 3.03,3.85 1.88,6.1 -1.15,2.24 -3.86,3.14 -6.05,2.01 z"
     id="path474" /><path
     fill="#9f9f9f"
     stroke="#9f9f9f"
     fill-opacity="0.5"
     stroke-opacity="0.5"
     fill-rule="nonzero"
     stroke-width="0.209589"
     stroke-linejoin="miter"
     stroke-linecap="round"
     d="m 122.01287,1041.9066 c -2.2,-1.13 -3.04,-3.86 -1.89,-6.1 1.16,-2.24 3.87,-3.14 6.06,-2.02 2.19,1.13 3.04,3.86 1.88,6.1 -1.15,2.24 -3.86,3.15 -6.05,2.02 z"
     id="path476" /><path
     fill="#9f9f9f"
     stroke="#9f9f9f"
     fill-opacity="0.5"
     stroke-opacity="0.5"
     fill-rule="nonzero"
     stroke-width="0.209589"
     stroke-linejoin="miter"
     stroke-linecap="round"
     d="m 118.10287,1029.2366 c -2.19,-1.12 -3.04,-3.85 -1.89,-6.09 1.16,-2.25 3.87,-3.15 6.06,-2.02 2.19,1.13 3.04,3.86 1.88,6.1 -1.15,2.24 -3.86,3.14 -6.05,2.01 z"
     id="path478" /><path
     fill="#9f9f9f"
     stroke="#9f9f9f"
     fill-opacity="0.5"
     stroke-opacity="0.5"
     fill-rule="nonzero"
     stroke-width="0.209589"
     stroke-linejoin="miter"
     stroke-linecap="round"
     d="m 114.15287,1016.4666 c -2.19,-1.13 -3.03,-3.86 -1.88,-6.1 1.15,-2.24 3.86,-3.15 6.06,-2.02 2.19,1.13 3.03,3.86 1.88,6.1 -1.15,2.24 -3.86,3.14 -6.06,2.02 z"
     id="path480" /><path
     fill="#9f9f9f"
     stroke="#9f9f9f"
     fill-opacity="0.5"
     stroke-opacity="0.5"
     fill-rule="nonzero"
     stroke-width="0.209589"
     stroke-linejoin="miter"
     stroke-linecap="round"
     d="m 110.21287,1003.6866 c -2.19,-1.13 -3.04,-3.85997 -1.88,-6.09997 1.15,-2.24 3.86,-3.15 6.05,-2.02 2.19,1.13 3.04,3.86 1.88,6.09997 -1.15,2.24 -3.86,3.14 -6.05,2.02 z"
     id="path482" /><path
     fill="#9f9f9f"
     stroke="#9f9f9f"
     fill-opacity="0.5"
     stroke-opacity="0.5"
     fill-rule="nonzero"
     stroke-width="0.209589"
     stroke-linejoin="miter"
     stroke-linecap="round"
     d="m 106.66287,992.17663 c -2.2,-1.13 -3.04,-3.86 -1.89,-6.1 1.16,-2.24 3.87,-3.14 6.06,-2.01 2.19,1.12 3.04,3.85 1.88,6.1 -1.15,2.24 -3.86,3.14 -6.05,2.01 z"
     id="path484" /><path
     fill="#9f9f9f"
     stroke="#9f9f9f"
     fill-opacity="0.5"
     stroke-opacity="0.5"
     fill-rule="nonzero"
     stroke-width="0.209589"
     stroke-linejoin="miter"
     stroke-linecap="round"
     d="m 152.78287,1073.5566 c -2.2,-1.13 -3.04,-3.86 -1.89,-6.1 1.16,-2.24 3.87,-3.14 6.06,-2.01 2.19,1.12 3.04,3.85 1.88,6.09 -1.15,2.25 -3.86,3.15 -6.05,2.02 z"
     id="path486" /><path
     fill="#9f9f9f"
     stroke="#9f9f9f"
     fill-opacity="0.5"
     stroke-opacity="0.5"
     fill-rule="nonzero"
     stroke-width="0.209589"
     stroke-linejoin="miter"
     stroke-linecap="round"
     d="m 148.87287,1060.8966 c -2.19,-1.13 -3.04,-3.86 -1.88,-6.1 1.15,-2.24 3.86,-3.14 6.05,-2.02 2.19,1.13 3.04,3.86 1.88,6.1 -1.15,2.24 -3.86,3.14 -6.05,2.02 z"
     id="path488" /><path
     fill="#9f9f9f"
     stroke="#9f9f9f"
     fill-opacity="0.5"
     stroke-opacity="0.5"
     fill-rule="nonzero"
     stroke-width="0.209589"
     stroke-linejoin="miter"
     stroke-linecap="round"
     d="m 144.96287,1048.2266 c -2.19,-1.12 -3.04,-3.85 -1.88,-6.1 1.15,-2.24 3.86,-3.14 6.05,-2.01 2.19,1.13 3.04,3.86 1.88,6.1 -1.15,2.24 -3.86,3.14 -6.05,2.01 z"
     id="path490" /><path
     fill="#9f9f9f"
     stroke="#9f9f9f"
     fill-opacity="0.5"
     stroke-opacity="0.5"
     fill-rule="nonzero"
     stroke-width="0.209589"
     stroke-linejoin="miter"
     stroke-linecap="round"
     d="m 141.05287,1035.5666 c -2.19,-1.13 -3.04,-3.86 -1.88,-6.1 1.15,-2.24 3.86,-3.14 6.05,-2.01 2.2,1.12 3.04,3.85 1.89,6.09 -1.16,2.24 -3.87,3.15 -6.06,2.02 z"
     id="path492" /><path
     fill="#9f9f9f"
     stroke="#9f9f9f"
     fill-opacity="0.5"
     stroke-opacity="0.5"
     fill-rule="nonzero"
     stroke-width="0.209589"
     stroke-linejoin="miter"
     stroke-linecap="round"
     d="m 137.14287,1022.9066 c -2.19,-1.13 -3.03,-3.86 -1.88,-6.1 1.15,-2.24 3.86,-3.15 6.05,-2.02 2.2,1.13 3.04,3.86 1.89,6.1 -1.16,2.24 -3.87,3.14 -6.06,2.02 z"
     id="path494" /><path
     fill="#9f9f9f"
     stroke="#9f9f9f"
     fill-opacity="0.5"
     stroke-opacity="0.5"
     fill-rule="nonzero"
     stroke-width="0.209589"
     stroke-linejoin="miter"
     stroke-linecap="round"
     d="m 133.20287,1010.1266 c -2.2,-1.13 -3.04,-3.86 -1.89,-6.1 1.16,-2.24 3.87,-3.14 6.06,-2.02 2.19,1.13 3.03,3.86 1.88,6.1 -1.15,2.24 -3.86,3.15 -6.05,2.02 z"
     id="path496" /><path
     fill="#9f9f9f"
     stroke="#9f9f9f"
     fill-opacity="0.5"
     stroke-opacity="0.5"
     fill-rule="nonzero"
     stroke-width="0.209589"
     stroke-linejoin="miter"
     stroke-linecap="round"
     d="m 129.25287,997.34663 c -2.19,-1.13 -3.03,-3.86 -1.88,-6.1 1.15,-2.24 3.86,-3.14 6.05,-2.02 2.2,1.13 3.04,3.86 1.89,6.1 -1.16,2.24 -3.87,3.15 -6.06,2.02 z"
     id="path498" /><path
     fill="#9f9f9f"
     stroke="#9f9f9f"
     fill-opacity="0.5"
     stroke-opacity="0.5"
     fill-rule="nonzero"
     stroke-width="0.209589"
     stroke-linejoin="miter"
     stroke-linecap="round"
     d="m 125.70287,985.83663 c -2.19,-1.12 -3.04,-3.85 -1.88,-6.1 1.15,-2.24 3.86,-3.14 6.05,-2.01 2.2,1.13 3.04,3.86 1.89,6.1 -1.16,2.24 -3.87,3.14 -6.06,2.01 z"
     id="path500" /><path
     fill="#ffffff"
     stroke="#9f9f9f"
     fill-opacity="0"
     stroke-opacity="0.5"
     fill-rule="nonzero"
     stroke-width="3.30336"
     stroke-linejoin="miter"
     stroke-linecap="round"
     d="m 138.97753,279.41668 30.42767,-21.43682 a 6.2,6.2 0 0 1 8.64595,1.49415 l 21.85977,31.03463 a 6.2,6.2 0 0 1 -1.49415,8.64595 l -30.42766,21.43683 a 6.2,6.2 0 0 1 -8.64596,-1.49415 l -21.85977,-31.03464 a 6.2,6.2 0 0 1 1.49415,-8.64595 z"
     id="path502" /><path
     fill="#ffffff"
     stroke="#9f9f9f"
     fill-opacity="0"
     stroke-opacity="0.5"
     fill-rule="nonzero"
     stroke-width="3.10391"
     stroke-linejoin="miter"
     stroke-linecap="round"
     d="m 148.30431,250.17503 30.42766,-21.43682 a 6.2,6.2 0 0 1 8.63665,1.49783 l 21.85977,31.03463 a 6.2,6.2 0 0 1 -1.49414,8.64596 l -30.42767,21.43682 a 6.2,6.2 0 0 1 -8.64033,-1.50713 l -21.86907,-31.03095 a 6.2,6.2 0 0 1 1.50713,-8.64034 z"
     id="path504" /><path
     fill="#ffffff"
     stroke="#9f9f9f"
     fill-opacity="0"
     stroke-opacity="0.5"
     fill-rule="nonzero"
     stroke-width="3.30336"
     stroke-linejoin="miter"
     stroke-linecap="round"
     d="M 196.61633,258.20538 227.044,236.76856 a 6.2,6.2 0 0 1 8.64595,1.49415 l 21.85977,31.03463 a 6.2,6.2 0 0 1 -1.49415,8.64596 l -30.42766,21.43682 a 6.2,6.2 0 0 1 -8.64596,-1.49415 l -21.85977,-31.03464 a 6.2,6.2 0 0 1 1.49415,-8.64595 z"
     id="path506" /><path
     fill="#9f9f9f"
     stroke="#9f9f9f"
     fill-opacity="0.5"
     stroke-opacity="0.5"
     fill-rule="nonzero"
     stroke-width="0.0270935"
     stroke-linejoin="miter"
     stroke-linecap="round"
     d="m 167.87463,326.79882 c 0.38224,-2.37733 2.64275,-4.0029 5.06463,-3.61678 2.42188,0.38613 4.07168,2.62631 3.69873,4.99996 -0.37857,2.38662 -2.64275,4.0029 -5.06096,3.62607 -2.42188,-0.38613 -4.08097,-2.62262 -3.7024,-5.00925 z"
     id="path508" /><path
     fill="#9f9f9f"
     stroke="#9f9f9f"
     fill-opacity="0.5"
     stroke-opacity="0.5"
     fill-rule="nonzero"
     stroke-width="0.0270935"
     stroke-linejoin="miter"
     stroke-linecap="round"
     d="m 175.5144,321.34596 c 0.36926,-2.38294 2.64275,-4.0029 5.05533,-3.61309 2.4182,0.37683 4.0773,2.61332 3.69873,4.99995 -0.37857,2.38662 -2.64276,4.0029 -5.06464,3.61677 -2.4182,-0.37683 -4.07167,-2.6263 -3.68942,-5.00363 z"
     id="path510" /><path
     fill="#9f9f9f"
     stroke="#9f9f9f"
     fill-opacity="0.5"
     stroke-opacity="0.5"
     fill-rule="nonzero"
     stroke-width="0.0270935"
     stroke-linejoin="miter"
     stroke-linecap="round"
     d="m 183.14119,315.88749 c 0.38224,-2.37733 2.64643,-3.99361 5.06463,-3.61678 2.42188,0.38613 4.07167,2.6263 3.70241,5.00925 -0.38225,2.37733 -2.64644,3.99361 -5.06464,3.61678 -2.42188,-0.38613 -4.08097,-2.62263 -3.7024,-5.00925 z"
     id="path512" /><path
     fill="#9f9f9f"
     stroke="#9f9f9f"
     fill-opacity="0.5"
     stroke-opacity="0.5"
     fill-rule="nonzero"
     stroke-width="0.0270935"
     stroke-linejoin="miter"
     stroke-linecap="round"
     d="m 190.78095,310.43463 c 0.36927,-2.38295 2.64276,-4.00291 5.06464,-3.61678 2.4089,0.38051 4.07167,2.6263 3.68943,5.00363 -0.36927,2.38295 -2.64276,4.00291 -5.06464,3.61678 -2.4089,-0.38051 -4.07167,-2.6263 -3.68943,-5.00363 z"
     id="path514" /><path
     fill="#9f9f9f"
     stroke="#9f9f9f"
     fill-opacity="0.5"
     stroke-opacity="0.5"
     fill-rule="nonzero"
     stroke-width="0.0270935"
     stroke-linejoin="miter"
     stroke-linecap="round"
     d="m 198.40774,304.97615 c 0.38225,-2.37733 2.64644,-3.99361 5.06464,-3.61678 2.42188,0.38613 4.07167,2.62631 3.7024,5.00925 -0.38224,2.37733 -2.64643,3.99361 -5.06463,3.61678 -2.42188,-0.38613 -4.07168,-2.6263 -3.70241,-5.00925 z"
     id="path516" /><path
     fill="#9e9e9e"
     stroke="#9e9e9e"
     fill-opacity="0"
     stroke-opacity="0.5"
     fill-rule="nonzero"
     stroke-width="4.08176"
     stroke-linejoin="miter"
     stroke-linecap="round"
     d="m 167.3442,567.67164 c 0.18,12.28 -9.85,22.4 -22.41,22.58 -12.56,0.19 -22.89,-9.62 -23.07,-21.9 -0.18,-12.29 9.85,-22.4 22.41,-22.59 12.56,-0.19 22.89,9.62 23.07,21.91 z"
     id="path518" /><path
     fill="#9e9e9e"
     stroke="#9e9e9e"
     fill-opacity="0"
     stroke-opacity="0.5"
     fill-rule="nonzero"
     stroke-width="4.03683"
     stroke-linejoin="miter"
     stroke-linecap="round"
     d="m 683.52254,475.48421 c -11.31,6.94 -26.1,3.41 -33.04,-7.9 -6.94,-11.3 -3.41,-26.09 7.9,-33.03 11.3,-6.95 26.09,-3.41 33.04,7.89 6.94,11.31 3.4,26.1 -7.9,33.04 z"
     id="path520" /><path
     fill="#9e9e9e"
     stroke="#9e9e9e"
     fill-opacity="0"
     stroke-opacity="0.5"
     fill-rule="nonzero"
     stroke-width="4.03683"
     stroke-linejoin="miter"
     stroke-linecap="round"
     d="m 677.64254,498.81421 c -11.3,6.94 -26.1,3.4 -33.04,-7.9 -6.94,-11.31 -3.4,-26.1 7.9,-33.04 11.3,-6.94 26.1,-3.41 33.04,7.9 6.94,11.3 3.4,26.09 -7.9,33.04 z"
     id="path522" /><path
     fill="#9e9e9e"
     stroke="#9e9e9e"
     fill-opacity="0"
     stroke-opacity="0.5"
     fill-rule="nonzero"
     stroke-width="4.03683"
     stroke-linejoin="miter"
     stroke-linecap="round"
     d="m 659.83254,482.80421 c -11.31,6.94 -26.1,3.41 -33.04,-7.89 -6.94,-11.31 -3.41,-26.1 7.9,-33.04 11.3,-6.95 26.09,-3.41 33.03,7.89 6.95,11.31 3.41,26.1 -7.89,33.04 z"
     id="path524" /><path
     fill="#9e9e9e"
     stroke="#9e9e9e"
     fill-opacity="0"
     stroke-opacity="0.5"
     fill-rule="nonzero"
     stroke-width="4.03683"
     stroke-linejoin="miter"
     stroke-linecap="round"
     d="m 256.50672,1445.4633 -18.7589,-47.2783 a 8.1,8.1 0 0 1 4.53595,-10.5094 l 47.06207,-18.6806 a 8.1,8.1 0 0 1 10.51275,4.5453 l 18.75549,47.269 a 8.1,8.1 0 0 1 -4.53255,10.5187 l -47.06207,18.6807 a 8.1,8.1 0 0 1 -10.51274,-4.5454 z m 20.42129,-71.6686 c 4.36481,10.9801 16.80271,16.3498 27.77336,11.9884 10.98345,-4.3554 16.35316,-16.7933 11.99776,-27.7768 -4.36481,-10.98 -16.78991,-16.3437 -27.77336,-11.9883 -10.98345,4.3554 -16.35316,16.7933 -11.99776,27.7767 z"
     id="path526" /><path
     fill="#9e9e9e"
     stroke="#9e9e9e"
     fill-opacity="0.5"
     stroke-opacity="0.5"
     fill-rule="nonzero"
     stroke-width="0"
     stroke-linejoin="miter"
     stroke-linecap="round"
     d="m 288.52839,1378.3189 c -0.70266,-1.7663 0.15771,-3.7683 1.92743,-4.4616 1.76632,-0.7026 3.76831,0.1577 4.47097,1.9241 0.70265,1.7663 -0.16712,3.7717 -1.93344,4.4743 -1.76631,0.7027 -3.7717,-0.1671 -4.46496,-1.9368 z"
     id="path528" /><path
     fill="#9e9e9e"
     stroke="#9e9e9e"
     fill-opacity="0"
     stroke-opacity="0.5"
     fill-rule="nonzero"
     stroke-width="3.44149"
     stroke-linejoin="miter"
     stroke-linecap="round"
     d="m 390.12921,642.87643 42.55,61 -61,42.55 -42.55,-61 z m 6.02,41.14 c -5.87,-8.42 -17.46,-10.49 -25.88,-4.62 -8.43,5.88 -10.49,17.47 -4.62,25.89 5.88,8.43 17.47,10.49 25.89,4.62 8.42,-5.88 10.49,-17.47 4.61,-25.89 z"
     id="path530" /><path
     fill="#9e9e9e"
     stroke="#9e9e9e"
     fill-opacity="0"
     stroke-opacity="0.5"
     fill-rule="nonzero"
     stroke-width="3.44149"
     stroke-linejoin="miter"
     stroke-linecap="round"
     d="m 359.44921,664.27643 42.76,60.85"
     id="path532" /></g></svg>
