<?xml version="1.0" encoding="utf-8"?>
<svg
	version="1.1"
	xmlns="http://www.w3.org/2000/svg"
	xmlns:xlink="http://www.w3.org/1999/xlink"
	x="0%" y="0%"
	width="100%" height="100%"
	viewBox="0 0 1170.0 2532.0"
	enable-background="new 0 0 1170.0 2532.0"
	xml:space="preserve">
	<path
		fill="#9F9F9F"
		stroke="#9F9F9F"
		fill-opacity="0.5"
		stroke-opacity="0.5"
		fill-rule="nonzero"
		stroke-width="0.17476435"
		stroke-linejoin="miter"
		stroke-linecap="round"
		d="M925.11,2282.59C923.41,2284.12,920.81,2283.98,919.30,2282.30C917.79,2280.61,917.94,2278.00,919.64,2276.48C921.35,2274.96,923.95,2275.09,925.46,2276.78C926.97,2278.46,926.82,2281.07,925.11,2282.59z"/>
	<path
		fill="#000000"
		stroke="#9F9F9F"
		fill-opacity="0.000"
		stroke-opacity="0.5"
		fill-rule="nonzero"
		stroke-width="3.4988215"
		stroke-linejoin="miter"
		stroke-linecap="round"
		d="M946.22,2218.98L943.74,2260.03L903.48,2257.99L901.01,2299.04L860.75,2297.00"/>
	<path
		fill="#000000"
		stroke="#9F9F9F"
		fill-opacity="0.000"
		stroke-opacity="0.5"
		fill-rule="nonzero"
		stroke-width="3.4988215"
		stroke-linejoin="miter"
		stroke-linecap="round"
		d="M1029.20,2182.01L1026.73,2223.05L986.48,2221.03L984.01,2262.07L943.75,2260.03L941.27,2301.08L901.01,2299.04L898.54,2340.09L858.29,2338.05"/>
	<path
		fill="#000000"
		stroke="#9F9F9F"
		fill-opacity="0.000"
		stroke-opacity="0.5"
		fill-rule="nonzero"
		stroke-width="3.7765877"
		stroke-linejoin="miter"
		stroke-linecap="round"
		d="M223.39,221.80A28.18 28.81 343.37 1 0 169.40,237.95A27.57 28.18 343.37 1 1 168.19,246.12"/>
	<path
		fill="#000000"
		stroke="#9F9F9F"
		fill-opacity="0.000"
		stroke-opacity="0.5"
		fill-rule="nonzero"
		stroke-width="3.7765877"
		stroke-linejoin="miter"
		stroke-linecap="round"
		d="M249.04,164.04A27.99 28.61 128.35 1 0 213.86,207.58A27.99 28.61 128.35 1 1 178.68,251.12A27.99 28.61 128.35 1 0 143.50,294.66A27.99 28.61 128.35 1 1 108.32,338.20"/>
	<path
		fill="#000000"
		stroke="#9F9F9F"
		fill-opacity="0"
		stroke-opacity="0.5"
		fill-rule="nonzero"
		stroke-width="4.0817614"
		stroke-linejoin="miter"
		stroke-linecap="round"
		d="M153.74,1544.63L193.02,1546.27L191.40,1585.25L152.12,1583.61z"/>
	<path
		fill="#000000"
		stroke="#9F9F9F"
		fill-opacity="0.000"
		stroke-opacity="0.5"
		fill-rule="nonzero"
		stroke-width="4.0817614"
		stroke-linejoin="miter"
		stroke-linecap="round"
		d="M187.44,1521.19L219.64,1522.53L218.33,1553.99L186.14,1552.65z"/>
	<path
		fill="#000000"
		stroke="#9F9F9F"
		fill-opacity="0.000"
		stroke-opacity="0.5"
		fill-rule="nonzero"
		stroke-width="4.0817614"
		stroke-linejoin="miter"
		stroke-linecap="round"
		d="M217.67,1595.75L183.85,1576.02L179.90,1611.12L217.67,1595.75z"/>
	<path
		fill="#000000"
		stroke="#9F9F9F"
		fill-opacity="0.000"
		stroke-opacity="0.5"
		fill-rule="nonzero"
		stroke-width="4.0817575"
		stroke-linejoin="miter"
		stroke-linecap="round"
		d="M1040.23,1323.87L1025.66,1372.75L991.80,1343.16L1040.23,1323.87z"/>
	<path
		fill="#000000"
		stroke="#9F9F9F"
		fill-opacity="0"
		stroke-opacity="0.5"
		fill-rule="nonzero"
		stroke-width="4.0368304"
		stroke-linejoin="miter"
		stroke-linecap="round"
		d="M194.19,1184.90L155.59,1144.00L196.10,1105.77L234.70,1146.67z"/>
	<path
		fill="#000000"
		stroke="#9F9F9F"
		fill-opacity="0.000"
		stroke-opacity="0.5"
		fill-rule="nonzero"
		stroke-width="4.0368304"
		stroke-linejoin="miter"
		stroke-linecap="round"
		d="M159.06,1158.16L127.44,1124.65L160.13,1093.79L191.76,1127.30z"/>
	<path
		fill="#000000"
		stroke="#9F9F9F"
		fill-opacity="0.000"
		stroke-opacity="0.5"
		fill-rule="nonzero"
		stroke-width="4.0817575"
		stroke-linejoin="miter"
		stroke-linecap="round"
		d="M1013.07,1362.15C1002.35,1374.16,984.14,1375.39,972.39,1364.90C960.64,1354.41,959.81,1336.18,970.53,1324.17C981.25,1312.16,999.46,1310.92,1011.21,1321.41C1022.96,1331.90,1023.79,1350.14,1013.07,1362.15z"/>
	<path
		fill="#000000"
		stroke="#9F9F9F"
		fill-opacity="0.000"
		stroke-opacity="0.5"
		fill-rule="nonzero"
		stroke-width="3.5099978"
		stroke-linejoin="miter"
		stroke-linecap="round"
		d="M1009.11,944.61L990.37,875.29"/>
	<path
		fill="#000000"
		stroke="#9F9F9F"
		fill-opacity="0.000"
		stroke-opacity="0.5"
		fill-rule="nonzero"
		stroke-width="3.5099978"
		stroke-linejoin="miter"
		stroke-linecap="round"
		d="M1032.36,939.80L1013.62,870.48"/>
	<path
		fill="#000000"
		stroke="#9F9F9F"
		fill-opacity="0.000"
		stroke-opacity="0.5"
		fill-rule="nonzero"
		stroke-width="3.5099978"
		stroke-linejoin="miter"
		stroke-linecap="round"
		d="M1055.60,935.00L1036.87,865.67"/>
	<path
		fill="#9F9F9F"
		stroke="#9F9F9F"
		fill-opacity="0.5"
		stroke-opacity="0.5"
		fill-rule="nonzero"
		stroke-width="0.20958859"
		stroke-linejoin="miter"
		stroke-linecap="round"
		d="M542.29,157.67C544.52,156.63,547.20,157.65,548.26,159.93C549.32,162.22,548.36,164.91,546.13,165.95C543.89,166.99,541.22,165.98,540.16,163.69C539.10,161.40,540.05,158.71,542.29,157.67z"/>
	<path
		fill="#9F9F9F"
		stroke="#9F9F9F"
		fill-opacity="0.5"
		stroke-opacity="0.5"
		fill-rule="nonzero"
		stroke-width="0.20958859"
		stroke-linejoin="miter"
		stroke-linecap="round"
		d="M554.68,162.36C556.92,161.33,559.59,162.34,560.65,164.62C561.71,166.91,560.76,169.60,558.52,170.64C556.29,171.68,553.62,170.67,552.55,168.38C551.49,166.10,552.45,163.40,554.68,162.36z"/>
	<path
		fill="#9F9F9F"
		stroke="#9F9F9F"
		fill-opacity="0.5"
		stroke-opacity="0.5"
		fill-rule="nonzero"
		stroke-width="0.20958859"
		stroke-linejoin="miter"
		stroke-linecap="round"
		d="M567.08,167.05C569.31,166.02,571.99,167.03,573.05,169.31C574.11,171.60,573.15,174.29,570.92,175.33C568.68,176.37,566.01,175.36,564.95,173.07C563.89,170.79,564.84,168.09,567.08,167.05z"/>
	<path
		fill="#9F9F9F"
		stroke="#9F9F9F"
		fill-opacity="0.5"
		stroke-opacity="0.5"
		fill-rule="nonzero"
		stroke-width="0.20958859"
		stroke-linejoin="miter"
		stroke-linecap="round"
		d="M579.47,171.75C581.71,170.71,584.38,171.72,585.44,174.01C586.50,176.29,585.55,178.98,583.31,180.02C581.08,181.06,578.40,180.05,577.34,177.76C576.28,175.48,577.24,172.78,579.47,171.75z"/>
	<path
		fill="#9F9F9F"
		stroke="#9F9F9F"
		fill-opacity="0.5"
		stroke-opacity="0.5"
		fill-rule="nonzero"
		stroke-width="0.20958859"
		stroke-linejoin="miter"
		stroke-linecap="round"
		d="M591.87,176.44C594.10,175.40,596.78,176.41,597.84,178.70C598.90,180.98,597.94,183.68,595.71,184.71C593.47,185.75,590.80,184.74,589.74,182.45C588.68,180.17,589.63,177.47,591.87,176.44z"/>
	<path
		fill="#9F9F9F"
		stroke="#9F9F9F"
		fill-opacity="0.5"
		stroke-opacity="0.5"
		fill-rule="nonzero"
		stroke-width="0.20958859"
		stroke-linejoin="miter"
		stroke-linecap="round"
		d="M604.38,181.17C606.61,180.13,609.28,181.14,610.34,183.43C611.41,185.72,610.45,188.41,608.22,189.45C605.98,190.49,603.31,189.47,602.25,187.19C601.19,184.90,602.14,182.21,604.38,181.17z"/>
	<path
		fill="#9F9F9F"
		stroke="#9F9F9F"
		fill-opacity="0.5"
		stroke-opacity="0.5"
		fill-rule="nonzero"
		stroke-width="0.20958859"
		stroke-linejoin="miter"
		stroke-linecap="round"
		d="M616.88,185.90C619.12,184.87,621.79,185.88,622.85,188.16C623.91,190.45,622.96,193.14,620.73,194.18C618.49,195.22,615.82,194.21,614.76,191.92C613.69,189.64,614.65,186.94,616.88,185.90z"/>
	<path
		fill="#9F9F9F"
		stroke="#9F9F9F"
		fill-opacity="0.5"
		stroke-opacity="0.5"
		fill-rule="nonzero"
		stroke-width="0.20958859"
		stroke-linejoin="miter"
		stroke-linecap="round"
		d="M628.14,190.17C630.38,189.13,633.05,190.14,634.11,192.43C635.18,194.71,634.22,197.41,631.99,198.44C629.75,199.48,627.08,198.47,626.02,196.18C624.96,193.90,625.91,191.20,628.14,190.17z"/>
	<path
		fill="#9F9F9F"
		stroke="#9F9F9F"
		fill-opacity="0.5"
		stroke-opacity="0.5"
		fill-rule="nonzero"
		stroke-width="0.20958859"
		stroke-linejoin="miter"
		stroke-linecap="round"
		d="M535.60,176.59C537.83,175.56,540.50,176.57,541.56,178.85C542.63,181.14,541.67,183.83,539.44,184.87C537.20,185.91,534.53,184.90,533.47,182.61C532.41,180.33,533.36,177.63,535.60,176.59z"/>
	<path
		fill="#9F9F9F"
		stroke="#9F9F9F"
		fill-opacity="0.5"
		stroke-opacity="0.5"
		fill-rule="nonzero"
		stroke-width="0.20958859"
		stroke-linejoin="miter"
		stroke-linecap="round"
		d="M547.99,181.28C550.23,180.25,552.90,181.26,553.96,183.54C555.02,185.83,554.07,188.52,551.83,189.56C549.60,190.60,546.92,189.59,545.86,187.30C544.80,185.02,545.75,182.32,547.99,181.28z"/>
	<path
		fill="#9F9F9F"
		stroke="#9F9F9F"
		fill-opacity="0.5"
		stroke-opacity="0.5"
		fill-rule="nonzero"
		stroke-width="0.20958859"
		stroke-linejoin="miter"
		stroke-linecap="round"
		d="M560.39,185.98C562.62,184.94,565.29,185.95,566.36,188.24C567.42,190.52,566.46,193.21,564.23,194.25C561.99,195.29,559.32,194.28,558.26,191.99C557.20,189.71,558.15,187.01,560.39,185.98z"/>
	<path
		fill="#9F9F9F"
		stroke="#9F9F9F"
		fill-opacity="0.5"
		stroke-opacity="0.5"
		fill-rule="nonzero"
		stroke-width="0.20958859"
		stroke-linejoin="miter"
		stroke-linecap="round"
		d="M572.78,190.67C575.02,189.63,577.69,190.64,578.75,192.93C579.81,195.21,578.86,197.91,576.62,198.94C574.39,199.98,571.71,198.97,570.65,196.68C569.59,194.40,570.54,191.70,572.78,190.67z"/>
	<path
		fill="#9F9F9F"
		stroke="#9F9F9F"
		fill-opacity="0.5"
		stroke-opacity="0.5"
		fill-rule="nonzero"
		stroke-width="0.20958859"
		stroke-linejoin="miter"
		stroke-linecap="round"
		d="M585.18,195.36C587.41,194.32,590.08,195.33,591.15,197.62C592.21,199.90,591.25,202.60,589.02,203.63C586.78,204.67,584.11,203.66,583.05,201.38C581.99,199.09,582.94,196.40,585.18,195.36z"/>
	<path
		fill="#9F9F9F"
		stroke="#9F9F9F"
		fill-opacity="0.5"
		stroke-opacity="0.5"
		fill-rule="nonzero"
		stroke-width="0.20958859"
		stroke-linejoin="miter"
		stroke-linecap="round"
		d="M597.68,200.09C599.92,199.05,602.59,200.07,603.65,202.35C604.71,204.64,603.76,207.33,601.53,208.37C599.29,209.41,596.62,208.40,595.56,206.11C594.49,203.82,595.45,201.13,597.68,200.09z"/>
	<path
		fill="#9F9F9F"
		stroke="#9F9F9F"
		fill-opacity="0.5"
		stroke-opacity="0.5"
		fill-rule="nonzero"
		stroke-width="0.20958859"
		stroke-linejoin="miter"
		stroke-linecap="round"
		d="M610.19,204.83C612.43,203.79,615.10,204.80,616.16,207.08C617.22,209.37,616.27,212.06,614.03,213.10C611.80,214.14,609.12,213.13,608.06,210.84C607.00,208.56,607.96,205.86,610.19,204.83z"/>
	<path
		fill="#9F9F9F"
		stroke="#9F9F9F"
		fill-opacity="0.5"
		stroke-opacity="0.5"
		fill-rule="nonzero"
		stroke-width="0.20958859"
		stroke-linejoin="miter"
		stroke-linecap="round"
		d="M621.45,209.09C623.69,208.05,626.36,209.06,627.42,211.35C628.48,213.63,627.53,216.33,625.29,217.36C623.06,218.40,620.39,217.39,619.33,215.11C618.26,212.82,619.22,210.13,621.45,209.09z"/>
	<path
		fill="#9F9F9F"
		stroke="#9F9F9F"
		fill-opacity="0.5"
		stroke-opacity="0.5"
		fill-rule="nonzero"
		stroke-width="0.20958859"
		stroke-linejoin="miter"
		stroke-linecap="round"
		d="M528.90,195.52C531.14,194.48,533.81,195.49,534.87,197.77C535.93,200.06,534.98,202.75,532.75,203.79C530.51,204.83,527.84,203.82,526.78,201.53C525.72,199.25,526.67,196.55,528.90,195.52z"/>
	<path
		fill="#9F9F9F"
		stroke="#9F9F9F"
		fill-opacity="0.5"
		stroke-opacity="0.5"
		fill-rule="nonzero"
		stroke-width="0.20958859"
		stroke-linejoin="miter"
		stroke-linecap="round"
		d="M541.30,200.21C543.54,199.17,546.21,200.18,547.27,202.47C548.33,204.75,547.38,207.44,545.14,208.48C542.90,209.52,540.23,208.51,539.17,206.22C538.11,203.94,539.06,201.24,541.30,200.21z"/>
	<path
		fill="#9F9F9F"
		stroke="#9F9F9F"
		fill-opacity="0.5"
		stroke-opacity="0.5"
		fill-rule="nonzero"
		stroke-width="0.20958859"
		stroke-linejoin="miter"
		stroke-linecap="round"
		d="M553.69,204.90C555.93,203.86,558.60,204.87,559.66,207.16C560.72,209.44,559.77,212.14,557.54,213.17C555.30,214.21,552.63,213.20,551.57,210.91C550.51,208.63,551.46,205.94,553.69,204.90z"/>
	<path
		fill="#9F9F9F"
		stroke="#9F9F9F"
		fill-opacity="0.5"
		stroke-opacity="0.5"
		fill-rule="nonzero"
		stroke-width="0.20958859"
		stroke-linejoin="miter"
		stroke-linecap="round"
		d="M566.09,209.59C568.33,208.55,571.00,209.56,572.06,211.85C573.12,214.13,572.17,216.83,569.93,217.86C567.69,218.90,565.02,217.89,563.96,215.61C562.90,213.32,563.85,210.63,566.09,209.59z"/>
	<path
		fill="#9F9F9F"
		stroke="#9F9F9F"
		fill-opacity="0.5"
		stroke-opacity="0.5"
		fill-rule="nonzero"
		stroke-width="0.20958859"
		stroke-linejoin="miter"
		stroke-linecap="round"
		d="M578.48,214.28C580.72,213.24,583.39,214.25,584.45,216.54C585.51,218.82,584.56,221.52,582.33,222.56C580.09,223.59,577.42,222.58,576.36,220.30C575.30,218.01,576.25,215.32,578.48,214.28z"/>
	<path
		fill="#9F9F9F"
		stroke="#9F9F9F"
		fill-opacity="0.5"
		stroke-opacity="0.5"
		fill-rule="nonzero"
		stroke-width="0.20958859"
		stroke-linejoin="miter"
		stroke-linecap="round"
		d="M590.99,219.01C593.23,217.98,595.90,218.99,596.96,221.27C598.02,223.56,597.07,226.25,594.83,227.29C592.60,228.33,589.92,227.32,588.86,225.03C587.80,222.75,588.76,220.05,590.99,219.01z"/>
	<path
		fill="#9F9F9F"
		stroke="#9F9F9F"
		fill-opacity="0.5"
		stroke-opacity="0.5"
		fill-rule="nonzero"
		stroke-width="0.20958859"
		stroke-linejoin="miter"
		stroke-linecap="round"
		d="M603.50,223.75C605.74,222.71,608.41,223.72,609.47,226.01C610.53,228.29,609.58,230.99,607.34,232.02C605.11,233.06,602.43,232.05,601.37,229.76C600.31,227.48,601.26,224.78,603.50,223.75z"/>
	<path
		fill="#9F9F9F"
		stroke="#9F9F9F"
		fill-opacity="0.5"
		stroke-opacity="0.5"
		fill-rule="nonzero"
		stroke-width="0.20958859"
		stroke-linejoin="miter"
		stroke-linecap="round"
		d="M614.76,228.01C617.00,226.97,619.67,227.98,620.73,230.27C621.79,232.55,620.84,235.25,618.60,236.29C616.37,237.32,613.69,236.31,612.63,234.03C611.57,231.74,612.53,229.05,614.76,228.01z"/>
	<path
		fill="#FFFFFF"
		stroke="#9F9F9F"
		fill-opacity="0.000"
		stroke-opacity="0.5"
		fill-rule="nonzero"
		stroke-width="3.303361"
		stroke-linejoin="miter"
		stroke-linecap="round"
		d="M921.82,400.43L950.02,424.72A6.20 6.20 0 0 1 950.68,433.47L925.91,462.23A6.20 6.20 0 0 1 917.16,462.89L888.95,438.60A6.20 6.20 0 0 1 888.30,429.85L913.07,401.09A6.20 6.20 0 0 1 921.82,400.43z"/>
	<path
		fill="#FFFFFF"
		stroke="#9F9F9F"
		fill-opacity="0.000"
		stroke-opacity="0.5"
		fill-rule="nonzero"
		stroke-width="3.1039095"
		stroke-linejoin="miter"
		stroke-linecap="round"
		d="M952.45,402.35L980.65,426.63A6.20 6.20 0 0 1 981.31,435.38L956.54,464.15A6.20 6.20 0 0 1 947.79,464.80L919.59,440.52A6.20 6.20 0 0 1 918.93,431.77L943.70,403.00A6.20 6.20 0 0 1 952.45,402.35z"/>
	<path
		fill="#FFFFFF"
		stroke="#9F9F9F"
		fill-opacity="0.000"
		stroke-opacity="0.5"
		fill-rule="nonzero"
		stroke-width="3.303361"
		stroke-linejoin="miter"
		stroke-linecap="round"
		d="M956.44,451.17L984.64,475.45A6.20 6.20 0 0 1 985.29,484.20L960.52,512.96A6.20 6.20 0 0 1 951.78,513.62L923.57,489.33A6.20 6.20 0 0 1 922.92,480.58L947.69,451.82A6.20 6.20 0 0 1 956.44,451.17z"/>
	<path
		fill="#9F9F9F"
		stroke="#9F9F9F"
		fill-opacity="0.5"
		stroke-opacity="0.5"
		fill-rule="nonzero"
		stroke-width="0.027093496"
		stroke-linejoin="miter"
		stroke-linecap="round"
		d="M882.90,440.01C885.31,439.79,887.43,441.60,887.65,444.04C887.87,446.47,886.10,448.63,883.69,448.84C881.29,449.06,879.17,447.25,878.95,444.81C878.73,442.37,880.50,440.22,882.90,440.01z"/>
	<path
		fill="#9F9F9F"
		stroke="#9F9F9F"
		fill-opacity="0.5"
		stroke-opacity="0.5"
		fill-rule="nonzero"
		stroke-width="0.027093496"
		stroke-linejoin="miter"
		stroke-linecap="round"
		d="M890.06,446.08C892.46,445.87,894.58,447.67,894.80,450.11C895.02,452.55,893.25,454.70,890.85,454.92C888.44,455.13,886.32,453.33,886.10,450.89C885.88,448.45,887.65,446.30,890.06,446.08z"/>
	<path
		fill="#9F9F9F"
		stroke="#9F9F9F"
		fill-opacity="0.5"
		stroke-opacity="0.5"
		fill-rule="nonzero"
		stroke-width="0.027093496"
		stroke-linejoin="miter"
		stroke-linecap="round"
		d="M897.21,452.16C899.61,451.94,901.73,453.74,901.95,456.18C902.17,458.62,900.40,460.78,898.00,460.99C895.60,461.21,893.47,459.40,893.25,456.96C893.04,454.52,894.81,452.37,897.21,452.16z"/>
	<path
		fill="#9F9F9F"
		stroke="#9F9F9F"
		fill-opacity="0.5"
		stroke-opacity="0.5"
		fill-rule="nonzero"
		stroke-width="0.027093496"
		stroke-linejoin="miter"
		stroke-linecap="round"
		d="M904.36,458.23C906.76,458.02,908.88,459.82,909.10,462.26C909.32,464.70,907.55,466.85,905.15,467.06C902.75,467.28,900.62,465.48,900.41,463.04C900.19,460.60,901.96,458.44,904.36,458.23z"/>
	<path
		fill="#9F9F9F"
		stroke="#9F9F9F"
		fill-opacity="0.5"
		stroke-opacity="0.5"
		fill-rule="nonzero"
		stroke-width="0.027093496"
		stroke-linejoin="miter"
		stroke-linecap="round"
		d="M911.51,464.30C913.91,464.09,916.03,465.89,916.25,468.33C916.47,470.77,914.70,472.92,912.30,473.14C909.90,473.35,907.78,471.55,907.56,469.11C907.34,466.67,909.11,464.52,911.51,464.30z"/>
	<path
		fill="#9E9E9E"
		stroke="#9E9E9E"
		fill-opacity="0.000"
		stroke-opacity="0.5"
		fill-rule="nonzero"
		stroke-width="4.081762"
		stroke-linejoin="miter"
		stroke-linecap="round"
		d="M116.38,616.42C116.56,628.70,106.53,638.82,93.97,639.00C81.41,639.19,71.08,629.38,70.90,617.10C70.72,604.81,80.75,594.70,93.31,594.51C105.87,594.32,116.20,604.13,116.38,616.42z"/>
	<path
		fill="#9E9E9E"
		stroke="#9E9E9E"
		fill-opacity="0.000"
		stroke-opacity="0.5"
		fill-rule="nonzero"
		stroke-width="4.036832"
		stroke-linejoin="miter"
		stroke-linecap="round"
		d="M461.87,803.32C450.56,810.26,435.77,806.73,428.83,795.42C421.88,784.12,425.42,769.33,436.72,762.39C448.03,755.44,462.82,758.98,469.76,770.28C476.70,781.59,473.17,796.38,461.87,803.32z"/>
	<path
		fill="#9E9E9E"
		stroke="#9E9E9E"
		fill-opacity="0.000"
		stroke-opacity="0.5"
		fill-rule="nonzero"
		stroke-width="4.036832"
		stroke-linejoin="miter"
		stroke-linecap="round"
		d="M455.99,826.65C444.68,833.59,429.89,830.05,422.95,818.75C416.01,807.44,419.54,792.65,430.85,785.71C442.15,778.77,456.94,782.30,463.88,793.61C470.83,804.91,467.29,819.70,455.99,826.65z"/>
	<path
		fill="#9E9E9E"
		stroke="#9E9E9E"
		fill-opacity="0.000"
		stroke-opacity="0.5"
		fill-rule="nonzero"
		stroke-width="4.036832"
		stroke-linejoin="miter"
		stroke-linecap="round"
		d="M438.17,810.64C426.87,817.58,412.08,814.05,405.14,802.74C398.19,791.44,401.73,776.65,413.03,769.71C424.34,762.76,439.13,766.30,446.07,777.60C453.01,788.91,449.48,803.70,438.17,810.64z"/>
	<path
		fill="#9E9E9E"
		stroke="#9E9E9E"
		fill-opacity="0.000"
		stroke-opacity="0.5"
		fill-rule="nonzero"
		stroke-width="4.0368366"
		stroke-linejoin="miter"
		stroke-linecap="round"
		d="M166.03,2262.76L216.87,2261.20A8.10 8.10 0 0 1 225.21,2269.04L226.77,2319.65A8.10 8.10 0 0 1 218.92,2327.99L168.08,2329.56A8.10 8.10 0 0 1 159.74,2321.71L158.18,2271.11A8.10 8.10 0 0 1 166.03,2262.76zM226.48,2306.35C214.67,2306.71,205.39,2316.58,205.76,2328.39C206.12,2340.19,215.99,2349.47,227.80,2349.11C239.60,2348.74,248.88,2338.88,248.52,2327.07C248.15,2315.26,238.29,2305.98,226.48,2306.35z"/>
	<path
		fill="#9E9E9E"
		stroke="#9E9E9E"
		fill-opacity="0.5"
		stroke-opacity="0.5"
		fill-rule="nonzero"
		stroke-width="0.0"
		stroke-linejoin="miter"
		stroke-linecap="round"
		d="M218.28,2315.71C220.18,2315.65,221.76,2317.14,221.82,2319.04C221.88,2320.94,220.39,2322.53,218.49,2322.59C216.59,2322.65,215.00,2321.15,214.94,2319.25C214.88,2317.35,216.38,2315.76,218.28,2315.71z"/>
	<path
		fill="#9E9E9E"
		stroke="#9E9E9E"
		fill-opacity="0"
		stroke-opacity="0.5"
		fill-rule="nonzero"
		stroke-width="3.441485"
		stroke-linejoin="miter"
		stroke-linecap="round"
		d="M728.02,1866.95L770.57,1927.95L709.57,1970.50L667.02,1909.50zM734.04,1908.09C728.17,1899.67,716.58,1897.60,708.16,1903.48C699.73,1909.35,697.67,1920.94,703.54,1929.36C709.42,1937.79,721.01,1939.85,729.43,1933.98C737.85,1928.10,739.92,1916.51,734.04,1908.09z"/>
	<path
		fill="#9E9E9E"
		stroke="#9E9E9E"
		fill-opacity="0"
		stroke-opacity="0.5"
		fill-rule="nonzero"
		stroke-width="3.441485"
		stroke-linejoin="miter"
		stroke-linecap="round"
		d="M697.34,1888.35L740.10,1949.21"/>
</svg>