<?xml version="1.0" encoding="utf-8"?>
<svg
	version="1.1"
	xmlns="http://www.w3.org/2000/svg"
	xmlns:xlink="http://www.w3.org/1999/xlink"
	x="0%" y="0%"
	width="100%" height="100%"
	viewBox="0 0 1170.0 2532.0"
	enable-background="new 0 0 1170.0 2532.0"
	xml:space="preserve">
	<path
		fill="#9F9F9F"
		stroke="#9F9F9F"
		fill-opacity="0.5"
		stroke-opacity="0.5"
		fill-rule="nonzero"
		stroke-width="0.17476442"
		stroke-linejoin="miter"
		stroke-linecap="round"
		d="M1000.11,2110.34C998.92,2112.30,996.39,2112.93,994.46,2111.75C992.52,2110.58,991.91,2108.04,993.10,2106.09C994.28,2104.13,996.81,2103.50,998.75,2104.68C1000.69,2105.85,1001.29,2108.39,1000.11,2110.34z"/>
	<path
		fill="#000000"
		stroke="#9F9F9F"
		fill-opacity="0.000"
		stroke-opacity="0.5"
		fill-rule="nonzero"
		stroke-width="3.4988232"
		stroke-linejoin="miter"
		stroke-linecap="round"
		d="M1001.76,2043.35L1011.36,2083.33L972.25,2093.11L981.85,2133.10L942.74,2142.88"/>
	<path
		fill="#000000"
		stroke="#9F9F9F"
		fill-opacity="0.000"
		stroke-opacity="0.5"
		fill-rule="nonzero"
		stroke-width="3.4988232"
		stroke-linejoin="miter"
		stroke-linecap="round"
		d="M1070.37,1983.80L1079.97,2023.78L1040.87,2033.57L1050.47,2073.55L1011.36,2083.33L1020.95,2123.32L981.85,2133.10L991.45,2173.08L952.34,2182.87"/>
	<path
		fill="#000000"
		stroke="#9F9F9F"
		fill-opacity="0.000"
		stroke-opacity="0.5"
		fill-rule="nonzero"
		stroke-width="3.7765875"
		stroke-linejoin="miter"
		stroke-linecap="round"
		d="M134.27,1712.43A28.18 28.81 61.70 1 1 160.97,1762.06A27.57 28.18 61.70 1 0 156.05,1768.68"/>
	<path
		fill="#000000"
		stroke="#9F9F9F"
		fill-opacity="0.000"
		stroke-opacity="0.5"
		fill-rule="nonzero"
		stroke-width="3.7765875"
		stroke-linejoin="miter"
		stroke-linecap="round"
		d="M157.04,1653.48A27.99 28.61 276.71 1 1 151.07,1709.13A27.99 28.61 276.71 1 0 145.10,1764.79A27.99 28.61 276.71 1 1 139.12,1820.45A27.99 28.61 276.71 1 0 133.15,1876.10"/>
	<path
		fill="#000000"
		stroke="#9F9F9F"
		fill-opacity="0.5"
		stroke-opacity="0.5"
		fill-rule="nonzero"
		stroke-width="4.0817623"
		stroke-linejoin="miter"
		stroke-linecap="round"
		d="M963.83,1616.64L990.93,1588.16L1019.20,1615.06L992.10,1643.53z"/>
	<path
		fill="#000000"
		stroke="#9F9F9F"
		fill-opacity="0.000"
		stroke-opacity="0.5"
		fill-rule="nonzero"
		stroke-width="4.0817623"
		stroke-linejoin="miter"
		stroke-linecap="round"
		d="M968.39,1575.84L990.60,1552.50L1013.41,1574.20L991.20,1597.54z"/>
	<path
		fill="#000000"
		stroke="#9F9F9F"
		fill-opacity="0.000"
		stroke-opacity="0.5"
		fill-rule="nonzero"
		stroke-width="4.0817623"
		stroke-linejoin="miter"
		stroke-linecap="round"
		d="M1044.40,1602.20L1007.28,1614.65L1031.09,1640.75L1044.40,1602.20z"/>
	<path
		fill="#000000"
		stroke="#9F9F9F"
		fill-opacity="0.000"
		stroke-opacity="0.5"
		fill-rule="nonzero"
		stroke-width="4.08176"
		stroke-linejoin="miter"
		stroke-linecap="round"
		d="M772.85,1332.34L758.29,1381.22L724.42,1351.63L772.85,1332.34z"/>
	<path
		fill="#000000"
		stroke="#9F9F9F"
		fill-opacity="0.5"
		stroke-opacity="0.5"
		fill-rule="nonzero"
		stroke-width="4.0368333"
		stroke-linejoin="miter"
		stroke-linecap="round"
		d="M375.04,2344.05L336.44,2303.15L376.94,2264.92L415.54,2305.81z"/>
	<path
		fill="#000000"
		stroke="#9F9F9F"
		fill-opacity="0.000"
		stroke-opacity="0.5"
		fill-rule="nonzero"
		stroke-width="4.0368333"
		stroke-linejoin="miter"
		stroke-linecap="round"
		d="M339.91,2317.31L308.28,2283.80L340.97,2252.94L372.60,2286.44z"/>
	<path
		fill="#000000"
		stroke="#9F9F9F"
		fill-opacity="0.000"
		stroke-opacity="0.5"
		fill-rule="nonzero"
		stroke-width="4.08176"
		stroke-linejoin="miter"
		stroke-linecap="round"
		d="M745.70,1370.62C734.98,1382.63,716.76,1383.86,705.01,1373.37C693.26,1362.89,692.43,1344.65,703.15,1332.64C713.87,1320.63,732.08,1319.39,743.83,1329.88C755.58,1340.37,756.42,1358.61,745.70,1370.62z"/>
	<path
		fill="#000000"
		stroke="#9F9F9F"
		fill-opacity="0.000"
		stroke-opacity="0.5"
		fill-rule="nonzero"
		stroke-width="3.5099995"
		stroke-linejoin="miter"
		stroke-linecap="round"
		d="M436.80,1943.84L460.07,2011.77"/>
	<path
		fill="#000000"
		stroke="#9F9F9F"
		fill-opacity="0.000"
		stroke-opacity="0.5"
		fill-rule="nonzero"
		stroke-width="3.5099995"
		stroke-linejoin="miter"
		stroke-linecap="round"
		d="M413.92,1950.17L437.19,2018.11"/>
	<path
		fill="#000000"
		stroke="#9F9F9F"
		fill-opacity="0.000"
		stroke-opacity="0.5"
		fill-rule="nonzero"
		stroke-width="3.5099995"
		stroke-linejoin="miter"
		stroke-linecap="round"
		d="M391.04,1956.50L414.31,2024.44"/>
	<path
		fill="#9F9F9F"
		stroke="#9F9F9F"
		fill-opacity="0.5"
		stroke-opacity="0.5"
		fill-rule="nonzero"
		stroke-width="0.20958848"
		stroke-linejoin="miter"
		stroke-linecap="round"
		d="M761.09,1720.01C758.63,1719.85,756.77,1717.69,756.93,1715.17C757.10,1712.66,759.22,1710.75,761.68,1710.91C764.14,1711.07,766.01,1713.24,765.84,1715.75C765.68,1718.27,763.55,1720.17,761.09,1720.01z"/>
	<path
		fill="#9F9F9F"
		stroke="#9F9F9F"
		fill-opacity="0.5"
		stroke-opacity="0.5"
		fill-rule="nonzero"
		stroke-width="0.20958848"
		stroke-linejoin="miter"
		stroke-linecap="round"
		d="M752.46,1709.96C750.00,1709.80,748.14,1707.63,748.30,1705.12C748.46,1702.60,750.59,1700.69,753.05,1700.85C755.51,1701.01,757.37,1703.18,757.21,1705.70C757.04,1708.21,754.92,1710.12,752.46,1709.96z"/>
	<path
		fill="#9F9F9F"
		stroke="#9F9F9F"
		fill-opacity="0.5"
		stroke-opacity="0.5"
		fill-rule="nonzero"
		stroke-width="0.20958848"
		stroke-linejoin="miter"
		stroke-linecap="round"
		d="M743.82,1699.91C741.36,1699.75,739.50,1697.58,739.66,1695.06C739.83,1692.55,741.95,1690.64,744.41,1690.80C746.87,1690.96,748.74,1693.13,748.57,1695.64C748.41,1698.16,746.28,1700.07,743.82,1699.91z"/>
	<path
		fill="#9F9F9F"
		stroke="#9F9F9F"
		fill-opacity="0.5"
		stroke-opacity="0.5"
		fill-rule="nonzero"
		stroke-width="0.20958848"
		stroke-linejoin="miter"
		stroke-linecap="round"
		d="M735.19,1689.85C732.73,1689.69,730.87,1687.52,731.03,1685.01C731.19,1682.49,733.32,1680.59,735.78,1680.75C738.24,1680.90,740.10,1683.07,739.94,1685.59C739.78,1688.10,737.65,1690.01,735.19,1689.85z"/>
	<path
		fill="#9F9F9F"
		stroke="#9F9F9F"
		fill-opacity="0.5"
		stroke-opacity="0.5"
		fill-rule="nonzero"
		stroke-width="0.20958848"
		stroke-linejoin="miter"
		stroke-linecap="round"
		d="M726.55,1679.80C724.09,1679.64,722.23,1677.47,722.40,1674.95C722.56,1672.44,724.69,1670.53,727.15,1670.69C729.61,1670.85,731.47,1673.02,731.30,1675.53C731.14,1678.05,729.01,1679.96,726.55,1679.80z"/>
	<path
		fill="#9F9F9F"
		stroke="#9F9F9F"
		fill-opacity="0.5"
		stroke-opacity="0.5"
		fill-rule="nonzero"
		stroke-width="0.20958848"
		stroke-linejoin="miter"
		stroke-linecap="round"
		d="M717.84,1669.65C715.38,1669.49,713.52,1667.32,713.68,1664.81C713.85,1662.29,715.97,1660.38,718.43,1660.54C720.89,1660.70,722.75,1662.87,722.59,1665.39C722.43,1667.90,720.30,1669.81,717.84,1669.65z"/>
	<path
		fill="#9F9F9F"
		stroke="#9F9F9F"
		fill-opacity="0.5"
		stroke-opacity="0.5"
		fill-rule="nonzero"
		stroke-width="0.20958848"
		stroke-linejoin="miter"
		stroke-linecap="round"
		d="M709.13,1659.50C706.67,1659.34,704.81,1657.18,704.97,1654.66C705.13,1652.15,707.26,1650.24,709.72,1650.40C712.18,1650.56,714.04,1652.73,713.88,1655.24C713.72,1657.76,711.59,1659.66,709.13,1659.50z"/>
	<path
		fill="#9F9F9F"
		stroke="#9F9F9F"
		fill-opacity="0.5"
		stroke-opacity="0.5"
		fill-rule="nonzero"
		stroke-width="0.20958848"
		stroke-linejoin="miter"
		stroke-linecap="round"
		d="M701.28,1650.37C698.82,1650.21,696.96,1648.04,697.13,1645.53C697.29,1643.01,699.42,1641.10,701.88,1641.26C704.34,1641.42,706.20,1643.59,706.03,1646.11C705.87,1648.62,703.74,1650.53,701.28,1650.37z"/>
	<path
		fill="#9F9F9F"
		stroke="#9F9F9F"
		fill-opacity="0.5"
		stroke-opacity="0.5"
		fill-rule="nonzero"
		stroke-width="0.20958848"
		stroke-linejoin="miter"
		stroke-linecap="round"
		d="M776.03,1706.61C773.57,1706.45,771.71,1704.28,771.87,1701.77C772.03,1699.25,774.16,1697.34,776.62,1697.50C779.08,1697.66,780.94,1699.83,780.78,1702.35C780.61,1704.86,778.49,1706.77,776.03,1706.61z"/>
	<path
		fill="#9F9F9F"
		stroke="#9F9F9F"
		fill-opacity="0.5"
		stroke-opacity="0.5"
		fill-rule="nonzero"
		stroke-width="0.20958848"
		stroke-linejoin="miter"
		stroke-linecap="round"
		d="M767.39,1696.55C764.93,1696.39,763.07,1694.23,763.24,1691.71C763.40,1689.20,765.53,1687.29,767.99,1687.45C770.44,1687.61,772.31,1689.78,772.14,1692.29C771.98,1694.81,769.85,1696.71,767.39,1696.55z"/>
	<path
		fill="#9F9F9F"
		stroke="#9F9F9F"
		fill-opacity="0.5"
		stroke-opacity="0.5"
		fill-rule="nonzero"
		stroke-width="0.20958848"
		stroke-linejoin="miter"
		stroke-linecap="round"
		d="M758.76,1686.50C756.30,1686.34,754.44,1684.17,754.60,1681.66C754.76,1679.14,756.89,1677.23,759.35,1677.39C761.81,1677.55,763.67,1679.72,763.51,1682.24C763.35,1684.75,761.22,1686.66,758.76,1686.50z"/>
	<path
		fill="#9F9F9F"
		stroke="#9F9F9F"
		fill-opacity="0.5"
		stroke-opacity="0.5"
		fill-rule="nonzero"
		stroke-width="0.20958848"
		stroke-linejoin="miter"
		stroke-linecap="round"
		d="M750.13,1676.45C747.66,1676.29,745.80,1674.12,745.97,1671.60C746.13,1669.09,748.26,1667.18,750.72,1667.34C753.18,1667.50,755.04,1669.67,754.88,1672.18C754.71,1674.70,752.59,1676.61,750.13,1676.45z"/>
	<path
		fill="#9F9F9F"
		stroke="#9F9F9F"
		fill-opacity="0.5"
		stroke-opacity="0.5"
		fill-rule="nonzero"
		stroke-width="0.20958848"
		stroke-linejoin="miter"
		stroke-linecap="round"
		d="M741.49,1666.39C739.03,1666.23,737.17,1664.06,737.33,1661.55C737.50,1659.03,739.62,1657.13,742.08,1657.29C744.54,1657.45,746.40,1659.61,746.24,1662.13C746.08,1664.64,743.95,1666.55,741.49,1666.39z"/>
	<path
		fill="#9F9F9F"
		stroke="#9F9F9F"
		fill-opacity="0.5"
		stroke-opacity="0.5"
		fill-rule="nonzero"
		stroke-width="0.20958848"
		stroke-linejoin="miter"
		stroke-linecap="round"
		d="M732.78,1656.24C730.32,1656.08,728.46,1653.92,728.62,1651.40C728.78,1648.89,730.91,1646.98,733.37,1647.14C735.83,1647.30,737.69,1649.47,737.53,1651.98C737.36,1654.50,735.24,1656.40,732.78,1656.24z"/>
	<path
		fill="#9F9F9F"
		stroke="#9F9F9F"
		fill-opacity="0.5"
		stroke-opacity="0.5"
		fill-rule="nonzero"
		stroke-width="0.20958848"
		stroke-linejoin="miter"
		stroke-linecap="round"
		d="M724.06,1646.10C721.60,1645.94,719.74,1643.77,719.91,1641.26C720.07,1638.74,722.20,1636.83,724.66,1636.99C727.12,1637.15,728.98,1639.32,728.81,1641.84C728.65,1644.35,726.52,1646.26,724.06,1646.10z"/>
	<path
		fill="#9F9F9F"
		stroke="#9F9F9F"
		fill-opacity="0.5"
		stroke-opacity="0.5"
		fill-rule="nonzero"
		stroke-width="0.20958848"
		stroke-linejoin="miter"
		stroke-linecap="round"
		d="M716.22,1636.96C713.76,1636.80,711.90,1634.64,712.06,1632.12C712.23,1629.61,714.35,1627.70,716.81,1627.86C719.27,1628.02,721.13,1630.19,720.97,1632.70C720.81,1635.21,718.68,1637.12,716.22,1636.96z"/>
	<path
		fill="#9F9F9F"
		stroke="#9F9F9F"
		fill-opacity="0.5"
		stroke-opacity="0.5"
		fill-rule="nonzero"
		stroke-width="0.20958848"
		stroke-linejoin="miter"
		stroke-linecap="round"
		d="M790.96,1693.20C788.50,1693.04,786.64,1690.88,786.81,1688.36C786.97,1685.85,789.10,1683.94,791.56,1684.10C794.02,1684.26,795.88,1686.43,795.71,1688.94C795.55,1691.45,793.42,1693.36,790.96,1693.20z"/>
	<path
		fill="#9F9F9F"
		stroke="#9F9F9F"
		fill-opacity="0.5"
		stroke-opacity="0.5"
		fill-rule="nonzero"
		stroke-width="0.20958848"
		stroke-linejoin="miter"
		stroke-linecap="round"
		d="M782.33,1683.15C779.87,1682.99,778.01,1680.82,778.17,1678.31C778.33,1675.79,780.46,1673.88,782.92,1674.04C785.38,1674.20,787.24,1676.37,787.08,1678.89C786.92,1681.40,784.79,1683.31,782.33,1683.15z"/>
	<path
		fill="#9F9F9F"
		stroke="#9F9F9F"
		fill-opacity="0.5"
		stroke-opacity="0.5"
		fill-rule="nonzero"
		stroke-width="0.20958848"
		stroke-linejoin="miter"
		stroke-linecap="round"
		d="M773.70,1673.09C771.24,1672.93,769.37,1670.77,769.54,1668.25C769.70,1665.74,771.83,1663.83,774.29,1663.99C776.75,1664.15,778.61,1666.32,778.45,1668.83C778.28,1671.35,776.16,1673.25,773.70,1673.09z"/>
	<path
		fill="#9F9F9F"
		stroke="#9F9F9F"
		fill-opacity="0.5"
		stroke-opacity="0.5"
		fill-rule="nonzero"
		stroke-width="0.20958848"
		stroke-linejoin="miter"
		stroke-linecap="round"
		d="M765.06,1663.04C762.60,1662.88,760.74,1660.71,760.90,1658.20C761.07,1655.68,763.19,1653.78,765.65,1653.93C768.11,1654.09,769.97,1656.26,769.81,1658.78C769.65,1661.29,767.52,1663.20,765.06,1663.04z"/>
	<path
		fill="#9F9F9F"
		stroke="#9F9F9F"
		fill-opacity="0.5"
		stroke-opacity="0.5"
		fill-rule="nonzero"
		stroke-width="0.20958848"
		stroke-linejoin="miter"
		stroke-linecap="round"
		d="M756.43,1652.99C753.97,1652.83,752.11,1650.66,752.27,1648.14C752.43,1645.63,754.56,1643.72,757.02,1643.88C759.48,1644.04,761.34,1646.21,761.18,1648.72C761.01,1651.24,758.89,1653.15,756.43,1652.99z"/>
	<path
		fill="#9F9F9F"
		stroke="#9F9F9F"
		fill-opacity="0.5"
		stroke-opacity="0.5"
		fill-rule="nonzero"
		stroke-width="0.20958848"
		stroke-linejoin="miter"
		stroke-linecap="round"
		d="M747.71,1642.84C745.25,1642.68,743.39,1640.51,743.56,1638.00C743.72,1635.48,745.85,1633.57,748.31,1633.73C750.77,1633.89,752.63,1636.06,752.46,1638.58C752.30,1641.09,750.17,1643.00,747.71,1642.84z"/>
	<path
		fill="#9F9F9F"
		stroke="#9F9F9F"
		fill-opacity="0.5"
		stroke-opacity="0.5"
		fill-rule="nonzero"
		stroke-width="0.20958848"
		stroke-linejoin="miter"
		stroke-linecap="round"
		d="M739.00,1632.69C736.54,1632.53,734.68,1630.37,734.84,1627.85C735.01,1625.34,737.13,1623.43,739.59,1623.59C742.05,1623.75,743.91,1625.92,743.75,1628.43C743.59,1630.94,741.46,1632.85,739.00,1632.69z"/>
	<path
		fill="#9F9F9F"
		stroke="#9F9F9F"
		fill-opacity="0.5"
		stroke-opacity="0.5"
		fill-rule="nonzero"
		stroke-width="0.20958848"
		stroke-linejoin="miter"
		stroke-linecap="round"
		d="M731.16,1623.56C728.70,1623.40,726.83,1621.23,727.00,1618.72C727.16,1616.20,729.29,1614.29,731.75,1614.45C734.21,1614.61,736.07,1616.78,735.91,1619.30C735.74,1621.81,733.62,1623.72,731.16,1623.56z"/>
	<path
		fill="#FFFFFF"
		stroke="#9F9F9F"
		fill-opacity="0.000"
		stroke-opacity="0.5"
		fill-rule="nonzero"
		stroke-width="3.303361"
		stroke-linejoin="miter"
		stroke-linecap="round"
		d="M373.89,1310.72L404.73,1289.88A6.20 6.20 0 0 1 413.34,1291.55L434.59,1323.00A6.20 6.20 0 0 1 432.93,1331.62L402.08,1352.45A6.20 6.20 0 0 1 393.47,1350.78L372.22,1319.33A6.20 6.20 0 0 1 373.89,1310.72z"/>
	<path
		fill="#FFFFFF"
		stroke="#9F9F9F"
		fill-opacity="0.000"
		stroke-opacity="0.5"
		fill-rule="nonzero"
		stroke-width="3.1039095"
		stroke-linejoin="miter"
		stroke-linecap="round"
		d="M383.78,1281.66L414.62,1260.83A6.20 6.20 0 0 1 423.24,1262.49L444.49,1293.95A6.20 6.20 0 0 1 442.82,1302.56L411.98,1323.40A6.20 6.20 0 0 1 403.37,1321.73L382.12,1290.27A6.20 6.20 0 0 1 383.78,1281.66z"/>
	<path
		fill="#FFFFFF"
		stroke="#9F9F9F"
		fill-opacity="0.000"
		stroke-opacity="0.5"
		fill-rule="nonzero"
		stroke-width="3.303361"
		stroke-linejoin="miter"
		stroke-linecap="round"
		d="M431.93,1290.64L462.77,1269.80A6.20 6.20 0 0 1 471.39,1271.47L492.64,1302.93A6.20 6.20 0 0 1 490.97,1311.54L460.13,1332.37A6.20 6.20 0 0 1 451.51,1330.71L430.26,1299.25A6.20 6.20 0 0 1 431.93,1290.64z"/>
	<path
		fill="#9F9F9F"
		stroke="#9F9F9F"
		fill-opacity="0.5"
		stroke-opacity="0.5"
		fill-rule="nonzero"
		stroke-width="0.027093498"
		stroke-linejoin="miter"
		stroke-linecap="round"
		d="M401.85,1358.66C402.28,1356.28,404.57,1354.71,406.98,1355.14C409.40,1355.57,411.01,1357.84,410.58,1360.22C410.16,1362.59,407.86,1364.16,405.45,1363.73C403.04,1363.30,401.43,1361.03,401.85,1358.66z"/>
	<path
		fill="#9F9F9F"
		stroke="#9F9F9F"
		fill-opacity="0.5"
		stroke-opacity="0.5"
		fill-rule="nonzero"
		stroke-width="0.027093498"
		stroke-linejoin="miter"
		stroke-linecap="round"
		d="M409.59,1353.35C410.01,1350.98,412.31,1349.40,414.72,1349.83C417.14,1350.26,418.75,1352.54,418.32,1354.91C417.90,1357.28,415.60,1358.86,413.19,1358.43C410.78,1358.00,409.17,1355.73,409.59,1353.35z"/>
	<path
		fill="#9F9F9F"
		stroke="#9F9F9F"
		fill-opacity="0.5"
		stroke-opacity="0.5"
		fill-rule="nonzero"
		stroke-width="0.027093498"
		stroke-linejoin="miter"
		stroke-linecap="round"
		d="M417.33,1348.05C417.75,1345.67,420.05,1344.10,422.46,1344.53C424.88,1344.96,426.49,1347.23,426.06,1349.61C425.64,1351.98,423.34,1353.55,420.93,1353.12C418.52,1352.69,416.91,1350.42,417.33,1348.05z"/>
	<path
		fill="#9F9F9F"
		stroke="#9F9F9F"
		fill-opacity="0.5"
		stroke-opacity="0.5"
		fill-rule="nonzero"
		stroke-width="0.027093498"
		stroke-linejoin="miter"
		stroke-linecap="round"
		d="M425.07,1342.74C425.49,1340.37,427.79,1338.79,430.20,1339.22C432.61,1339.66,434.23,1341.93,433.80,1344.30C433.38,1346.67,431.08,1348.25,428.67,1347.82C426.26,1347.39,424.65,1345.12,425.07,1342.74z"/>
	<path
		fill="#9F9F9F"
		stroke="#9F9F9F"
		fill-opacity="0.5"
		stroke-opacity="0.5"
		fill-rule="nonzero"
		stroke-width="0.027093498"
		stroke-linejoin="miter"
		stroke-linecap="round"
		d="M432.81,1337.44C433.23,1335.07,435.53,1333.49,437.94,1333.92C440.35,1334.35,441.97,1336.62,441.54,1339.00C441.12,1341.37,438.82,1342.94,436.41,1342.51C434.00,1342.08,432.39,1339.81,432.81,1337.44z"/>
	<path
		fill="#9E9E9E"
		stroke="#9E9E9E"
		fill-opacity="0.000"
		stroke-opacity="0.5"
		fill-rule="nonzero"
		stroke-width="4.036831"
		stroke-linejoin="miter"
		stroke-linecap="round"
		d="M765.44,2340.41C754.14,2347.35,739.35,2343.81,732.40,2332.51C725.46,2321.21,729.00,2306.42,740.30,2299.47C751.61,2292.53,766.40,2296.07,773.34,2307.37C780.28,2318.67,776.75,2333.47,765.44,2340.41z"/>
	<path
		fill="#9E9E9E"
		stroke="#9E9E9E"
		fill-opacity="0.000"
		stroke-opacity="0.5"
		fill-rule="nonzero"
		stroke-width="4.036831"
		stroke-linejoin="miter"
		stroke-linecap="round"
		d="M759.56,2363.73C748.26,2370.68,733.47,2367.14,726.53,2355.84C719.58,2344.53,723.12,2329.74,734.42,2322.80C745.73,2315.85,760.52,2319.39,767.46,2330.69C774.40,2342.00,770.87,2356.79,759.56,2363.73z"/>
	<path
		fill="#9E9E9E"
		stroke="#9E9E9E"
		fill-opacity="0.000"
		stroke-opacity="0.5"
		fill-rule="nonzero"
		stroke-width="4.036831"
		stroke-linejoin="miter"
		stroke-linecap="round"
		d="M741.75,2347.73C730.45,2354.67,715.66,2351.14,708.71,2339.83C701.77,2328.53,705.31,2313.74,716.61,2306.79C727.91,2299.85,742.71,2303.39,749.65,2314.69C756.59,2326.00,753.06,2340.79,741.75,2347.73z"/>
	<path
		fill="#9E9E9E"
		stroke="#9E9E9E"
		fill-opacity="0.000"
		stroke-opacity="0.5"
		fill-rule="nonzero"
		stroke-width="4.0368395"
		stroke-linejoin="miter"
		stroke-linecap="round"
		d="M150.34,2012.93L201.18,2011.36A8.10 8.10 0 0 1 209.52,2019.20L211.08,2069.81A8.10 8.10 0 0 1 203.24,2078.15L152.40,2079.72A8.10 8.10 0 0 1 144.05,2071.87L142.50,2021.27A8.10 8.10 0 0 1 150.34,2012.93zM210.79,2056.51C198.98,2056.87,189.71,2066.74,190.07,2078.55C190.43,2090.36,200.30,2099.63,212.11,2099.27C223.92,2098.91,233.20,2089.04,232.83,2077.23C232.47,2065.42,222.60,2056.15,210.79,2056.51z"/>
	<path
		fill="#9E9E9E"
		stroke="#9E9E9E"
		fill-opacity="0.5"
		stroke-opacity="0.5"
		fill-rule="nonzero"
		stroke-width="0.0"
		stroke-linejoin="miter"
		stroke-linecap="round"
		d="M202.59,2065.87C204.49,2065.81,206.08,2067.30,206.14,2069.20C206.19,2071.10,204.70,2072.69,202.80,2072.75C200.90,2072.81,199.31,2071.32,199.25,2069.42C199.20,2067.52,200.69,2065.93,202.59,2065.87z"/>
	<path
		fill="#9E9E9E"
		stroke="#9E9E9E"
		fill-opacity="0.5"
		stroke-opacity="0.5"
		fill-rule="nonzero"
		stroke-width="3.441485"
		stroke-linejoin="miter"
		stroke-linecap="round"
		d="M163.07,1478.58L182.62,1406.82L254.38,1426.37L234.83,1498.13zM190.79,1447.59C188.09,1457.50,193.93,1467.72,203.84,1470.42C213.75,1473.12,223.97,1467.27,226.67,1457.37C229.37,1447.46,223.52,1437.24,213.62,1434.54C203.71,1431.84,193.49,1437.68,190.79,1447.59z"/>
	<path
		fill="#9E9E9E"
		stroke="#9E9E9E"
		fill-opacity="0.5"
		stroke-opacity="0.5"
		fill-rule="nonzero"
		stroke-width="3.441485"
		stroke-linejoin="miter"
		stroke-linecap="round"
		d="M199.16,1488.41L218.47,1416.59"/>
</svg>