<?xml version="1.0" encoding="utf-8"?>
<svg
	version="1.1"
	xmlns="http://www.w3.org/2000/svg"
	xmlns:xlink="http://www.w3.org/1999/xlink"
	x="0%" y="0%"
	width="100%" height="100%"
	viewBox="0 0 1170.0 2532.0"
	enable-background="new 0 0 1170.0 2532.0"
	xml:space="preserve">
	<path
		fill="#9F9F9F"
		stroke="#9F9F9F"
		fill-opacity="0.5"
		stroke-opacity="0.5"
		fill-rule="nonzero"
		stroke-width="0.17476451"
		stroke-linejoin="miter"
		stroke-linecap="round"
		d="M157.49,1795.08C157.68,1792.80,159.66,1791.11,161.92,1791.30C164.18,1791.49,165.85,1793.49,165.66,1795.77C165.47,1798.04,163.48,1799.74,161.23,1799.55C158.97,1799.36,157.30,1797.36,157.49,1795.08z"/>
	<path
		fill="#000000"
		stroke="#9F9F9F"
		fill-opacity="0.000"
		stroke-opacity="0.5"
		fill-rule="nonzero"
		stroke-width="3.4988248"
		stroke-linejoin="miter"
		stroke-linecap="round"
		d="M185.82,1855.81L159.44,1824.27L190.11,1798.11L163.71,1766.57L194.38,1740.41"/>
	<path
		fill="#000000"
		stroke="#9F9F9F"
		fill-opacity="0.000"
		stroke-opacity="0.5"
		fill-rule="nonzero"
		stroke-width="3.4988248"
		stroke-linejoin="miter"
		stroke-linecap="round"
		d="M150.88,1939.67L124.50,1908.14L155.15,1881.97L128.77,1850.44L159.44,1824.27L133.05,1792.73L163.71,1766.57L137.32,1735.04L167.99,1708.87"/>
	<path
		fill="#000000"
		stroke="#9F9F9F"
		fill-opacity="0.000"
		stroke-opacity="0.5"
		fill-rule="nonzero"
		stroke-width="3.7765882"
		stroke-linejoin="miter"
		stroke-linecap="round"
		d="M1056.89,337.70A28.18 28.81 19.93 1 1 1003.92,318.47A27.57 28.18 19.93 1 0 1003.18,310.26"/>
	<path
		fill="#000000"
		stroke="#9F9F9F"
		fill-opacity="0.000"
		stroke-opacity="0.5"
		fill-rule="nonzero"
		stroke-width="3.7765882"
		stroke-linejoin="miter"
		stroke-linecap="round"
		d="M1079.18,396.84A27.99 28.61 234.94 1 1 1046.56,351.35A27.99 28.61 234.94 1 0 1013.94,305.86A27.99 28.61 234.94 1 1 981.32,260.38A27.99 28.61 234.94 1 0 948.70,214.89"/>
	<path
		fill="#000000"
		stroke="#9F9F9F"
		fill-opacity="0"
		stroke-opacity="0.5"
		fill-rule="nonzero"
		stroke-width="4.081762"
		stroke-linejoin="miter"
		stroke-linecap="round"
		d="M229.34,2332.15L252.49,2300.38L284.02,2323.37L260.86,2355.13z"/>
	<path
		fill="#000000"
		stroke="#9F9F9F"
		fill-opacity="0.000"
		stroke-opacity="0.5"
		fill-rule="nonzero"
		stroke-width="4.081762"
		stroke-linejoin="miter"
		stroke-linecap="round"
		d="M228.53,2291.10L247.51,2265.07L272.96,2283.61L253.98,2309.65z"/>
	<path
		fill="#000000"
		stroke="#9F9F9F"
		fill-opacity="0.000"
		stroke-opacity="0.5"
		fill-rule="nonzero"
		stroke-width="4.081762"
		stroke-linejoin="miter"
		stroke-linecap="round"
		d="M307.33,2307.34L272.15,2324.52L299.16,2347.29L307.33,2307.34z"/>
	<path
		fill="#000000"
		stroke="#9F9F9F"
		fill-opacity="0.000"
		stroke-opacity="0.5"
		fill-rule="nonzero"
		stroke-width="4.0817575"
		stroke-linejoin="miter"
		stroke-linecap="round"
		d="M1048.70,1491.38L1034.14,1540.26L1000.27,1510.66L1048.70,1491.38z"/>
	<path
		fill="#000000"
		stroke="#9F9F9F"
		fill-opacity="0"
		stroke-opacity="0.5"
		fill-rule="nonzero"
		stroke-width="4.0368285"
		stroke-linejoin="miter"
		stroke-linecap="round"
		d="M1031.80,1054.64L1084.64,1073.87L1065.59,1126.21L1012.75,1106.98z"/>
	<path
		fill="#000000"
		stroke="#9F9F9F"
		fill-opacity="0.000"
		stroke-opacity="0.5"
		fill-rule="nonzero"
		stroke-width="4.0368285"
		stroke-linejoin="miter"
		stroke-linecap="round"
		d="M1002.86,1036.46L1046.17,1052.22L1030.79,1094.47L987.49,1078.71z"/>
	<path
		fill="#000000"
		stroke="#9F9F9F"
		fill-opacity="0.000"
		stroke-opacity="0.5"
		fill-rule="nonzero"
		stroke-width="4.0817575"
		stroke-linejoin="miter"
		stroke-linecap="round"
		d="M1021.55,1529.65C1010.83,1541.66,992.61,1542.90,980.86,1532.41C969.11,1521.92,968.28,1503.68,979.00,1491.67C989.72,1479.66,1007.93,1478.43,1019.68,1488.92C1031.43,1499.40,1032.26,1517.64,1021.55,1529.65z"/>
	<path
		fill="#000000"
		stroke="#9F9F9F"
		fill-opacity="0.000"
		stroke-opacity="0.5"
		fill-rule="nonzero"
		stroke-width="3.5099978"
		stroke-linejoin="miter"
		stroke-linecap="round"
		d="M1032.79,656.79L1014.05,587.47"/>
	<path
		fill="#000000"
		stroke="#9F9F9F"
		fill-opacity="0.000"
		stroke-opacity="0.5"
		fill-rule="nonzero"
		stroke-width="3.5099978"
		stroke-linejoin="miter"
		stroke-linecap="round"
		d="M1056.04,651.99L1037.30,582.66"/>
	<path
		fill="#000000"
		stroke="#9F9F9F"
		fill-opacity="0.000"
		stroke-opacity="0.5"
		fill-rule="nonzero"
		stroke-width="3.5099978"
		stroke-linejoin="miter"
		stroke-linecap="round"
		d="M1079.29,647.18L1060.55,577.85"/>
	<path
		fill="#9F9F9F"
		stroke="#9F9F9F"
		fill-opacity="0.5"
		stroke-opacity="0.5"
		fill-rule="nonzero"
		stroke-width="0.20958865"
		stroke-linejoin="miter"
		stroke-linecap="round"
		d="M150.73,1371.40C148.54,1370.27,147.70,1367.54,148.85,1365.30C150.00,1363.06,152.71,1362.15,154.90,1363.28C157.10,1364.41,157.94,1367.14,156.79,1369.38C155.63,1371.62,152.92,1372.52,150.73,1371.40z"/>
	<path
		fill="#9F9F9F"
		stroke="#9F9F9F"
		fill-opacity="0.5"
		stroke-opacity="0.5"
		fill-rule="nonzero"
		stroke-width="0.20958865"
		stroke-linejoin="miter"
		stroke-linecap="round"
		d="M146.82,1358.73C144.63,1357.60,143.79,1354.87,144.94,1352.63C146.09,1350.39,148.80,1349.49,151.00,1350.62C153.19,1351.75,154.03,1354.48,152.88,1356.72C151.73,1358.96,149.01,1359.86,146.82,1358.73z"/>
	<path
		fill="#9F9F9F"
		stroke="#9F9F9F"
		fill-opacity="0.5"
		stroke-opacity="0.5"
		fill-rule="nonzero"
		stroke-width="0.20958865"
		stroke-linejoin="miter"
		stroke-linecap="round"
		d="M142.91,1346.07C140.72,1344.94,139.88,1342.21,141.03,1339.97C142.18,1337.73,144.89,1336.83,147.09,1337.95C149.28,1339.08,150.12,1341.81,148.97,1344.05C147.82,1346.29,145.11,1347.20,142.91,1346.07z"/>
	<path
		fill="#9F9F9F"
		stroke="#9F9F9F"
		fill-opacity="0.5"
		stroke-opacity="0.5"
		fill-rule="nonzero"
		stroke-width="0.20958865"
		stroke-linejoin="miter"
		stroke-linecap="round"
		d="M139.00,1333.41C136.81,1332.28,135.97,1329.55,137.12,1327.31C138.27,1325.07,140.99,1324.16,143.18,1325.29C145.37,1326.42,146.21,1329.15,145.06,1331.39C143.91,1333.63,141.20,1334.53,139.00,1333.41z"/>
	<path
		fill="#9F9F9F"
		stroke="#9F9F9F"
		fill-opacity="0.5"
		stroke-opacity="0.5"
		fill-rule="nonzero"
		stroke-width="0.20958865"
		stroke-linejoin="miter"
		stroke-linecap="round"
		d="M135.10,1320.74C132.90,1319.61,132.06,1316.88,133.21,1314.64C134.37,1312.40,137.08,1311.50,139.27,1312.63C141.46,1313.76,142.30,1316.49,141.15,1318.73C140.00,1320.97,137.29,1321.87,135.10,1320.74z"/>
	<path
		fill="#9F9F9F"
		stroke="#9F9F9F"
		fill-opacity="0.5"
		stroke-opacity="0.5"
		fill-rule="nonzero"
		stroke-width="0.20958865"
		stroke-linejoin="miter"
		stroke-linecap="round"
		d="M131.15,1307.96C128.96,1306.84,128.12,1304.11,129.27,1301.86C130.42,1299.62,133.13,1298.72,135.32,1299.85C137.52,1300.98,138.36,1303.71,137.21,1305.95C136.05,1308.19,133.34,1309.09,131.15,1307.96z"/>
	<path
		fill="#9F9F9F"
		stroke="#9F9F9F"
		fill-opacity="0.5"
		stroke-opacity="0.5"
		fill-rule="nonzero"
		stroke-width="0.20958865"
		stroke-linejoin="miter"
		stroke-linecap="round"
		d="M127.21,1295.18C125.01,1294.06,124.17,1291.33,125.32,1289.09C126.48,1286.84,129.19,1285.94,131.38,1287.07C133.57,1288.20,134.41,1290.93,133.26,1293.17C132.11,1295.41,129.40,1296.31,127.21,1295.18z"/>
	<path
		fill="#9F9F9F"
		stroke="#9F9F9F"
		fill-opacity="0.5"
		stroke-opacity="0.5"
		fill-rule="nonzero"
		stroke-width="0.20958865"
		stroke-linejoin="miter"
		stroke-linecap="round"
		d="M123.65,1283.68C121.46,1282.55,120.62,1279.82,121.77,1277.58C122.92,1275.34,125.64,1274.44,127.83,1275.56C130.02,1276.69,130.86,1279.42,129.71,1281.66C128.56,1283.90,125.85,1284.81,123.65,1283.68z"/>
	<path
		fill="#9F9F9F"
		stroke="#9F9F9F"
		fill-opacity="0.5"
		stroke-opacity="0.5"
		fill-rule="nonzero"
		stroke-width="0.20958865"
		stroke-linejoin="miter"
		stroke-linecap="round"
		d="M169.77,1365.06C167.58,1363.93,166.74,1361.20,167.89,1358.96C169.04,1356.72,171.76,1355.82,173.95,1356.94C176.14,1358.07,176.98,1360.80,175.83,1363.04C174.68,1365.28,171.97,1366.19,169.77,1365.06z"/>
	<path
		fill="#9F9F9F"
		stroke="#9F9F9F"
		fill-opacity="0.5"
		stroke-opacity="0.5"
		fill-rule="nonzero"
		stroke-width="0.20958865"
		stroke-linejoin="miter"
		stroke-linecap="round"
		d="M165.86,1352.39C163.67,1351.27,162.83,1348.54,163.98,1346.30C165.13,1344.06,167.85,1343.15,170.04,1344.28C172.23,1345.41,173.07,1348.14,171.92,1350.38C170.77,1352.62,168.06,1353.52,165.86,1352.39z"/>
	<path
		fill="#9F9F9F"
		stroke="#9F9F9F"
		fill-opacity="0.5"
		stroke-opacity="0.5"
		fill-rule="nonzero"
		stroke-width="0.20958865"
		stroke-linejoin="miter"
		stroke-linecap="round"
		d="M161.96,1339.73C159.76,1338.60,158.92,1335.87,160.07,1333.63C161.23,1331.39,163.94,1330.49,166.13,1331.62C168.32,1332.74,169.16,1335.47,168.01,1337.72C166.86,1339.96,164.15,1340.86,161.96,1339.73z"/>
	<path
		fill="#9F9F9F"
		stroke="#9F9F9F"
		fill-opacity="0.5"
		stroke-opacity="0.5"
		fill-rule="nonzero"
		stroke-width="0.20958865"
		stroke-linejoin="miter"
		stroke-linecap="round"
		d="M158.05,1327.07C155.85,1325.94,155.01,1323.21,156.16,1320.97C157.32,1318.73,160.03,1317.83,162.22,1318.95C164.41,1320.08,165.26,1322.81,164.10,1325.05C162.95,1327.29,160.24,1328.20,158.05,1327.07z"/>
	<path
		fill="#9F9F9F"
		stroke="#9F9F9F"
		fill-opacity="0.5"
		stroke-opacity="0.5"
		fill-rule="nonzero"
		stroke-width="0.20958865"
		stroke-linejoin="miter"
		stroke-linecap="round"
		d="M154.14,1314.40C151.95,1313.28,151.10,1310.55,152.25,1308.31C153.41,1306.06,156.12,1305.16,158.31,1306.29C160.50,1307.42,161.35,1310.15,160.19,1312.39C159.04,1314.63,156.33,1315.53,154.14,1314.40z"/>
	<path
		fill="#9F9F9F"
		stroke="#9F9F9F"
		fill-opacity="0.5"
		stroke-opacity="0.5"
		fill-rule="nonzero"
		stroke-width="0.20958865"
		stroke-linejoin="miter"
		stroke-linecap="round"
		d="M150.19,1301.63C148.00,1300.50,147.16,1297.77,148.31,1295.53C149.46,1293.29,152.17,1292.38,154.37,1293.51C156.56,1294.64,157.40,1297.37,156.25,1299.61C155.10,1301.85,152.39,1302.75,150.19,1301.63z"/>
	<path
		fill="#9F9F9F"
		stroke="#9F9F9F"
		fill-opacity="0.5"
		stroke-opacity="0.5"
		fill-rule="nonzero"
		stroke-width="0.20958865"
		stroke-linejoin="miter"
		stroke-linecap="round"
		d="M146.25,1288.85C144.06,1287.72,143.21,1284.99,144.37,1282.75C145.52,1280.51,148.23,1279.60,150.42,1280.73C152.61,1281.86,153.46,1284.59,152.30,1286.83C151.15,1289.07,148.44,1289.97,146.25,1288.85z"/>
	<path
		fill="#9F9F9F"
		stroke="#9F9F9F"
		fill-opacity="0.5"
		stroke-opacity="0.5"
		fill-rule="nonzero"
		stroke-width="0.20958865"
		stroke-linejoin="miter"
		stroke-linecap="round"
		d="M142.70,1277.34C140.50,1276.21,139.66,1273.48,140.81,1271.24C141.97,1269.00,144.68,1268.10,146.87,1269.23C149.06,1270.35,149.91,1273.08,148.75,1275.33C147.60,1277.57,144.89,1278.47,142.70,1277.34z"/>
	<path
		fill="#9F9F9F"
		stroke="#9F9F9F"
		fill-opacity="0.5"
		stroke-opacity="0.5"
		fill-rule="nonzero"
		stroke-width="0.20958865"
		stroke-linejoin="miter"
		stroke-linecap="round"
		d="M188.82,1358.72C186.62,1357.59,185.78,1354.86,186.93,1352.62C188.09,1350.38,190.80,1349.48,192.99,1350.61C195.18,1351.73,196.03,1354.46,194.87,1356.70C193.72,1358.95,191.01,1359.85,188.82,1358.72z"/>
	<path
		fill="#9F9F9F"
		stroke="#9F9F9F"
		fill-opacity="0.5"
		stroke-opacity="0.5"
		fill-rule="nonzero"
		stroke-width="0.20958865"
		stroke-linejoin="miter"
		stroke-linecap="round"
		d="M184.91,1346.06C182.72,1344.93,181.87,1342.20,183.03,1339.96C184.18,1337.72,186.89,1336.82,189.08,1337.94C191.27,1339.07,192.12,1341.80,190.96,1344.04C189.81,1346.28,187.10,1347.18,184.91,1346.06z"/>
	<path
		fill="#9F9F9F"
		stroke="#9F9F9F"
		fill-opacity="0.5"
		stroke-opacity="0.5"
		fill-rule="nonzero"
		stroke-width="0.20958865"
		stroke-linejoin="miter"
		stroke-linecap="round"
		d="M181.00,1333.39C178.81,1332.27,177.96,1329.54,179.12,1327.29C180.27,1325.05,182.98,1324.15,185.17,1325.28C187.36,1326.41,188.21,1329.14,187.05,1331.38C185.90,1333.62,183.19,1334.52,181.00,1333.39z"/>
	<path
		fill="#9F9F9F"
		stroke="#9F9F9F"
		fill-opacity="0.5"
		stroke-opacity="0.5"
		fill-rule="nonzero"
		stroke-width="0.20958865"
		stroke-linejoin="miter"
		stroke-linecap="round"
		d="M177.09,1320.73C174.90,1319.60,174.05,1316.87,175.21,1314.63C176.36,1312.39,179.07,1311.49,181.26,1312.62C183.46,1313.74,184.30,1316.47,183.15,1318.71C181.99,1320.95,179.28,1321.86,177.09,1320.73z"/>
	<path
		fill="#9F9F9F"
		stroke="#9F9F9F"
		fill-opacity="0.5"
		stroke-opacity="0.5"
		fill-rule="nonzero"
		stroke-width="0.20958865"
		stroke-linejoin="miter"
		stroke-linecap="round"
		d="M173.18,1308.07C170.99,1306.94,170.15,1304.21,171.30,1301.97C172.45,1299.73,175.16,1298.82,177.35,1299.95C179.55,1301.08,180.39,1303.81,179.24,1306.05C178.08,1308.29,175.37,1309.19,173.18,1308.07z"/>
	<path
		fill="#9F9F9F"
		stroke="#9F9F9F"
		fill-opacity="0.5"
		stroke-opacity="0.5"
		fill-rule="nonzero"
		stroke-width="0.20958865"
		stroke-linejoin="miter"
		stroke-linecap="round"
		d="M169.24,1295.29C167.04,1294.16,166.20,1291.43,167.35,1289.19C168.51,1286.95,171.22,1286.05,173.41,1287.17C175.60,1288.30,176.44,1291.03,175.29,1293.27C174.14,1295.51,171.43,1296.42,169.24,1295.29z"/>
	<path
		fill="#9F9F9F"
		stroke="#9F9F9F"
		fill-opacity="0.5"
		stroke-opacity="0.5"
		fill-rule="nonzero"
		stroke-width="0.20958865"
		stroke-linejoin="miter"
		stroke-linecap="round"
		d="M165.29,1282.51C163.10,1281.38,162.26,1278.65,163.41,1276.41C164.56,1274.17,167.27,1273.27,169.46,1274.39C171.66,1275.52,172.50,1278.25,171.35,1280.49C170.19,1282.73,167.48,1283.64,165.29,1282.51z"/>
	<path
		fill="#9F9F9F"
		stroke="#9F9F9F"
		fill-opacity="0.5"
		stroke-opacity="0.5"
		fill-rule="nonzero"
		stroke-width="0.20958865"
		stroke-linejoin="miter"
		stroke-linecap="round"
		d="M161.74,1271.00C159.55,1269.88,158.70,1267.15,159.86,1264.90C161.01,1262.66,163.72,1261.76,165.91,1262.89C168.11,1264.02,168.95,1266.75,167.80,1268.99C166.64,1271.23,163.93,1272.13,161.74,1271.00z"/>
	<path
		fill="#FFFFFF"
		stroke="#9F9F9F"
		fill-opacity="0.000"
		stroke-opacity="0.5"
		fill-rule="nonzero"
		stroke-width="3.303361"
		stroke-linejoin="miter"
		stroke-linecap="round"
		d="M315.13,201.70L351.31,192.96A6.20 6.20 0 0 1 358.80,197.53L367.71,234.43A6.20 6.20 0 0 1 363.14,241.92L326.96,250.66A6.20 6.20 0 0 1 319.47,246.09L310.56,209.19A6.20 6.20 0 0 1 315.13,201.70z"/>
	<path
		fill="#FFFFFF"
		stroke="#9F9F9F"
		fill-opacity="0.000"
		stroke-opacity="0.5"
		fill-rule="nonzero"
		stroke-width="3.1039095"
		stroke-linejoin="miter"
		stroke-linecap="round"
		d="M334.56,177.94L370.74,169.20A6.20 6.20 0 0 1 378.22,173.77L387.13,210.67A6.20 6.20 0 0 1 382.56,218.16L346.38,226.90A6.20 6.20 0 0 1 338.90,222.32L329.98,185.42A6.20 6.20 0 0 1 334.56,177.94z"/>
	<path
		fill="#FFFFFF"
		stroke="#9F9F9F"
		fill-opacity="0.000"
		stroke-opacity="0.5"
		fill-rule="nonzero"
		stroke-width="3.303361"
		stroke-linejoin="miter"
		stroke-linecap="round"
		d="M376.53,203.18L412.71,194.44A6.20 6.20 0 0 1 420.20,199.01L429.11,235.91A6.20 6.20 0 0 1 424.54,243.40L388.36,252.14A6.20 6.20 0 0 1 380.87,247.57L371.96,210.67A6.20 6.20 0 0 1 376.53,203.18z"/>
	<path
		fill="#9F9F9F"
		stroke="#9F9F9F"
		fill-opacity="0.5"
		stroke-opacity="0.5"
		fill-rule="nonzero"
		stroke-width="0.027093496"
		stroke-linejoin="miter"
		stroke-linecap="round"
		d="M324.57,256.39C325.80,254.32,328.50,253.64,330.61,254.89C332.72,256.14,333.43,258.83,332.21,260.90C330.98,262.98,328.28,263.65,326.17,262.41C324.06,261.16,323.34,258.47,324.57,256.39z"/>
	<path
		fill="#9F9F9F"
		stroke="#9F9F9F"
		fill-opacity="0.5"
		stroke-opacity="0.5"
		fill-rule="nonzero"
		stroke-width="0.027093496"
		stroke-linejoin="miter"
		stroke-linecap="round"
		d="M333.68,254.13C334.90,252.05,337.61,251.38,339.71,252.63C341.82,253.87,342.54,256.56,341.31,258.64C340.08,260.72,337.38,261.39,335.27,260.14C333.16,258.90,332.45,256.20,333.68,254.13z"/>
	<path
		fill="#9F9F9F"
		stroke="#9F9F9F"
		fill-opacity="0.5"
		stroke-opacity="0.5"
		fill-rule="nonzero"
		stroke-width="0.027093496"
		stroke-linejoin="miter"
		stroke-linecap="round"
		d="M342.78,251.86C344.01,249.79,346.71,249.12,348.82,250.36C350.93,251.61,351.64,254.30,350.42,256.38C349.19,258.45,346.49,259.12,344.38,257.88C342.27,256.63,341.55,253.94,342.78,251.86z"/>
	<path
		fill="#9F9F9F"
		stroke="#9F9F9F"
		fill-opacity="0.5"
		stroke-opacity="0.5"
		fill-rule="nonzero"
		stroke-width="0.027093496"
		stroke-linejoin="miter"
		stroke-linecap="round"
		d="M351.89,249.60C353.11,247.52,355.82,246.85,357.93,248.10C360.03,249.34,360.75,252.04,359.52,254.11C358.30,256.19,355.59,256.86,353.48,255.61C351.38,254.37,350.66,251.67,351.89,249.60z"/>
	<path
		fill="#9F9F9F"
		stroke="#9F9F9F"
		fill-opacity="0.5"
		stroke-opacity="0.5"
		fill-rule="nonzero"
		stroke-width="0.027093496"
		stroke-linejoin="miter"
		stroke-linecap="round"
		d="M360.99,247.33C362.22,245.26,364.92,244.59,367.03,245.83C369.14,247.08,369.85,249.77,368.63,251.85C367.40,253.92,364.70,254.59,362.59,253.35C360.48,252.10,359.77,249.41,360.99,247.33z"/>
	<path
		fill="#9E9E9E"
		stroke="#9E9E9E"
		fill-opacity="0.000"
		stroke-opacity="0.5"
		fill-rule="nonzero"
		stroke-width="4.081762"
		stroke-linejoin="miter"
		stroke-linecap="round"
		d="M116.38,616.42C116.56,628.70,106.53,638.82,93.97,639.00C81.41,639.19,71.08,629.38,70.90,617.10C70.72,604.81,80.75,594.70,93.31,594.51C105.87,594.32,116.20,604.13,116.38,616.42z"/>
	<path
		fill="#9E9E9E"
		stroke="#9E9E9E"
		fill-opacity="0.000"
		stroke-opacity="0.5"
		fill-rule="nonzero"
		stroke-width="4.036834"
		stroke-linejoin="miter"
		stroke-linecap="round"
		d="M825.39,1897.38C814.08,1904.32,799.29,1900.79,792.35,1889.48C785.41,1878.18,788.94,1863.39,800.25,1856.45C811.55,1849.50,826.34,1853.04,833.29,1864.34C840.23,1875.65,836.69,1890.44,825.39,1897.38z"/>
	<path
		fill="#9E9E9E"
		stroke="#9E9E9E"
		fill-opacity="0.000"
		stroke-opacity="0.5"
		fill-rule="nonzero"
		stroke-width="4.036834"
		stroke-linejoin="miter"
		stroke-linecap="round"
		d="M819.51,1920.71C808.21,1927.65,793.41,1924.11,786.47,1912.81C779.53,1901.50,783.07,1886.71,794.37,1879.77C805.67,1872.83,820.47,1876.36,827.41,1887.67C834.35,1898.97,830.81,1913.76,819.51,1920.71z"/>
	<path
		fill="#9E9E9E"
		stroke="#9E9E9E"
		fill-opacity="0.000"
		stroke-opacity="0.5"
		fill-rule="nonzero"
		stroke-width="4.036834"
		stroke-linejoin="miter"
		stroke-linecap="round"
		d="M801.70,1904.70C790.39,1911.64,775.60,1908.11,768.66,1896.81C761.72,1885.50,765.25,1870.71,776.56,1863.77C787.86,1856.82,802.65,1860.36,809.59,1871.66C816.54,1882.97,813.00,1897.76,801.70,1904.70z"/>
	<path
		fill="#9E9E9E"
		stroke="#9E9E9E"
		fill-opacity="0.000"
		stroke-opacity="0.5"
		fill-rule="nonzero"
		stroke-width="4.0368304"
		stroke-linejoin="miter"
		stroke-linecap="round"
		d="M980.37,2280.22L1031.21,2278.66A8.10 8.10 0 0 1 1039.55,2286.50L1041.11,2337.11A8.10 8.10 0 0 1 1033.26,2345.45L982.43,2347.01A8.10 8.10 0 0 1 974.08,2339.17L972.52,2288.56A8.10 8.10 0 0 1 980.37,2280.22zM1040.82,2323.80C1029.01,2324.17,1019.73,2334.04,1020.10,2345.84C1020.46,2357.65,1030.33,2366.93,1042.14,2366.57C1053.95,2366.20,1063.22,2356.34,1062.86,2344.53C1062.50,2332.72,1052.63,2323.44,1040.82,2323.80z"/>
	<path
		fill="#9E9E9E"
		stroke="#9E9E9E"
		fill-opacity="0.5"
		stroke-opacity="0.5"
		fill-rule="nonzero"
		stroke-width="0.0"
		stroke-linejoin="miter"
		stroke-linecap="round"
		d="M1032.62,2333.17C1034.52,2333.11,1036.11,2334.60,1036.16,2336.50C1036.22,2338.40,1034.73,2339.99,1032.83,2340.05C1030.93,2340.11,1029.34,2338.61,1029.28,2336.71C1029.22,2334.81,1030.72,2333.22,1032.62,2333.17z"/>
	<path
		fill="#9E9E9E"
		stroke="#9E9E9E"
		fill-opacity="0"
		stroke-opacity="0.5"
		fill-rule="nonzero"
		stroke-width="3.4414864"
		stroke-linejoin="miter"
		stroke-linecap="round"
		d="M431.22,825.27L473.77,886.27L412.77,928.82L370.22,867.82zM437.24,866.41C431.37,857.99,419.78,855.92,411.36,861.79C402.93,867.67,400.87,879.26,406.74,887.68C412.62,896.11,424.21,898.17,432.63,892.30C441.05,886.42,443.12,874.83,437.24,866.41z"/>
	<path
		fill="#9E9E9E"
		stroke="#9E9E9E"
		fill-opacity="0"
		stroke-opacity="0.5"
		fill-rule="nonzero"
		stroke-width="3.4414864"
		stroke-linejoin="miter"
		stroke-linecap="round"
		d="M400.54,846.67L443.30,907.52"/>
</svg>