<?xml version="1.0" encoding="utf-8"?>
<svg
	version="1.1"
	xmlns="http://www.w3.org/2000/svg"
	xmlns:xlink="http://www.w3.org/1999/xlink"
	x="0%" y="0%"
	width="100%" height="100%"
	viewBox="0 0 2560.0 1440.0"
	enable-background="new 0 0 2560.0 1440.0"
	xml:space="preserve">
	<path
		fill="#9F9F9F"
		stroke="#9F9F9F"
		fill-opacity="0.5"
		stroke-opacity="0.5"
		fill-rule="nonzero"
		stroke-width="0.21578182"
		stroke-linejoin="miter"
		stroke-linecap="round"
		d="M2198.39,1128.28C2196.91,1130.63,2193.80,1131.33,2191.45,1129.85C2189.09,1128.36,2188.39,1125.25,2189.87,1122.90C2191.36,1120.55,2194.47,1119.85,2196.82,1121.33C2199.17,1122.82,2199.88,1125.93,2198.39,1128.28z"/>
	<path
		fill="#000000"
		stroke="#9F9F9F"
		fill-opacity="0.000"
		stroke-opacity="0.5"
		fill-rule="nonzero"
		stroke-width="3"
		stroke-linejoin="miter"
		stroke-linecap="round"
		d="M2202.02,1046.49L2213.11,1095.53L2164.07,1106.62L2175.16,1155.65L2126.13,1166.74"/>
	<path
		fill="#000000"
		stroke="#9F9F9F"
		fill-opacity="0.000"
		stroke-opacity="0.5"
		fill-rule="nonzero"
		stroke-width="3"
		stroke-linejoin="miter"
		stroke-linecap="round"
		d="M2289.00,975.28L2300.09,1024.31L2251.05,1035.40L2262.14,1084.44L2213.11,1095.53L2224.20,1144.56L2175.16,1155.65L2186.25,1204.69L2137.22,1215.78"/>
	<path
		fill="#000000"
		stroke="#9F9F9F"
		fill-opacity="0.000"
		stroke-opacity="0.5"
		fill-rule="nonzero"
		stroke-width="3"
		stroke-linejoin="miter"
		stroke-linecap="round"
		d="M1459.14,220.89A42.51 42.51 269.14 1 1 1460.42,305.91A42.51 42.51 269.14 1 0 1448.97,311.34"/>
	<path
		fill="#000000"
		stroke="#9F9F9F"
		fill-opacity="0.000"
		stroke-opacity="0.5"
		fill-rule="nonzero"
		stroke-width="3"
		stroke-linejoin="miter"
		stroke-linecap="round"
		d="M1532.22,157.80A42.51 42.51 124.15 1 1 1484.48,228.16A42.51 42.51 124.15 1 0 1436.75,298.52A42.51 42.51 124.15 1 1 1389.02,368.88A42.51 42.51 124.15 1 0 1341.29,439.24"/>
	<path
		fill="#000000"
		stroke="#9F9F9F"
		fill-opacity="0.004"
		stroke-opacity="0.5"
		fill-rule="nonzero"
		stroke-width="3"
		stroke-linejoin="miter"
		stroke-linecap="round"
		d="M1707.58,1269.78L1731.74,1235.56L1765.96,1259.72L1741.80,1293.94z"/>
	<path
		fill="#000000"
		stroke="#9F9F9F"
		fill-opacity="0.000"
		stroke-opacity="0.5"
		fill-rule="nonzero"
		stroke-width="3"
		stroke-linejoin="miter"
		stroke-linecap="round"
		d="M1706.06,1226.83L1725.86,1198.79L1753.48,1218.29L1733.68,1246.33z"/>
	<path
		fill="#000000"
		stroke="#9F9F9F"
		fill-opacity="0.000"
		stroke-opacity="0.5"
		fill-rule="nonzero"
		stroke-width="3"
		stroke-linejoin="miter"
		stroke-linecap="round"
		d="M1790.64,1242.58L1753.28,1261.12L1782.55,1284.52L1790.64,1242.58z"/>
	<path
		fill="#000000"
		stroke="#9F9F9F"
		fill-opacity="0.000"
		stroke-opacity="0.5"
		fill-rule="nonzero"
		stroke-width="3"
		stroke-linejoin="miter"
		stroke-linecap="round"
		d="M2327.93,592.74L2348.80,543.40L2300.70,545.10L2327.93,592.74z"/>
	<path
		fill="#000000"
		stroke="#9F9F9F"
		fill-opacity="0.004"
		stroke-opacity="0.5"
		fill-rule="nonzero"
		stroke-width="3"
		stroke-linejoin="miter"
		stroke-linecap="round"
		d="M1447.43,646.43L1413.02,701.74L1357.71,667.34L1392.12,612.03z"/>
	<path
		fill="#000000"
		stroke="#9F9F9F"
		fill-opacity="0.000"
		stroke-opacity="0.5"
		fill-rule="nonzero"
		stroke-width="3"
		stroke-linejoin="miter"
		stroke-linecap="round"
		d="M1475.82,617.83L1447.62,663.16L1402.98,635.39L1431.18,590.06z"/>
	<path
		fill="#000000"
		stroke="#9F9F9F"
		fill-opacity="0.000"
		stroke-opacity="0.5"
		fill-rule="nonzero"
		stroke-width="3"
		stroke-linejoin="miter"
		stroke-linecap="round"
		d="M2331.16,543.68C2331.94,560.50,2318.95,574.77,2302.13,575.56C2285.31,576.34,2271.04,563.35,2270.25,546.53C2269.47,529.71,2282.46,515.44,2299.28,514.65C2316.10,513.87,2330.37,526.86,2331.16,543.68z"/>
	<path
		fill="#000000"
		stroke="#9F9F9F"
		fill-opacity="0.000"
		stroke-opacity="0.5"
		fill-rule="nonzero"
		stroke-width="3"
		stroke-linejoin="miter"
		stroke-linecap="round"
		d="M1683.13,305.32L1734.74,249.63"/>
	<path
		fill="#000000"
		stroke="#9F9F9F"
		fill-opacity="0.000"
		stroke-opacity="0.5"
		fill-rule="nonzero"
		stroke-width="3"
		stroke-linejoin="miter"
		stroke-linecap="round"
		d="M1700.89,323.09L1752.51,267.39"/>
	<path
		fill="#000000"
		stroke="#9F9F9F"
		fill-opacity="0.000"
		stroke-opacity="0.5"
		fill-rule="nonzero"
		stroke-width="3"
		stroke-linejoin="miter"
		stroke-linecap="round"
		d="M1718.66,340.85L1770.27,285.16"/>
	<path
		fill="#9F9F9F"
		stroke="#9F9F9F"
		fill-opacity="0.5"
		stroke-opacity="0.5"
		fill-rule="nonzero"
		stroke-width="0.22182152"
		stroke-linejoin="miter"
		stroke-linecap="round"
		d="M1473.41,1100.36C1470.77,1100.51,1468.52,1098.49,1468.37,1095.85C1468.22,1093.22,1470.24,1090.96,1472.88,1090.81C1475.51,1090.67,1477.77,1092.69,1477.92,1095.32C1478.06,1097.96,1476.05,1100.22,1473.41,1100.36z"/>
	<path
		fill="#9F9F9F"
		stroke="#9F9F9F"
		fill-opacity="0.5"
		stroke-opacity="0.5"
		fill-rule="nonzero"
		stroke-width="0.22182152"
		stroke-linejoin="miter"
		stroke-linecap="round"
		d="M1462.94,1091.00C1460.31,1091.15,1458.05,1089.13,1457.90,1086.49C1457.76,1083.86,1459.77,1081.60,1462.41,1081.45C1465.05,1081.30,1467.30,1083.32,1467.45,1085.96C1467.60,1088.60,1465.58,1090.85,1462.94,1091.00z"/>
	<path
		fill="#9F9F9F"
		stroke="#9F9F9F"
		fill-opacity="0.5"
		stroke-opacity="0.5"
		fill-rule="nonzero"
		stroke-width="0.22182152"
		stroke-linejoin="miter"
		stroke-linecap="round"
		d="M1452.48,1081.64C1449.84,1081.79,1447.58,1079.77,1447.44,1077.13C1447.29,1074.49,1449.31,1072.24,1451.95,1072.09C1454.58,1071.94,1456.84,1073.96,1456.99,1076.60C1457.13,1079.24,1455.11,1081.49,1452.48,1081.64z"/>
	<path
		fill="#9F9F9F"
		stroke="#9F9F9F"
		fill-opacity="0.5"
		stroke-opacity="0.5"
		fill-rule="nonzero"
		stroke-width="0.22182152"
		stroke-linejoin="miter"
		stroke-linecap="round"
		d="M1442.01,1072.28C1439.37,1072.42,1437.12,1070.40,1436.97,1067.77C1436.82,1065.13,1438.84,1062.87,1441.48,1062.73C1444.12,1062.58,1446.37,1064.60,1446.52,1067.24C1446.67,1069.87,1444.65,1072.13,1442.01,1072.28z"/>
	<path
		fill="#9F9F9F"
		stroke="#9F9F9F"
		fill-opacity="0.5"
		stroke-opacity="0.5"
		fill-rule="nonzero"
		stroke-width="0.22182152"
		stroke-linejoin="miter"
		stroke-linecap="round"
		d="M1431.54,1062.91C1428.91,1063.06,1426.65,1061.04,1426.50,1058.40C1426.36,1055.77,1428.38,1053.51,1431.01,1053.36C1433.65,1053.22,1435.91,1055.24,1436.05,1057.87C1436.20,1060.51,1434.18,1062.77,1431.54,1062.91z"/>
	<path
		fill="#9F9F9F"
		stroke="#9F9F9F"
		fill-opacity="0.5"
		stroke-opacity="0.5"
		fill-rule="nonzero"
		stroke-width="0.22182152"
		stroke-linejoin="miter"
		stroke-linecap="round"
		d="M1420.98,1053.46C1418.35,1053.61,1416.09,1051.59,1415.94,1048.96C1415.80,1046.32,1417.81,1044.06,1420.45,1043.92C1423.09,1043.77,1425.35,1045.79,1425.49,1048.42C1425.64,1051.06,1423.62,1053.32,1420.98,1053.46z"/>
	<path
		fill="#9F9F9F"
		stroke="#9F9F9F"
		fill-opacity="0.5"
		stroke-opacity="0.5"
		fill-rule="nonzero"
		stroke-width="0.22182152"
		stroke-linejoin="miter"
		stroke-linecap="round"
		d="M1410.42,1044.02C1407.78,1044.16,1405.53,1042.14,1405.38,1039.51C1405.23,1036.87,1407.25,1034.61,1409.89,1034.47C1412.53,1034.32,1414.78,1036.34,1414.93,1038.98C1415.08,1041.61,1413.06,1043.87,1410.42,1044.02z"/>
	<path
		fill="#9F9F9F"
		stroke="#9F9F9F"
		fill-opacity="0.5"
		stroke-opacity="0.5"
		fill-rule="nonzero"
		stroke-width="0.22182152"
		stroke-linejoin="miter"
		stroke-linecap="round"
		d="M1400.91,1035.51C1398.28,1035.66,1396.02,1033.64,1395.87,1031.00C1395.72,1028.36,1397.74,1026.11,1400.38,1025.96C1403.02,1025.81,1405.27,1027.83,1405.42,1030.47C1405.57,1033.11,1403.55,1035.36,1400.91,1035.51z"/>
	<path
		fill="#9F9F9F"
		stroke="#9F9F9F"
		fill-opacity="0.5"
		stroke-opacity="0.5"
		fill-rule="nonzero"
		stroke-width="0.22182152"
		stroke-linejoin="miter"
		stroke-linecap="round"
		d="M1487.55,1084.55C1484.92,1084.70,1482.66,1082.68,1482.51,1080.04C1482.37,1077.41,1484.38,1075.15,1487.02,1075.00C1489.66,1074.86,1491.92,1076.88,1492.06,1079.51C1492.21,1082.15,1490.19,1084.41,1487.55,1084.55z"/>
	<path
		fill="#9F9F9F"
		stroke="#9F9F9F"
		fill-opacity="0.5"
		stroke-opacity="0.5"
		fill-rule="nonzero"
		stroke-width="0.22182152"
		stroke-linejoin="miter"
		stroke-linecap="round"
		d="M1477.09,1075.19C1474.45,1075.34,1472.19,1073.32,1472.05,1070.68C1471.90,1068.04,1473.92,1065.79,1476.56,1065.64C1479.19,1065.49,1481.45,1067.51,1481.60,1070.15C1481.74,1072.79,1479.72,1075.04,1477.09,1075.19z"/>
	<path
		fill="#9F9F9F"
		stroke="#9F9F9F"
		fill-opacity="0.5"
		stroke-opacity="0.5"
		fill-rule="nonzero"
		stroke-width="0.22182152"
		stroke-linejoin="miter"
		stroke-linecap="round"
		d="M1466.62,1065.83C1463.98,1065.97,1461.73,1063.96,1461.58,1061.32C1461.43,1058.68,1463.45,1056.43,1466.09,1056.28C1468.73,1056.13,1470.98,1058.15,1471.13,1060.79C1471.28,1063.42,1469.26,1065.68,1466.62,1065.83z"/>
	<path
		fill="#9F9F9F"
		stroke="#9F9F9F"
		fill-opacity="0.5"
		stroke-opacity="0.5"
		fill-rule="nonzero"
		stroke-width="0.22182152"
		stroke-linejoin="miter"
		stroke-linecap="round"
		d="M1456.15,1056.47C1453.52,1056.61,1451.26,1054.59,1451.11,1051.96C1450.97,1049.32,1452.99,1047.06,1455.62,1046.92C1458.26,1046.77,1460.52,1048.79,1460.66,1051.42C1460.81,1054.06,1458.79,1056.32,1456.15,1056.47z"/>
	<path
		fill="#9F9F9F"
		stroke="#9F9F9F"
		fill-opacity="0.5"
		stroke-opacity="0.5"
		fill-rule="nonzero"
		stroke-width="0.22182152"
		stroke-linejoin="miter"
		stroke-linecap="round"
		d="M1445.69,1047.10C1443.05,1047.25,1440.79,1045.23,1440.65,1042.59C1440.50,1039.96,1442.52,1037.70,1445.16,1037.55C1447.79,1037.41,1450.05,1039.42,1450.20,1042.06C1450.34,1044.70,1448.33,1046.96,1445.69,1047.10z"/>
	<path
		fill="#9F9F9F"
		stroke="#9F9F9F"
		fill-opacity="0.5"
		stroke-opacity="0.5"
		fill-rule="nonzero"
		stroke-width="0.22182152"
		stroke-linejoin="miter"
		stroke-linecap="round"
		d="M1435.13,1037.65C1432.49,1037.80,1430.23,1035.78,1430.09,1033.15C1429.94,1030.51,1431.96,1028.25,1434.60,1028.10C1437.23,1027.96,1439.49,1029.98,1439.64,1032.61C1439.78,1035.25,1437.76,1037.51,1435.13,1037.65z"/>
	<path
		fill="#9F9F9F"
		stroke="#9F9F9F"
		fill-opacity="0.5"
		stroke-opacity="0.5"
		fill-rule="nonzero"
		stroke-width="0.22182152"
		stroke-linejoin="miter"
		stroke-linecap="round"
		d="M1424.56,1028.21C1421.93,1028.35,1419.67,1026.33,1419.52,1023.70C1419.38,1021.06,1421.40,1018.80,1424.03,1018.66C1426.67,1018.51,1428.93,1020.53,1429.07,1023.17C1429.22,1025.80,1427.20,1028.06,1424.56,1028.21z"/>
	<path
		fill="#9F9F9F"
		stroke="#9F9F9F"
		fill-opacity="0.5"
		stroke-opacity="0.5"
		fill-rule="nonzero"
		stroke-width="0.22182152"
		stroke-linejoin="miter"
		stroke-linecap="round"
		d="M1415.06,1019.70C1412.42,1019.85,1410.16,1017.83,1410.02,1015.19C1409.87,1012.55,1411.89,1010.30,1414.52,1010.15C1417.16,1010.00,1419.42,1012.02,1419.57,1014.66C1419.71,1017.30,1417.69,1019.55,1415.06,1019.70z"/>
	<path
		fill="#9F9F9F"
		stroke="#9F9F9F"
		fill-opacity="0.5"
		stroke-opacity="0.5"
		fill-rule="nonzero"
		stroke-width="0.22182152"
		stroke-linejoin="miter"
		stroke-linecap="round"
		d="M1501.70,1068.74C1499.06,1068.89,1496.80,1066.87,1496.66,1064.23C1496.51,1061.60,1498.53,1059.34,1501.17,1059.19C1503.80,1059.05,1506.06,1061.06,1506.21,1063.70C1506.35,1066.34,1504.33,1068.60,1501.70,1068.74z"/>
	<path
		fill="#9F9F9F"
		stroke="#9F9F9F"
		fill-opacity="0.5"
		stroke-opacity="0.5"
		fill-rule="nonzero"
		stroke-width="0.22182152"
		stroke-linejoin="miter"
		stroke-linecap="round"
		d="M1491.23,1059.38C1488.59,1059.53,1486.34,1057.51,1486.19,1054.87C1486.04,1052.23,1488.06,1049.98,1490.70,1049.83C1493.34,1049.68,1495.59,1051.70,1495.74,1054.34C1495.89,1056.98,1493.87,1059.23,1491.23,1059.38z"/>
	<path
		fill="#9F9F9F"
		stroke="#9F9F9F"
		fill-opacity="0.5"
		stroke-opacity="0.5"
		fill-rule="nonzero"
		stroke-width="0.22182152"
		stroke-linejoin="miter"
		stroke-linecap="round"
		d="M1480.76,1050.02C1478.13,1050.16,1475.87,1048.15,1475.72,1045.51C1475.58,1042.87,1477.60,1040.61,1480.23,1040.47C1482.87,1040.32,1485.13,1042.34,1485.27,1044.98C1485.42,1047.61,1483.40,1049.87,1480.76,1050.02z"/>
	<path
		fill="#9F9F9F"
		stroke="#9F9F9F"
		fill-opacity="0.5"
		stroke-opacity="0.5"
		fill-rule="nonzero"
		stroke-width="0.22182152"
		stroke-linejoin="miter"
		stroke-linecap="round"
		d="M1470.30,1040.65C1467.66,1040.80,1465.40,1038.78,1465.26,1036.15C1465.11,1033.51,1467.13,1031.25,1469.77,1031.10C1472.40,1030.96,1474.66,1032.98,1474.81,1035.61C1474.95,1038.25,1472.94,1040.51,1470.30,1040.65z"/>
	<path
		fill="#9F9F9F"
		stroke="#9F9F9F"
		fill-opacity="0.5"
		stroke-opacity="0.5"
		fill-rule="nonzero"
		stroke-width="0.22182152"
		stroke-linejoin="miter"
		stroke-linecap="round"
		d="M1459.83,1031.29C1457.19,1031.44,1454.94,1029.42,1454.79,1026.78C1454.64,1024.15,1456.66,1021.89,1459.30,1021.74C1461.94,1021.60,1464.19,1023.61,1464.34,1026.25C1464.49,1028.89,1462.47,1031.14,1459.83,1031.29z"/>
	<path
		fill="#9F9F9F"
		stroke="#9F9F9F"
		fill-opacity="0.5"
		stroke-opacity="0.5"
		fill-rule="nonzero"
		stroke-width="0.22182152"
		stroke-linejoin="miter"
		stroke-linecap="round"
		d="M1449.27,1021.84C1446.63,1021.99,1444.38,1019.97,1444.23,1017.33C1444.08,1014.70,1446.10,1012.44,1448.74,1012.29C1451.38,1012.15,1453.63,1014.17,1453.78,1016.80C1453.93,1019.44,1451.91,1021.70,1449.27,1021.84z"/>
	<path
		fill="#9F9F9F"
		stroke="#9F9F9F"
		fill-opacity="0.5"
		stroke-opacity="0.5"
		fill-rule="nonzero"
		stroke-width="0.22182152"
		stroke-linejoin="miter"
		stroke-linecap="round"
		d="M1438.71,1012.40C1436.07,1012.54,1433.81,1010.52,1433.67,1007.89C1433.52,1005.25,1435.54,1002.99,1438.18,1002.85C1440.81,1002.70,1443.07,1004.72,1443.22,1007.35C1443.36,1009.99,1441.35,1012.25,1438.71,1012.40z"/>
	<path
		fill="#9F9F9F"
		stroke="#9F9F9F"
		fill-opacity="0.5"
		stroke-opacity="0.5"
		fill-rule="nonzero"
		stroke-width="0.22182152"
		stroke-linejoin="miter"
		stroke-linecap="round"
		d="M1429.20,1003.89C1426.56,1004.04,1424.31,1002.02,1424.16,999.38C1424.01,996.74,1426.03,994.49,1428.67,994.34C1431.31,994.19,1433.56,996.21,1433.71,998.85C1433.86,1001.49,1431.84,1003.74,1429.20,1003.89z"/>
	<path
		fill="#FFFFFF"
		stroke="#9F9F9F"
		fill-opacity="0.000"
		stroke-opacity="0.5"
		fill-rule="nonzero"
		stroke-width="3"
		stroke-linejoin="miter"
		stroke-linecap="round"
		d="M1990.75,163.76L2038.18,184.49A8.63 8.63 0 0 1 2042.63,195.85L2021.90,243.29A8.63 8.63 0 0 1 2010.54,247.74L1963.10,227.00A8.63 8.63 0 0 1 1958.65,215.64L1979.38,168.21A8.63 8.63 0 0 1 1990.75,163.76z"/>
	<path
		fill="#FFFFFF"
		stroke="#9F9F9F"
		fill-opacity="0.000"
		stroke-opacity="0.5"
		fill-rule="nonzero"
		stroke-width="3"
		stroke-linejoin="miter"
		stroke-linecap="round"
		d="M2032.74,153.86L2080.17,174.59A8.63 8.63 0 0 1 2084.62,185.96L2063.89,233.39A8.63 8.63 0 0 1 2052.53,237.84L2005.09,217.11A8.63 8.63 0 0 1 2000.64,205.75L2021.37,158.31A8.63 8.63 0 0 1 2032.74,153.86z"/>
	<path
		fill="#FFFFFF"
		stroke="#9F9F9F"
		fill-opacity="0.000"
		stroke-opacity="0.5"
		fill-rule="nonzero"
		stroke-width="3"
		stroke-linejoin="miter"
		stroke-linecap="round"
		d="M2058.32,216.47L2105.76,237.20A8.63 8.63 0 0 1 2110.21,248.56L2089.47,296.00A8.63 8.63 0 0 1 2078.11,300.45L2030.68,279.72A8.63 8.63 0 0 1 2026.23,268.36L2046.96,220.92A8.63 8.63 0 0 1 2058.32,216.47z"/>
	<path
		fill="#9F9F9F"
		stroke="#9F9F9F"
		fill-opacity="0.5"
		stroke-opacity="0.5"
		fill-rule="nonzero"
		stroke-width="0.037708536"
		stroke-linejoin="miter"
		stroke-linecap="round"
		d="M1954.92,231.49C1958.08,230.20,1961.68,231.71,1962.97,234.87C1964.26,238.02,1962.75,241.63,1959.59,242.92C1956.44,244.21,1952.84,242.69,1951.55,239.54C1950.26,236.38,1951.77,232.78,1954.92,231.49z"/>
	<path
		fill="#9F9F9F"
		stroke="#9F9F9F"
		fill-opacity="0.5"
		stroke-opacity="0.5"
		fill-rule="nonzero"
		stroke-width="0.037708536"
		stroke-linejoin="miter"
		stroke-linecap="round"
		d="M1967.06,236.59C1970.21,235.30,1973.82,236.81,1975.11,239.96C1976.40,243.12,1974.88,246.72,1971.73,248.01C1968.57,249.30,1964.97,247.79,1963.68,244.63C1962.39,241.48,1963.90,237.87,1967.06,236.59z"/>
	<path
		fill="#9F9F9F"
		stroke="#9F9F9F"
		fill-opacity="0.5"
		stroke-opacity="0.5"
		fill-rule="nonzero"
		stroke-width="0.037708536"
		stroke-linejoin="miter"
		stroke-linecap="round"
		d="M1979.19,241.68C1982.35,240.39,1985.95,241.90,1987.24,245.06C1988.53,248.21,1987.02,251.81,1983.86,253.10C1980.71,254.39,1977.10,252.88,1975.81,249.73C1974.53,246.57,1976.04,242.97,1979.19,241.68z"/>
	<path
		fill="#9F9F9F"
		stroke="#9F9F9F"
		fill-opacity="0.5"
		stroke-opacity="0.5"
		fill-rule="nonzero"
		stroke-width="0.037708536"
		stroke-linejoin="miter"
		stroke-linecap="round"
		d="M1991.33,246.77C1994.48,245.48,1998.09,247.00,1999.38,250.15C2000.66,253.31,1999.15,256.91,1996.00,258.20C1992.84,259.49,1989.24,257.98,1987.95,254.82C1986.66,251.66,1988.17,248.06,1991.33,246.77z"/>
	<path
		fill="#9F9F9F"
		stroke="#9F9F9F"
		fill-opacity="0.5"
		stroke-opacity="0.5"
		fill-rule="nonzero"
		stroke-width="0.037708536"
		stroke-linejoin="miter"
		stroke-linecap="round"
		d="M2003.46,251.87C2006.62,250.58,2010.22,252.09,2011.51,255.24C2012.80,258.40,2011.29,262.00,2008.13,263.29C2004.98,264.58,2001.37,263.07,2000.08,259.91C1998.79,256.76,2000.31,253.16,2003.46,251.87z"/>
	<path
		fill="#9E9E9E"
		stroke="#9E9E9E"
		fill-opacity="0.000"
		stroke-opacity="0.5"
		fill-rule="nonzero"
		stroke-width="3"
		stroke-linejoin="miter"
		stroke-linecap="round"
		d="M1512.50,170.70C1525.65,170.70,1536.31,181.36,1536.31,194.51C1536.31,207.66,1525.65,218.32,1512.50,218.32C1499.35,218.32,1488.69,207.66,1488.69,194.51C1488.69,181.36,1499.35,170.70,1512.50,170.70z"/>
</svg>